<svg xmlns="http://www.w3.org/2000/svg" xmlns:xlink="http://www.w3.org/1999/xlink" width="11" height="11"><defs><path d="M6.98 0H7l.01.01h.03v.01h.02v.01h.01v.01h.02v.01h.01v.01h.01v.02h.01v.01h.01v.02h.01v.03l.01.01V3.85H10.85l.01.01h.03v.01h.02v.01h.01v.01h.02v.01h.01v.01h.01v.02h.01v.01h.01v.02h.01v.03L11 4V7l-.01.01v.03h-.01v.02h-.01v.01h-.01v.02h-.01v.01h-.01v.01h-.02v.01h-.01v.01h-.02v.01h-.03l-.01.01H7.15V10.85l-.01.01v.03h-.01v.02h-.01v.01h-.01v.02H7.1v.01h-.01v.01h-.02v.01h-.01v.01h-.02v.01h-.03L7 11H4l-.01-.01h-.03v-.01h-.02v-.01h-.01v-.01h-.02v-.01H3.9v-.01h-.01v-.02h-.01v-.01h-.01v-.02h-.01v-.03l-.01-.01V7.15H.15l-.01-.01H.11v-.01H.09v-.01H.08v-.01H.06V7.1H.05v-.01H.04v-.02H.03v-.01H.02v-.02H.01v-.03L0 7V4l.01-.01v-.03h.01v-.02h.01v-.01h.01v-.02h.01V3.9h.01v-.01h.02v-.01h.01v-.01h.02v-.01h.03l.01-.01H3.85V.15l.01-.01V.11h.01V.09h.01V.08h.01V.06h.01V.05h.01V.04h.02V.03h.01V.02h.02V.01h.03L4 0H6.98z" id="a"/><path d="M224.34 246.93h140.3v28.25h-140.3v-28.25z" id="b"/></defs><use xlink:href="#a" fill="#cacaca"/><use xlink:href="#b" fill="#cacaca"/></svg>