<svg xmlns="http://www.w3.org/2000/svg" viewBox="0 0 410.871 410.871"><path fill-rule="evenodd" clip-rule="evenodd" fill="#C69" d="M205.436 0c113.458 0 205.435 91.977 205.435 205.436s-91.977 205.436-205.435 205.436C91.977 410.871 0 318.895 0 205.436S91.977 0 205.436 0z"/><path fill="#FFF" d="M334.299 87.929c-9.303-36.486-69.801-48.48-127.059-28.139-34.075 12.106-70.964 31.106-97.488 55.916-31.537 29.497-36.566 55.172-34.493 65.9 7.312 37.854 59.18 62.597 80.501 80.955v.111c-6.287 3.095-52.303 26.383-63.073 50.191-11.363 25.117 1.809 43.141 10.529 45.566 27.019 7.518 54.745-6.004 69.645-28.229 14.378-21.448 13.182-49.145 6.933-62.921 8.619-2.274 18.669-3.293 31.44-1.802 36.037 4.209 43.107 26.711 41.756 36.127-1.352 9.418-8.91 14.596-11.438 16.158-2.527 1.564-3.299 2.105-3.086 3.268.307 1.689 1.477 1.627 3.631 1.262 2.967-.5 18.924-7.66 19.605-25.043.869-22.07-20.281-46.758-57.73-46.113-15.423.267-25.121 1.733-32.126 4.34a71.867 71.867 0 0 0-1.59-1.758c-23.152-24.701-65.951-42.174-64.136-75.38.66-12.072 4.856-43.861 82.239-82.421 63.39-31.587 114.136-22.895 122.906-3.631 12.527 27.521-27.121 78.673-92.951 86.052-25.081 2.812-38.288-6.909-41.573-10.529-3.459-3.812-3.974-3.983-5.265-3.268-2.103 1.165-.77 4.53 0 6.536 1.966 5.115 10.031 14.186 23.782 18.699 12.097 3.97 41.544 6.15 77.157-7.624 39.886-15.43 71.032-58.348 61.884-94.223zm-169.69 185.938c2.988 11.056 2.661 21.366-.427 30.703a50.312 50.312 0 0 1-2.461 6.078c-2.381 4.94-5.576 9.564-9.488 13.832-11.937 13.022-28.613 17.945-35.764 13.797-7.722-4.477-3.854-22.836 9.985-37.465 14.888-15.738 36.309-25.857 36.309-25.857l-.032-.065c.616-.331 1.243-.673 1.878-1.023z"/></svg>