<svg xmlns="http://www.w3.org/2000/svg" viewBox="0 0 512 512"><path d="M221.795 131.128c-18.566 0-33.67 15.105-33.67 33.67s15.105 33.67 33.67 33.67 33.67-15.103 33.67-33.67c.001-18.565-15.104-33.67-33.67-33.67zm0 51.307c-9.725 0-17.637-7.912-17.637-17.637 0-9.725 7.912-17.637 17.637-17.637s17.637 7.912 17.637 17.637c0 9.725-7.912 17.637-17.637 17.637zM127.733 131.128c-18.566 0-33.67 15.105-33.67 33.67s15.105 33.67 33.67 33.67 33.67-15.103 33.67-33.67c0-18.565-15.105-33.67-33.67-33.67zm0 51.307c-9.725 0-17.637-7.912-17.637-17.637 0-9.725 7.912-17.637 17.637-17.637s17.637 7.912 17.637 17.637c0 9.725-7.912 17.637-17.637 17.637z"/><path d="M512 327.27c0-40.141-17.926-77.462-50.476-105.085a8.017 8.017 0 0 0-10.374 12.225c28.901 24.528 44.818 57.505 44.818 92.86 0 38.173-19.04 74.162-52.24 98.736a8.017 8.017 0 0 0-3.056 8.182l8.685 39.081-41.19-24.715a8.022 8.022 0 0 0-6.657-.732c-16.44 5.474-33.748 8.25-51.446 8.25-80.451 0-145.904-57.78-145.904-128.802s65.453-128.802 145.904-128.802c26.433 0 52.322 6.306 74.871 18.239a8.018 8.018 0 0 0 7.499-14.171c-24.85-13.149-53.333-20.101-82.37-20.101-.355 0-.707.01-1.06.012.336-3.973.526-7.968.526-11.948 0-86.15-78.399-156.237-174.764-156.237S0 84.35 0 170.499c0 17.931 3.369 35.515 10.014 52.265 1.695 4.275 6.813 6.263 10.956 4.255 3.726-1.806 5.474-6.32 3.947-10.167-5.896-14.86-8.885-30.455-8.885-46.353 0-77.309 71.206-140.204 158.731-140.204S333.495 93.19 333.495 170.499c0 4.253-.223 8.526-.654 12.756-74.909 7.116-134.723 60.097-143.574 126.857-4.808.385-9.674.59-14.503.59-28.915 0-57.224-6.945-81.868-20.082a8.015 8.015 0 0 0-7.544.001l-36.721 19.584 12.973-34.595a8.014 8.014 0 0 0-2.042-8.68c-7.636-7.114-14.442-14.95-20.231-23.292a8.018 8.018 0 0 0-13.173 9.142c5.437 7.835 11.673 15.262 18.583 22.135l-18.577 49.541c-2.533 6.754 4.885 13.3 11.279 9.888l51.738-27.593c26.037 13.088 55.529 19.986 85.583 19.986 4.449 0 8.93-.155 13.375-.455-.002.33-.014.658-.014.99 0 79.862 72.644 144.835 161.937 144.835 18.158 0 35.958-2.667 52.969-7.933l54.071 32.445c5.928 3.552 13.443-1.897 11.95-8.614l-11.622-52.3C492.178 408.183 512 368.94 512 327.27z"/><path d="M298.756 293.6c-18.566 0-33.67 15.105-33.67 33.67s15.105 33.67 33.67 33.67 33.67-15.105 33.67-33.67-15.105-33.67-33.67-33.67zm0 51.307c-9.725 0-17.637-7.912-17.637-17.637s7.912-17.637 17.637-17.637 17.637 7.913 17.637 17.637c0 9.725-7.912 17.637-17.637 17.637zM401.37 293.6c-18.566 0-33.67 15.105-33.67 33.67s15.105 33.67 33.67 33.67c18.566 0 33.67-15.105 33.67-33.67s-15.105-33.67-33.67-33.67zm0 51.307c-9.725 0-17.637-7.912-17.637-17.637s7.912-17.637 17.637-17.637 17.637 7.912 17.637 17.637-7.913 17.637-17.637 17.637z"/></svg>