<svg xmlns="http://www.w3.org/2000/svg" viewBox="0 0 512 512">
  <path d="M487.896 3.5A10.654 10.654 0 0 0 480 0H32c-3.01 0-5.875 1.271-7.896 3.5a10.635 10.635 0 0 0-2.719 8.198l42.667 437.333a10.64 10.64 0 0 0 7.604 9.198l181.333 53.333a10.565 10.565 0 0 0 6.02 0l181.333-53.333a10.638 10.638 0 0 0 7.604-9.198l42.667-437.333a10.626 10.626 0 0 0-2.717-8.198z" fill="#303c42"/>
  <path fill="#ffa726" d="M427.417 439.802L256 490.219 84.583 439.802 43.76 21.333h424.48z"/>
  <path opacity=".2" fill="#fff" d="M64 21.333H43.76l40.823 418.469L256 490.219l-155.07-50.417z"/>
  <path opacity=".1" d="M448 21.333l-36.93 418.469L256 490.219l171.417-50.417L468.24 21.333z"/>
  <path d="M142.708 277.333h150.521l-4.646 47.646L256 334.563l-32.583-9.583-2.667-27.344a10.663 10.663 0 0 0-10.615-9.635h-64.302c-3.01 0-5.875 1.271-7.896 3.5a10.635 10.635 0 0 0-2.719 8.198l8.167 83.719a10.64 10.64 0 0 0 7.604 9.198l102 30a10.565 10.565 0 0 0 6.02 0l102-30a10.638 10.638 0 0 0 7.604-9.198l16.49-169.052a10.631 10.631 0 0 0-2.719-8.198 10.652 10.652 0 0 0-7.896-3.5h-163l-3.125-32h171.333c5.49 0 10.083-4.167 10.615-9.635l6.24-64a10.669 10.669 0 0 0-10.615-11.698H126.063c-3.01 0-5.875 1.271-7.896 3.5a10.635 10.635 0 0 0-2.719 8.198L132.094 267.7a10.663 10.663 0 0 0 10.614 9.633z" fill="#303c42"/>
  <path d="M374.177 106.667l-4.156 42.667H196.604c-3.01 0-5.875 1.271-7.896 3.5a10.645 10.645 0 0 0-2.719 8.208l5.208 53.333c.531 5.458 5.125 9.625 10.615 9.625h160.917l-14.646 150.188L256 401.271l-92.083-27.083-6.323-64.854h42.865l2.427 24.875a10.64 10.64 0 0 0 7.604 9.198l42.5 12.5c1.958.583 4.063.583 6.021 0l42.5-12.5a10.638 10.638 0 0 0 7.604-9.198l6.49-66.51a10.631 10.631 0 0 0-2.719-8.198 10.652 10.652 0 0 0-7.896-3.5H152.385l-14.563-149.333h236.355z" fill="#fff"/>
  <linearGradient id="a" gradientUnits="userSpaceOnUse" x1="-39.89" y1="628.281" x2="-39.878" y2="628.269" gradientTransform="matrix(21.3333 0 0 -21.3333 996.333 13791.667)">
    <stop offset="0" stop-opacity=".1"/>
    <stop offset="1" stop-opacity="0"/>
  </linearGradient>
  <path d="M145.415 388.311l-.121.073.259.259c-.07-.096-.069-.233-.138-.332z" fill="url(#a)"/>
  <linearGradient id="b" gradientUnits="userSpaceOnUse" x1="-38.437" y1="635.353" x2="-33.756" y2="630.671" gradientTransform="matrix(21.3333 0 0 -21.3333 996.333 13791.667)">
    <stop offset="0" stop-opacity=".1"/>
    <stop offset="1" stop-opacity="0"/>
  </linearGradient>
  <path d="M220.75 297.635l2.667 27.344L256 334.563l32.583-9.583 4.646-47.646H142.708c-1.786 0-3.397-.565-4.885-1.349L149.839 288h60.297a10.664 10.664 0 0 1 10.614 9.635z" fill="url(#b)"/>
  <linearGradient id="c" gradientUnits="userSpaceOnUse" x1="-37.094" y1="638.327" x2="-25.652" y2="626.884" gradientTransform="matrix(21.3333 0 0 -21.3333 996.333 13791.667)">
    <stop offset="0" stop-opacity=".1"/>
    <stop offset="1" stop-opacity="0"/>
  </linearGradient>
  <path d="M393.833 88.833a10.673 10.673 0 0 1 2.719 8.198l-6.24 64a10.663 10.663 0 0 1-10.615 9.635H208.365l3.125 32h163c3.01 0 5.875 1.271 7.896 3.5a10.635 10.635 0 0 1 2.719 8.198l-16.49 169.052a10.64 10.64 0 0 1-7.604 9.198l-102 30a10.565 10.565 0 0 1-6.02 0l-102-30c-1.717-.501-3.063-1.621-4.286-2.822l96.729 96.729L256 490.219l171.417-50.417 28.21-289.176-61.794-61.793z" fill="url(#c)"/>
  <linearGradient id="d" gradientUnits="userSpaceOnUse" x1="-47.528" y1="642.181" x2="-23.163" y2="630.819" gradientTransform="matrix(21.3333 0 0 -21.3333 996.333 13791.667)">
    <stop offset="0" stop-color="#fff" stop-opacity=".2"/>
    <stop offset="1" stop-color="#fff" stop-opacity="0"/>
  </linearGradient>
  <path d="M487.896 3.5A10.654 10.654 0 0 0 480 0H32c-3.01 0-5.875 1.271-7.896 3.5a10.635 10.635 0 0 0-2.719 8.198l42.667 437.333a10.64 10.64 0 0 0 7.604 9.198l181.333 53.333a10.565 10.565 0 0 0 6.02 0l181.333-53.333a10.638 10.638 0 0 0 7.604-9.198l42.667-437.333a10.626 10.626 0 0 0-2.717-8.198z" fill="url(#d)"/>
</svg>
