<svg xmlns="http://www.w3.org/2000/svg" viewBox="0 0 512 512"><path d="M437.019 74.981C388.667 26.629 324.38 0 256 0S123.333 26.629 74.981 74.981C26.629 123.333 0 187.62 0 256c0 51.582 15.212 101.126 44.038 143.582L.648 500.825c-2.843 6.632 4.272 13.513 10.815 10.396l96.843-46.115C151.658 495.802 202.618 512 256 512c68.38 0 132.667-26.628 181.019-74.981C485.372 388.668 512 324.38 512 256s-26.628-132.667-74.981-181.019zM256 495.967c-51.553 0-100.69-16.112-142.1-46.596-2.356-1.735-5.558-2.039-8.199-.781l-81.945 39.02 36.766-85.784a8.013 8.013 0 0 0-.816-7.775C31.135 353.5 16.033 305.764 16.033 256 16.033 123.682 123.682 16.033 256 16.033S495.967 123.682 495.967 256 388.318 495.967 256 495.967z"/><path d="M397.05 96.066a8.017 8.017 0 0 0-10.61 12.021c42.433 37.451 66.771 91.363 66.771 147.913 0 108.743-88.469 197.211-197.211 197.211-108.743 0-197.211-88.468-197.211-197.211S147.257 58.789 256 58.789c34.673 0 68.768 9.122 98.6 26.379 3.833 2.218 8.737.907 10.954-2.926s.908-8.736-2.924-10.954C330.359 52.623 293.487 42.756 256 42.756c-117.584 0-213.244 95.66-213.244 213.244S138.416 469.244 256 469.244 469.244 373.584 469.244 256c0-61.148-26.314-119.441-72.194-159.934z"/><path d="M392.149 342.917l-7.689-41.647a8.019 8.019 0 0 0-6.311-6.406l-60.465-12.092a8.029 8.029 0 0 0-7.241 2.194l-24.826 24.827c-41.844-18.678-64.966-41.848-85.333-85.484l24.751-24.751a8.016 8.016 0 0 0 2.192-7.241l-12.092-60.466a8.019 8.019 0 0 0-6.406-6.312l-41.647-7.689a8.01 8.01 0 0 0-3.231.066 59.162 59.162 0 0 0-28.756 15.884c-13.703 13.703-18.937 33.724-15.134 57.897 3.465 22.03 10.454 45.99 19.678 67.467a8.015 8.015 0 0 0 10.53 4.202 8.017 8.017 0 0 0 4.202-10.53c-8.713-20.284-15.308-42.883-18.572-63.631-3.015-19.171.562-33.997 10.633-44.068a43.14 43.14 0 0 1 19.436-11.207l34.612 6.39 10.187 50.934-25.652 25.652a8.014 8.014 0 0 0-1.651 8.937c23.32 52.224 50.677 79.559 100.937 100.858a8.02 8.02 0 0 0 8.797-1.713l25.651-25.652 50.933 10.187 6.391 34.612a43.16 43.16 0 0 1-11.206 19.436c-10.072 10.07-24.901 13.648-44.069 10.632-38.321-6.029-91.477-24.633-125.737-58.757l-.492-.493c-9.305-9.341-17.968-20.672-25.75-33.68a8.016 8.016 0 0 0-10.995-2.764 8.016 8.016 0 0 0-2.764 10.995c8.451 14.128 17.921 26.497 28.178 36.797l.496.494c36.988 36.842 93.768 56.828 134.571 63.246 16.27 2.56 33.749 1.36 48.085-7.402a52.89 52.89 0 0 0 9.812-7.731 59.155 59.155 0 0 0 15.883-28.758 8.039 8.039 0 0 0 .064-3.233z"/></svg>