<svg xmlns="http://www.w3.org/2000/svg" viewBox="0 0 512 512"><path d="M432.557 68.936a8.018 8.018 0 0 0-11.03 11.64c42.505 40.278 65.914 93.477 65.914 149.796 0 118.186-103.825 214.337-231.441 214.337-21.428 0-42.659-2.714-63.101-8.067a8.016 8.016 0 0 0-7.535 1.927l-49.628 46.87v-67.288a8.014 8.014 0 0 0-3.943-6.904C64.647 371.611 24.559 303.995 24.559 230.372 24.559 112.186 128.383 16.035 256 16.035c47.712 0 93.521 13.337 132.476 38.568a8.018 8.018 0 1 0 8.717-13.459C355.637 14.227 306.813 0 256 0 190.008 0 127.938 23.89 81.222 67.269 34.342 110.8 8.524 168.724 8.524 230.372c0 39.565 10.956 78.593 31.685 112.863 19.277 31.873 46.699 59.261 79.492 79.445v81.359c0 6.871 8.505 10.567 13.523 5.829l59.949-56.618c20.426 4.974 41.538 7.495 62.827 7.495 65.992 0 128.062-23.89 174.779-67.269 46.879-43.531 72.697-101.456 72.697-163.103 0-60.768-25.186-118.1-70.919-161.437z"/><path d="M442.111 165.838c-2.14-2.988-6.168-4.146-9.568-2.744l-140.792 57.973-64.677-56.594a8.018 8.018 0 0 0-11.272.708l-22.805 25.656c-2.902 3.265-2.6 8.416.666 11.319 3.265 2.902 8.417 2.6 11.319-.666l17.521-19.71 62.429 54.627a8.021 8.021 0 0 0 8.332 1.38l110.888-45.659-114.473 121.2-62.608-54.783a8.015 8.015 0 0 0-8.493-1.312l-103.337 45.211 61.231-68.885a8.016 8.016 0 0 0-.666-11.318 8.017 8.017 0 0 0-11.319.666l-85.521 96.211c-2.393 2.693-2.678 6.779-.678 9.775 2.13 3.193 6.364 4.436 9.884 2.897l132.17-57.825 64.586 56.513a8.019 8.019 0 0 0 11.109-.529l145.386-153.938c2.605-2.756 2.896-7.091.688-10.173z"/></svg>