<svg xmlns="http://www.w3.org/2000/svg" viewBox="0 0 512 512"><path d="M.009 255.99c0 101.32 58.883 188.901 144.287 230.386L22.176 151.813C7.977 183.649.009 218.88.009 255.99zm428.806-12.913c0-31.647-11.368-53.55-21.106-70.596-12.974-21.1-25.137-38.943-25.137-60.041 0-23.533 17.833-45.433 42.981-45.433 1.14 0 2.22.137 3.316.207C383.331 25.484 322.644 0 256 0 166.566 0 87.888 45.891 42.11 115.374c6.016.2 11.679.321 16.478.321 26.769 0 68.233-3.253 68.233-3.253 13.795-.812 15.416 19.466 1.632 21.096 0 0-13.873 1.623-29.292 2.427l93.216 277.297 56.025-168.016-39.881-109.283c-13.795-.804-26.846-2.427-26.846-2.427-13.795-.819-12.182-21.91 1.621-21.096 0 0 42.267 3.253 67.422 3.253 26.771 0 68.233-3.253 68.233-3.253 13.795-.812 15.427 19.466 1.632 21.096 0 0-13.889 1.623-29.29 2.427l92.506 275.18 25.535-85.306c12.981-33.27 19.481-60.85 19.481-82.76zm-168.316 35.306l-76.814 223.186C206.621 508.314 230.878 512 256 512c29.817 0 58.409-5.147 85.014-14.513-.674-1.097-1.312-2.26-1.83-3.529l-78.685-215.575zm220.139-145.2c1.104 8.149 1.727 16.893 1.727 26.32 0 25.967-4.871 55.17-19.476 91.687l-78.186 226.063c76.114-44.373 127.288-126.824 127.288-221.262 0-44.511-11.378-86.352-31.353-122.808z" fill="#87868d"/></svg>