<svg xmlns="http://www.w3.org/2000/svg" viewBox="0 0 128 128">
  <style>
    .st2{fill:#ea3b36}
  </style>
  <circle cx="64" cy="64" r="64" fill="#fbd000"/>
  <path fill="#ea291c" d="M27 50.8l11-13.7c4.3-5.5 4.2-5.5 8.2-5.5h38.4c4 0 3.9 0 8.2 5.5l10.9 13.7c7.4 8.2 7.2 8.2 0 16.4L73.6 97.4c-2.6 2.7-5.7 5.5-8.2 5.5-2.6 0-5.6-2.7-8.2-5.5L27 67.2c-7.3-8.2-7.4-8.2 0-16.4z"/>
  <path d="M43.8 63.8l21.7 39 21.7-38.3zm-1.1-32.7l1.1 33.6-23.9-6.8zm45.6 0l-1.1 33.6 23.9-6.8z" class="st2"/>
  <path d="M43.8 65l21.7-32.8L87.2 65z" class="st2"/>
  <path fill="#a81000" d="M105.2 49.5L94.3 35.9c-3.7-4.8-4.6-5.9-8.6-5.9H44.9c-3.8 0-4.7.9-8.6 5.9L25.4 49.5C21.6 53.8 19 56.2 19 59c0 3 2.4 5 6.3 9.3l.2.2.1.1 30.2 30.1c2.8 2.9 5.8 6.2 9.3 6.2 2.6 0 5.9-2 10-6.2l30.1-30.1.1-.1.2-.2c3.9-4.4 5.6-6.5 5.6-9.3-.1-2.8-2.1-5.2-5.9-9.5zM92.7 37.1l10.9 13.7c3.1 3.4 4.8 5.4 5.3 7.1l-20.7 4.8 1.1-29.6c.9.8 1.8 2 3.4 4zm-27.4 64.5L44.8 65h41l-20.5 36.6zM45.6 63l19.7-30 20.1 30H45.6zm41.8-31l-1 28.7L67.1 32h20.3zm-23.8 0L44.3 61.3 43.5 32h20.1zM27 50.8l11-13.7c1.8-2.2 2.8-3.5 3.6-4.2l.8 29.8-20.6-5.1c.6-1.6 2.3-3.6 5.2-6.8zm30.1 46.6L27 67.2c-3.3-3.7-5.1-5.7-5.4-7.6l20.9 5.1c0 .1 0 .1.1.2l21 37.4c-2.2-.7-4.4-2.8-6.5-4.9zm46.6-30.2L73.6 97.4c-2 2.1-4.4 4.2-6.4 5.1l21-37.4c0-.1 0-.1.1-.2L109 60c-.5 1.8-2.3 3.8-5.3 7.2z"/>
  <path fill="#fff" d="M78 60.1c-.3 0-.7-.2-.8-.5l-7.1-11c-.3-.5-.2-1.1.3-1.4.5-.3 1.1-.2 1.4.3l7.1 11c.3.5.2 1.1-.3 1.4-.3.1-.5.2-.6.2zm-9.4-14.7c-.3 0-.7-.2-.8-.5L65 40.5c-.3-.5-.2-1.1.3-1.4.5-.3 1.1-.2 1.4.3l2.8 4.4c.3.5.2 1.1-.3 1.4-.3.2-.5.2-.6.2zm-2.5 50.1c-.2 0-.3 0-.5-.1-.5-.3-.7-.9-.4-1.4l12.1-23c.3-.5.9-.7 1.4-.4.5.3.7.9.4 1.4L67 94.9c-.2.4-.6.6-.9.6zM26.4 57.3c-.2 0-.4-.1-.6-.2-.4-.3-.5-1-.2-1.4l12.6-15.8c.3-.4 1-.5 1.4-.2.4.3.5 1 .2 1.4L27.2 56.9c-.2.2-.5.4-.8.4z" opacity=".5"/>
  <path fill="#fff" d="M43.7 71.2c0-.4-.4-.8-1-.9l-1.9-.3c-.5-.1-1.1-.6-1.1-1.1l-.3-1.9c-.1-.5-.5-1-.9-1s-.8.4-.9 1l-.2 2c-.1.5-.6 1.1-1.1 1.1l-1.9.3c-.5.1-1 .5-1 .9s.4.8 1 .9l1.9.3c.5.1 1.1.6 1.1 1.1l.3 1.9c.1.5.5 1 .9 1s.8-.4.9-1l.3-2.1c.1-.5.6-1 1.1-1.1l1.8-.1c.5-.2 1-.6 1-1zm47.9-38.4c0-.4-.4-.8-1-.9l-4.8-.8c-.5-.1-1.1-.6-1.2-1.2l-.8-4.8c-.1-.5-.5-1-.9-1s-.8.4-.9 1l-.8 4.8c-.1.5-.6 1.1-1.2 1.2l-4.8.8c-.5.1-1 .5-1 .9s.4.8 1 .9l4.7.6c.5.1 1.1.6 1.2 1.1l.9 5c.1.5.5 1 .9 1s.8-.4.9-1l.9-5.1c.1-.5.6-1 1.2-1.1l4.7-.6c.6.1 1-.3 1-.8zM31 100c-2.2 0-4-1.8-4-4s1.8-4 4-4 4 1.8 4 4-1.8 4-4 4zm0-6.1c-1.2 0-2.1 1-2.1 2.1 0 1.2 1 2.1 2.1 2.1 1.2 0 2.1-1 2.1-2.1 0-1.2-.9-2.1-2.1-2.1zM54 21c-2.2 0-4-1.8-4-4s1.8-4 4-4 4 1.8 4 4-1.8 4-4 4zm0-6.1c-1.2 0-2.1 1-2.1 2.1 0 1.2 1 2.1 2.1 2.1 1.2 0 2.1-1 2.1-2.1 0-1.2-.9-2.1-2.1-2.1zM108 88c-2.2 0-4-1.8-4-4s1.8-4 4-4 4 1.8 4 4-1.8 4-4 4zm0-6.1c-1.2 0-2.1 1-2.1 2.1 0 1.2 1 2.1 2.1 2.1 1.2 0 2.1-1 2.1-2.1 0-1.2-.9-2.1-2.1-2.1zm-13 23.2c0-.4-.4-.8-1-.9l-1.9-.3c-.5-.1-1.1-.6-1.1-1.1l-.3-1.9c-.1-.5-.5-1-.9-1s-.8.4-.9 1l-.3 1.9c-.1.5-.6 1.1-1.1 1.1l-1.9.3c-.5.1-1 .5-1 .9s.4.8 1 .9l1.9.3c.5.1 1.1.6 1.1 1.1l.3 1.9c.1.5.5 1 .9 1s.8-.4.8-1l.3-2.1c.1-.5.6-1 1.1-1.1l1.8-.1c.7-.2 1.2-.5 1.2-.9z"/>
  <use width="75" height="75"/>
</svg>
