<svg viewBox="0 0 512 512" xmlns="http://www.w3.org/2000/svg"><path d="M304 65h-80c-8.284 0-15 6.716-15 15v64c0 8.284 6.716 15 15 15h80c8.284 0 15-6.716 15-15V80c0-8.284-6.716-15-15-15z" fill="#ff515e"/><path d="M464 65h-80c-8.284 0-15 6.716-15 15v64c0 8.284 6.716 15 15 15h80c8.284 0 15-6.716 15-15V80c0-8.284-6.716-15-15-15z" fill="#c6507a"/><path d="M512 143v144c0 8.28-6.72 15-15 15H192c-8.28 0-15-6.72-15-15V143c0-8.28 6.72-15 15-15h305c8.28 0 15 6.72 15 15z" fill="#ff6888"/><path d="M512 143v144c0 8.28-6.72 15-15 15H344V128h153c8.28 0 15 6.72 15 15z" fill="#ff515e"/><path d="M497 273H344c-8.284 0-15 6.716-15 15v144c0 8.284 6.716 15 15 15h153c8.284 0 15-6.716 15-15V288c0-8.284-6.716-15-15-15z" fill="#f4de48"/><path d="M128 209H48c-8.284 0-15 6.716-15 15v64c0 8.284 6.716 15 15 15h80c8.284 0 15-6.716 15-15v-64c0-8.284-6.716-15-15-15z" fill="#554fb2"/><path d="M359 288v144c0 8.28-6.72 15-15 15H15c-8.28 0-15-6.72-15-15V288c0-8.28 6.72-15 15-15h329c8.28 0 15 6.72 15 15z" fill="#736dd9"/><path d="M359 288v144c0 8.28-6.72 15-15 15H176V273h168c8.28 0 15 6.72 15 15z" fill="#554fb2"/></svg>