<svg xmlns="http://www.w3.org/2000/svg" viewBox="0 0 332.4 358.7">
  <style>
    .st0{fill:#0f2d45}.st7{fill:#ec6909}.st8{fill:none;stroke:#933014;stroke-width:3.3755;stroke-linecap:round;stroke-miterlimit:10}.st9{fill:#055d6e}.st10{fill:#00798f}.st14{fill:none;stroke:#006583;stroke-width:2.2503;stroke-miterlimit:10}.st16{fill:#005078}.st18{fill:none;stroke:#070d13;stroke-width:2.2503;stroke-miterlimit:10}
  </style>
  <path d="M42.5 95.3h2v89.9h-2z" class="st0"/>
  <linearGradient id="SVGID_1_" x1="120.604" x2="198.435" y1="303.462" y2="140.544" gradientTransform="translate(6.873 -17.116)" gradientUnits="userSpaceOnUse">
    <stop offset="0" stop-color="#f59a17"/>
    <stop offset=".552" stop-color="#fdc602"/>
    <stop offset="1" stop-color="#fde400"/>
  </linearGradient>
  <path fill="url(#SVGID_1_)" d="M264.6 173.6c0-46.4-37.6-84.1-84-84.1s-84.1 37.6-84.1 84c0 19.7 11.6 41.1 18 52 24.8 42.1 29.9 48.5 31.7 74.6h68.4c1.6-25.2 8.6-34.7 31.8-74.6 12.5-21.1 18.1-32.2 18.2-51.9z"/>
  <linearGradient id="SVGID_2_" x1="103.491" x2="173.184" y1="335.598" y2="195.401" gradientTransform="translate(6.873 -17.116)" gradientUnits="userSpaceOnUse">
    <stop offset="0" stop-color="#d27511"/>
    <stop offset="1" stop-color="#d27511" stop-opacity="0"/>
  </linearGradient>
  <path fill="url(#SVGID_2_)" d="M111.7 125.8c-9.8 13.7-15.6 30.5-15.6 48.7 0 19.7 11.6 41.1 18 52 24.8 42.1 29.9 48.5 31.7 74.6h68.4c1.6-25.2 8.6-34.7 31.8-74.6 1.2-2 2.2-3.8 3.3-5.6-81.4 50.2-145.7-23.5-137.6-95.1z"/>
  <path fill="none" stroke="#933014" stroke-miterlimit="10" stroke-width="2.25" d="M264.6 173.6c0-46.4-37.6-84.1-84-84.1s-84.1 37.6-84.1 84c0 19.7 11.6 41.1 18 52 24.8 42.1 29.9 48.5 31.7 74.6h68.4c1.6-25.2 8.6-34.7 31.8-74.6 12.5-21.1 18.1-32.2 18.2-51.9z"/>
  <linearGradient id="SVGID_3_" x1="253.583" x2="183.066" y1="123.392" y2="204.045" gradientTransform="rotate(26.633 232.786 176.023)" gradientUnits="userSpaceOnUse">
    <stop offset="0" stop-color="#fff"/>
    <stop offset="1" stop-color="#fff" stop-opacity="0"/>
  </linearGradient>
  <path fill="url(#SVGID_3_)" d="M230.8 221.1c-23 6.4-48.9-14.4-57.8-46.5-9-32.1 2.4-63.4 25.4-69.8 23-6.4 48.9 14.4 57.8 46.5s-2.5 63.4-25.4 69.8z"/>
  <path fill="#fff" d="M235.5 212.7c-8-.9-12.8-16.9-10.7-35.8 2.1-18.9 10.3-33.4 18.3-32.6 8 .9 12.8 16.9 10.7 35.8-2.1 18.9-10.3 33.5-18.3 32.6z" opacity=".57"/>
  <path fill="#fff" d="M252.1 139.8c3.7 6.6 6.2 14 7.6 21.5 1.3 7.6 1.5 15.4.4 23.1-2.2 15.3-9.5 29.8-20.2 40.6 4-6.5 7.5-13 10.3-19.9 2.8-6.9 4.7-14 5.7-21.3 1-7.3 1.2-14.7.5-22-.6-7.3-2.2-14.7-4.3-22z"/>
  <path d="M185.1 252.9c2.9 4.8 16 7 20.7 1.7 4.8-5.3 5.1-9.3 5.1-9.3s10.8-.2 7.6-12.2c7-1.7 7.4-11.2 3.6-17.5 4.8-8.8-3-15.6-8-16.2-.4-10.8-10.3-15.4-17.3-13.5-7 1.9-11.9 5.9-11.9 14.8.1 9 .2 52.2.2 52.2zM179.4 252.9c-2.9 4.8-16 7-20.7 1.7-4.8-5.3-5.1-9.3-5.1-9.3s-10.8-.2-7.6-12.2c-7-1.7-7.4-11.2-3.6-17.5-4.8-8.8 3-15.6 8-16.2.4-10.8 10.3-15.4 17.3-13.5 7 1.9 11.9 5.9 11.9 14.8-.1 9-.2 52.2-.2 52.2z" class="st7"/>
  <path d="M143 216.1c-4.1-5.9-.8-15.3 7-15.7M146.8 213.4c-7.3 2.5-10.3 16.6 3.3 21.7M154.3 245.5c-6.2 2.6-13-5.3-7.1-11.7" class="st8"/>
  <path d="M153.1 208c-6.5-8.9-.2-21.7 9.6-22.4 10.1-.7 16.9 6.3 16.9 15.2v95.6" class="st8"/>
  <path d="M159.1 236.4c-5.7 4.5-5.6 11.7-2.2 16.6 3.8 5.4 13.1 6.5 18.5 2.7M158.9 201.1c-.3-7.7 10.1-9.9 12.2-.9M179.4 210.9c-3.9-6-14.1.4-12.5 8.9M158.3 222.4c-.2-4.1 4.2-6.8 8.5-5.6M179.3 235.4c-3.9 8.2-14.1 6-13.2-2M153 217.6c-5.1.2-6.7 8.2-1 9.8" class="st8"/>
  <g>
    <path d="M221.6 216.1c4.1-5.9.8-15.3-7-15.7M217.8 213.4c7.3 2.5 10.3 16.6-3.3 21.7M210.3 245.5c6.2 2.6 13-5.3 7.1-11.7" class="st8"/>
    <path d="M211.5 208c6.5-8.9.2-21.7-9.6-22.4-10.1-.7-16.9 6.3-16.9 15.2v95.6" class="st8"/>
    <path d="M205.5 236.4c5.7 4.5 5.6 11.7 2.2 16.6-3.8 5.4-13.1 6.5-18.5 2.7M205.7 201.1c.3-7.7-10.1-9.9-12.2-.9M185.2 210.9c3.9-6 14.1.4 12.5 8.9M206.3 222.4c.2-4.1-4.2-6.8-8.5-5.6M185.3 235.4c3.9 8.2 14.1 6 13.2-2M211.6 217.6c5.1.2 6.7 8.2 1 9.8" class="st8"/>
  </g>
  <path d="M146 301.1h67.2v17.4H146z" class="st9"/>
  <path d="M146 308h67.2v5.7H146zM198 343.7l-36.9-.1-15.1-17.4h67.2z" class="st10"/>
  <g>
    <path d="M213.2 326.2H146l5.4 6.2h56.4zM161.1 343.6l36.9.1 5-5.7-46.8-.1z" class="st9"/>
  </g>
  <linearGradient id="SVGID_4_" x1="129.137" x2="217.062" y1="315.926" y2="315.926" gradientTransform="translate(6.873 -17.116)" gradientUnits="userSpaceOnUse">
    <stop offset="0" stop-color="#58c1d6"/>
    <stop offset="1" stop-color="#c9e8fa"/>
  </linearGradient>
  <path fill="url(#SVGID_4_)" d="M221.4 305.4l-83.3-.1c-1.3 0-2.3-1-2.3-2.3v-8.3c0-1.3 1-2.3 2.3-2.3l83.3.1c1.3 0 2.3 1 2.3 2.3v8.3c0 1.3-1 2.3-2.3 2.3z"/>
  <linearGradient id="SVGID_5_" x1="133.41" x2="212.789" y1="339.44" y2="339.44" gradientTransform="translate(6.873 -17.116)" gradientUnits="userSpaceOnUse">
    <stop offset="0" stop-color="#58c1d6"/>
    <stop offset="1" stop-color="#c9e8fa"/>
  </linearGradient>
  <path fill="url(#SVGID_5_)" d="M217.1 328.9l-74.8-.1c-1.3 0-2.3-1-2.3-2.3v-8.3c0-1.3 1-2.3 2.3-2.3l74.8.1c1.3 0 2.3 1 2.3 2.3v8.3c0 1.3-1 2.3-2.3 2.3z"/>
  <path d="M164.9 350.5s3.7 8.2 16 8.2 15.7-8.2 15.7-8.2h-31.7z" class="st10"/>
  <linearGradient id="SVGID_6_" x1="149.298" x2="198.204" y1="363.301" y2="363.301" gradientTransform="translate(6.873 -17.116)" gradientUnits="userSpaceOnUse">
    <stop offset="0" stop-color="#58c1d6"/>
    <stop offset="1" stop-color="#c9e8fa"/>
  </linearGradient>
  <path fill="url(#SVGID_6_)" d="M198.4 341h-36c-3.6 0-6.4 2.4-6.5 5.3 0 2.9 2.9 5.3 6.4 5.3h36c3.6 0 6.4-2.4 6.5-5.3 0-2.9-2.9-5.3-6.4-5.3z"/>
  <path d="M221.4 305.4l-83.3-.1c-1.3 0-2.3-1-2.3-2.3v-8.3c0-1.3 1-2.3 2.3-2.3l83.3.1c1.3 0 2.3 1 2.3 2.3v8.3c0 1.3-1 2.3-2.3 2.3zM217.1 328.9l-74.8-.1c-1.3 0-2.3-1-2.3-2.3v-8.3c0-1.3 1-2.3 2.3-2.3l74.8.1c1.3 0 2.3 1 2.3 2.3v8.3c0 1.3-1 2.3-2.3 2.3zM198.4 341h-36c-3.6 0-6.4 2.4-6.5 5.3 0 2.9 2.9 5.3 6.4 5.3h36c3.6 0 6.4-2.4 6.5-5.3 0-2.9-2.9-5.3-6.4-5.3z" class="st14"/>
  <path fill="#dd7e17" d="M255.4 135.5c-13.9-27.3-42.2-46-74.9-46-42.4 0-77.4 31.3-83.2 72.1 32.9 8.6 109.9 3.5 158.1-26.1z" opacity=".56"/>
  <path d="M97.1 44.3L1.6 130.2l3.1 3.1L190.6 92 331.1 4.8l-.9-3.5z" class="st16"/>
  <path fill="#004162" d="M97.1 44.3l3.1 3.1-95.5 85.9-3.1-3.1z"/>
  <path d="M97.1 44.3L1.6 130.2l3.1 3.1L190.6 92 331.1 4.8l-.9-3.5z" class="st18"/>
  <path d="M100.2 47.4L4.7 133.3l189-38.2L331.1 4.8z" class="st0"/>
  <path fill="#0e2537" d="M86.9 59.3l-82.2 74 189-38.2 72-47.3C206.8 69.7 110.9 79.4 86.9 59.3z"/>
  <path fill="none" stroke="#070d13" stroke-linecap="round" stroke-linejoin="round" stroke-miterlimit="10" stroke-width="2.25" d="M100.2 47.4L4.7 133.3l189-38.2L331.1 4.8z"/>
  <linearGradient id="SVGID_7_" x1="171.945" x2="150.156" y1="132.856" y2="50.371" gradientUnits="userSpaceOnUse">
    <stop offset="0" stop-color="#0f2d45"/>
    <stop offset="1" stop-color="#0e1e2e"/>
  </linearGradient>
  <path fill="url(#SVGID_7_)" d="M230.1 49.8l20.9 77.9s-69.6 31.6-152.9 29.6c-5.3-23.5-10.5-53.1-12.9-66.6 23.4-22 80-41 144.9-40.9z"/>
  <path d="M230.1 49.8l20.9 77.9s-69.6 31.6-152.9 29.6c-5.3-23.5-10.5-53.1-12.9-66.6 23.4-22 80-41 144.9-40.9z" class="st18"/>
  <linearGradient id="SVGID_8_" x1="39.713" x2="45.244" y1="205.679" y2="226.651" gradientUnits="userSpaceOnUse">
    <stop offset="0" stop-color="#f59a17"/>
    <stop offset=".552" stop-color="#fdc602"/>
    <stop offset="1" stop-color="#fde400"/>
  </linearGradient>
  <path fill="url(#SVGID_8_)" d="M41.1 201.6c-3.8 1.7-5.9 7.6-5.7 14.1.2 6.5-.4 11.3-1.5 14.5 2.3.9 4.8.2 4.8.2s1.3-6.3 1.3-17.9c1.3 8.3.3 16.4-.3 21.2 1.9 1.4 3.2.1 3.2.1s.4-13.3.5-19.1c.6 9.3.6 18.3.6 18.3s1.9.7 2.3-.8c-.1-6.2 0-11.6 0-11.6s.8 8.9 1.2 10.5c1.8.7 4.5.4 5.2-.6-.9-2.1-3.7-19.7-3.8-22.6 2.3 11.4 3.5 19 4.5 20.5 1.7.8 4.2-1.7 4.2-1.7s-1.5-.5-2-4.3-4.1-19.7-8.1-21c-2.5-.7-4.8-.5-6.4.2z"/>
  <path fill="#dd7e17" d="M51 206c-1.1-2.4-2.3-4.1-3.5-4.5-2.5-.8-4.8-.6-6.4.1-3.2 1.4-5.2 5.8-5.6 11 4-3.8 9.1-6.7 15.5-6.6z"/>
  <path fill="none" stroke="#933014" stroke-miterlimit="10" stroke-width="1.125" d="M41.1 201.6c-3.8 1.7-5.9 7.6-5.7 14.1.2 6.5-.4 11.3-1.5 14.5 2.3.9 4.8.2 4.8.2s1.3-6.3 1.3-17.9c1.3 8.3.3 16.4-.3 21.2 1.9 1.4 3.2.1 3.2.1s.4-13.3.5-19.1c.6 9.3.6 18.3.6 18.3s1.9.7 2.3-.8c-.1-6.2 0-11.6 0-11.6s.8 8.9 1.2 10.5c1.8.7 4.5.4 5.2-.6-.9-2.1-3.7-19.7-3.8-22.6 2.3 11.4 3.5 19 4.5 20.5 1.7.8 4.2-1.7 4.2-1.7s-1.5-.5-2-4.3-4.1-19.7-8.1-21c-2.5-.7-4.8-.5-6.4.2z"/>
  <path d="M47.8 203.6h-8.2c-.7 0-1.2-.5-1.2-1.2V183c0-.7.5-1.2 1.2-1.2h8.2c.7 0 1.2.5 1.2 1.2v19.4c0 .7-.6 1.2-1.2 1.2z" class="st0"/>
  <path d="M230.5 58.7l18.2 67.4s-30.5 13.2-54.8 17.6c26.1-28 36.6-85 36.6-85zM222.3 26.8l102-19.4-56.4 36.7s23.9-27.7-45.6-17.3zM93.4 124.5l6.5 31.7s28.3.6 50.5-3.2c-20.6.3-44.4 0-47.9-2.6-3.3-9-9.1-25.9-9.1-25.9z" class="st16"/>
  <path d="M99.7 147.6s44.6 5.2 78.2-3.9c-22.7 7.9-64.8 8.6-75.5 6.7-2.2.1-2.7-2.8-2.7-2.8z" class="st16"/>
  <path fill="#0a111d" d="M230.4 51.1l-.3-1.3c-64.9-.1-121.5 18.8-145 40.9 1.3 7 3.3 18.3 5.6 30.9 32.3-52.4 99.2-69.7 139.7-70.5z" opacity=".54"/>
</svg>
