<svg xmlns="http://www.w3.org/2000/svg" viewBox="0 0 748.685 486.126"><path fill="#f2f2f2" d="M0 0h749.075v486.126H0z"/><path fill="#2EB398" d="M125.285 43.715c-9.451 10.776-29.451 5.085-38.442 16.248-15.578 19.342-6.391 49.991-19.958 70.794C55.43 148.32 29.894 155.3 23.808 175.366c-2.09 6.89-1.426 14.264-1.774 21.456-1.827 37.677-31.5 74.151-18.948 109.722 9.454 26.79 40.14 41.908 48.873 68.941 4.905 15.182 2.29 32.719 10.532 46.381 14.889 24.681 52.159 20.017 77.228 34.242 12.924 7.334 23.033 20.076 37.464 23.625 14.271 3.51 28.854-2.886 42.571-8.162 45.321-17.432 97.374-23.43 141.97-4.219 17.947 7.731 35.376 19.581 54.899 18.731 12.398-.54 23.885-6.221 35.43-10.771 43.361-17.09 92.594-18.839 137.059-4.868 14.887 4.677 31.618 10.934 45.291 3.414 18.036-9.92 17.413-35.284 22.935-55.114 4.023-14.448 12.317-27.274 20.494-39.847l47.446-72.951c6.965-10.709 14.005-21.572 17.998-33.707 3.933-11.952 4.756-24.682 5.183-37.257.786-23.151.068-47.407-11.007-67.752-8.035-14.761-20.896-26.243-33.992-36.776-36.492-29.351-77.891-54.238-123.787-63.547-25.276-5.127-51.347-5.423-76.611-10.611a199.783 199.783 0 0 1-23.266-6.268C441.839 37.31 400.294 41.503 365.2 60.76c-13.418 7.363-27.899 12.776-42.89 15.881-37.591 7.785-78.011.973-110.974-18.703-11.659-6.959-22.594-15.54-35.511-19.725-12.918-4.186-41.955-5.017-50.54 5.502"/><path fill="#DBB958" d="M582.462 294.618l22.118-81.535 84.58 22.944-22.118 81.535z"/><path fill="#8CD354" d="M582.845 294.235l22.118-81.535 84.58 22.944-22.118 81.535z"/><path fill="#52B7CE" d="M583.228 293.852l22.118-81.536 84.58 22.944-22.118 81.536z"/><path fill="#5252CC" d="M583.61 293.469l22.118-81.535 84.58 22.944-22.117 81.535z"/><path fill="#CCC" d="M583.993 293.085l22.118-81.534 84.58 22.944-22.118 81.534z"/><path fill="#DBB958" d="M584.373 292.707l22.117-81.535 84.58 22.944-22.117 81.535z"/><path fill="#8CD354" d="M584.756 292.324l22.118-81.535 84.58 22.944-22.118 81.535z"/><path fill="#52B7CE" d="M585.139 291.94l22.117-81.534 84.58 22.944-22.117 81.535z"/><path fill="#5252CC" d="M585.521 291.557l22.118-81.534 84.58 22.944-22.117 81.534z"/><path fill="#CCC" d="M585.905 291.175l22.117-81.535 84.58 22.944-22.117 81.535z"/><g><path fill="#1C2800" d="M531.586 239.402l-1.66 2.489-.297-7.053z"/><path fill="#FFF3F3" d="M535.819 249.277l-.591.643a.378.378 0 0 1-.524.037l-.037-.03-1.252-1.025a.384.384 0 0 0-.557.078l-.661.951a.367.367 0 0 1-.238.152.373.373 0 0 1-.386-.145l-.409-.561a.38.38 0 0 0-.631.019l-.275.427-.334-7.932 1.66-2.488 4.235 9.874z"/><path fill="#CC7A98" d="M567.782 388.896c-.795.59-2.366 1.489-4.271 1.218a1.164 1.164 0 0 1-.954-.824l-1.17-4.148c1.003-.546 3.298-1.567 6.031-1.292l.791 3.91c.089.43-.074.876-.427 1.136z"/><path fill="#F2F2F2" d="M567.418 383.849c-2.733-.275-5.028.746-6.031 1.292l-.007-.026-.665-2.863c.238-.096.516-.204.832-.316.078-.026.16-.052.241-.082.163-.056.338-.111.52-.163.059-.019.122-.037.189-.056l.078-.022.122-.034a5.36 5.36 0 0 1 .271-.07c.067-.019.134-.033.197-.048.104-.026.204-.048.308-.07l.316-.067c.189-.037.379-.07.576-.1l.412-.056c.111-.015.227-.026.342-.037.186-.019.375-.033.565-.041.186-.011.371-.015.561-.015.175 0 .353.004.527.011l.613 2.603.033.16zM566.43 379.623c-.561-.022-1.114 0-1.645.056-.932.093-1.797.286-2.544.498-.769.219-1.407.464-1.857.657l-.954-4.103c.111-.052.23-.104.364-.163.067-.03.141-.059.219-.093.137-.056.286-.111.442-.167.063-.022.126-.045.193-.067a10.657 10.657 0 0 1 .632-.197c.008-.004.011-.007.018-.007.36-.096.758-.186 1.174-.253.219-.033.442-.059.676-.082.115-.011.23-.019.349-.026.119-.004.238-.011.357-.011a8.806 8.806 0 0 1 .913.033c.126.011.253.022.379.041.13.015.256.037.386.06l.898 3.824zM565.16 374.216c-.434.004-.995.022-1.623.085-.394.037-.817.093-1.248.171-.108.019-.215.041-.323.063-.026.004-.052.011-.074.015a10.644 10.644 0 0 0-.906.234 7.974 7.974 0 0 0-1.055.398c-.089.037-.174.082-.264.126a6.081 6.081 0 0 0-.505.286l-.591-2.544a2.2 2.2 0 0 1 .167-.111c.03-.019.063-.041.097-.059.096-.063.208-.126.331-.189.048-.026.1-.052.152-.082.145-.07.304-.145.479-.219a11.729 11.729 0 0 1 1.321-.457 15.398 15.398 0 0 1 1.775-.394c.212-.033.435-.067.665-.096.097-.015.197-.026.297-.037.204-.026.412-.048.628-.067l.677 2.877z"/><path fill="#C6C2B3" d="M564.484 371.338c-.215.019-.423.041-.628.067-.1.011-.201.022-.297.037-.23.03-.453.063-.665.096l-28.227-121.612.037.03c.156.13.386.115.524-.037l.591-.643 28.665 122.062z"/><path fill="#E0DCCD" d="M562.895 371.538a14.989 14.989 0 0 0-2.517.628l-28.416-122.083a.37.37 0 0 0 .238-.152l.661-.951a.384.384 0 0 1 .557-.078l1.252 1.025 28.225 121.611z"/><path fill="#C6C3B5" d="M560.377 372.166c-.212.074-.401.149-.579.223-.175.074-.334.149-.479.219-.052.03-.104.056-.152.082a3.902 3.902 0 0 0-.331.189l-.097.059a2.2 2.2 0 0 0-.167.111l-28.23-121.315-.082-1.913.275-.427a.38.38 0 0 1 .631-.019l.409.561a.373.373 0 0 0 .386.145l28.416 122.085z"/><path fill="#C6C2B3" d="M565.532 375.798c-.13-.022-.256-.045-.386-.06a11.804 11.804 0 0 0-.754-.067 8.817 8.817 0 0 0-.538-.007l-.316-1.363a17.536 17.536 0 0 1 1.623-.085l.371 1.582zM566.772 381.086a13.235 13.235 0 0 0-.527-.011 9.48 9.48 0 0 0-.561.015 8.78 8.78 0 0 0-.565.041l-.334-1.452c.531-.056 1.084-.078 1.645-.056l.342 1.463z"/><path fill="#C6C3B5" d="M562.576 381.613l-.078.022c-.067.019-.13.037-.189.056-.182.052-.357.108-.52.163-.082.03-.163.056-.241.082a18 18 0 0 0-.832.316l-.331-1.419a15.527 15.527 0 0 1 1.857-.657l.334 1.437z"/><path fill="#E0DCCD" d="M565.119 381.13c-.115.011-.23.022-.342.037l-.412.056c-.197.03-.386.063-.576.1l-.316.067c-.104.022-.204.045-.308.07-.063.015-.13.03-.197.048a6.687 6.687 0 0 0-.271.07l-.122.034-.334-1.437a14.684 14.684 0 0 1 2.544-.498l.334 1.453z"/><path fill="#C6C3B5" d="M561.28 376.043a9.641 9.641 0 0 0-.632.197c-.067.022-.13.045-.193.067-.156.056-.305.111-.442.167-.078.033-.152.063-.219.093a7.585 7.585 0 0 0-.364.163l-.267-1.136c.163-.104.331-.197.505-.286.089-.045.174-.089.264-.126a7.974 7.974 0 0 1 1.055-.398l.293 1.259z"/><path fill="#E0DCCD" d="M563.853 375.664c-.119 0-.238.007-.357.011a11.267 11.267 0 0 0-1.025.108c-.416.063-.81.152-1.174.253-.007 0-.011.004-.018.007l-.293-1.259c.112-.033.223-.067.338-.097.189-.052.379-.096.568-.137.022-.004.048-.011.074-.015.108-.022.215-.044.323-.063.431-.078.854-.134 1.248-.171l.316 1.363z"/></g><g><path fill="#1C2800" d="M542.42 235.241l2.67.511-3.826-4.766z"/><path fill="#FFF3F3" d="M544.92 244.446l.811.025a.42.42 0 0 0 .413-.323l.011-.044.348-1.494c.05-.207.263-.353.462-.319l1.041.177a.371.371 0 0 0 .265-.059.403.403 0 0 0 .206-.35l-.016-.634c-.009-.245.243-.46.483-.407l.451.094-4.304-5.361-2.671-.511 2.5 9.206z"/><path fill="#CC7A98" d="M601.152 356.097c.934-.145 2.625-.604 3.896-2.043.301-.344.398-.799.241-1.167l-1.506-3.463c-1.064.311-3.368 1.172-5.255 3.162l1.653 3.058c.18.338.558.518.971.453z"/><path fill="#F2F2F2" d="M598.527 352.586c1.888-1.991 4.192-2.851 5.255-3.162l-.009-.022-1.146-2.296c-.233.095-.503.21-.804.347-.073.035-.149.072-.228.107-.154.072-.317.152-.483.239a4.968 4.968 0 0 0-.174.09l-.071.037-.111.06a5.863 5.863 0 0 0-.243.134c-.061.032-.119.067-.175.099a8.016 8.016 0 0 0-.271.159l-.275.166c-.163.102-.324.205-.488.317l-.34.237a8.124 8.124 0 0 0-.277.203c-.15.111-.3.227-.446.348a11.892 11.892 0 0 0-.816.719l1.036 2.093.066.125zM596.84 349.193a13.32 13.32 0 0 1 1.263-1.055 16.714 16.714 0 0 1 2.19-1.365c.701-.368 1.32-.633 1.767-.806l-2.094-4.205c-.113.04.22.999.086 1.049-.067.025-.14.055-.217.085a11.336 11.336 0 0 0-.61.27 9.974 9.974 0 0 0-.586.292c-.008.002-.013.003-.018.007a13.01 13.01 0 0 0-1.023.615c-.183.124-.365.254-.553.395-.093.069-.183.141-.276.215-.091.076-.184.15-.273.229-.136.116-.267.237-.399.362-.09.089-.178.175-.266.266-.088.091-.176.182-.26.278-.089.096-.17.194-.255.295l1.524 3.073z"/><path fill="#F2F2F2" d="M594.687 344.848a20.194 20.194 0 0 1 2.296-1.738c.091-.059.185-.116.278-.173.021-.015.045-.027.064-.04.165-.099.333-.196.504-.288.103-.057.206-.109.308-.162.247-.124.495-.237.746-.339.088-.035.181-.07.271-.103.088-.035.178-.063.27-.093.182-.058.36-.109.542-.15l-1.018-2.04c-.06.01-.12.021-.189.039-.033.008-.071.016-.106.026a3.946 3.946 0 0 0-.356.096c-.051.015-.105.033-.161.048a10.13 10.13 0 0 0-1.286.531 17.207 17.207 0 0 0-2.004 1.148c-.178.119-.364.245-.553.378-.081.054-.162.114-.244.173-.168.119-.336.242-.508.373l1.146 2.314z"/><path fill="#C6C2B3" d="M593.54 342.535c.172-.131.34-.254.508-.373.081-.059.163-.119.244-.173.189-.133.375-.259.553-.378l-48.69-97.507-.011.044a.42.42 0 0 1-.413.323l-.811-.025 48.62 98.089z"/><path fill="#E0DCCD" d="M594.845 341.611a17.207 17.207 0 0 1 2.245-1.263l-48.819-97.939a.377.377 0 0 1-.265.059l-1.041-.177c-.199-.034-.412.112-.462.319l-.348 1.494 48.69 97.507z"/><path fill="#C6C3B5" d="M597.09 340.348c.201-.092.385-.17.561-.24.173-.068.336-.125.484-.176.056-.015.11-.033.161-.048.128-.04.248-.073.356-.096.036-.01.073-.018.106-.026.069-.018.129-.028.189-.039l-48.517-97.317-1.037-1.293-.451-.094c-.241-.053-.492.161-.483.407l.016.634a.403.403 0 0 1-.206.35l48.821 97.938z"/><path fill="#C6C2B3" d="M595.317 346.119c.085-.101.166-.199.255-.295.084-.096.172-.187.26-.278a10.345 10.345 0 0 1 .665-.628l-.546-1.092c-.506.375-.936.735-1.264 1.021l.63 1.272zM597.424 350.367a14.508 14.508 0 0 1 .816-.719c.146-.121.296-.237.446-.348l-.583-1.162a13.32 13.32 0 0 0-1.263 1.055l.584 1.174z"/><path fill="#C6C3B5" d="M600.868 347.926a11.913 11.913 0 0 1 .728-.366c.078-.035.154-.072.228-.107.3-.137.57-.252.804-.347l-.567-1.138c-.447.173-1.066.438-1.767.806l.574 1.152z"/><path fill="#E0DCCD" d="M598.687 349.3c.093-.069.185-.138.277-.203l.34-.237c.164-.111.325-.215.488-.317l.275-.166c.091-.055.179-.107.271-.159.056-.032.114-.067.175-.099a6.59 6.59 0 0 1 .243-.134l.111-.06-.575-1.153a16.78 16.78 0 0 0-2.19 1.365l.585 1.163z"/><path fill="#C6C3B5" d="M598.64 343.458a13.642 13.642 0 0 1 .586-.292l.183-.085c.149-.067.292-.13.427-.185.078-.03.15-.06.217-.085a6.84 6.84 0 0 1 .366-.135l-.452-.913c-.182.041-.36.092-.542.15-.092.03-.182.058-.27.093-.09.033-.183.068-.271.103-.251.103-.499.215-.746.339l.502 1.01z"/><path fill="#E0DCCD" d="M596.496 344.919c.089-.079.182-.153.273-.229a12.252 12.252 0 0 1 1.852-1.225c.005-.005.01-.005.018-.007l-.503-1.01a11.762 11.762 0 0 0-.812.45c-.019.012-.043.025-.064.04-.093.057-.187.114-.278.173-.367.235-.716.48-1.032.717l.546 1.091z"/></g><g><path fill="#DCE1E5" d="M543.555 169.064c0 13.206-7.097 24.814-17.814 31.458-6.027 3.74-13.202 5.908-20.9 5.908-13.298 0-25.033-6.473-32-16.336-4.237-5.99-6.714-13.231-6.714-21.03 0-6.985 1.987-13.521 5.444-19.114a37.476 37.476 0 0 1 3.149-4.36 38.31 38.31 0 0 1 1.448-1.638 38.644 38.644 0 0 1 8.597-6.848c5.853-3.435 12.726-5.411 20.076-5.411 21.382.001 38.714 16.731 38.714 37.371z"/><ellipse fill="#CAD0D4" cx="504.842" cy="169.062" rx="35.732" ry="34.49"/><ellipse fill="#1C2800" cx="503.326" cy="173.75" rx="30.08" ry="28.78"/><path fill="#CAD0D4" d="M484.765 137.105a38.615 38.615 0 0 0-8.597 6.848 191.21 191.21 0 0 0-1.823-2.38 41.211 41.211 0 0 1 8.63-6.922 29.355 29.355 0 0 1 1.79 2.454z"/><path fill="#DCE1E5" d="M476.168 143.953c-.019.019-.037.041-.056.059-.23.245-.457.498-.68.75a37.391 37.391 0 0 0-3.862 5.188 43.298 43.298 0 0 1-1.909-2.455 40.577 40.577 0 0 1 3.502-4.638 32.42 32.42 0 0 1 1.181-1.285 189.668 189.668 0 0 1 1.824 2.381z"/><path fill="#DCE1E5" d="M482.975 134.65c-5.388 3.246-9.949 7.65-13.313 12.845-3.561-4.939-7-12.069-1.708-16.637 6.075-5.239 11.965.045 15.021 3.792z"/><path fill="#BEC3C6" d="M476.168 143.953c-.019.019-.037.041-.056.059a40.316 40.316 0 0 0-1.393 1.578c-.286-.65-.869-1.641-1.556-2.733-1.396-2.221-3.227-4.85-3.888-5.789a2.821 2.821 0 0 1-.46-1.006c-.431-1.898 3.153 2.469 5.529 5.511a184.223 184.223 0 0 1 1.824 2.38zM525.741 200.521c-5.752 7.683-13.896 14.111-24.829 13.243-22.575-1.794-27.265-19.396-28.071-23.67 6.967 9.863 18.702 16.336 32 16.336 7.698 0 14.873-2.169 20.9-5.909z"/><path fill="#FFF" d="M518.505 153.094s-13.906-6.886-25.639-1.81c0-.001 12.688-8.403 25.639 1.81zM489.338 189.533s1.857 3.59 8.417 4.58c0 0-6.684.124-8.417-4.58zM523.565 166.695s1.671 6.313-.65 10.212c0 0 3.342-4.363.65-10.212zM474.406 138.518s-4.874-5.663-5.849-3.76c0 0 .604-4.224 5.849 3.76z"/><path fill="#BEC3C6" d="M473.357 160.74s5.657-17.388 25.037-19.471c0 .001-20.9-3.072-25.037 19.471z"/><path fill="#F2F2F2" d="M534.046 158.775s4.892 6.941 3.176 15.563c0 .001 4.253-10.907-3.176-15.563z"/></g><g><path fill="#EBEEF2" d="M458.243 280.597l-63.758-150.366a11.758 11.758 0 0 0-3.316-4.467 11.86 11.86 0 0 0-5.184-2.488 11.757 11.757 0 0 0-6.673.579l-21.216 8.337-186.759 73.369-21.605 8.489a11.361 11.361 0 0 0-5.67 4.832 11.43 11.43 0 0 0-.817 9.967l58.841 151.595c2.733 7.037 10.68 10.495 17.691 7.695l232.291-92.724c5.848-2.337 8.633-9.021 6.175-14.818zm-283.211-66.398l-.728-1.686 186.751-73.38.728 1.686-186.751 73.38z"/><path fill="#D5D8DB" d="M412.46 227.713l-209.191 82.814c-11.65 5.313-11.372 4.617-14.003-1.993l-30.032-77.276c-1.734-4.62-2.105-4.991 7.447-9.149l206.665-80.713c9.568-3.637 9.134-4.194 12.041 1.582l33.177 78.955c1.325 2.929-.835 3.703-6.104 5.78zM371.68 320.158l-75.478 30.266c-4.348 2.23-5.928 2.105-7.706-2.414l-20.975-52.465c-1.198-3.148-1.392-3.425 2.193-5.125l76.776-30.762c3.644-1.364 3.515-1.72 5.323 2.29l22.606 54.404c.854 2.017-.739 3.007-2.739 3.806z"/><path fill="#EBEEF2" d="M362.987 7.405c-2.521-2.317-7.063-4.434-9.34-4.434-.813 0-1.615.152-2.388.449L96.628 102.264c-1.727.668-3.65 3.097-4.345 4.816a6.583 6.583 0 0 0 .137 5.273l48.139 103.53a8.645 8.645 0 0 1-2.685-3.298L90.99 111.753c-2.343-5.036.063-11 5.244-12.997L350.19.65c5.433-2.102 11.467 1.088 12.797 6.755z"/><path fill="#2A2B2B" d="M385.985 123.276a7.785 7.785 0 0 1-2.451 1.534l-24.484 9.622 2.005 4.701-186.751 73.38-2.005-4.705-23.388 9.191a8.676 8.676 0 0 1-5.496.286l-.111-.033a8.632 8.632 0 0 1-2.744-1.367L92.847 113.271l-.427-.917a6.579 6.579 0 0 1-.137-5.273c.694-1.719 2.618-4.148 4.345-4.816L351.259 3.42a6.628 6.628 0 0 1 2.388-.449c2.276 0 6.818 2.117 9.34 4.434.004.004.004.007.004.011l.304 1.307.03.126L370.38 39l17.944 76.681a7.872 7.872 0 0 1-2.339 7.595z"/><path fill="#EBEEF2" d="M147.443 211.711c-1.65 0-3.158-.891-3.841-2.271l-44.931-94.421a4.353 4.353 0 0 1-.103-3.703c.53-1.233 1.559-2.179 2.899-2.665L351.765 13.1a5.501 5.501 0 0 1 1.882-.333c2.41 0 4.47 1.513 5.01 3.68l25.371 99.278c.368 1.476-.517 3.017-2.057 3.585l-232.96 92.119a4.48 4.48 0 0 1-1.568.282z"/><g fill="#191919"><path d="M193.673 222.237c.3.763-.076 1.626-.839 1.926l-.876.344-2.254.888-2.258.888-2.254.887h-.004l-2.254.888-.87.341a1.485 1.485 0 0 1-1.926-.842l-1.615-4.128a1.486 1.486 0 0 1 .838-1.923l.872-.344 2.258-.888 2.254-.884 2.254-.887 2.254-.888.872-.342a1.486 1.486 0 0 1 1.925.84l1.623 4.124zM209.463 216.026a1.485 1.485 0 0 1-.839 1.928l-.868.34-2.258.888-2.258.888-2.254.887-2.258.888-.872.343a1.485 1.485 0 0 1-1.926-.838l-1.623-4.123c-.3-.764.075-1.626.839-1.926l.875-.344 2.25-.884 2.258-.887 2.254-.888 2.258-.887.87-.342a1.486 1.486 0 0 1 1.925.837l1.627 4.12zM177.882 228.448a1.485 1.485 0 0 1-.84 1.924l-.878.345-2.258.887-4.508 1.775-2.258.888-.87.342a1.486 1.486 0 0 1-1.928-.844l-1.605-4.131a1.485 1.485 0 0 1 .84-1.92l.878-.346 2.254-.887 2.258-.887 2.25-.884 2.254-.888.87-.341c.764-.3 1.627.077 1.926.842l1.615 4.125zM256.846 197.388a1.485 1.485 0 0 1-.835 1.935l-.866.34-2.254.887-2.258.888-2.258.887-2.258.887-.88.345a1.486 1.486 0 0 1-1.922-.832l-1.643-4.115a1.485 1.485 0 0 1 .837-1.933l.86-.338 2.258-.887 2.254-.887 2.258-.888 2.25-.884.885-.348a1.485 1.485 0 0 1 1.922.829l1.65 4.114zM272.64 191.174a1.486 1.486 0 0 1-.833 1.938l-.861.339-2.258.887-2.258.888-2.258.887-2.254.887-.886.348a1.486 1.486 0 0 1-1.922-.829l-1.652-4.113a1.486 1.486 0 0 1 .835-1.936l.865-.34 2.25-.884 2.258-.888 2.254-.887 2.258-.888.884-.347a1.485 1.485 0 0 1 1.92.827l1.658 4.111zM286.772 180.854l1.665 4.105a1.486 1.486 0 0 1-.833 1.941l-.86.338-2.258.887-2.258.888-2.254.887-2.258.888-.888.349a1.486 1.486 0 0 1-1.921-.826l-1.658-4.108a1.486 1.486 0 0 1 .834-1.939l.863-.339 2.254-.887 2.254-.884 2.254-.887 2.258-.887.886-.349a1.484 1.484 0 0 1 1.92.823zM304.232 178.745a1.485 1.485 0 0 1-.833 1.942l-.859.338-2.258.887-2.254.888-2.258.888-2.258.887-.89.35a1.486 1.486 0 0 1-1.92-.824l-1.665-4.106a1.486 1.486 0 0 1 .833-1.941l.861-.338 2.254-.884h.004l4.508-1.775 2.254-.888.892-.35a1.484 1.484 0 0 1 1.919.823l1.67 4.103zM225.258 209.813a1.486 1.486 0 0 1-.837 1.93l-.871.342-2.254.888-2.258.887-2.254.888-3.136 1.233a1.485 1.485 0 0 1-1.925-.836l-1.63-4.122a1.486 1.486 0 0 1 .838-1.929l.873-.343 2.254-.888 2.254-.884 2.254-.888 2.258-.887.876-.345c.762-.3 1.623.073 1.925.835l1.633 4.119zM336.401 167.712h-.004M183.661 243.242a1.485 1.485 0 0 1-.841 1.923l-3.143 1.233-2.258.888-2.262.891-2.258.888-.874.343a1.486 1.486 0 0 1-1.927-.844l-3.792-9.754a1.487 1.487 0 0 1 .841-1.921l.881-.346 2.254-.887 2.258-.888 2.254-.888 2.258-.888.872-.343a1.485 1.485 0 0 1 1.927.842l3.81 9.751zM199.478 237.019c.3.763-.075 1.624-.838 1.925l-.881.347-2.258.887-2.258.888-2.262.891-2.261.888-.873.343a1.485 1.485 0 0 1-1.927-.841l-3.813-9.749a1.485 1.485 0 0 1 .839-1.923l.875-.345 2.258-.887 2.258-.888 2.258-.888 2.254-.888.875-.344c.764-.3 1.626.076 1.926.839l3.828 9.745zM214.161 231.246c.3.763-.075 1.625-.838 1.925l-.881.347-2.258.887-2.258.887-2.262.891-2.262.888.002-.001a1.486 1.486 0 0 1-1.927-.841l-3.813-9.749a1.485 1.485 0 0 1 .839-1.923l2.258-.887 2.258-.888 2.258-.887 2.254-.887.875-.344c.764-.3 1.626.076 1.926.839l3.829 9.743zM228.857 225.461a1.485 1.485 0 0 1-.838 1.93l-.874.343v.004l-2.258.888-2.262.888-2.258.888-2.262.891-.009.003a1.485 1.485 0 0 1-1.924-.837l-3.848-9.738a1.485 1.485 0 0 1 .838-1.928l2.258-.887h.004l2.254-.891 2.258-.884 2.258-.888.878-.347a1.485 1.485 0 0 1 1.926.834l3.859 9.731zM244.676 219.239a1.485 1.485 0 0 1-.837 1.933l-.871.342-2.258.887-2.261.891-2.262.888-2.261.891-.88.346a1.486 1.486 0 0 1-1.924-.835l-3.862-9.735a1.486 1.486 0 0 1 .837-1.93l.868-.342 2.258-.887 2.258-.888 2.258-.887 2.254-.888.882-.347a1.485 1.485 0 0 1 1.923.832l3.878 9.729zM260.496 213.015a1.485 1.485 0 0 1-.835 1.935l-.866.34v.004l-2.262.888-2.262.887-2.262.891-2.258.887-.887.348a1.485 1.485 0 0 1-1.922-.832l-3.883-9.727a1.486 1.486 0 0 1 .836-1.933l.868-.341 2.254-.888 2.258-.888 2.262-.887 2.254-.891h.004l.882-.346a1.486 1.486 0 0 1 1.921.83l3.898 9.723zM274.059 207.682a1.486 1.486 0 0 1-.833 1.937l-.869.343-2.262.887-2.258.887-2.262.891-.889.349a1.484 1.484 0 0 1-1.921-.83l-3.9-9.725a1.485 1.485 0 0 1 .835-1.935l.866-.34 2.258-.887 2.254-.887 2.258-.888.887-.349a1.485 1.485 0 0 1 1.921.827l3.915 9.72zM305.7 195.234a1.486 1.486 0 0 1-.833 1.942l-.859.338-2.262.891-2.261.887-2.262.891-2.258.887-.893.351a1.485 1.485 0 0 1-1.919-.825l-3.932-9.713a1.485 1.485 0 0 1 .833-1.94l.861-.339 2.254-.887 2.258-.888 2.262-.888 2.254-.888.891-.35a1.484 1.484 0 0 1 1.919.823l3.947 9.708zM289.888 201.452a1.485 1.485 0 0 1-.833 1.942l-.859.338-2.262.891-2.262.887-2.262.891-2.258.887-.893.351a1.486 1.486 0 0 1-1.92-.825l-3.932-9.713a1.485 1.485 0 0 1 .833-1.94l.861-.339 2.254-.888 2.258-.888 2.262-.888 2.254-.887.891-.35a1.484 1.484 0 0 1 1.919.823l3.949 9.708zM321.524 189.01c.313.766-.06 1.64-.83 1.944l-.862.34-2.262.888-2.262.891-2.258.887-2.262.888-.895.353a1.486 1.486 0 0 1-1.921-.822l-3.95-9.708a1.484 1.484 0 0 1 .83-1.941l.862-.34 4.516-1.775 2.258-.887 2.258-.888.894-.351a1.486 1.486 0 0 1 1.919.821l3.965 9.7zM335.086 183.676a1.485 1.485 0 0 1-.83 1.946l-.86.339-2.258.888-2.262.888-2.261.891-.899.353a1.485 1.485 0 0 1-1.917-.82l-3.97-9.702a1.485 1.485 0 0 1 .832-1.945l.859-.337 2.258-.891 2.258-.888 2.254-.888.896-.352a1.486 1.486 0 0 1 1.918.818l3.982 9.7zM350.907 177.453a1.486 1.486 0 0 1-.83 1.949l-.853.335-2.262.887-2.262.891-2.262.887-2.258.888-.899.354a1.485 1.485 0 0 1-1.919-.818l-3.981-9.698a1.484 1.484 0 0 1 .831-1.946l.855-.336 2.254-.887 2.258-.887 2.262-.888 2.258-.891.894-.352a1.486 1.486 0 0 1 1.918.816l3.996 9.696zM366.734 171.227a1.485 1.485 0 0 1-.83 1.951l-.853.335-2.262.891-2.262.888-2.262.887-2.258.887v.004l-.907.355a1.485 1.485 0 0 1-1.915-.817l-3.999-9.694a1.484 1.484 0 0 1 .831-1.949l.855-.335 2.258-.888 2.254-.888 2.258-.887h.004l2.258-.891.9-.354a1.486 1.486 0 0 1 1.916.814l4.014 9.691zM395.328 176.701a1.486 1.486 0 0 1-.826 1.954l-.852.336-2.265.891-2.265.891-2.265.891-2.265.891-.905.356a1.486 1.486 0 0 1-1.917-.812l-4.029-9.702a1.485 1.485 0 0 1 .829-1.952l.851-.334 2.262-.888 2.262-.891 2.262-.888 2.262-.891.908-.356a1.486 1.486 0 0 1 1.914.811l4.039 9.693zM379.482 182.941a1.485 1.485 0 0 1-.827 1.951l-.855.337-2.265.891-2.265.891-2.265.891-.903.356a1.485 1.485 0 0 1-1.917-.814l-4.019-9.713a1.486 1.486 0 0 1 .828-1.95l.856-.337 2.262-.888 2.261-.888 2.262-.891.905-.355a1.486 1.486 0 0 1 1.915.813l4.027 9.706zM365.899 188.287a1.485 1.485 0 0 1-.831 1.95l-.856.336-2.262.891-2.265.891-2.265.891-2.262.891-.905.356a1.485 1.485 0 0 1-1.917-.817l-4.004-9.725a1.485 1.485 0 0 1 .831-1.948l.856-.336 2.262-.888 2.261-.891 2.262-.888 2.262-.891.903-.355a1.485 1.485 0 0 1 1.915.815l4.015 9.718zM350.054 194.525a1.484 1.484 0 0 1-.83 1.947l-.861.339-2.262.891-2.265.891-2.265.891-2.262.888-.902.355a1.486 1.486 0 0 1-1.918-.819l-3.988-9.737a1.485 1.485 0 0 1 .829-1.945l.858-.339 2.262-.888 2.261-.887 2.262-.891 2.261-.888.901-.354a1.485 1.485 0 0 1 1.916.818l4.003 9.728zM334.208 200.762a1.486 1.486 0 0 1-.83 1.945l-.861.339-2.265.891-2.265.891-2.262.891-2.265.891-.9.354a1.485 1.485 0 0 1-1.919-.821l-3.976-9.75a1.485 1.485 0 0 1 .834-1.944l.863-.338 2.262-.891 2.262-.887 2.258-.887 2.262-.888.898-.354a1.485 1.485 0 0 1 1.919.819l3.985 9.739zM318.365 207.002a1.486 1.486 0 0 1-.832 1.943l-.866.341-2.265.891-2.265.891-2.262.888-2.265.891-.897.353a1.485 1.485 0 0 1-1.92-.824l-3.96-9.762a1.484 1.484 0 0 1 .832-1.94l.866-.341 2.262-.887 2.262-.888 2.262-.891 2.262-.888.897-.352a1.485 1.485 0 0 1 1.918.822l3.971 9.753zM302.519 213.238a1.484 1.484 0 0 1-.833 1.94l-.868.342-2.265.891-2.262.891-2.265.891-.896.352a1.486 1.486 0 0 1-1.921-.826l-3.948-9.774a1.486 1.486 0 0 1 .835-1.939l.865-.339 2.262-.891 2.262-.887 2.262-.891.894-.351a1.485 1.485 0 0 1 1.919.825l3.959 9.766zM288.937 218.585a1.486 1.486 0 0 1-.836 1.939l-.868.34-2.265.891-2.262.891-2.265.891-2.265.891-.893.351a1.485 1.485 0 0 1-1.922-.829l-3.931-9.786a1.484 1.484 0 0 1 .836-1.936l.868-.34 2.262-.888 2.262-.891 2.258-.887 2.265-.888v-.004l.892-.35a1.485 1.485 0 0 1 1.92.827l3.944 9.778zM273.092 224.824a1.486 1.486 0 0 1-.834 1.936l-.873.344-2.262.891-2.265.891-2.262.887-2.265.891-.891.351a1.486 1.486 0 0 1-1.923-.83l-3.921-9.797a1.485 1.485 0 0 1 .835-1.934l.875-.344 2.262-.888 2.258-.888 2.262-.891 2.262-.888.89-.349a1.485 1.485 0 0 1 1.921.829l3.931 9.789zM257.246 231.061a1.485 1.485 0 0 1-.835 1.933l-.873.344-2.265.891-2.265.891-2.262.891-2.265.891-.884.348a1.485 1.485 0 0 1-1.925-.833l-3.903-9.812a1.485 1.485 0 0 1 .838-1.932l.872-.342v-.004l2.258-.888 4.523-1.775 2.262-.891.883-.347a1.486 1.486 0 0 1 1.923.831l3.918 9.804zM241.403 237.3a1.485 1.485 0 0 1-.836 1.931l-.878.345-2.262.888-4.531 1.783-.882.348a1.486 1.486 0 0 1-1.926-.835l-3.892-9.821a1.486 1.486 0 0 1 .838-1.93l.874-.343 2.262-.891 2.262-.888 2.258-.888.884-.348c.762-.3 1.622.072 1.925.833l3.904 9.816zM227.823 242.646a1.485 1.485 0 0 1-.837 1.928l-.878.346-2.265.891-2.265.891-2.262.887-2.265.891-.883.348a1.486 1.486 0 0 1-1.926-.838l-3.872-9.835a1.485 1.485 0 0 1 .839-1.927l.877-.344 2.262-.891 2.258-.887 2.262-.888 2.261-.891.883-.346a1.486 1.486 0 0 1 1.924.836l3.887 9.829zM211.98 248.882a1.485 1.485 0 0 1-.838 1.926l-.883.347-2.261.891-4.531 1.783-2.262.887-.881.347a1.486 1.486 0 0 1-1.927-.84l-3.858-9.848a1.486 1.486 0 0 1 .84-1.925l.88-.345 2.258-.888 2.261-.891 2.262-.888 2.262-.887.88-.346a1.486 1.486 0 0 1 1.925.839l3.873 9.838zM207.563 237.665v-.004M238.642 256.745v-.004M225.039 262.1v-.004M376.961 202.293v-.004M222.225 261.608a1.485 1.485 0 0 1-.838 1.927l-.882.347-2.269.895-2.265.891-2.269.891-2.269.895-.882.347a1.485 1.485 0 0 1-1.927-.839l-3.838-9.772c-.3-.763.076-1.625.839-1.925l.884-.348 2.265-.891 2.265-.891 2.262-.891 2.265-.891.884-.348c.763-.3 1.625.075 1.926.838l3.849 9.765zM235.828 256.252a1.484 1.484 0 0 1-.837 1.929l-.88.346-2.269.891-2.269.895-2.265.891-.889.349a1.485 1.485 0 0 1-1.925-.837l-3.853-9.764a1.486 1.486 0 0 1 .837-1.927l.879-.346 2.265-.891 2.265-.891 2.265-.891.882-.348c.762-.3 1.624.073 1.926.835l3.868 9.759zM251.697 250.002c.304.764-.07 1.63-.835 1.931l-.883.348-2.265.891-2.269.891-2.265.895-2.269.891-.891.35a1.486 1.486 0 0 1-1.924-.835l-3.867-9.757a1.486 1.486 0 0 1 .837-1.93l.88-.346 2.265-.891 2.262-.891 2.265-.891 2.265-.891.888-.35a1.486 1.486 0 0 1 1.924.833l3.882 9.752zM283.436 237.5a1.485 1.485 0 0 1-.835 1.937l-.875.344-2.265.891v.004l-2.269.891-2.269.891-2.269.895-.891.351a1.486 1.486 0 0 1-1.923-.83l-3.902-9.743a1.486 1.486 0 0 1 .834-1.934l.872-.344 2.265-.891 2.265-.891 2.265-.891 2.262-.891.894-.352a1.486 1.486 0 0 1 1.922.828l3.919 9.735zM299.306 231.251a1.486 1.486 0 0 1-.832 1.939l-.875.345-2.265.891-2.269.891-2.269.895-2.265.891-.897.354a1.486 1.486 0 0 1-1.923-.827l-3.918-9.735a1.485 1.485 0 0 1 .834-1.937l.872-.343 2.265-.891 2.265-.891 2.262-.891 2.265-.891.896-.352a1.486 1.486 0 0 1 1.921.825l3.933 9.727zM328.777 219.644a1.485 1.485 0 0 1-.83 1.943l-.871.343-2.265.891-2.269.891-2.269.895-2.265.891-.901.355a1.484 1.484 0 0 1-1.921-.823l-3.95-9.724a1.485 1.485 0 0 1 .832-1.941l.868-.341 2.265-.891 2.265-.891 2.265-.891 2.262-.891.9-.354a1.485 1.485 0 0 1 1.919.821l3.965 9.717zM344.646 213.395a1.486 1.486 0 0 1-.831 1.946l-.863.34-2.269.891-2.269.895-2.265.891-2.269.891-.9.355a1.486 1.486 0 0 1-1.921-.82l-3.967-9.714a1.486 1.486 0 0 1 .831-1.944l.865-.34 2.262-.891 2.265-.891 2.265-.891 2.265-.891.902-.355a1.486 1.486 0 0 1 1.918.819l3.981 9.709zM358.246 208.039a1.486 1.486 0 0 1-.83 1.948l-.861.339-2.269.891-2.265.895-2.269.891-.907.356a1.485 1.485 0 0 1-1.917-.819l-3.983-9.707a1.486 1.486 0 0 1 .83-1.946l.863-.339 2.265-.891 2.262-.891 2.265-.891.905-.356a1.485 1.485 0 0 1 1.917.817l3.994 9.703zM374.117 201.787a1.486 1.486 0 0 1-.829 1.951l-.861.338-2.265.895-2.269.891-2.269.891-2.265.895-.909.357a1.486 1.486 0 0 1-1.917-.817l-3.997-9.701a1.485 1.485 0 0 1 .83-1.948l.861-.339 4.531-1.783 2.262-.891 2.265-.891.907-.357a1.485 1.485 0 0 1 1.916.814l4.009 9.695zM357.4 225.208a1.486 1.486 0 0 1-.829 1.947l-.867.342-2.273.899-2.265.895-2.269.895-.908.359a1.486 1.486 0 0 1-1.921-.818L342.085 220a1.485 1.485 0 0 1 .83-1.945l.869-.343 2.265-.895 2.265-.895 2.269-.895.902-.357a1.486 1.486 0 0 1 1.92.817l3.995 9.721zM343.786 230.588a1.486 1.486 0 0 1-.828 1.944l-.875.346-2.269.895-2.269.899-2.269.895-2.273.899-.903.356a1.486 1.486 0 0 1-1.921-.821l-3.967-9.738a1.485 1.485 0 0 1 .83-1.942l.869-.343 2.265-.895 2.269-.895 2.269-.895 2.265-.895.905-.357a1.486 1.486 0 0 1 1.92.819l3.982 9.728zM327.899 236.868a1.484 1.484 0 0 1-.831 1.942l-.872.344-2.273.899-2.269.895-2.269.899-2.273.895-.899.356a1.487 1.487 0 0 1-1.924-.823l-3.952-9.749a1.486 1.486 0 0 1 .831-1.94l.871-.344 2.269-.895 2.265-.895 2.269-.895 2.265-.895.902-.356a1.486 1.486 0 0 1 1.921.822l3.969 9.74zM312.012 243.146a1.485 1.485 0 0 1-.83 1.939l-.879.348-2.269.895-2.269.899-2.269.895-2.273.899-.898.354a1.486 1.486 0 0 1-1.923-.826l-3.939-9.76a1.486 1.486 0 0 1 .832-1.938l.876-.346v-.004l2.265-.891 2.269-.895 2.265-.895 2.269-.895.896-.354a1.485 1.485 0 0 1 1.922.824l3.955 9.751zM296.124 249.426a1.486 1.486 0 0 1-.832 1.938l-.876.346-2.273.899-2.269.895-2.273.899-.896.353c-.76.3-1.619-.07-1.924-.828l-3.924-9.771a1.485 1.485 0 0 1 .835-1.936l.873-.344 2.269-.895 2.265-.895 2.269-.899.895-.352a1.485 1.485 0 0 1 1.921.827l3.94 9.763zM282.506 254.808a1.485 1.485 0 0 1-.833 1.935l-.879.347-2.273.899-2.269.895-2.269.899-2.273.899-.893.352a1.485 1.485 0 0 1-1.924-.83l-3.911-9.782a1.486 1.486 0 0 1 .834-1.933l.881-.347v-.004l2.265-.895 2.269-.895 2.265-.891 2.269-.899.893-.351a1.485 1.485 0 0 1 1.922.829l3.926 9.772zM250.73 267.369a1.485 1.485 0 0 1-.833 1.929l-.887.351-2.273.895-2.269.899-2.269.895-2.269.895-.887.352a1.486 1.486 0 0 1-1.928-.835l-3.879-9.806a1.486 1.486 0 0 1 .836-1.928l.886-.349 2.265-.895 2.265-.895 2.269-.895 2.269-.895.888-.349c.762-.3 1.622.073 1.924.834l3.892 9.797zM246.292 256.195v-.004M278.031 243.666v-.004M402.725 194.446v-.004M207.038 303.08a1.485 1.485 0 0 1-.84 1.923l-.897.353-2.276.895-2.276.895-2.276.899-2.276.895-.885.348a1.486 1.486 0 0 1-1.929-.844l-2.088-5.369-.505-1.292-1.757-4.525a1.486 1.486 0 0 1 .838-1.919l.897-.355 2.273-.895 2.269-.899 2.273-.899 2.269-.895.885-.35a1.486 1.486 0 0 1 1.93.841l1.76 4.507.505 1.292 2.106 5.394zM222.963 296.811a1.486 1.486 0 0 1-.838 1.925l-.892.351-2.276.895-2.276.899-2.276.895-2.276.895-.891.35a1.485 1.485 0 0 1-1.927-.842l-2.106-5.391-.505-1.292-1.766-4.517a1.485 1.485 0 0 1 .839-1.923l.894-.352 2.269-.899 2.273-.899 2.269-.899 2.269-.895.888-.351a1.486 1.486 0 0 1 1.929.839l1.769 4.507.509 1.292 2.121 5.412zM238.891 290.541a1.486 1.486 0 0 1-.837 1.927l-.89.35-2.276.895-2.276.899-2.276.895-2.276.895-.894.351a1.486 1.486 0 0 1-1.926-.839l-2.127-5.413-.509-1.292-1.772-4.513a1.486 1.486 0 0 1 .838-1.925l.889-.351 2.269-.899 2.273-.899 2.269-.895 2.273-.899.886-.351a1.486 1.486 0 0 1 1.929.836l1.779 4.506.512 1.289 2.142 5.433zM334.438 252.927a1.486 1.486 0 0 1-.832 1.943l-.877.345-2.273.895-2.276.895-2.276.895-2.276.899-2.273.895-2.276.895-2.276.895-2.273.895-2.276.895-2.276.895-2.273.895-2.276.895-2.276.895-2.277.895v.004l-2.276.895-2.273.895-4.553 1.79-2.273.895-2.276.895-2.276.895-2.276.895-2.273.895-2.276.899-2.276.895-2.276.895-2.273.895-2.276.895-2.276.895-2.276.895-2.273.895-.9.354a1.485 1.485 0 0 1-1.923-.833l-2.175-5.462-.513-1.289v-.004l-1.787-4.497a1.486 1.486 0 0 1 .833-1.93l.886-.351 2.273-.899 2.269-.895 2.273-.899 2.269-.899 2.269-.895 2.273-.899 2.269-.899 2.273-.895 2.269-.899 2.269-.899 2.273-.895 2.269-.899 2.273-.899 2.269-.895 2.273-.899 2.269-.899 2.273-.895 2.269-.899 2.269-.899 2.273-.895 2.269-.899 2.269-.899 2.273-.895 2.269-.899 2.273-.899 2.269-.895 2.269-.899 2.273-.899 2.269-.895 2.273-.899 2.269-.895.901-.357c.757-.3 1.615.066 1.923.82l1.833 4.498.524 1.289 2.247 5.542zM352.635 245.767a1.486 1.486 0 0 1-.831 1.945l-.872.344-2.276.895-2.276.895-2.273.895-2.276.895-2.276.895-.907.357a1.485 1.485 0 0 1-1.92-.822l-2.272-5.574-.524-1.289-1.821-4.469a1.484 1.484 0 0 1 .831-1.942l.872-.344 2.269-.899 2.273-.899 2.269-.895 2.269-.899 2.273-.899.905-.357a1.486 1.486 0 0 1 1.92.819l1.843 4.5.527 1.285 2.273 5.563zM368.556 239.498a1.485 1.485 0 0 1-.829 1.946l-.875.346-2.273.895-2.276.895-2.273.895-2.273.891-.913.359a1.485 1.485 0 0 1-1.918-.82l-2.293-5.6-.527-1.285-1.828-4.464a1.485 1.485 0 0 1 .829-1.945l.869-.343 2.269-.899 2.269-.899 2.269-.895 2.269-.899.911-.359a1.486 1.486 0 0 1 1.918.817l1.85 4.499.531 1.281 2.294 5.584zM414.047 221.589a1.485 1.485 0 0 1-.827 1.954l-.865.34-2.276.895v.004l-2.273.891-2.276.895v.004l-2.273.895-.92.362a1.485 1.485 0 0 1-1.915-.813l-1.774-4.274a1.485 1.485 0 0 1 .825-1.95l.865-.343 2.273-.899 2.273-.899 2.273-.895 2.273-.899.913-.361a1.486 1.486 0 0 1 1.918.809l1.786 4.284zM384.26 233.242a1.485 1.485 0 0 1-.827 1.954l-.865.34-2.276.895v.004l-2.273.891-2.276.895v.004l-2.273.895-.92.362a1.485 1.485 0 0 1-1.915-.813l-1.774-4.274a1.486 1.486 0 0 1 .825-1.951l.865-.343 2.273-.899 2.273-.899 2.273-.895 2.273-.899.913-.361a1.486 1.486 0 0 1 1.918.809l1.786 4.285zM206.357 267.86a1.485 1.485 0 0 1-.839 1.924l-.885.348-2.269.891-2.269.895-2.265.891-2.269.895-2.269.891-2.265.891-2.269.895-2.265.891-2.269.891-.88.347a1.484 1.484 0 0 1-1.929-.844l-3.803-9.785a1.485 1.485 0 0 1 .841-1.92l.889-.35 2.262-.891 2.265-.891 2.261-.891 2.265-.891 2.265-.891 2.265-.891 2.265-.891 2.262-.891 2.265-.891.881-.347a1.486 1.486 0 0 1 1.927.84l3.832 9.775zM218.956 279.927c.3.762-.074 1.624-.836 1.925l-.894.354-2.269.895-2.269.899-2.273.895-2.269.899-2.269.895-2.273.899-2.269.895-2.273.899-2.269.899-2.269.895-2.273.899-2.269.895-.883.349a1.486 1.486 0 0 1-1.931-.843l-3.826-9.845a1.485 1.485 0 0 1 .839-1.919l.892-.352 2.269-.895 2.269-.895 2.265-.895 2.265-.895 2.269-.895 2.269-.895 2.265-.895 2.269-.895 2.265-.895 2.269-.895 2.265-.895 2.269-.895.885-.349a1.484 1.484 0 0 1 1.927.839l3.863 9.817zM196.134 255.12a1.485 1.485 0 0 1-.839 1.924l-.883.348-2.265.891-2.262.891-2.265.891-2.265.891-2.262.891-2.265.891-2.265.888v.004l-.874.343a1.486 1.486 0 0 1-1.927-.844l-3.837-9.869a1.487 1.487 0 0 1 .841-1.921l.88-.346 2.262-.887 2.262-.891 2.261-.887 2.262-.888 2.262-.891 2.262-.888 2.258-.887.878-.344c.764-.3 1.627.077 1.926.841l3.855 9.849zM207.563 237.665v-.004M225.039 262.1v-.004M234.842 273.648a1.486 1.486 0 0 1-.837 1.928l-.886.35-2.269.895-2.273.899-2.269.899-2.273.895-.885.35a1.485 1.485 0 0 1-1.929-.837l-3.862-9.819c-.3-.763.075-1.625.837-1.926l.889-.35 2.265-.895 2.269-.895 2.269-.895 2.265-.895.884-.349a1.485 1.485 0 0 1 1.927.836l3.878 9.809zM257.09 283.378a1.486 1.486 0 0 1-.837 1.931l-.889.35-2.276.895-2.273.895-2.276.895-2.273.895-2.277.895-.896.352a1.485 1.485 0 0 1-1.925-.837l-2.148-5.439-.513-1.289-1.779-4.506a1.485 1.485 0 0 1 .835-1.927l.889-.352 2.273-.899 2.269-.895 2.269-.899 2.269-.895 2.273-.899.89-.353a1.485 1.485 0 0 1 1.927.832l1.791 4.504.513 1.289v.004l2.164 5.453zM238.642 256.745v-.004M246.292 256.195v-.004M241.051 203.598a1.486 1.486 0 0 1-.836 1.933l-.868.341-2.258.887-2.254.887-2.258.888-2.258.887-.88.346a1.485 1.485 0 0 1-1.924-.834l-1.636-4.117a1.486 1.486 0 0 1 .837-1.931l.87-.342 2.254-.888 2.258-.887 2.25-.884 2.258-.887.878-.346a1.486 1.486 0 0 1 1.924.831l1.643 4.116zM278.031 243.666v-.004M336.401 167.712h-.004M373.288 218.928a1.486 1.486 0 0 1-.827 1.948l-.87.344-2.269.895-2.269.899-2.273.895-2.269.899-.907.358a1.486 1.486 0 0 1-1.919-.817l-3.998-9.719a1.486 1.486 0 0 1 .829-1.947l3.136-1.237 2.265-.895 2.269-.895 2.265-.895.909-.359a1.485 1.485 0 0 1 1.918.815l4.01 9.711zM376.961 202.293v-.004M398.124 227.86a1.485 1.485 0 0 1-.828 1.951l-.866.341-2.276.895-2.273.895-3.194 1.256a1.485 1.485 0 0 1-1.916-.815l-1.759-4.253a1.485 1.485 0 0 1 .827-1.949l.87-.344 2.269-.899 2.273-.899 2.273-.895.914-.361a1.485 1.485 0 0 1 1.918.812l1.768 4.265zM394.682 219.568a1.485 1.485 0 0 1-.827 1.951l-.863.34-2.273.899-2.273.899-2.269.899-.914.36a1.485 1.485 0 0 1-1.917-.814L382.063 221a1.486 1.486 0 0 1 .826-1.949l.867-.343 2.269-.899 2.273-.895 2.269-.899.911-.359a1.485 1.485 0 0 1 1.917.813l1.287 3.099zM318.351 168.433l1.678 4.097a1.485 1.485 0 0 1-.831 1.945l-.856.336-2.254.888h-.004l-2.254.888-2.258.887-3.15 1.238a1.486 1.486 0 0 1-1.919-.822l-1.672-4.101a1.486 1.486 0 0 1 .831-1.943l.855-.337 2.258-.888 2.254-.887 2.258-.887 2.254-.884.891-.351a1.487 1.487 0 0 1 1.919.821zM334.142 162.222l1.682 4.096a1.485 1.485 0 0 1-.83 1.946l-.852.335-2.258.887-4.516 1.775-2.254.888-.895.352a1.485 1.485 0 0 1-1.918-.82l-1.678-4.099a1.486 1.486 0 0 1 .83-1.945l3.107-1.223 2.258-.884 2.258-.888 2.254-.888.892-.351a1.488 1.488 0 0 1 1.92.819zM349.934 156.009l1.692 4.094a1.485 1.485 0 0 1-.829 1.949l-.849.334-2.262.888-2.258.888-2.254.888-2.258.888-.897.353a1.485 1.485 0 0 1-1.917-.817l-1.687-4.097a1.485 1.485 0 0 1 .83-1.948l.853-.335 2.258-.888 2.254-.884 2.254-.887 2.258-.887.895-.352a1.483 1.483 0 0 1 1.917.813zM365.725 149.797l1.698 4.092a1.484 1.484 0 0 1-.828 1.951l-.846.333-4.516 1.775-2.258.888-2.258.887-.9.354a1.486 1.486 0 0 1-1.916-.814l-1.693-4.091a1.486 1.486 0 0 1 .829-1.951l.85-.334 2.258-.888 4.508-1.775 2.258-.887.897-.353a1.486 1.486 0 0 1 1.917.813zM383.225 147.674a1.486 1.486 0 0 1-.828 1.954l-.847.333-2.254.887-2.262.887-2.258.888-2.258.887-.898.354a1.486 1.486 0 0 1-1.916-.812l-1.7-4.091a1.486 1.486 0 0 1 .829-1.953l.843-.331 2.258-.888 2.258-.887 2.254-.888 2.254-.888.903-.355a1.485 1.485 0 0 1 1.914.811l1.708 4.092zM407.327 205.476a1.485 1.485 0 0 1-.824 1.953l-.863.342-2.269.895-2.273.899-2.269.895-2.269.899-2.269.895-2.273.899-2.269.895-2.269.899-2.269.895-2.269.895v.004l-2.273.895-2.269.899-.909.359a1.485 1.485 0 0 1-1.918-.815l-4.012-9.709a1.485 1.485 0 0 1 .828-1.949l.865-.341 2.265-.895 2.269-.895 2.265-.895 2.269-.895 2.265-.895 2.269-.895 2.269-.895 2.265-.895 2.265-.895 2.269-.895 2.269-.895 2.265-.895.911-.358a1.485 1.485 0 0 1 1.915.81l4.043 9.684zM401.322 191.073a1.484 1.484 0 0 1-.826 1.953l-.86.339-2.265.891-2.269.891-2.265.895-2.269.891-2.269.895-2.265.891-2.269.891-2.265.895-2.269.891-.911.358a1.486 1.486 0 0 1-1.916-.814l-4.011-9.692a1.485 1.485 0 0 1 .829-1.95l.859-.338 2.262-.891 2.265-.891 2.265-.891 2.265-.895 2.262-.887 2.265-.891v-.004l2.265-.891 2.265-.891 2.265-.891.911-.358a1.485 1.485 0 0 1 1.915.811l4.036 9.683zM389.337 162.335c.32.769-.053 1.65-.828 1.954l-.849.333-2.258.887-2.262.891-2.262.888-2.262.891-2.262.887-2.262.891-2.262.887-.905.355a1.485 1.485 0 0 1-1.915-.814l-4.016-9.688a1.487 1.487 0 0 1 .829-1.952l.852-.335 2.258-.887 2.258-.887 2.254-.888h.004l2.258-.891 6.774-2.663.903-.355a1.485 1.485 0 0 1 1.914.811l4.039 9.685zM402.725 194.446v-.004M267.573 243.745a1.485 1.485 0 0 1-.835 1.937l-.875.344-2.265.891v.004l-2.269.891-2.269.891-2.269.895-.891.351a1.486 1.486 0 0 1-1.923-.83l-3.902-9.743a1.486 1.486 0 0 1 .834-1.934l.872-.344 2.265-.891 2.265-.891 2.265-.891 2.262-.891.894-.352a1.486 1.486 0 0 1 1.922.828l3.919 9.735zM266.613 261.071a1.485 1.485 0 0 1-.835 1.937l-.875.344-2.265.891v.004l-2.269.891-2.269.891-2.269.895-.891.351a1.486 1.486 0 0 1-1.923-.83l-3.902-9.743a1.485 1.485 0 0 1 .834-1.934l.872-.344 2.265-.891 2.265-.891 2.265-.891 2.261-.891.894-.352a1.486 1.486 0 0 1 1.922.828l3.92 9.735zM312.908 225.919a1.486 1.486 0 0 1-.833 1.941l-.869.342-2.265.891-2.262.891-2.265.891-.895.352a1.485 1.485 0 0 1-1.921-.826l-3.948-9.774a1.486 1.486 0 0 1 .835-1.939l.865-.339 2.262-.891 2.262-.888 2.262-.891.894-.351a1.485 1.485 0 0 1 1.919.824l3.959 9.767z"/></g></g><g><path fill="#E2E2E2" d="M626.802 170.364l-6.826 13.32-4.545-12.578-7.104 4.731-1.147-1.54a.884.884 0 0 1-.067-.951l.112-.205c.114-.209.16-.445.147-.683-.331-6.15 5.876-12.307 5.876-12.307l5.526-.839.137-1.485 2.923-1.671.698-3.803 5.897.509c-.461 10.018 3.318 15.751 3.428 15.916-3.205-3.201-12.251-6.632-12.251-6.632.652 2.365 7.196 8.218 7.196 8.218z"/><path fill="#CCC" d="M641.7 159.082s-4.271-.23-6.543 2.692c0 0-2.555-1.95-4.13-1.809 0 0-.097-4.133-.513-4.828l1.207-1.3-2.18-2.462-1.114 1.486c-.461 10.015 3.316 15.749 3.428 15.916-3.205-3.201-12.251-6.632-12.251-6.632.654 2.365 7.197 8.218 7.197 8.218l-6.826 13.32-4.545-12.578-7.104 4.731-4.594 4.319h-2.139l-.371 2.321s9.332 4.642 12.255 1.764c0 0 2.919 1.575 3.665.932-.123.145-3.52 4.222 1.768 6.773 5.385 2.6 5.942 1.393 11.189 4.363 0 0 3.465-1.386 5.183-1.732a.277.277 0 0 0 .122-.485 11.25 11.25 0 0 1-2.283-2.599c-5.236-1.333-4.278-9.618-4.278-9.618s1.53.371 3.015-1.768c1.485-2.132 4.085-5.429 4.085-5.429l-1.76-.371s3.48-4.13 3.803-5.57c.327-1.441 3.391-2.184 3.391-2.184s1.066-4.73.323-7.47zm-11.649 32.308v4.085c-1.162-2.369-11.092-6.127-11.092-6.127 2.288-.902 6.265.602 6.265.602 4.69-1.16 4.827 1.44 4.827 1.44z"/><path fill="#AFAFAF" d="M633.122 191.494c-5.236-1.333-4.278-9.618-4.278-9.618l2.644 4.456a10.36 10.36 0 0 0 1.634 5.162z"/><path fill="none" stroke="#CCC" stroke-width=".371" stroke-miterlimit="10" d="M631.859 168.782l-.003-.004"/><path fill="#E2E2E2" d="M630.051 191.39v4.085c-1.162-2.369-11.092-6.127-11.092-6.127 2.288-.902 6.265.602 6.265.602 4.69-1.16 4.827 1.44 4.827 1.44z"/><path fill="#AFAFAF" d="M644.812 167.764c-.787 1.3-.787 4.594-.787 4.594l-2.648 6.22-.278 2.135-1.627 1.764c-2.042 3.015-7.984 3.855-7.984 3.855l-2.644-4.456s1.53.371 3.015-1.768c1.485-2.132 4.085-5.429 4.085-5.429l-1.76-.371s3.48-4.13 3.803-5.57c.327-1.441 3.391-2.184 3.391-2.184s1.066-4.731.323-7.472l1.114-.186-.089 3.015c-.001.001 2.874 4.553 2.086 5.853z"/></g><g><path fill="#E2E2E2" d="M113.71 269.497l-2.043-.617c-2.599-3.405-10.086-4.334-10.086-4.334l1.916 7.364-1.485 1.021-4.828-7.643 1.612-5.878-6.625 6.064 2.785 7.643-5.258 3.621 6.993.498 1.415-.561 1.864-.739 3.528 1.3 11.839-6.361c-.691-.761-1.27-1.285-1.627-1.378zm-10.212 5.24l-2.395.301-3.918.791 2.291-2.184 1.058.141v-1.3l1.448 1.159 1.905-.713-.389 1.805z"/><path fill="#AFAFAF" d="M122.006 279.836c-.356.709-3.145 3.398-5.737 5.812l-4.167-3.275h-1.549l-1.051-1.608-6.005-3.528 11.839-6.361c2.563 2.821 6.67 8.96 6.67 8.96z"/><path fill="#CCC" d="M98.796 259.411l-6.625 6.064-2.908.371c-.928-5.942 5.013-13.306 5.013-13.306l4.52 6.871z"/><path fill="#AFAFAF" d="M88.012 269.033l4.345.219-1.857-1.363-1.236-2.042 2.907-.372 2.786 7.643z"/><path fill="#AFAFAF" d="M94.957 273.118l-11.865-.631-2.99-3.855 7.906.401h.004z"/><path fill="#CCC" d="M83.092 272.487l-4.72 2.83-5.539-4.737a.298.298 0 0 1 .135-.519l7.134-1.428 2.99 3.854z"/><path fill="#E2E2E2" d="M113.402 293.698h-1.794l-3.777-.865-2.785.865-9.655-8.727-11.82-8.727-5.199-.928 4.72-2.83 11.865.631-5.258 3.621-.527.249 1.95 1.3 10.027 9.098-.694-1.667c2.061 1.575 6.677 5.147 6.822 5.63l1.237.743 1.671-.806.479-3.546 1.006 2.124 1.732 3.835z"/><path fill="#CCC" d="M116.269 285.647c-2.384 2.228-4.601 4.215-4.601 4.215l-1.006-2.124-1.838-3.881-8.712 1.04-.219-.527-2.317-2.139.531-5.556 1.864-.739 3.528 1.3 6.005 3.528 1.051 1.608h1.549l4.165 3.275z"/><path fill="#AFAFAF" d="M113.279 267.455c.68.991.431 2.043.431 2.043l-2.043-.617c-2.599-3.405-10.086-4.334-10.086-4.334l-.761-1.998s11.839-.479 13.554-3.138l2.169.538-3.264 7.506z"/><path fill="#CCC" d="M117.424 257.926l-.88 2.024-2.169-.538c-1.716 2.659-13.554 3.138-13.554 3.138l.761 1.998 1.916 7.364-1.485 1.021-4.828-7.643 1.612-5.878c4.95-3.469 6.993-.186 8.292-.186 1.3 0 7.799-4.397 7.799-4.397l2.536 3.097z"/><path fill="#AFAFAF" d="M110.661 287.738l-.479 3.547-1.671.805.312-8.233z"/><path fill="#E2E2E2" d="M108.823 283.857l-.312 8.233-1.237-.743c-.145-.483-4.761-4.055-6.822-5.63l-.342-.821 8.713-1.039z"/><path fill="#CCC" d="M103.888 272.932l-.39 1.805-2.396.301-3.917.791 2.291-2.184 1.058.141v-1.299l1.449 1.158z"/><path fill="#AFAFAF" d="M101.147 287.385l-10.027-9.098-1.949-1.3.527-.248 6.993.497 1.415-.561-.531 5.556 2.317 2.139.219.527.342.821z"/><path fill="none" stroke="#CCC" stroke-width=".371" stroke-miterlimit="10" d="M88.008 269.033l-.003-.004"/><g><path fill="#E2E2E2" d="M87.314 195.939l-.557 19.496-1.2.182-1.43.215-4.148.624-2.043-2.321-.494-9.44-.319-6.109-.04-.749a1.426 1.426 0 0 1 1.359-1.499l8.872-.399z"/><path fill="#AFAFAF" d="M100.219 235.024c-.685.942-.808 1.559-.741 1.95.066.385-.147.76-.523.864l-3.422.945s-.234-2.874.694-4.037c0 0 3.48 1.905 3.947-5.106l1.476.262a.59.59 0 0 1 .472.724c-.247.979-.835 2.929-1.903 4.398zM73.574 223.512l-4.178-3.498-2.057 4.241a18.351 18.351 0 0 1-.646-1.471c-.49-1.263-.732-2.243-.732-2.243s-1.3-14.019-2.833-18.475h1.905l7.397 1.738 2.536 14.787c0 .001 2.229 4.55-1.392 4.921z"/><path fill="#CCC" d="M77.443 204.695c-.431-1.73-5.262-2.351-5.262-2.351l-3.528-5.986 6.035 1.159 2.436 1.07.319 6.108zM72.43 203.804l-7.397-1.738.048-2.135 7.1 2.414z"/><path fill="#E2E2E2" d="M65.081 199.931l2.608-1.335a1.851 1.851 0 0 0 1.001-1.804l-.037-.433 3.528 5.986-7.1-2.414z"/><path fill="#CCC" d="M100.839 224.255v1.734l-.665 3.651c-.468 7.011-3.947 5.106-3.947 5.106l-2.785-2.678 4.761-2.429 2.636-5.384z"/><path fill="#AFAFAF" d="M97.14 216.765l-1.378 2.354-2.321-5.076-7.891 4.148-1.422-2.358 1.43-.215.672.839s3.342-.434 6.313-3.528c0-.001 5.971 1.485 4.597 3.836z"/><path fill="#AFAFAF" d="M93.768 210.763l-3.676 3.402s-1.385.869-1.385-.557c0-1.422 4.579-4.828 5.013-7.408.435-2.577-2.154-6.436-2.845-8.482 2.02.884 4.765 5.433 4.765 5.433.802 4.207-1.872 7.612-1.872 7.612z"/><path fill="none" stroke="#AFAFAF" stroke-width=".371" stroke-miterlimit="10" d="M90.092 197.58c.241-.037.505.015.784.137"/><path fill="#CCC" d="M101.084 219.49l-.245 4.764-2.637 5.385-4.761 2.429-1.95-1.872s-3.279 5.942-3.528-.806l-3.064-3.977s-3.87-.928-5.021-3.201l-2.406.371s-2.551 6.19-6.176 5.578c-1.764-.297-3.075-2.117-3.959-3.907l2.057-4.241 4.178 3.498c3.621-.371 1.393-4.921 1.393-4.921l-2.536-14.787-.249-1.459s4.831.62 5.262 2.351l.494 9.44 2.043 2.321s-.743 4.271 1.794 5.57h4.397l3.528-.308 3.157 1.114.587 3.279 1.393-5.199.928-1.794 1.378-2.354c1.374-2.351-4.597-3.836-4.597-3.836-2.971 3.093-6.313 3.528-6.313 3.528l-.672-.839 1.2-.182.557-19.496s2.878-.279 3.558 1.764c0 .004.004.011.004.015.691 2.046 3.279 5.905 2.845 8.482-.434 2.581-5.013 5.986-5.013 7.408 0 1.426 1.385.557 1.385.557l3.676-3.402s2.674-3.405 1.872-7.613l5.441 16.34z"/><path fill="#E2E2E2" d="M95.762 219.119l-.928 1.794c-.743-.557-1.979-4.456-1.979-4.456l-6.684 5.57h-4.397c-2.536-1.3-1.794-5.57-1.794-5.57l4.148-.624 1.422 2.358 7.891-4.148 2.321 5.076z"/><path fill="#AFAFAF" d="M94.834 220.913l-1.393 5.199-.587-3.279-3.157-1.114-3.528.308 6.684-5.57c.002-.001 1.238 3.899 1.981 4.456z"/><path fill="#E2E2E2" d="M95.532 238.782c-7.29.297-12.507-9.143-12.507-9.143l-2.859 1.177-3.157 1.794-1.363-1.114-3.402-1.857s-2.414-1.422-5.262-3.528c-2.848-2.106-.29-3.327-.29-3.327.182.464.397.969.646 1.471.884 1.79 2.195 3.609 3.959 3.907 3.624.613 6.176-5.578 6.176-5.578l2.406-.371c1.151 2.273 5.021 3.201 5.021 3.201l3.064 3.977c.249 6.748 3.528.806 3.528.806l1.95 1.872 2.785 2.678c-.929 1.161-.695 4.035-.695 4.035z"/></g><g><path fill="#CCC" d="M60.209 265.475c3.205-.836-.676 2.414-.676 2.414l-4.126 1.979-7.672 2.618s-.312-1.318 2.536-5.032 8.17-2.042 9.035-3.576c.286-.505.486-.78.416-1.01-.007-.015-.011-.03-.019-.045l-.015-.026c-.004-.007-.007-.015-.015-.026a.187.187 0 0 0-.026-.033l-1.578-2.429 2.741 1.058.186-3.339 4.326 3.855-1.125 1.177c0 .002-7.197 3.251-3.988 2.415z"/><path fill="#AFAFAF" d="M62.712 266.526s-1.734 3.743-4.765 4.349c-3.034.605-2.54-1.006-2.54-1.006l4.126-1.979s3.881-3.249.676-2.414c-3.208.836 3.988-2.414 3.988-2.414s.928 1.608-1.485 3.464z"/><path fill="#CCC" d="M69.396 257.614l-4.074 4.271-4.326-3.855-2.926 2.28 1.578 2.429a.954.954 0 0 0-.219-.178 2.803 2.803 0 0 0-.264-.141l-.111-.056-.249-.108c-.275-.119-.62-.256-1.047-.423a120.248 120.248 0 0 1-3.216-1.307l.836-2.247 2.228-.602 1.329-.991s.999-.327 2.495-.509c2.132-.264 5.274-.234 7.966 1.437z"/><path fill="#AFAFAF" d="M64.632 252.541l-3.097 2.6s-3.093-2.291-2.599 1.545l-1.329.991-2.228.602-.836 2.247c-5.6-2.373-6.079-8.953-6.094-9.169 3.872 1.684 13.583-.687 15.393-1.152l.716-.002c.148.036.325.089.51.167l-.436 2.171z"/><path fill="#E2E2E2" d="M59.306 263.879c-.865 1.534-6.187-.137-9.035 3.576-2.848 3.714-2.536 5.032-2.536 5.032h-1.426l-2.659-6.02 3.465-5.448-2.997-6.863a2.664 2.664 0 0 0-.004-.379c-.249-3.249 3.001-3.528 3.001-3.528.267.483.728.843 1.333 1.107.015.215.494 6.796 6.094 9.169.427.182.824.345 1.188.494a107.226 107.226 0 0 0 1.653.664c.134.052.256.1.375.149.427.167.772.305 1.047.423.089.037.171.074.249.108l.111.056c.104.048.189.097.264.141a.958.958 0 0 1 .245.211l.015.026.015.026c.007.015.011.03.019.045.07.231-.131.505-.417 1.011z"/><path fill="#AFAFAF" d="M46.309 272.487h-7.178l-.371-1.255.62-.906.617-.906s-.449-1.901-.308-3.387c.141-1.485-.928-4.148-.928-4.148l4.891 4.583 2.657 6.019zM44.114 253.778c.011.126.011.253.004.379-.178 3.142-5.281 6.428-5.281 6.428l.171-2.845-.249-2.228 1.114-2.228.743-2.106 1.549-3.279-2.169-2.169-.022-.787c.576.056.951.108.951.108s4.026 1.3 6.191 5.199c-.001 0-3.251.278-3.002 3.528z"/><path fill="#CCC" d="M39.873 253.284l-1.114 2.228.249 2.228-.171 2.845-.078 1.3s1.069 2.663.928 4.148c-.141 1.486.308 3.387.308 3.387l-.617.906-2.804-4.014.754-3.84v-.004c.449-.479.687-.828.687-.828l-6.19-1.983-.928-2.351-1.237-1.422 10.335-10.153 2.169 2.169-1.549 3.279-.742 2.105z"/><path fill="#AFAFAF" d="M39.996 245.73l-10.335 10.153-1.504.457c2.611-4.426 5.734-9.789 6.053-10.639.42-1.118 4.014-.921 5.764-.758l.022.787z"/><path fill="#E2E2E2" d="M37.329 262.471l-.754 3.84-6.48 6.176s-4.271-2.677-1.549-7.197l3.279-5.633.186 2.599-1.114 2.54v3.528l2.663-3.528c1.734-.424 3.034-1.541 3.769-2.325z"/><path fill="#AFAFAF" d="M39.379 270.325l-.62.906s-3.405-.524-8.664 1.255l6.48-6.176 2.804 4.015zM38.016 261.639s-.238.349-.687.828v.004c-.735.784-2.035 1.901-3.769 2.325l-2.663 3.528v-3.528l1.114-2.54-.186-2.599 6.191 1.982z"/><path fill="none" stroke="#CCC" stroke-width=".371" stroke-miterlimit="10" d="M48.448 251.356v-.003"/><path fill="#CCC" d="M47.115 261.019l-3.465 5.448-4.891-4.583.078-1.3s5.102-3.286 5.281-6.428l2.997 6.863z"/><path fill="#AFAFAF" d="M61.534 255.141l-.104 1.036c-1.496.182-2.495.509-2.495.509-.494-3.837 2.599-1.545 2.599-1.545z"/><path fill="none" stroke="#CCC" stroke-width=".371" stroke-miterlimit="10" d="M44.118 254.156l-.004-.007M59.689 262.798l-.041-.06"/><path fill="#AFAFAF" d="M60.996 258.03l-.186 3.338-2.74-1.058z"/></g></g></svg>