<svg xmlns="http://www.w3.org/2000/svg" viewBox="0 0 397.8 325.2">
  <style>
    .st0{enable-background:new}.st1{fill:#a8a91e}.st4{fill:#e0df33}.st6{fill:#832d32}.st8{fill:#c03b3e}.st9{fill:#ea5920}.st10{fill:#e94b22}.st11{fill:#ea5721}.st13{fill:#e3a828}.st15{fill:#ffde2d}.st17{fill:#b42184}.st19{fill:#d34c95}.st20{fill:#4cb9a7}.st23{fill:#71c4c0}.st25{fill:#f28f20}
  </style>
  <g class="st0">
    <path d="M226.3 71.2l-.1 38.9-132.5 77 .1-38.9z" class="st1"/>
    <path fill="#c5c923" d="M93.8 148.2l-.1 38.9-65.8-38 .1-38.9z"/>
    <path fill="#d1d325" d="M226.3 71.2l-132.5 77-65.8-38 132.6-77z"/>
  </g>
  <g class="st0">
    <path d="M169 50.8v7.8c0 1.7-1.1 3.5-3.4 4.8-4.6 2.7-12 2.7-16.7 0-2.3-1.3-3.5-3.1-3.5-4.9v-7.8c0 1.8 1.2 3.5 3.5 4.9 4.6 2.7 12.1 2.7 16.7 0 2.3-1.3 3.4-3.1 3.4-4.8z" class="st1"/>
    <path d="M165.5 45.9c4.6 2.7 4.6 7 .1 9.6-4.6 2.7-12 2.7-16.7 0-4.6-2.7-4.6-7 0-9.6 4.6-2.6 12-2.6 16.6 0z" class="st4"/>
  </g>
  <g class="st0">
    <path d="M201.1 69.3v7.8c0 1.7-1.1 3.5-3.4 4.8-4.6 2.7-12 2.7-16.7 0-2.3-1.3-3.5-3.1-3.5-4.9v-7.8c0 1.8 1.2 3.5 3.5 4.9 4.6 2.7 12.1 2.7 16.7 0 2.2-1.3 3.4-3.1 3.4-4.8z" class="st1"/>
    <path d="M197.6 64.4c4.6 2.7 4.6 7 .1 9.6-4.6 2.7-12 2.7-16.7 0-4.6-2.7-4.6-7 0-9.6s12-2.6 16.6 0z" class="st4"/>
  </g>
  <g class="st0">
    <path d="M138.3 68.6v7.8c0 1.7-1.1 3.5-3.4 4.8-4.6 2.7-12 2.7-16.7 0-2.3-1.3-3.5-3.1-3.5-4.9v-7.8c0 1.8 1.2 3.5 3.5 4.9 4.6 2.7 12.1 2.7 16.7 0 2.2-1.3 3.4-3 3.4-4.8z" class="st1"/>
    <path d="M134.8 63.8c4.6 2.7 4.6 7 .1 9.6-4.6 2.7-12 2.7-16.7 0-4.6-2.7-4.6-7 0-9.6 4.5-2.7 12-2.7 16.6 0z" class="st4"/>
  </g>
  <g class="st0">
    <path d="M170.3 87.2V95c0 1.7-1.1 3.5-3.4 4.8-4.6 2.7-12 2.7-16.7 0-2.3-1.3-3.5-3.1-3.5-4.9v-7.8c0 1.8 1.2 3.5 3.5 4.9 4.6 2.7 12.1 2.7 16.7 0 2.3-1.4 3.4-3.1 3.4-4.8z" class="st1"/>
    <path d="M166.9 82.3c4.6 2.7 4.6 7 .1 9.6-4.6 2.7-12 2.7-16.7 0-4.6-2.7-4.6-7 0-9.6 4.5-2.7 12-2.7 16.6 0z" class="st4"/>
  </g>
  <g class="st0">
    <path d="M107.6 86.5v7.8c0 1.7-1.1 3.5-3.4 4.8-4.6 2.7-12 2.7-16.7 0-2.3-1.4-3.5-3.1-3.5-4.9v-7.8c0 1.8 1.2 3.5 3.5 4.9 4.6 2.7 12.1 2.7 16.7 0 2.2-1.3 3.4-3.1 3.4-4.8z" class="st1"/>
    <path d="M104.1 81.6c4.6 2.7 4.6 7 .1 9.6-4.6 2.7-12 2.7-16.7 0-4.6-2.7-4.6-7 0-9.6 4.5-2.6 12-2.6 16.6 0z" class="st4"/>
  </g>
  <g class="st0">
    <path d="M139.6 105v7.8c0 1.7-1.1 3.5-3.4 4.8-4.6 2.7-12 2.7-16.7 0-2.3-1.3-3.5-3.1-3.5-4.9v-7.8c0 1.8 1.2 3.5 3.5 4.9 4.6 2.7 12.1 2.7 16.7 0 2.3-1.3 3.4-3.1 3.4-4.8z" class="st1"/>
    <path d="M136.1 100.2c4.6 2.7 4.6 7 .1 9.6-4.6 2.7-12 2.7-16.7 0-4.6-2.7-4.6-7 0-9.6 4.6-2.7 12-2.7 16.6 0z" class="st4"/>
  </g>
  <g class="st0">
    <path d="M76.8 104.4v7.8c0 1.7-1.1 3.5-3.4 4.8-4.6 2.7-12 2.7-16.6 0-2.3-1.3-3.5-3.1-3.5-4.9v-7.8c0 1.8 1.2 3.5 3.5 4.9 4.6 2.7 12.1 2.7 16.6 0 2.3-1.4 3.4-3.1 3.4-4.8z" class="st1"/>
    <path d="M73.4 99.5c4.6 2.7 4.6 7 0 9.6-4.6 2.7-12 2.7-16.6 0-4.6-2.7-4.6-7-.1-9.6 4.6-2.7 12.1-2.7 16.7 0z" class="st4"/>
  </g>
  <g class="st0">
    <path d="M108.9 122.9v7.8c0 1.7-1.1 3.5-3.4 4.8-4.6 2.7-12 2.7-16.7 0-2.3-1.3-3.5-3.1-3.5-4.9v-7.8c0 1.8 1.2 3.5 3.5 4.9 4.6 2.7 12.1 2.7 16.7 0 2.3-1.4 3.4-3.1 3.4-4.8z" class="st1"/>
    <path d="M105.4 118c4.6 2.7 4.6 7 .1 9.6-4.6 2.7-12 2.7-16.7 0-4.6-2.7-4.6-7-.1-9.6 4.7-2.7 12.1-2.7 16.7 0z" class="st4"/>
  </g>
  <g>
    <g class="st0">
      <path fill="#a3545c" d="M199 115.9l.1 38.9 132.6 77.1-.1-38.9z"/>
      <path d="M331.6 193l.1 38.9 65.8-38-.1-38.9z" class="st6"/>
      <path fill="#ae242b" d="M199 115.9L331.6 193l65.8-38-132.6-77z"/>
    </g>
    <g class="st0">
      <path d="M256.3 95.6v7.8c0 1.7 1.1 3.5 3.4 4.8 4.6 2.7 12 2.7 16.7 0 2.3-1.3 3.5-3.1 3.5-4.9v-7.8c0 1.8-1.2 3.5-3.5 4.9-4.6 2.7-12.1 2.7-16.7 0-2.2-1.4-3.3-3.1-3.4-4.8z" class="st6"/>
      <path d="M259.8 90.7c-4.6 2.7-4.6 7-.1 9.6 4.6 2.7 12 2.7 16.7 0 4.6-2.7 4.6-7 0-9.6-4.5-2.6-12-2.6-16.6 0z" class="st8"/>
    </g>
    <g class="st0">
      <path d="M224.3 114.1v7.8c0 1.7 1.1 3.5 3.4 4.8 4.6 2.7 12 2.7 16.7 0 2.3-1.3 3.5-3.1 3.5-4.9V114c0 1.8-1.2 3.5-3.5 4.9-4.6 2.7-12.1 2.7-16.7 0-2.3-1.4-3.4-3.1-3.4-4.8z" class="st6"/>
      <path d="M227.8 109.2c-4.6 2.7-4.6 7-.1 9.6 4.6 2.7 12 2.7 16.7 0 4.6-2.7 4.6-7 0-9.6-4.6-2.6-12-2.6-16.6 0z" class="st8"/>
    </g>
    <g class="st0">
      <path d="M287.1 113.4v7.8c0 1.7 1.1 3.5 3.4 4.8 4.6 2.7 12 2.7 16.7 0 2.3-1.3 3.5-3.1 3.5-4.9v-7.8c0 1.8-1.2 3.5-3.5 4.9-4.6 2.7-12.1 2.7-16.7 0-2.3-1.3-3.4-3-3.4-4.8z" class="st6"/>
      <path d="M290.6 108.6c-4.6 2.7-4.6 7-.1 9.6 4.6 2.7 12 2.7 16.7 0 4.6-2.7 4.6-7 0-9.6-4.6-2.7-12-2.7-16.6 0z" class="st8"/>
    </g>
    <g class="st0">
      <path d="M255 131.9v7.8c0 1.7 1.1 3.5 3.4 4.8 4.6 2.7 12 2.7 16.7 0 2.3-1.3 3.5-3.1 3.5-4.9v-7.8c0 1.8-1.2 3.5-3.5 4.9-4.6 2.7-12.1 2.7-16.7 0-2.2-1.3-3.4-3-3.4-4.8z" class="st6"/>
      <path d="M258.5 127.1c-4.6 2.7-4.6 7-.1 9.6 4.6 2.7 12 2.7 16.7 0 4.6-2.7 4.6-7 0-9.6-4.5-2.7-12-2.7-16.6 0z" class="st8"/>
    </g>
    <g class="st0">
      <path d="M317.8 131.3v7.8c0 1.7 1.1 3.5 3.4 4.8 4.6 2.7 12 2.7 16.7 0 2.3-1.3 3.5-3.1 3.5-4.9v-7.8c0 1.8-1.2 3.5-3.5 4.9-4.6 2.7-12.1 2.7-16.7 0-2.3-1.4-3.4-3.1-3.4-4.8z" class="st6"/>
      <path d="M321.3 126.4c-4.6 2.7-4.6 7-.1 9.6 4.6 2.7 12 2.7 16.7 0 4.6-2.7 4.6-7 0-9.6-4.6-2.6-12-2.6-16.6 0z" class="st8"/>
    </g>
    <g class="st0">
      <path d="M285.7 149.8v7.8c0 1.7 1.1 3.5 3.4 4.8 4.6 2.7 12 2.7 16.7 0 2.3-1.3 3.5-3.1 3.5-4.9v-7.8c0 1.8-1.2 3.5-3.5 4.9-4.6 2.7-12.1 2.7-16.7 0-2.2-1.3-3.4-3.1-3.4-4.8z" class="st6"/>
      <path d="M289.2 144.9c-4.6 2.7-4.6 7-.1 9.6 4.6 2.7 12 2.7 16.7 0 4.6-2.7 4.6-7 0-9.6-4.5-2.6-12-2.6-16.6 0z" class="st8"/>
    </g>
    <g class="st0">
      <path d="M348.5 149.1v7.8c0 1.7 1.1 3.5 3.4 4.8 4.6 2.7 12 2.7 16.6 0 2.3-1.3 3.5-3.1 3.5-4.9V149c0 1.8-1.2 3.5-3.5 4.9-4.6 2.7-12.1 2.7-16.6 0-2.2-1.3-3.4-3-3.4-4.8z" class="st6"/>
      <path d="M352 144.3c-4.6 2.7-4.6 7 0 9.6 4.6 2.7 12 2.7 16.6 0 4.6-2.7 4.6-7 .1-9.6-4.6-2.7-12.1-2.7-16.7 0z" class="st8"/>
    </g>
    <g class="st0">
      <path d="M316.5 167.6v7.8c0 1.7 1.1 3.5 3.4 4.8 4.6 2.7 12 2.7 16.7 0 2.3-1.3 3.5-3.1 3.5-4.9v-7.8c0 1.8-1.2 3.5-3.5 4.9-4.6 2.7-12.1 2.7-16.7 0-2.3-1.3-3.4-3-3.4-4.8z" class="st6"/>
      <path d="M319.9 162.8c-4.6 2.7-4.6 7-.1 9.6 4.6 2.7 12 2.7 16.7 0 4.6-2.7 4.6-7 .1-9.6-4.6-2.7-12-2.7-16.7 0z" class="st8"/>
    </g>
  </g>
  <g>
    <g class="st0">
      <path d="M199 77l.1 38.9 132.6 77-.1-38.9z" class="st9"/>
      <path d="M331.6 154l.1 38.9 65.8-38-.1-38.9z" class="st10"/>
      <path d="M199 77l132.6 77 65.8-38-132.6-77z" class="st11"/>
    </g>
    <g class="st0">
      <path d="M256.3 56.6v7.8c0 1.7 1.1 3.5 3.4 4.8 4.6 2.7 12 2.7 16.7 0 2.3-1.3 3.5-3.1 3.5-4.9v-7.8c0 1.8-1.2 3.5-3.5 4.9-4.6 2.7-12.1 2.7-16.7 0-2.2-1.3-3.3-3.1-3.4-4.8z" class="st10"/>
      <path d="M259.8 51.7c-4.6 2.7-4.6 7-.1 9.6 4.6 2.7 12 2.7 16.7 0 4.6-2.7 4.6-7 0-9.6-4.5-2.6-12-2.6-16.6 0z" class="st11"/>
    </g>
    <g class="st0">
      <path d="M224.3 75.1v7.8c0 1.7 1.1 3.5 3.4 4.8 4.6 2.7 12 2.7 16.7 0 2.3-1.3 3.5-3.1 3.5-4.9V75c0 1.8-1.2 3.5-3.5 4.9-4.6 2.7-12.1 2.7-16.7 0-2.3-1.3-3.4-3.1-3.4-4.8z" class="st10"/>
      <path d="M227.8 70.2c-4.6 2.7-4.6 7-.1 9.6 4.6 2.7 12 2.7 16.7 0 4.6-2.7 4.6-7 0-9.6-4.6-2.6-12-2.6-16.6 0z" class="st11"/>
    </g>
    <g class="st0">
      <path d="M287.1 74.4v7.8c0 1.7 1.1 3.5 3.4 4.8 4.6 2.7 12 2.7 16.7 0 2.3-1.3 3.5-3.1 3.5-4.9v-7.8c0 1.8-1.2 3.5-3.5 4.9-4.6 2.7-12.1 2.7-16.7 0-2.3-1.3-3.4-3-3.4-4.8z" class="st10"/>
      <path d="M290.6 69.6c-4.6 2.7-4.6 7-.1 9.6 4.6 2.7 12 2.7 16.7 0 4.6-2.7 4.6-7 0-9.6-4.6-2.7-12-2.7-16.6 0z" class="st11"/>
    </g>
    <g class="st0">
      <path d="M255 93v7.8c0 1.7 1.1 3.5 3.4 4.8 4.6 2.7 12 2.7 16.7 0 2.3-1.3 3.5-3.1 3.5-4.9v-7.8c0 1.8-1.2 3.5-3.5 4.9-4.6 2.7-12.1 2.7-16.7 0-2.2-1.4-3.4-3.1-3.4-4.8z" class="st10"/>
      <path d="M258.5 88.1c-4.6 2.7-4.6 7-.1 9.6 4.6 2.7 12 2.7 16.7 0 4.6-2.7 4.6-7 0-9.6-4.5-2.7-12-2.7-16.6 0z" class="st11"/>
    </g>
    <g class="st0">
      <path d="M317.8 92.3v7.8c0 1.7 1.1 3.5 3.4 4.8 4.6 2.7 12 2.7 16.7 0 2.3-1.3 3.5-3.1 3.5-4.9v-7.8c0 1.8-1.2 3.5-3.5 4.9-4.6 2.7-12.1 2.7-16.7 0-2.3-1.3-3.4-3.1-3.4-4.8z" class="st10"/>
      <path d="M321.3 87.4c-4.6 2.7-4.6 7-.1 9.6 4.6 2.7 12 2.7 16.7 0 4.6-2.7 4.6-7 0-9.6-4.6-2.6-12-2.6-16.6 0z" class="st11"/>
    </g>
    <g class="st0">
      <path d="M285.7 110.8v7.8c0 1.7 1.1 3.5 3.4 4.8 4.6 2.7 12 2.7 16.7 0 2.3-1.3 3.5-3.1 3.5-4.9v-7.8c0 1.8-1.2 3.5-3.5 4.9-4.6 2.7-12.1 2.7-16.7 0-2.2-1.3-3.4-3.1-3.4-4.8z" class="st10"/>
      <path d="M289.2 105.9c-4.6 2.7-4.6 7-.1 9.6 4.6 2.7 12 2.7 16.7 0 4.6-2.7 4.6-7 0-9.6-4.5-2.6-12-2.6-16.6 0z" class="st11"/>
    </g>
    <g class="st0">
      <path d="M348.5 110.2v7.8c0 1.7 1.1 3.5 3.4 4.8 4.6 2.7 12 2.7 16.6 0 2.3-1.3 3.5-3.1 3.5-4.9v-7.8c0 1.8-1.2 3.5-3.5 4.9-4.6 2.7-12.1 2.7-16.6 0-2.2-1.4-3.4-3.1-3.4-4.8z" class="st10"/>
      <path d="M352 105.3c-4.6 2.7-4.6 7 0 9.6 4.6 2.7 12 2.7 16.6 0 4.6-2.7 4.6-7 .1-9.6-4.6-2.7-12.1-2.7-16.7 0z" class="st11"/>
    </g>
    <g class="st0">
      <path d="M316.5 128.7v7.8c0 1.7 1.1 3.5 3.4 4.8 4.6 2.7 12 2.7 16.7 0 2.3-1.3 3.5-3.1 3.5-4.9v-7.8c0 1.8-1.2 3.5-3.5 4.9-4.6 2.7-12.1 2.7-16.7 0-2.3-1.4-3.4-3.1-3.4-4.8z" class="st10"/>
      <path d="M319.9 123.8c-4.6 2.7-4.6 7-.1 9.6 4.6 2.7 12 2.7 16.7 0 4.6-2.7 4.6-7 .1-9.6-4.6-2.7-12-2.7-16.7 0z" class="st11"/>
    </g>
  </g>
  <g>
    <g class="st0">
      <path fill="#ebce2b" d="M199 38l.1 38.9 132.6 77-.1-38.9z"/>
      <path d="M331.6 115l.1 38.9 65.8-38-.1-38.9z" class="st13"/>
      <path fill="#f7d82d" d="M199 38l132.6 77 65.8-38L264.8 0z"/>
    </g>
    <g class="st0">
      <path d="M256.3 17.6v7.8c0 1.7 1.1 3.5 3.4 4.8 4.6 2.7 12 2.7 16.7 0 2.3-1.3 3.5-3.1 3.5-4.9v-7.8c0 1.8-1.2 3.5-3.5 4.9-4.6 2.7-12.1 2.7-16.7 0-2.2-1.3-3.3-3.1-3.4-4.8z" class="st13"/>
      <path d="M259.8 12.8c-4.6 2.7-4.6 7-.1 9.6 4.6 2.7 12 2.7 16.7 0 4.6-2.7 4.6-7 0-9.6-4.5-2.7-12-2.7-16.6 0z" class="st15"/>
    </g>
    <g class="st0">
      <path d="M224.3 36.1v7.8c0 1.7 1.1 3.5 3.4 4.8 4.6 2.7 12 2.7 16.7 0 2.3-1.3 3.5-3.1 3.5-4.9V36c0 1.8-1.2 3.5-3.5 4.9-4.6 2.7-12.1 2.7-16.7 0-2.3-1.3-3.4-3.1-3.4-4.8z" class="st13"/>
      <path d="M227.8 31.3c-4.6 2.7-4.6 7-.1 9.6 4.6 2.7 12 2.7 16.7 0 4.6-2.7 4.6-7 0-9.6-4.6-2.7-12-2.7-16.6 0z" class="st15"/>
    </g>
    <g class="st0">
      <path d="M287.1 35.5v7.8c0 1.7 1.1 3.5 3.4 4.8 4.6 2.7 12 2.7 16.7 0 2.3-1.3 3.5-3.1 3.5-4.9v-7.8c0 1.8-1.2 3.5-3.5 4.9-4.6 2.7-12.1 2.7-16.7 0-2.3-1.4-3.4-3.1-3.4-4.8z" class="st13"/>
      <path d="M290.6 30.6c-4.6 2.7-4.6 7-.1 9.6 4.6 2.7 12 2.7 16.7 0 4.6-2.7 4.6-7 0-9.6-4.6-2.7-12-2.7-16.6 0z" class="st15"/>
    </g>
    <g class="st0">
      <path d="M255 54v7.8c0 1.7 1.1 3.5 3.4 4.8 4.6 2.7 12 2.7 16.7 0 2.3-1.3 3.5-3.1 3.5-4.9v-7.8c0 1.8-1.2 3.5-3.5 4.9-4.6 2.7-12.1 2.7-16.7 0-2.2-1.4-3.4-3.1-3.4-4.8z" class="st13"/>
      <path d="M258.5 49.1c-4.6 2.7-4.6 7-.1 9.6 4.6 2.7 12 2.7 16.7 0 4.6-2.7 4.6-7 0-9.6-4.5-2.6-12-2.7-16.6 0z" class="st15"/>
    </g>
    <g class="st0">
      <path d="M317.8 53.3v7.8c0 1.7 1.1 3.5 3.4 4.8 4.6 2.7 12 2.7 16.7 0 2.3-1.3 3.5-3.1 3.5-4.9v-7.8c0 1.8-1.2 3.5-3.5 4.9-4.6 2.7-12.1 2.7-16.7 0-2.3-1.3-3.4-3-3.4-4.8z" class="st13"/>
      <path d="M321.3 48.5c-4.6 2.7-4.6 7-.1 9.6 4.6 2.7 12 2.7 16.7 0 4.6-2.7 4.6-7 0-9.6-4.6-2.7-12-2.7-16.6 0z" class="st15"/>
    </g>
    <g class="st0">
      <path d="M285.7 71.8v7.8c0 1.7 1.1 3.5 3.4 4.8 4.6 2.7 12 2.7 16.7 0 2.3-1.3 3.5-3.1 3.5-4.9v-7.8c0 1.8-1.2 3.5-3.5 4.9-4.6 2.7-12.1 2.7-16.7 0-2.2-1.3-3.4-3-3.4-4.8z" class="st13"/>
      <path d="M289.2 67c-4.6 2.7-4.6 7-.1 9.6 4.6 2.7 12 2.7 16.7 0 4.6-2.7 4.6-7 0-9.6-4.5-2.7-12-2.7-16.6 0z" class="st15"/>
    </g>
    <g class="st0">
      <path d="M348.5 71.2V79c0 1.7 1.1 3.5 3.4 4.8 4.6 2.7 12 2.7 16.6 0 2.3-1.3 3.5-3.1 3.5-4.9v-7.8c0 1.8-1.2 3.5-3.5 4.9-4.6 2.7-12.1 2.7-16.6 0-2.2-1.4-3.4-3.1-3.4-4.8z" class="st13"/>
      <path d="M352 66.3c-4.6 2.7-4.6 7 0 9.6 4.6 2.7 12 2.7 16.6 0 4.6-2.7 4.6-7 .1-9.6-4.6-2.6-12.1-2.6-16.7 0z" class="st15"/>
    </g>
    <g class="st0">
      <path d="M316.5 89.7v7.8c0 1.7 1.1 3.5 3.4 4.8 4.6 2.7 12 2.7 16.7 0 2.3-1.3 3.5-3.1 3.5-4.9v-7.8c0 1.8-1.2 3.5-3.5 4.9-4.6 2.7-12.1 2.7-16.7 0-2.3-1.4-3.4-3.1-3.4-4.8z" class="st13"/>
      <path d="M319.9 84.8c-4.6 2.7-4.6 7-.1 9.6 4.6 2.7 12 2.7 16.7 0 4.6-2.7 4.6-7 .1-9.6-4.6-2.6-12-2.6-16.7 0z" class="st15"/>
    </g>
  </g>
  <g>
    <g class="st0">
      <path fill="#c6388d" d="M148.7 192.5l.1 38.9 132.5 77-.1-38.9z"/>
      <path d="M281.2 269.5l.1 38.9 65.8-37.9-.1-39z" class="st17"/>
      <path fill="#cc4692" d="M148.7 192.5l132.5 77 65.8-38-132.6-77z"/>
    </g>
    <g class="st0">
      <path d="M206 172.1v7.8c0 1.7 1.1 3.5 3.4 4.8 4.6 2.7 12 2.7 16.7 0 2.3-1.3 3.5-3.1 3.5-4.9V172c0 1.8-1.2 3.5-3.5 4.9-4.6 2.7-12.1 2.7-16.7 0-2.3-1.3-3.4-3-3.4-4.8z" class="st17"/>
      <path d="M209.4 167.3c-4.6 2.7-4.6 7-.1 9.6 4.6 2.7 12 2.7 16.7 0 4.6-2.7 4.6-7 0-9.6-4.5-2.7-11.9-2.7-16.6 0z" class="st19"/>
    </g>
    <g class="st0">
      <path d="M173.9 190.6v7.8c0 1.7 1.1 3.5 3.4 4.8 4.6 2.7 12 2.7 16.7 0 2.3-1.3 3.5-3.1 3.5-4.9v-7.8c0 1.8-1.2 3.5-3.5 4.9-4.6 2.7-12.1 2.7-16.7 0-2.2-1.3-3.4-3-3.4-4.8z" class="st17"/>
      <path d="M177.4 185.8c-4.6 2.7-4.6 7-.1 9.6 4.6 2.7 12 2.7 16.7 0 4.6-2.7 4.6-7 0-9.6-4.5-2.7-12-2.7-16.6 0z" class="st19"/>
    </g>
    <g class="st0">
      <path d="M236.7 190v7.8c0 1.7 1.1 3.5 3.4 4.8 4.6 2.7 12 2.7 16.7 0 2.3-1.3 3.5-3.1 3.5-4.9v-7.8c0 1.8-1.2 3.5-3.5 4.9-4.6 2.7-12.1 2.7-16.7 0-2.3-1.4-3.4-3.1-3.4-4.8z" class="st17"/>
      <path d="M240.2 185.1c-4.6 2.7-4.6 7-.1 9.6 4.6 2.7 12 2.7 16.7 0 4.6-2.7 4.6-7 0-9.6-4.6-2.6-12-2.6-16.6 0z" class="st19"/>
    </g>
    <g class="st0">
      <path d="M204.6 208.5v7.8c0 1.7 1.1 3.5 3.4 4.8 4.6 2.7 12 2.7 16.7 0 2.3-1.3 3.5-3.1 3.5-4.9v-7.8c0 1.8-1.2 3.5-3.5 4.9-4.6 2.7-12.1 2.7-16.7 0-2.2-1.3-3.4-3.1-3.4-4.8z" class="st17"/>
      <path d="M208.1 203.6c-4.6 2.7-4.6 7-.1 9.6 4.6 2.7 12 2.7 16.7 0 4.6-2.7 4.6-7 0-9.6-4.5-2.6-12-2.6-16.6 0z" class="st19"/>
    </g>
    <g class="st0">
      <path d="M267.4 207.8v7.8c0 1.7 1.1 3.5 3.4 4.8 4.6 2.7 12 2.7 16.7 0 2.3-1.3 3.5-3.1 3.5-4.9v-7.8c0 1.8-1.2 3.5-3.5 4.9-4.6 2.7-12.1 2.7-16.7 0-2.2-1.3-3.4-3-3.4-4.8z" class="st17"/>
      <path d="M270.9 203c-4.6 2.7-4.6 7-.1 9.6 4.6 2.7 12 2.7 16.7 0 4.6-2.7 4.6-7 0-9.6-4.5-2.7-12-2.7-16.6 0z" class="st19"/>
    </g>
    <g class="st0">
      <path d="M235.4 226.3v7.8c0 1.7 1.1 3.5 3.4 4.8 4.6 2.7 12 2.7 16.7 0 2.3-1.3 3.5-3.1 3.5-4.9v-7.8c0 1.8-1.2 3.5-3.5 4.9-4.6 2.7-12.1 2.7-16.7 0-2.3-1.3-3.4-3-3.4-4.8z" class="st17"/>
      <path d="M238.8 221.5c-4.6 2.7-4.6 7-.1 9.6 4.6 2.7 12 2.7 16.7 0 4.6-2.7 4.6-7 0-9.6-4.5-2.7-11.9-2.7-16.6 0z" class="st19"/>
    </g>
    <g class="st0">
      <path d="M298.1 225.7v7.8c0 1.7 1.1 3.5 3.4 4.8 4.6 2.7 12 2.7 16.6 0 2.3-1.3 3.5-3.1 3.5-4.9v-7.8c0 1.8-1.2 3.5-3.5 4.9-4.6 2.7-12.1 2.7-16.6 0-2.2-1.3-3.4-3.1-3.4-4.8z" class="st17"/>
      <path d="M301.6 220.8c-4.6 2.7-4.6 7 0 9.6 4.6 2.7 12 2.7 16.6 0 4.6-2.7 4.6-7 .1-9.6-4.6-2.6-12.1-2.6-16.7 0z" class="st19"/>
    </g>
    <g class="st0">
      <path d="M266.1 244.2v7.8c0 1.7 1.1 3.5 3.4 4.8 4.6 2.7 12 2.7 16.7 0 2.3-1.3 3.5-3.1 3.5-4.9v-7.8c0 1.8-1.2 3.5-3.5 4.9-4.6 2.7-12.1 2.7-16.7 0-2.3-1.3-3.4-3.1-3.4-4.8z" class="st17"/>
      <path d="M269.6 239.3c-4.6 2.7-4.6 7-.1 9.6 4.6 2.7 12 2.7 16.7 0 4.6-2.7 4.6-7 .1-9.6-4.7-2.6-12.1-2.6-16.7 0z" class="st19"/>
    </g>
  </g>
  <g>
    <g class="st0">
      <path d="M170.5 225.5l-.1 38.9-104.6 60.8.1-38.9z" class="st20"/>
      <path fill="#69c1ba" d="M65.9 286.3l-.1 38.9-65.8-38 .1-38.9z"/>
      <path fill="#70c4c0" d="M170.5 225.5L65.9 286.3l-65.8-38 104.7-60.8z"/>
    </g>
    <g class="st0">
      <path d="M112.9 201.3v7.8c0 1.7-1.1 3.5-3.4 4.8-4.6 2.7-12 2.7-16.6 0-2.3-1.3-3.5-3.1-3.5-4.9v-7.8c0 1.8 1.2 3.5 3.5 4.9 4.6 2.7 12.1 2.7 16.6 0 2.3-1.4 3.4-3.1 3.4-4.8z" class="st20"/>
      <path d="M109.4 196.4c4.6 2.7 4.6 7 0 9.6-4.6 2.7-12 2.7-16.6 0-4.6-2.7-4.6-7-.1-9.6 4.7-2.7 12.1-2.7 16.7 0z" class="st23"/>
    </g>
    <g class="st0">
      <path d="M145 219.8v7.8c0 1.7-1.1 3.5-3.4 4.8-4.6 2.7-12 2.7-16.6 0-2.3-1.3-3.5-3.1-3.5-4.9v-7.8c0 1.8 1.2 3.5 3.5 4.9 4.6 2.7 12.1 2.7 16.6 0 2.2-1.4 3.4-3.1 3.4-4.8z" class="st20"/>
      <path d="M141.5 214.9c4.6 2.7 4.6 7 0 9.6-4.6 2.7-12 2.7-16.6 0-4.6-2.7-4.6-7-.1-9.6 4.6-2.6 12.1-2.6 16.7 0z" class="st23"/>
    </g>
    <g class="st0">
      <path d="M82.2 219.1v7.8c0 1.7-1.1 3.5-3.4 4.8-4.6 2.7-12 2.7-16.6 0-2.3-1.3-3.5-3.1-3.5-4.9V219c0 1.8 1.2 3.5 3.5 4.9 4.6 2.7 12.1 2.7 16.6 0 2.2-1.3 3.4-3.1 3.4-4.8z" class="st20"/>
      <path d="M78.7 214.3c4.6 2.7 4.6 7 0 9.6-4.6 2.7-12 2.7-16.6 0-4.6-2.7-4.6-7-.1-9.6 4.6-2.7 12.1-2.7 16.7 0z" class="st23"/>
    </g>
    <g class="st0">
      <path d="M114.2 237.6v7.8c0 1.7-1.1 3.5-3.4 4.8-4.6 2.7-12 2.7-16.6 0-2.3-1.3-3.5-3.1-3.5-4.9v-7.8c0 1.8 1.2 3.5 3.5 4.9 4.6 2.7 12.1 2.7 16.6 0 2.3-1.3 3.4-3 3.4-4.8z" class="st20"/>
      <path d="M110.8 232.8c4.6 2.7 4.6 7 0 9.6-4.6 2.7-12 2.7-16.6 0-4.6-2.7-4.6-7-.1-9.6 4.6-2.7 12-2.7 16.7 0z" class="st23"/>
    </g>
    <g class="st0">
      <path d="M51.5 237v7.8c0 1.7-1.1 3.5-3.4 4.8-4.6 2.7-12 2.7-16.6 0-2.3-1.3-3.5-3.1-3.5-4.9v-7.8c0 1.8 1.2 3.5 3.5 4.9 4.6 2.7 12.1 2.7 16.6 0 2.2-1.4 3.4-3.1 3.4-4.8z" class="st20"/>
      <path d="M48 232.1c4.6 2.7 4.6 7 0 9.6-4.6 2.7-12 2.7-16.6 0-4.6-2.7-4.6-7-.1-9.6 4.6-2.6 12.1-2.6 16.7 0z" class="st23"/>
    </g>
    <g class="st0">
      <path d="M83.5 255.5v7.8c0 1.7-1.1 3.5-3.4 4.8-4.6 2.7-12 2.7-16.6 0-2.3-1.3-3.5-3.1-3.5-4.9v-7.8c0 1.8 1.2 3.5 3.5 4.9 4.6 2.7 12.1 2.7 16.6 0 2.3-1.4 3.4-3.1 3.4-4.8z" class="st20"/>
      <path d="M80 250.6c4.6 2.7 4.6 7 0 9.6-4.6 2.7-12 2.7-16.6 0-4.6-2.7-4.6-7-.1-9.6 4.7-2.6 12.1-2.6 16.7 0z" class="st23"/>
    </g>
  </g>
  <g>
    <g class="st0">
      <path d="M397.8 40.8l-.1 35.8-65.9 38.3.1-35.8z" class="st10"/>
      <path d="M331.9 79.1l-.1 35.8L271.3 80l.1-35.8z" class="st9"/>
      <path fill="#ef7c20" d="M397.8 40.8l-65.9 38.3-60.5-34.9 65.9-38.3z"/>
    </g>
    <g class="st0">
      <path d="M344.8 22.2v7.2c0 1.6-1.1 3.2-3.1 4.4-4.2 2.4-11.1 2.4-15.3 0-2.1-1.2-3.2-2.8-3.2-4.5v-7.2c0 1.6 1.1 3.2 3.2 4.5 4.2 2.4 11.1 2.4 15.3 0 2.1-1.2 3.1-2.8 3.1-4.4z" class="st10"/>
      <path d="M341.6 17.8c4.2 2.5 4.3 6.4.1 8.9s-11.1 2.5-15.3 0c-4.2-2.5-4.3-6.4 0-8.9 4.1-2.5 11-2.5 15.2 0z" class="st25"/>
    </g>
    <g class="st0">
      <path d="M374.3 39.2v7.2c0 1.6-1.1 3.2-3.1 4.4-4.2 2.5-11.1 2.5-15.3 0-2.1-1.2-3.2-2.8-3.2-4.5v-7.2c0 1.6 1.1 3.2 3.2 4.5 4.2 2.5 11.1 2.5 15.3 0 2-1.2 3.1-2.8 3.1-4.4z" class="st10"/>
      <path d="M371.1 34.8c4.2 2.4 4.3 6.4.1 8.9s-11.1 2.5-15.3 0c-4.2-2.4-4.3-6.4 0-8.9 4.1-2.5 11-2.5 15.2 0z" class="st25"/>
    </g>
    <g class="st0">
      <path d="M316.6 38.6v7.2c0 1.6-1.1 3.2-3.1 4.4-4.2 2.4-11.1 2.4-15.3 0-2.1-1.2-3.2-2.8-3.2-4.5v-7.2c0 1.6 1.1 3.2 3.2 4.5 4.2 2.5 11.1 2.5 15.3 0 2-1.2 3.1-2.8 3.1-4.4z" class="st10"/>
      <path d="M313.4 34.2c4.2 2.5 4.3 6.4.1 8.9s-11.1 2.5-15.3 0c-4.2-2.4-4.3-6.4 0-8.9 4.1-2.5 10.9-2.5 15.2 0z" class="st25"/>
    </g>
    <g class="st0">
      <path d="M346 55.7v7.2c0 1.6-1.1 3.2-3.1 4.4-4.2 2.4-11.1 2.4-15.3 0-2.1-1.2-3.2-2.8-3.2-4.5v-7.2c0 1.6 1.1 3.2 3.2 4.5 4.2 2.4 11.1 2.4 15.3 0 2.1-1.3 3.1-2.8 3.1-4.4z" class="st10"/>
      <path d="M342.8 51.2c4.2 2.4 4.3 6.4.1 8.9-4.2 2.4-11.1 2.4-15.3 0-4.2-2.4-4.3-6.4 0-8.9 4.1-2.5 11-2.5 15.2 0z" class="st25"/>
    </g>
  </g>
</svg>
