<svg xmlns="http://www.w3.org/2000/svg" viewBox="0 0 128 128"><linearGradient id="a" gradientUnits="userSpaceOnUse" x1="109.854" x2="18.146" y1="108.12" y2="16.412"><stop offset="0" stop-color="#df6017"/><stop offset="1" stop-color="#f3d232"/></linearGradient><path d="M91.179 95.587l.48 2.886a1.75 1.75 0 01-1.437 2.015 1.816 1.816 0 01-.291.025 1.75 1.75 0 01-1.724-1.462l-.481-2.894a1.75 1.75 0 013.453-.57zM41.292 11.844c-3.88-1.361-7.446-1.471-9.588-.2a1.749 1.749 0 101.784 3.01 4.01 4.01 0 012.037-.4 14.164 14.164 0 014.609.9 1.75 1.75 0 001.158-3.3zm58.92 25.674c0 7.945-5.569 16.9-14.021 23.059.949 8.349 2.272 17.926 3.94 28.511a1.75 1.75 0 01-1.456 2 1.705 1.705 0 01-.274.022 1.751 1.751 0 01-1.727-1.478c-1.56-9.9-2.82-18.922-3.758-26.9A37.27 37.27 0 0164 68.109a37.465 37.465 0 01-18.922-5.32c-2.745 23.314-7.555 49.5-8.963 56.961h11.3a100.594 100.594 0 01-.842-12.42c0-17.435 5.7-25.91 17.43-25.91S81.43 89.9 81.43 107.33a100.594 100.594 0 01-.842 12.42h11.3c-.522-2.768-1.513-8.1-2.682-14.857a1.75 1.75 0 113.448-.6c1.723 9.948 3.055 16.8 3.068 16.87A1.749 1.749 0 0194 123.25H34a1.749 1.749 0 01-1.718-2.084c.064-.33 6.373-32.891 9.521-60.531a39.946 39.946 0 01-7.122-6.655 1.75 1.75 0 112.687-2.242 36.548 36.548 0 007.086 6.508 1.75 1.75 0 01.362.243A34.271 34.271 0 0064 64.609c17.31 0 32.712-15.149 32.712-27.091a13.593 13.593 0 00-.652-4.139c-.019-.052-.038-.1-.053-.156C93.451 25.5 84.15 19.346 72.222 17.374a51.072 51.072 0 00-16.442 0C43.85 19.346 34.549 25.5 31.993 33.223c-.015.053-.034.1-.053.156a13.593 13.593 0 00-.652 4.139 18.925 18.925 0 002.051 8.048 1.75 1.75 0 11-3.152 1.521 22.1 22.1 0 01-2.4-9.569 16.61 16.61 0 01.583-4.315c-4.335-5.068-6.587-11.83-5.762-17.5a12.4 12.4 0 016.042-9.22c7.563-4.488 19.3.235 27.294 7.339a53.156 53.156 0 0116.112 0c8-7.1 19.732-11.825 27.3-7.337a12.393 12.393 0 016.038 9.223c.825 5.665-1.427 12.427-5.762 17.5a16.61 16.61 0 01.58 4.31zM51.505 14.7c-7.486-5.744-16.287-8.046-21.072-5.2a8.9 8.9 0 00-4.361 6.718c-.6 4.106.9 9.14 3.788 13.211C33.45 22.619 41.428 17.2 51.505 14.7zm-.58 105.05h26.15a97.313 97.313 0 00.855-12.42c0-19.863-7.444-22.41-13.93-22.41s-13.93 2.547-13.93 22.41a97.313 97.313 0 00.855 12.42zM98.14 29.424c2.892-4.071 4.386-9.1 3.788-13.211A8.893 8.893 0 0097.57 9.5c-4.789-2.844-13.589-.544-21.07 5.2 10.072 2.5 18.05 7.919 21.64 14.724zm-18.453 9.263a4.75 4.75 0 114.75-4.75 4.756 4.756 0 01-4.75 4.75zm0-3.5a1.25 1.25 0 10-1.25-1.25 1.251 1.251 0 001.25 1.25zm-36.125-1.25a4.75 4.75 0 114.75 4.75 4.755 4.755 0 01-4.75-4.75zm3.5 0a1.25 1.25 0 101.25-1.25 1.252 1.252 0 00-1.25 1.25zm14.365 21.031a8.655 8.655 0 01-5.219-7.385c0-2.318 1.352-5.083 7.792-5.083s7.792 2.765 7.792 5.083a8.655 8.655 0 01-5.219 7.385 1.894 1.894 0 00.466.447c.794.527 2.243.6 4.192.2a1.75 1.75 0 11.7 3.43 14.674 14.674 0 01-2.916.325 6.884 6.884 0 01-3.915-1.042 5.326 5.326 0 01-1.1-1.016 5.326 5.326 0 01-1.1 1.016 6.884 6.884 0 01-3.913 1.042 14.674 14.674 0 01-2.916-.325 1.75 1.75 0 11.7-3.43c1.949.4 3.4.326 4.192-.2a1.894 1.894 0 00.464-.447zM64 52c2.328 0 4.292-2.713 4.292-4.417 0-.391 0-1.583-4.292-1.583s-4.292 1.192-4.292 1.583C59.708 49.287 61.672 52 64 52z" fill="url(#a)"/></svg>