<svg xmlns="http://www.w3.org/2000/svg" viewBox="0 0 681 553"><style>.st0{fill:#4e4d4d}.st1{fill:#f2f2f2}.st2{fill:#b4b4b4}.st3{fill:#e94a2f}.st4{fill:#68c4d4}.st5{fill:#9a9999}</style><path d="M441.2 329h-4s-23.6-6.3-23.6-72c0-19.4-104-19.4-104 1.4 0 63.3-24.2 70.6-24.2 70.6h-3.3c-2.9 0-5.2 2.3-5.2 5.2v2.6c0 2.9 2.3 5.2 5.2 5.2h159c2.9 0 5.8-2.3 5.8-5.2v-2.6c.1-2.9-2.8-5.2-5.7-5.2z" class="st0"/><path d="M546.2 0H176.6C169.5 0 163 3.7 163 10.9v257.9c0 7.1 6.5 16.3 13.6 16.3h369.6c7.1 0 10.8-9.2 10.8-16.3V10.9C557 3.7 553.3 0 546.2 0z" class="st0"/><path d="M182 21h356v204H182z" class="st1"/><path d="M377.5 255.7c0 8.9-7.2 16.1-16.1 16.1-8.9 0-16.1-7.2-16.1-16.1 0-8.9 7.2-16.1 16.1-16.1 8.9 0 16.1 7.2 16.1 16.1z" class="st2"/><path d="M320 49.7c0 2.9-2.4 5.3-5.8 5.3h-66.4c-3.4 0-6.7-2.4-6.7-5.3V39.3c0-2.9 3.3-5.3 6.7-5.3h66.4c3.4 0 5.8 2.4 5.8 5.3v10.4z" class="st3"/><path d="M478 116.7c0 2.9-2.6 5.3-6.1 5.3H247.7c-3.4 0-6.7-2.4-6.7-5.3V67.3c0-2.9 3.3-5.3 6.7-5.3h224.2c3.4 0 6.1 2.4 6.1 5.3v49.4z" class="st4"/><path d="M314 158.7c0 2.9-2.3 5.3-5.7 5.3h-60.6c-3.4 0-6.7-2.4-6.7-5.3v-26.4c0-2.9 3.3-5.3 6.7-5.3h60.6c3.4 0 5.7 2.4 5.7 5.3v26.4zm80 0c0 2.9-2.2 5.3-5.7 5.3h-60.6c-3.4 0-6.8-2.4-6.8-5.3v-26.4c0-2.9 3.3-5.3 6.8-5.3h60.6c3.4 0 5.7 2.4 5.7 5.3v26.4zm84 0c0 2.9-2.6 5.3-6.1 5.3h-60.6c-3.4 0-6.4-2.4-6.4-5.3v-26.4c0-2.9 2.9-5.3 6.4-5.3h60.6c3.4 0 6.1 2.4 6.1 5.3v26.4z" class="st5"/><path d="M394 174c0 1.2-.7 2-2.1 2h-67.5c-1.4 0-3.4-.8-3.4-2v-.9c0-1.2 2.1-2.1 3.4-2.1h67.5c1.4 0 2.1.9 2.1 2.1v.9zm0 8.8c0 1.2-.7 2.2-2.1 2.2h-67.5c-1.4 0-3.4-1-3.4-2.2v-.9c0-1.2 2.1-1.9 3.4-1.9h67.5c1.4 0 2.1.7 2.1 1.9v.9zm0 8.8c0 1.2-.7 2.4-2.1 2.4h-67.5c-1.4 0-3.4-1.2-3.4-2.4v-.9c0-1.2 2.1-1.7 3.4-1.7h67.5c1.4 0 2.1.5 2.1 1.7v.9zm0 8.8c0 1.2-.7 2.6-2.1 2.6h-67.5c-1.4 0-3.4-1.4-3.4-2.6v-.9c0-1.2 2.1-2.5 3.4-2.5h67.5c1.4 0 2.1 1.3 2.1 2.5v.9zm-33 8.8c0 1.2-.8 1.8-2.2 1.8h-34.3c-1.4 0-3.4-.6-3.4-1.8v-.9c0-1.2 2.1-2.3 3.4-2.3h34.3c1.4 0 2.2 1.1 2.2 2.3v.9zM476 174c0 1.2.2 2-1.2 2h-67.5c-1.4 0-2.3-.8-2.3-2v-.9c0-1.2.9-2.1 2.3-2.1h67.5c1.4 0 1.2.9 1.2 2.1v.9zm0 8.8c0 1.2.2 2.2-1.2 2.2h-67.5c-1.4 0-2.3-1-2.3-2.2v-.9c0-1.2.9-1.9 2.3-1.9h67.5c1.4 0 1.2.7 1.2 1.9v.9zm0 8.8c0 1.2.2 2.4-1.2 2.4h-67.5c-1.4 0-2.3-1.2-2.3-2.4v-.9c0-1.2.9-1.7 2.3-1.7h67.5c1.4 0 1.2.5 1.2 1.7v.9zm0 8.8c0 1.2.2 2.6-1.2 2.6h-67.5c-1.4 0-2.3-1.4-2.3-2.6v-.9c0-1.2.9-2.5 2.3-2.5h67.5c1.4 0 1.2 1.3 1.2 2.5v.9zm-33 8.8c0 1.2.1 1.8-1.3 1.8h-34.3c-1.4 0-2.3-.6-2.3-1.8v-.9c0-1.2.9-2.3 2.3-2.3h34.3c1.4 0 1.3 1.1 1.3 2.3v.9zM313 174c0 1.2-.5 2-1.9 2h-67.5c-1.4 0-2.6-.8-2.6-2v-.9c0-1.2 1.2-2.1 2.6-2.1h67.5c1.4 0 1.9.9 1.9 2.1v.9zm0 8.8c0 1.2-.5 2.2-1.9 2.2h-67.5c-1.4 0-2.6-1-2.6-2.2v-.9c0-1.2 1.2-1.9 2.6-1.9h67.5c1.4 0 1.9.7 1.9 1.9v.9zm0 8.8c0 1.2-.5 2.4-1.9 2.4h-67.5c-1.4 0-2.6-1.2-2.6-2.4v-.9c0-1.2 1.2-1.7 2.6-1.7h67.5c1.4 0 1.9.5 1.9 1.7v.9zm0 8.8c0 1.2-.5 2.6-1.9 2.6h-67.5c-1.4 0-2.6-1.4-2.6-2.6v-.9c0-1.2 1.2-2.5 2.6-2.5h67.5c1.4 0 1.9 1.3 1.9 2.5v.9zm-33 8.8c0 1.2-.6 1.8-2 1.8h-34.3c-1.4 0-2.6-.6-2.6-1.8v-.9c0-1.2 1.2-2.3 2.6-2.3H278c1.4 0 2 1.1 2 2.3v.9z" class="st2"/><path d="M338 504H36V310.3c0-4 4-6.3 8-6.3h288c4 0 6 2.3 6 6.3V504z" class="st0"/><path d="M48 318h280v171H48z" class="st1"/><path d="M377 512v-8.4c0-2-1-2.6-3.1-2.6H3.9c-2 0-3.9.5-3.9 2.6v8.4h.3s9.1 7 14.6 7H363c5.5 0 14.6-7 14.6-7h-.6z" class="st0"/><path d="M221.7 507h-65.6c-5.5 0-5.5-6-5.5-6h76.6s0 6-5.5 6z" class="st2"/><path d="M160 342.4c0 2.4-1.6 4.6-4.1 4.6h-47.1c-2.4 0-4.8-2.1-4.8-4.6v-8.8c0-2.4 2.4-4.6 4.8-4.6h47.1c2.4 0 4.1 2.2 4.1 4.6v8.8z" class="st3"/><path d="M272 398.6c0 2.4-2 4.4-4.4 4.4H108.4c-2.4 0-4.4-2-4.4-4.4v-41.2c0-2.4 2-4.4 4.4-4.4h159.2c2.4 0 4.4 2 4.4 4.4v41.2z" class="st4"/><path d="M156 433.7c0 2.4-2.1 4.3-4.5 4.3h-42.7c-2.4 0-4.8-1.9-4.8-4.3v-22.1c0-2.4 2.4-4.6 4.8-4.6h42.7c2.4 0 4.5 2.2 4.5 4.6v22.1zm57-.1c0 2.4-2 4.4-4.4 4.4h-42.2c-2.4 0-4.4-2-4.4-4.4v-22.2c0-2.4 2-4.4 4.4-4.4h42.2c2.4 0 4.4 2 4.4 4.4v22.2zm58 0c0 2.4-2 4.4-4.4 4.4h-42.2c-2.4 0-4.4-2-4.4-4.4v-22.2c0-2.4 2-4.4 4.4-4.4h42.2c2.4 0 4.4 2 4.4 4.4v22.2z" class="st5"/><path d="M213 446.5c0 1-.5 1.5-1.5 1.5h-47.9c-1 0-1.6-.4-1.6-1.5v-.7c0-1 .6-1.8 1.6-1.8h47.9c1 0 1.5.8 1.5 1.8v.7zm0 7.4c0 1-.5 2.1-1.5 2.1h-47.9c-1 0-1.6-1.1-1.6-2.1v-.7c0-1 .6-2.2 1.6-2.2h47.9c1 0 1.5 1.1 1.5 2.2v.7zm0 7.4c0 1-.5 2.7-1.5 2.7h-47.9c-1 0-1.6-1.7-1.6-2.7v-.7c0-1 .6-2.5 1.6-2.5h47.9c1 0 1.5 1.5 1.5 2.5v.7zm0 7.3c0 1-.5 2.4-1.5 2.4h-47.9c-1 0-1.6-1.4-1.6-2.4v-.7c0-1 .6-1.9 1.6-1.9h47.9c1 0 1.5.9 1.5 1.9v.7zm-24 7.4c0 1 0 2-1 2h-24.4c-1 0-1.6-1-1.6-2v-.7c0-1 .6-2.2 1.6-2.2H188c1 0 1 1.2 1 2.2v.7zm83-29.5c0 1-.6 1.5-1.6 1.5h-47.9c-1 0-2.4-.4-2.4-1.5v-.7c0-1 1.5-1.8 2.4-1.8h47.9c1 0 1.6.8 1.6 1.8v.7zm0 7.4c0 1-.6 2.1-1.6 2.1h-47.9c-1 0-2.4-1.1-2.4-2.1v-.7c0-1 1.5-2.2 2.4-2.2h47.9c1 0 1.6 1.1 1.6 2.2v.7zm0 7.4c0 1-.6 2.7-1.6 2.7h-47.9c-1 0-2.4-1.7-2.4-2.7v-.7c0-1 1.5-2.5 2.4-2.5h47.9c1 0 1.6 1.5 1.6 2.5v.7zm0 7.3c0 1-.6 2.4-1.6 2.4h-47.9c-1 0-2.4-1.4-2.4-2.4v-.7c0-1 1.5-1.9 2.4-1.9h47.9c1 0 1.6.9 1.6 1.9v.7zm-23 7.4c0 1-1.2 2-2.2 2h-24.4c-1 0-2.4-1-2.4-2v-.7c0-1 1.5-2.2 2.4-2.2h24.4c1 0 2.2 1.2 2.2 2.2v.7zm-93-29.5c0 1-.9 1.5-1.9 1.5h-47.9c-1 0-2.2-.4-2.2-1.5v-.7c0-1 1.2-1.8 2.2-1.8h47.9c1 0 1.9.8 1.9 1.8v.7zm0 7.4c0 1-.9 2.1-1.9 2.1h-47.9c-1 0-2.2-1.1-2.2-2.1v-.7c0-1 1.2-2.2 2.2-2.2h47.9c1 0 1.9 1.1 1.9 2.2v.7zm0 7.4c0 1-.9 2.7-1.9 2.7h-47.9c-1 0-2.2-1.7-2.2-2.7v-.7c0-1 1.2-2.5 2.2-2.5h47.9c1 0 1.9 1.5 1.9 2.5v.7zm0 7.3c0 1-.9 2.4-1.9 2.4h-47.9c-1 0-2.2-1.4-2.2-2.4v-.7c0-1 1.2-1.9 2.2-1.9h47.9c1 0 1.9.9 1.9 1.9v.7zm-24 7.4c0 1-.4 2-1.4 2h-24.4c-1 0-2.2-1-2.2-2v-.7c0-1 1.2-2.2 2.2-2.2h24.4c1 0 1.4 1.2 1.4 2.2v.7z" class="st2"/><path d="M681 403.5c0 7.7-6 14.5-13.7 14.5h-143c-7.7 0-14.3-6.9-14.3-14.5v-198c0-7.7 6.7-14.5 14.3-14.5h143c7.7 0 13.7 6.9 13.7 14.5v198z" class="st0"/><path d="M524 208h143v174H524z" class="st1"/><path d="M607.3 399.5c0 6.3-5.1 11.5-11.5 11.5-6.3 0-11.5-5.1-11.5-11.5 0-6.3 5.1-11.5 11.5-11.5s11.5 5.2 11.5 11.5z" class="st2"/><path d="M597 235.1c0 2.4-1.8 3.9-4.2 3.9h-46.4c-2.4 0-4.4-1.5-4.4-3.9v-8.7c0-2.4 1.9-4.4 4.4-4.4h46.4c2.4 0 4.2 1.9 4.2 4.4v8.7z" class="st3"/><path d="M649 290.2c0 2.4-1.6 4.8-4 4.8h-98.6c-2.4 0-4.4-2.4-4.4-4.8v-40.6c0-2.4 1.9-4.6 4.4-4.6H645c2.4 0 4 2.2 4 4.6v40.6z" class="st4"/><path d="M593 325c0 2.4-2.2 4-4.6 4h-42.1c-2.4 0-4.4-1.6-4.4-4v-21.8c0-2.4 1.9-4.2 4.4-4.2h42.1c2.4 0 4.6 1.8 4.6 4.2V325zm56 0c0 2.4-1.6 4-4 4h-42.1c-2.4 0-3.9-1.6-3.9-4v-21.8c0-2.4 1.5-4.2 3.9-4.2H645c2.4 0 4 1.8 4 4.2V325z" class="st5"/><path d="M649 337.7c0 1-.5 1.3-1.4 1.3h-47.2c-1 0-1.3-.3-1.3-1.3v-.7c0-1 .4-2 1.3-2h47.2c1 0 1.4 1 1.4 2v.7zm0 7.2c0 1-.5 2.1-1.4 2.1h-47.2c-1 0-1.3-1.1-1.3-2.1v-.7c0-1 .4-2.2 1.3-2.2h47.2c1 0 1.4 1.2 1.4 2.2v.7zm0 7.3c0 1-.5 1.8-1.4 1.8h-47.2c-1 0-1.3-.8-1.3-1.8v-.7c0-1 .4-1.5 1.3-1.5h47.2c1 0 1.4.5 1.4 1.5v.7zm0 7.2c0 1-.5 1.6-1.4 1.6h-47.2c-1 0-1.3-.6-1.3-1.6v-.7c0-1 .4-1.7 1.3-1.7h47.2c1 0 1.4.7 1.4 1.7v.7zm-23 7.3c0 1-.7 2.3-1.6 2.3h-24c-1 0-1.3-1.3-1.3-2.3v-.7c0-1 .4-2 1.3-2h24c1 0 1.6 1 1.6 2v.7zm-33-29c0 1-1 1.3-2 1.3h-47.2c-1 0-1.8-.3-1.8-1.3v-.7c0-1 .8-2 1.8-2H591c1 0 2 1 2 2v.7zm0 7.2c0 1-1 2.1-2 2.1h-47.2c-1 0-1.8-1.1-1.8-2.1v-.7c0-1 .8-2.2 1.8-2.2H591c1 0 2 1.2 2 2.2v.7zm0 7.3c0 1-1 1.8-2 1.8h-47.2c-1 0-1.8-.8-1.8-1.8v-.7c0-1 .8-1.5 1.8-1.5H591c1 0 2 .5 2 1.5v.7zm0 7.2c0 1-1 1.6-2 1.6h-47.2c-1 0-1.8-.6-1.8-1.6v-.7c0-1 .8-1.7 1.8-1.7H591c1 0 2 .7 2 1.7v.7zm-23 7.3c0 1-1.2 2.3-2.2 2.3h-24c-1 0-1.8-1.3-1.8-2.3v-.7c0-1 .8-2 1.8-2h24c1 0 2.2 1 2.2 2v.7z" class="st2"/><path d="M537 540.7c0 6.5-6.3 12.3-12.7 12.3H450c-6.5 0-11.9-5.8-11.9-12.3V380.3c0-6.5 5.4-12.3 11.9-12.3h74.3c6.5 0 12.7 5.8 12.7 12.3v160.4z" class="st0"/><path d="M537 540.7c0 6.5-6.3 12.3-12.7 12.3H450c-6.5 0-11.9-5.8-11.9-12.3V380.3c0-6.5 5.4-12.3 11.9-12.3h74.3c6.5 0 12.7 5.8 12.7 12.3v160.4z" class="st0"/><path d="M445 391h85v135h-85z" class="st1"/><path d="M494.2 539.2c0 3.9-3.2 7.1-7.1 7.1-3.9 0-7.1-3.2-7.1-7.1 0-3.9 3.2-7.1 7.1-7.1 3.9 0 7.1 3.2 7.1 7.1zm9.8-157.1c0 1-.8 1.9-1.9 1.9h-35.3c-1 0-1.9-.8-1.9-1.9v-.3c0-1 .8-1.9 1.9-1.9h35.3c1 0 1.9.8 1.9 1.9v.3z" class="st2"/><path d="M521 411.5c0 1.9-1.6 3.5-3.5 3.5h-60c-1.9 0-3.5-1.6-3.5-3.5v-7c0-1.9 1.6-3.5 3.5-3.5h60c1.9 0 3.5 1.6 3.5 3.5v7z" class="st3"/><path d="M521 455.5c0 1.9-1.6 3.5-3.5 3.5h-60c-1.9 0-3.5-1.6-3.5-3.5v-33c0-1.9 1.6-3.5 3.5-3.5h60c1.9 0 3.5 1.6 3.5 3.5v33z" class="st4"/><path d="M521 483.6c0 1.9-1.2 3.4-3.2 3.4h-60.6c-2 0-3.2-1.5-3.2-3.4V466c0-1.9 1.2-3 3.2-3h60.6c2 0 3.2 1 3.2 3v17.6zm0 29c0 1.9-1.2 3.4-3.2 3.4h-60.6c-2 0-3.2-1.5-3.2-3.4V495c0-1.9 1.2-3 3.2-3h60.6c2 0 3.2 1 3.2 3v17.6z" class="st5"/></svg>