<svg xmlns="http://www.w3.org/2000/svg" viewBox="0 0 178.3 148.2">
  <style>
    .st0{fill:#faf9f4}.st1{fill:#424244}.st3{fill:#eff0ef}.st4{fill:#404042}.st7{fill:#3e3e3f}.st8{fill:#fff}.st11{fill:#020203}.st12{fill:#c7c7c7}.st13{fill:#6f6f6e}.st15{fill:#7795c7}.st16{fill:#292b26}.st18{fill:#e7b89c}.st19{fill:#d8aa95}
  </style>
  <g id="XMLID_1264_">
    <path id="XMLID_1276_" d="M23.3 60.2h154v14.5h-154z" class="st0"/>
    <path id="XMLID_1275_" d="M177.4 75.6h-154c-.5 0-.9-.4-.9-.9V60.2c0-.5.4-.9.9-.9h154c.5 0 .9.4.9.9v14.5c-.1.5-.5.9-.9.9zM24.2 73.8h152.3V61.1H24.2v12.7z" class="st1"/>
    <g id="XMLID_1272_">
      <path id="XMLID_1274_" d="M30.4 140.4c-.8-.1-1.3-1-1.1-2L38 92.1l4.1-15.7c.2-1 1-1.6 1.8-1.5.8.1 1.3 1 1.1 2l-2.4 16L32.3 139c-.3.9-1.1 1.6-1.9 1.4z" class="st0"/>
      <path id="XMLID_1273_" d="M30.5 141.4h-.4c-.6-.1-1-.4-1.4-.9-.4-.6-.5-1.3-.4-2.1l8.6-46.3V92L41 76.3c.3-1.4 1.5-2.3 2.7-2.1.6.1 1 .4 1.4.9.4.6.5 1.3.4 2l-2.4 16v.1l-10.3 46.1c-.1 1.2-1.2 2.1-2.3 2.1zm0-1.6c.3.1.7-.3.9-.8l10.3-46 2.4-16c.1-.3 0-.6-.1-.8-.1-.1-.2-.2-.3-.2-.3-.1-.7.3-.9.8l-4.1 15.7-8.7 46.3c-.1.3 0 .6.1.8.1.1.2.2.4.2z" class="st1"/>
    </g>
    <g id="XMLID_1269_">
      <path id="XMLID_1271_" d="M170.7 140.8c.8-.1 1.3-1 1.1-2l-8.6-46.3-4.2-15.8c-.2-1-1-1.6-1.8-1.5-.8.1-1.3 1-1.1 2l2.4 16 10.3 46.1c.2 1 1.1 1.6 1.9 1.5z" class="st0"/>
      <path id="XMLID_1270_" d="M170.4 141.4c-1.1 0-2.1-.9-2.4-2.2l-10.3-46v-.1l-2.4-16c-.1-.7 0-1.5.4-2 .3-.5.8-.8 1.4-.9 1.2-.2 2.4.7 2.7 2.1l4.1 15.7v.1l8.6 46.3c.1.7 0 1.5-.4 2-.3.5-.8.8-1.4.9-.1.1-.2.1-.3.1zm.2-.8zm-11.3-47.7l10.3 46c.1.6.5.9.9.9.1 0 .2-.1.3-.2.1-.2.2-.5.1-.8l-8.6-46.3-4.1-15.7c-.1-.5-.5-.9-.9-.8-.1 0-.2.1-.3.2-.1.2-.2.5-.1.8l2.4 15.9z" class="st1"/>
    </g>
    <g id="XMLID_1265_">
      <path id="XMLID_1268_" fill="#e0dbd5" d="M25.7 62.4h85.6v10.1H25.7z"/>
      <path id="XMLID_1267_" d="M111.4 73.1H25.8c-.3 0-.6-.3-.6-.6V62.3c0-.3.3-.6.6-.6h85.6c.3 0 .6.3.6.6v10.1c0 .4-.3.7-.6.7zm-84.9-1.2h84.3V63H26.5v8.9z" class="st1"/>
      <path id="XMLID_1266_" d="M72.1 67.1h-7.6c-.9 0-1.6-.7-1.6-1.6 0-.9.7-1.6 1.6-1.6h7.6c.9 0 1.6.7 1.6 1.6-.1.9-.8 1.6-1.6 1.6zm-7.6-1.9c-.2 0-.3.1-.3.3 0 .2.1.3.3.3h7.6c.2 0 .3-.1.3-.3 0-.2-.1-.3-.3-.3h-7.6z" class="st1"/>
    </g>
  </g>
  <g id="XMLID_1255_">
    <g id="XMLID_1258_">
      <g id="XMLID_1261_">
        <path d="M54.1 51.1c-1.7 0-3.1 1.4-3.1 3.1 0 1.7 1.4 3.1 3.1 3.1 1.7 0 3.1-1.4 3.1-3.1 0-1.7-1.4-3.1-3.1-3.1zm0 5.5c-1.3 0-2.4-1.1-2.4-2.4 0-1.3 1.1-2.4 2.4-2.4s2.4 1.1 2.4 2.4c-.1 1.3-1.1 2.4-2.4 2.4z" class="st3"/>
        <path d="M54.1 57.6c-1.9 0-3.4-1.5-3.4-3.4s1.5-3.4 3.4-3.4 3.4 1.5 3.4 3.4-1.6 3.4-3.4 3.4zm0-6.2c-1.5 0-2.8 1.2-2.8 2.8 0 1.5 1.2 2.8 2.8 2.8 1.5 0 2.8-1.2 2.8-2.8 0-1.5-1.3-2.8-2.8-2.8zm0 5.5c-1.5 0-2.6-1.2-2.6-2.6 0-1.5 1.2-2.6 2.6-2.6 1.5 0 2.6 1.2 2.6 2.6 0 1.4-1.2 2.6-2.6 2.6zm0-4.7c-1.1 0-2.1.9-2.1 2.1 0 1.1.9 2.1 2.1 2.1 1.1 0 2.1-.9 2.1-2.1-.1-1.2-1-2.1-2.1-2.1z" class="st4"/>
      </g>
      <g id="XMLID_1260_">
        <path d="M44.5 47.5h9.6v12.2h-9.6z" class="st3"/>
        <path d="M54.1 60.1h-9.6c-.2 0-.4-.2-.4-.4V47.5c0-.2.2-.4.4-.4h9.6c.2 0 .4.2.4.4v12.2c0 .2-.2.4-.4.4zm-9.2-.8h8.7V47.9h-8.7v11.4z" class="st4"/>
      </g>
      <g id="XMLID_1259_">
        <path fill="#518241" d="M44.5 52.3v3.9c1.1 0 1.9-.9 1.9-1.9 0-1.1-.9-2-1.9-2z"/>
        <path d="M44.5 56.3c-.1 0-.2-.1-.2-.2v-3.9c0-.1.1-.2.2-.2 1.2 0 2.1 1 2.1 2.1 0 1.3-1 2.2-2.1 2.2zm.2-3.8V56c.9-.1 1.5-.8 1.5-1.7 0-1-.7-1.7-1.5-1.8z" class="st4"/>
      </g>
    </g>
    <path id="XMLID_1257_" d="M51.1 50.8c-.1 0-.2-.1-.2-.2.2-1.3.4-3.3.1-3.6-.1-.1-.2-.1-.2-.1-.2 0-.3.4-.4.6 0 .1-.1.2-.2.1s-.2-.1-.2-.2.2-.8.6-.9c.1 0 .3 0 .6.2.6.5.2 3.4.1 4-.1.1-.1.1-.2.1z" class="st4"/>
    <g id="XMLID_1256_">
      <path fill="#f6ea52" d="M51.2 52.7l-.7-.1c-.3 0-.5-.3-.5-.6l.1-1c0-.3.3-.5.6-.5l.7.1c.3 0 .5.3.5.6l-.1 1c0 .3-.3.5-.6.5z"/>
      <path d="M51.3 52.9c-.1 0-.1 0 0 0l-.7-.1c-.4 0-.7-.4-.7-.8l.1-1c0-.4.4-.7.8-.7l.7.1c.4 0 .7.4.7.8l-.1 1c-.1.4-.4.7-.8.7zm-.1-.4c.2 0 .4-.1.4-.3l.1-1c0-.1 0-.2-.1-.3-.1-.1-.2-.1-.3-.1l-.7-.1c-.2 0-.4.1-.4.3l-.1 1c0 .2.1.4.3.4l.8.1z" class="st4"/>
    </g>
  </g>
  <path d="M22.7 97.6s1.5 1.4 3-.1 1.5-4.2 1.3-5.6c-.3-2-1.1-3.6-2.2-5-.9-1.1-2.3-2.8-4-2.8-3.7 0-1.9 4.7-1.3 6 1.2 2.5 2.2 5.1 3.2 7.5z" class="st7"/>
  <path d="M24.2 98.7c-.8 0-1.4-.4-1.8-.7l-.1-.1c-.4-.9-.8-1.9-1.2-2.9-.6-1.5-1.3-3.1-2-4.6-.4-.9-1.6-3.9-.6-5.6.5-.7 1.2-1.1 2.3-1.1 1.9 0 3.3 1.7 4.2 2.9v.1c1.3 1.5 2 3.3 2.3 5.2.3 1.8 0 4.5-1.5 6-.4.6-1 .8-1.6.8zm-1.1-1.3c.3.2 1.3.9 2.3-.1 1.4-1.4 1.4-3.9 1.2-5.2-.2-1.7-1-3.3-2.1-4.7v-.1c-.9-1.1-2.1-2.6-3.6-2.6-.8 0-1.3.2-1.6.7-.7 1-.1 3.2.6 4.7s1.3 3.1 2 4.6c.4.8.8 1.7 1.2 2.7z" class="st4"/>
  <path d="M13.4 92.1h7.5v30.2h-7.5z" class="st7" transform="rotate(-17.759 17.14 107.243)"/>
  <path d="M18.2 123.3c-.2 0-.4-.1-.5-.4L8.5 94.1v-.4l.3-.3 7.1-2.3c.3-.1.6.1.7.3l9.2 28.8v.4l-.3.3-7.1 2.3c-.1.1-.2.1-.2.1zm-8.6-29l8.9 27.8 6.1-2-8.9-27.8-6.1 2z" class="st4"/>
  <path d="M30.8 136.1c.6-.8.8-1.8.4-2.9-.8-2.8-3.2-9.6-4.8-12.5-.3-.6-.8-1.1-1.3-1.5l-6.8-4.9c-.7-.5-1.5-.8-2.3-.8-1 0-2 .5-1.7 2.5.4 2.7 1.9 14.2 5 19.9-.1 0 6.3-1.9 11.5.2z" class="st8"/>
  <path d="M30.8 136.7h-.2c-4.9-2-11.1-.2-11.2-.2-.3.1-.5 0-.7-.3-2.9-5.3-4.4-15.5-4.9-19.3l-.1-.9c-.2-1 0-1.8.5-2.4.4-.5 1-.7 1.8-.7h.1c.9 0 1.8.3 2.6.9l6.8 4.9c.6.4 1.1 1 1.5 1.7 1.6 3.1 4 9.9 4.9 12.7.4 1.2.2 2.3-.5 3.3-.3.2-.5.3-.6.3zm-5.7-2.1c1.7 0 3.6.2 5.4.9.3-.6.4-1.3.1-2-.8-2.8-3.2-9.5-4.8-12.4-.3-.5-.7-1-1.1-1.3l-6.8-4.9c-.6-.4-1.3-.7-2-.7-.5 0-.8.1-1 .3-.3.4-.3 1-.2 1.5l.1.9c.5 3.7 1.9 13.3 4.6 18.5 1-.4 3.2-.8 5.7-.8z" class="st4"/>
  <path d="M20.5 85.7c1.6 1.6 4.2 5 3.9 9.9-.1 1.4-.9 2.6-2.2 3.2-3.1 1.6-9.3 3.8-12.5-.8-4.3-5.9-.7-10.4 8.2-13 .9-.2 1.9 0 2.6.7z" class="st8"/>
  <path d="M15.2 101.3c-2.2 0-4.4-.7-5.9-2.9-1.8-2.5-2.3-4.8-1.6-6.9 1-3 4.4-5.3 10.1-6.9 1.1-.3 2.4 0 3.2.8 1.7 1.6 4.4 5.2 4.1 10.3-.1 1.5-1 2.9-2.5 3.7-2.1.8-4.8 1.9-7.4 1.9zm3.4-15.8c-.2 0-.4 0-.6.1-5.2 1.5-8.4 3.7-9.3 6.3-.6 1.8-.1 3.8 1.4 5.9 3 4.2 8.7 2.2 11.8.6 1.1-.6 1.9-1.6 1.9-2.8.3-4.7-2.2-8-3.8-9.5-.3-.4-.8-.6-1.4-.6z" class="st4"/>
  <path d="M44.9 97.6s-1.5 1.4-3-.1-1.5-4.2-1.3-5.6c.3-2 1.1-3.6 2.2-5 .9-1.1 2.3-2.8 4-2.8 3.7 0 1.9 4.7 1.3 6-1.2 2.5-2.2 5.1-3.2 7.5z" class="st7"/>
  <path d="M43.4 98.7c-.6 0-1.2-.2-1.8-.8-1.5-1.5-1.7-4.2-1.5-6 .3-1.9 1-3.6 2.3-5.2v-.1c.9-1.2 2.4-2.9 4.2-2.9 1.1 0 1.9.4 2.3 1.1 1.1 1.7-.2 4.7-.6 5.6-.7 1.5-1.3 3.1-2 4.6-.4 1-.8 1.9-1.2 2.9 0 .1-.1.1-.1.1-.2.3-.8.7-1.6.7zm3.3-14.1c-1.5 0-2.7 1.5-3.6 2.6v.1c-1.2 1.4-1.9 3-2.1 4.7-.2 1.3-.1 3.9 1.2 5.2 1 1 2 .3 2.3.1.4-.9.8-1.8 1.2-2.8.6-1.5 1.3-3.1 2-4.6.7-1.5 1.3-3.7.6-4.7-.3-.4-.8-.6-1.6-.6zm-1.8 13z" class="st4"/>
  <path d="M46.7 92.1h7.5v30.2h-7.5z" class="st7" transform="scale(-1) rotate(17.759 686.409 -323.12)"/>
  <path d="M49.4 123.3h-.2l-7.1-2.3c-.3-.1-.4-.4-.3-.7L51 91.5c.1-.3.4-.4.7-.3l7.1 2.3c.1 0 .2.1.3.3.1.1.1.3 0 .4L49.9 123c0 .1-.1.2-.3.3h-.2zm-6.4-3.2l6.1 2L58 94.3l-6.1-2-8.9 27.8z" class="st4"/>
  <path d="M36.9 136.1c-.6-.8-.8-1.8-.4-2.9.8-2.8 3.2-9.6 4.8-12.5.3-.6.8-1.1 1.3-1.5l6.8-4.9c.7-.5 1.5-.8 2.3-.8 1 0 2 .5 1.7 2.5-.4 2.7-1.9 14.2-5 19.9 0 0-6.4-1.9-11.5.2z" class="st8"/>
  <path d="M36.9 136.7c-.2 0-.4-.1-.5-.2-.7-1-.9-2.2-.5-3.3.8-2.8 3.3-9.6 4.9-12.7.4-.7.9-1.3 1.5-1.7l6.8-4.9c.8-.6 1.7-.9 2.6-.9.8 0 1.4.3 1.8.7.5.5.6 1.3.5 2.4l-.1.9c-.6 3.8-2 13.9-4.9 19.3-.1.2-.4.4-.7.3 0 0-6.3-1.8-11.1.2-.2-.2-.3-.1-.3-.1zm14.7-22.6c-.6 0-1.3.2-1.9.7l-6.8 4.9c-.5.3-.9.8-1.1 1.3-1.6 3-4 9.7-4.8 12.4-.2.7-.2 1.4.1 2 4.4-1.6 9.4-.6 11-.2 2.7-5.2 4.1-14.8 4.6-18.5l.1-.9c.1-.5.1-1.1-.2-1.5-.2-.1-.5-.2-1-.2z" class="st4"/>
  <path d="M47.1 85.7c-1.6 1.6-4.2 5-3.9 9.9.1 1.4.9 2.6 2.2 3.2 3.1 1.6 9.3 3.8 12.5-.8 4.2-5.9.6-10.4-8.2-13-.9-.2-1.9 0-2.6.7z" class="st8"/>
  <path d="M52.5 101.3c-2.6 0-5.4-1.1-7.3-2-1.5-.7-2.4-2.1-2.5-3.7-.3-5.2 2.4-8.7 4.1-10.3.8-.8 2-1.1 3.2-.8 5.6 1.6 9 4 10.1 6.9.7 2.1.2 4.4-1.6 6.9-1.7 2.2-3.8 3-6 3zM49 85.5c-.6 0-1.1.2-1.5.6-1.5 1.5-4 4.8-3.8 9.5.1 1.2.8 2.2 1.9 2.8 3.1 1.6 8.9 3.6 11.8-.6 1.5-2.2 2-4.2 1.4-5.9-.9-2.6-4.1-4.7-9.3-6.3-.1-.1-.3-.1-.5-.1zm-1.9.2z" class="st4"/>
  <path d="M51.6 50.5s-.7-2.7-2.3-2.6c-1.6.1-2.5 2.6-2.8 4.1-.4 2.2-.3 4.5.1 6.7.3 1.9.8 4.7 2.1 6.3 2.8 3.4 2.9-2.8 2.9-4.5 0-3.3.1-6.6 0-10z" class="st7"/>
  <path d="M50.2 66.5c-.8 0-1.5-.8-1.8-1.2-1.3-1.6-1.8-4.3-2.2-6.4v-.1c-.5-2.6-.5-4.9-.1-6.9.1-.7 1-4.4 3.2-4.5 2-.1 2.7 2.8 2.7 3v10.1c0 2-.1 5.4-1.5 5.9 0 0-.2.1-.3.1zm-.8-18.1c-1.2 0-2 2-2.4 3.8-.4 1.9-.3 4.1.1 6.6v.1c.3 1.9.8 4.5 2 5.9.7.9 1.1.9 1.2.8.6-.2 1-2.4.9-5v-6.2-3.7c-.1-.4-.7-2.3-1.8-2.3z" class="st4"/>
  <path d="M13.9 50.5s.7-2.7 2.3-2.6c1.6.1 2.5 2.6 2.8 4.1.4 2.2.3 4.5-.1 6.7-.3 1.9-.8 4.7-2.1 6.3-2.8 3.4-2.9-2.8-2.9-4.5v-10z" class="st7"/>
  <path d="M15.3 66.5c-.1 0-.3 0-.4-.1-1.4-.5-1.6-3.9-1.5-5.9v-6.1-3.8-.1c0-.1.7-3 2.6-3h.1c2.2.1 3.1 3.8 3.2 4.5.4 2 .4 4.3-.1 6.9v.1c-.4 2-.8 4.8-2.2 6.4-.2.2-.9 1.1-1.7 1.1zm-.9-15.9v10c-.1 2.7.3 4.8.9 5 .1 0 .4.1 1.2-.8 1.2-1.4 1.6-4 2-6v-.1c.4-2.5.5-4.7.1-6.6-.3-1.8-1.2-3.7-2.4-3.8-1.2.1-1.8 2-1.8 2.3z" class="st4"/>
  <path d="M2 53.4h8.4v24.8H2z" class="st7"/>
  <path d="M10.4 78.8H2c-.3 0-.5-.2-.5-.5V53.4c0-.3.2-.5.5-.5h8.4c.3 0 .5.2.5.5v24.8c0 .3-.2.6-.5.6zm-7.9-1.1h7.4V54H2.5v23.7z" class="st4"/>
  <g>
    <path d="M2.5 76.9c-.6.4-1 1-1.2 1.7-.2.8-.1 1.8 1.5 2.1 3 .5 19.9 3.2 20.7-1.5.8-4.8-.2-8.2-2.9-8.2-2.8 0-10 .4-12 1.1l-6.1 4.8z" class="st8"/>
    <path d="M15.6 82.4c-3.2 0-7.4-.4-12.4-1.2l-.3-.1c-.9-.1-1.5-.4-1.9-.9-.3-.5-.4-1-.2-1.7s.7-1.4 1.3-1.9l6.1-4.9.1-.1c2.1-.8 9.5-1.1 12.2-1.1 1 0 1.8.4 2.4 1.1 1.2 1.5 1.6 4.2.9 7.6-.1 2.1-3 3.2-8.2 3.2zm-6.7-9.9l-6.1 4.8c-.5.4-.9.9-1 1.5-.1.4-.1.7 0 .9.2.3.5.4 1.1.5l.3.1c17.3 2.7 19.6.1 19.8-1.2.5-3.1.3-5.6-.7-6.8-.4-.5-1-.8-1.7-.8-3-.1-9.8.3-11.7 1zm-6.4 4.4z" class="st4"/>
  </g>
  <g>
    <path d="M16.7 50.3c.7 2.2 1.4 6.7-1.2 11.5-.7 1.3-2.1 2.2-3.6 2.3-3.6.3-10.3 0-11-5.8-1-7.6 4.4-10.6 13.7-9.6 1 0 1.9.7 2.1 1.6z" class="st8"/>
    <path d="M10.2 64.7c-5.7 0-9.3-2.3-9.8-6.4-.4-3.2.3-5.8 2-7.6 2.4-2.4 6.5-3.3 12.3-2.7 1.2.1 2.2 1 2.6 2.1C18 52.4 18.8 57 16 62c-.8 1.5-2.3 2.4-4 2.6-.6 0-1.2.1-1.8.1zM11.3 49c-3.7 0-6.5.9-8.1 2.5-1.5 1.5-2.1 3.8-1.7 6.6.7 5.3 6.8 5.6 10.4 5.4 1.3-.1 2.5-.8 3.1-2 2.6-4.6 1.8-8.9 1.2-11-.2-.7-.9-1.2-1.6-1.3-1.2-.2-2.3-.2-3.3-.2z" class="st4"/>
  </g>
  <g>
    <path d="M28.2 76.2c0 3.2-2.5 5.8-5.6 5.8-2.2 0-4.1-1.3-5-3.3-1.2-2.6-.2-5.1 1.1-7.4.6-1.1 1.3-2.3 2.4-2.8.1.7.2 1.4.2 2.1 1.9-.3 3.4-.2 4.9 1.1 1.2 1.2 2 2.8 2 4.5z" class="st8"/>
    <path d="M22.6 82.5c-2.3 0-4.4-1.4-5.4-3.6-1.3-2.7-.2-5.4 1.1-7.8.5-1 1.3-2.4 2.6-3 .1-.1.3-.1.4 0 .1.1.2.2.2.3.1.5.1 1.1.2 1.6.4-.1.8-.1 1.1-.1 1.4 0 2.6.4 3.6 1.4 1.4 1.2 2.2 2.9 2.2 4.8 0 3.5-2.7 6.4-6 6.4zm-1.9-13.1c-.6.5-1.1 1.3-1.6 2.2-1.4 2.6-2.1 4.7-1.1 6.9.8 1.8 2.6 3 4.6 3 2.8 0 5.1-2.4 5.1-5.3 0-1.6-.7-3.1-1.8-4.1-.9-.8-1.9-1.1-3.1-1.1-.5 0-.9.1-1.5.2-.1 0-.3 0-.4-.1-.1-.1-.2-.2-.2-.4v-1.3z" class="st4"/>
  </g>
  <g>
    <path d="M33.4 64.3c-2.9-3-14 7.9-14 7.9l1.2 5.4c.2.9.8 2.8 1 3.7 2.1 6.7 2.5 2.6 4.8 2.6H32l7 1.8c2.5 0 4.4 1.9 6.7-6.1l1.7-7.4c0 .1-11.2-4.9-14-7.9z" class="st7"/>
    <path d="M41.3 86.4c-.3 0-.7 0-1.1-.1-.4-.1-.8-.1-1.2-.1h-.1l-7-1.8h-5.6c-.6 0-1 .3-1.5.7-.5.3-.9.7-1.5.5-.6-.2-1.2-1-2.2-4.1-.5-1.8-.9-3-1.1-3.7l-1.2-5.4c0-.1 0-.3.1-.4.4-.4 8.8-8.6 13-8.6h.1c.7 0 1.2.2 1.6.6 2.8 2.9 13.8 7.8 13.9 7.8.2.1.3.3.2.5L46 79.7c-1.5 5.6-2.9 6.7-4.7 6.7zm-2.3-1c.4 0 .8.1 1.2.1 1.8.2 3.2.4 5-5.9l1.6-7.1c-1.9-.8-11.2-5.1-13.9-7.9-.2-.3-.6-.4-1-.4-3.5 0-11 7-12.2 8.2l1.2 5.1c.2.7.5 1.9 1 3.7.8 2.8 1.4 3.5 1.7 3.6.2.1.5-.2.8-.4.5-.4 1.1-.8 1.9-.8h5.8l6.9 1.8z" class="st4"/>
  </g>
  <g>
    <path d="M51.6 51.2c-1.5-4.2-5.5-7.3-10.3-7.3H24c-3.5 0-6.6 1.7-8.6 4.2-1.8 2.4-2.5 5.4-2 8.3l3.4 21.1h7.1c0-2.7 4-4.8 8.9-4.8s8.9 2.2 8.9 4.8h7.7L52 56.1c.2-1.7.1-3.4-.4-4.9z" class="st8"/>
    <path d="M49.3 78.1h-7.7c-.3 0-.6-.3-.6-.6 0-2.3-3.8-4.3-8.3-4.3-4.5 0-8.3 2-8.3 4.3 0 .3-.3.6-.6.6h-7.1c-.3 0-.5-.2-.6-.5l-3.4-21.1c-.5-3.2.3-6.4 2.1-8.8 2.2-2.8 5.5-4.4 9-4.4h17.4c4.9 0 9.2 3.1 10.8 7.7.5 1.6.7 3.3.5 5.2l-2.8 21.4c.1.3-.1.5-.4.5zm-7.2-1.2h6.7L51.5 56c.2-1.7.1-3.3-.4-4.6-1.4-4.1-5.3-6.9-9.7-6.9H24c-3.2 0-6.2 1.5-8.1 4-1.7 2.1-2.3 5-1.9 7.9L17.3 77h6c.5-2.8 4.4-4.8 9.4-4.8 4.9-.1 8.9 2 9.4 4.7z" class="st4"/>
  </g>
  <g>
    <path fill="#1c1c1c" d="M32.8 48c3.3 0 6-2.7 6-6v-5.8c0-3.3-2.7-6-6-6s-6 2.7-6 6V42c0 3.4 2.7 6 6 6z"/>
    <path d="M26 42v-5.8c0-3.8 3.1-6.8 6.8-6.8s6.8 3.1 6.8 6.8V42c0 3.8-3.1 6.8-6.8 6.8S26 45.8 26 42zm1.6-5.8V42c0 2.9 2.3 5.2 5.2 5.2 2.9 0 5.2-2.3 5.2-5.2v-5.8c0-2.9-2.3-5.2-5.2-5.2-2.8 0-5.2 2.4-5.2 5.2z" class="st4"/>
  </g>
  <g>
    <ellipse cx="32.8" cy="24.7" class="st8" rx="20.4" ry="19.1"/>
    <path d="M32.8 44.4c-11.6 0-21-8.8-21-19.7S21.3 5 32.8 5c11.6 0 21 8.8 21 19.7s-9.4 19.7-21 19.7zm0-38.2C21.9 6.2 13 14.5 13 24.7s8.9 18.6 19.8 18.6S52.6 35 52.6 24.7 43.8 6.2 32.8 6.2z" class="st4"/>
  </g>
  <g>
    <path d="M49.8 91.8c0-.2 0-.4.1-.6v-.3c0-1.2-.2-2.3-.5-3.4-1-2.9-4.3-4.4-7.1-5.1-.3-.1-.6-.1-.9-.2-1.4-.5-2.8-.8-4.3-1-1.2-.2-2.5-.2-3.7-.2-1.3 0-2.5 0-3.8.2-1.4.2-2.9.5-4.3 1-.3.1-.6.1-.9.2-2.8.7-6.1 2.2-7.1 5.1-.4 1.1-.6 2.3-.5 3.4v.3c0 .2 0 .4.1.6.1.4.1.9.3 1.3.4 1.2 1.1 1.8 2 2.4 1.1 1 2.4 1.6 3.7 1.9 1.1.3 2.2.4 3.3.6 2 .2 3.5-.2 5.5-.5.6-.1 1.1-.2 1.7-.2.6 0 1.1.1 1.7.2 2 .3 3.5.8 5.5.5 1.1-.1 2.2-.3 3.3-.6 1.3-.3 2.6-.9 3.7-1.9.9-.6 1.6-1.2 2-2.4.1-.4.2-.9.2-1.3z" class="st8"/>
    <path d="M27.3 98.6c-.4 0-.8 0-1.2-.1h-.2c-1-.1-2.1-.3-3.2-.6-1.5-.4-2.8-1-3.9-2-.8-.5-1.7-1.3-2.1-2.7-.1-.4-.2-.9-.3-1.4v-.1c0-.1 0-.3-.1-.5v-.1-.3c0-1.2.2-2.4.6-3.6 1.1-3.2 4.6-4.7 7.5-5.4.2-.1.4-.1.7-.2l.2-.1c1.4-.5 2.8-.8 4.3-1 1.2-.2 2.5-.2 3.9-.2s2.6 0 3.8.2c1.5.2 3 .5 4.4 1h.2c.2.1.4.1.7.2 2.8.7 6.4 2.2 7.5 5.4.4 1.2.6 2.4.6 3.6v.4c0 .2 0 .4-.1.6-.1.5-.2.9-.3 1.4-.4 1.4-1.4 2.2-2.1 2.7-1.1.9-2.4 1.6-3.9 2-1 .3-2.1.4-3.1.6H41c-1.7.2-3.1-.1-4.6-.3-.7 0-1.1-.1-1.4-.1-.5-.1-1-.1-1.6-.2-.6 0-1.1.1-1.6.2-.4.1-.7.1-1.1.2-1.1.2-2.2.4-3.4.4zm6.1-1.9c.7.1 1.3.1 1.8.2.4.1.7.1 1.1.2 1.5.3 2.7.5 4.2.3h.2c1-.1 2-.3 3-.5 1.4-.3 2.6-.9 3.5-1.8h.1c1-.6 1.5-1.2 1.7-2.1l.3-1.2v-.6-.2c0-1.1-.2-2.2-.5-3.3-.9-2.8-4.2-4.1-6.7-4.7-.2-.1-.4-.1-.6-.2l-.2-.1c-1.4-.5-2.8-.8-4.2-1-1.2-.1-2.4-.2-3.7-.2-1.4 0-2.6 0-3.7.2-1.4.2-2.8.5-4.2 1l-.3.1c-.2.1-.4.1-.6.2-2.5.6-5.8 2-6.7 4.7-.4 1.1-.5 2.2-.5 3.2v.9c.1.4.1.8.3 1.1.3.9.8 1.5 1.7 2.1h.1c1 .8 2.2 1.4 3.5 1.8 1 .3 2 .4 3 .5h.2c1.5.2 2.8 0 4.2-.3.4-.1.7-.1 1.1-.2.6 0 1.2-.1 1.9-.1-.1 0-.1 0 0 0zm16.4-4.9z" class="st4"/>
  </g>
  <path id="XMLID_1254_" d="M32.2 142.4H15.6c-.4 0-.8-.3-.8-.7 0-2.3 2-4.9 4.5-4.9l9 .7c2.5 0 4.5 1.9 4.5 4.2.1.3-.2.7-.6.7z" class="st7"/>
  <path id="XMLID_1253_" d="M34.3 142.4h16.6c.4 0 .8-.3.8-.7 0-2.3-2-4.9-4.5-4.9l-9 .7c-2.5 0-4.5 1.9-4.5 4.2-.1.3.2.7.6.7z" class="st7"/>
  <g>
    <path d="M54.6 60.1l6.5.3 3-9.5-7.8-.3s2.4 3.8-1.7 9.5z" class="st7"/>
    <path d="M64.6 50.5c.1.2.2.4.1.6l-3 9.5c-.1.3-.4.5-.7.5l-6.5-.3c-.3 0-.5-.2-.6-.4-.1-.2-.1-.5.1-.7 3.8-5.2 1.8-8.7 1.7-8.8-.1-.2-.1-.5 0-.7.1-.2.4-.4.6-.3l7.8.3c.2 0 .4.1.5.3zm-8.8 9l4.8.2 2.5-8.2-5.8-.2c.5 1.5.9 4.4-1.5 8.2z" class="st4"/>
    <path d="M61.3 59.1c0 .7.2 1.5.7 2.1.5.8 1.5 1.3 2.8.2 2.4-2.1 16.3-13.7 12.8-17.7s-7.1-5.5-9-3.3c-1.9 2.2-6.5 8.3-7.3 10.4v8.3z" class="st8"/>
    <path d="M78 43.4c2.6 2.9-1.5 8.9-12.6 18.3l-.3.2c-.7.6-1.4.9-2.1.8-.4-.1-1.1-.3-1.7-1.1-.5-.7-.8-1.6-.8-2.5v-8.3-.2c.8-2.2 5.5-8.4 7.4-10.6.7-.8 1.6-1.2 2.7-1.2.9 0 1.8.3 2.8.8 1.6.8 3.1 2.1 4.6 3.8zM61.9 59.2c0 .7.2 1.3.5 1.7.2.3.5.5.7.5.4 0 .8-.2 1.1-.5l.3-.2c14-11.9 13.4-15.5 12.5-16.5-2.3-2.6-4.6-4-6.2-4.1-.7 0-1.3.2-1.7.8-2 2.4-6.3 8.1-7.1 10.1l-.1 8.2z" class="st4"/>
    <g>
      <path d="M75.7 35c-3.5.4-6.3 3.5-6.3 7s2.7 6 6.2 5.6c3.5-.4 6.3-3.5 6.3-7s-2.7-6-6.2-5.6z" class="st8"/>
      <path fill="#bebdbe" d="M71.1 40c0 3.5 2.9 6 6.5 5.6 1.4-.2 2.6-.7 3.7-1.5-1.2 1.7-3.1 3-5.3 3.2-3.6.4-6.5-2.1-6.5-5.6 0-2.2 1.2-4.3 3-5.6-.9 1.2-1.4 2.5-1.4 3.9z"/>
      <path d="M75.7 34.5c3.7-.4 6.7 2.3 6.7 6s-3.1 7.1-6.8 7.5c-3.7.4-6.7-2.3-6.7-6s3.1-7.1 6.8-7.5zm0 1c-3.2.4-5.8 3.2-5.8 6.4s2.5 5.5 5.7 5.1c3.2-.4 5.8-3.2 5.8-6.4s-2.5-5.5-5.7-5.1z" class="st4"/>
    </g>
    <g>
      <path d="M42.4 58.4c-.2-2.2-.1-6.5 3.3-10.5.9-1.1 2.3-1.6 3.8-1.5 3.4.4 9.6 1.9 9.2 7.5-.5 7.3-6.1 9.1-14.6 6.4-1-.2-1.6-1-1.7-1.9z" class="st8"/>
      <path d="M59.3 54c-.2 3.1-1.3 5.4-3.3 6.8-2.7 1.8-6.8 1.9-12.1.2-1.2-.4-2-1.4-2.1-2.6-.2-2.3-.1-6.8 3.4-11 1.1-1.3 2.7-1.9 4.4-1.7 1.6.2 3.1.5 4.3 1 3.6 1.4 5.6 4 5.4 7.3zm-16.2 4.3c.1.6.5 1.2 1.2 1.4 4.9 1.5 8.6 1.5 10.9 0 1.6-1.1 2.6-3.1 2.7-5.7.3-4.9-5.2-6.4-8.6-6.8-1.2-.1-2.4.3-3.2 1.2-3.1 3.8-3.3 7.8-3 9.9z" class="st4"/>
    </g>
  </g>
  <g id="XMLID_1226_">
    <g id="XMLID_1250_">
      <path id="XMLID_1252_" d="M59 62.6v-.1c0-9.4-11.9-17-26.6-17-14.7 0-26.6 7.6-26.6 17V102.3c0 2.5 2.1 4.6 4.6 4.6h44c2.5 0 4.6-2.1 4.6-4.6V63.1c.1-.2.1-.3 0-.5z" class="st11"/>
      <path id="XMLID_1251_" d="M54.5 107.4h-44c-2.8 0-5.1-2.3-5.1-5.1V63.1v-.6C5.3 52.8 17.5 45 32.5 45c15 0 27.1 7.9 27.1 17.5V102.3c0 2.8-2.3 5.1-5.1 5.1zm-44-1.1h44c2.2 0 4-1.8 4-4V63.1v-.4-.2c0-9.1-11.7-16.4-26-16.4-14.4 0-26 7.4-26 16.4V102.3c-.1 2.2 1.7 4 4 4z" class="st1"/>
    </g>
    <path d="M9.1 106.7l2.6 3.3h41.2l2.9-3.3z" class="st12"/>
    <path id="XMLID_1249_" d="M53 110.9H11.7c-.2 0-.5-.1-.6-.3l-2.5-3.3c-.2-.2-.2-.5-.1-.8.1-.3.4-.4.7-.4h46.6c.3 0 .6.2.7.4.1.3.1.6-.1.8l-2.8 3.3c-.2.2-.4.3-.6.3zm-40.9-1.5h40.6l1.5-1.8H10.7l1.4 1.8z" class="st1"/>
    <path id="XMLID_1248_" d="M52.7 74.4H11.9c-.4 0-.7-.3-.7-.7s.3-.7.7-.7h40.8c.4 0 .7.3.7.7s-.3.7-.7.7z" class="st1"/>
    <path id="XMLID_1247_" d="M52.7 80.9H11.9c-.4 0-.7-.3-.7-.7s.3-.7.7-.7h40.8c.4 0 .7.3.7.7s-.3.7-.7.7z" class="st1"/>
    <path id="XMLID_1243_" d="M52.7 87.3H11.9c-.4 0-.7-.3-.7-.7 0-.4.3-.7.7-.7h40.8c.4 0 .7.3.7.7 0 .4-.3.7-.7.7z" class="st1"/>
    <path id="XMLID_1242_" d="M52.7 93.8H11.9c-.4 0-.7-.3-.7-.7s.3-.7.7-.7h40.8c.4 0 .7.3.7.7s-.3.7-.7.7z" class="st1"/>
    <path id="XMLID_1241_" d="M52.7 100.3H11.9c-.4 0-.7-.3-.7-.7 0-.4.3-.7.7-.7h40.8c.4 0 .7.3.7.7 0 .4-.3.7-.7.7z" class="st1"/>
    <path id="XMLID_1240_" d="M32.6 136.9c-1.2 0-2.2-1-2.2-2.2v-8.4c0-1.2 1-2.2 2.2-2.2 1.2 0 2.2 1 2.2 2.2v8.4c0 1.2-1 2.2-2.2 2.2z" class="st11"/>
    <path id="XMLID_1239_" d="M32.6 137.8c-1.7 0-3-1.4-3-3v-8.4c0-1.7 1.4-3 3-3 1.7 0 3 1.4 3 3v8.4c0 1.6-1.4 3-3 3zm0-12.8c-.8 0-1.4.6-1.4 1.4v8.4c0 .8.6 1.4 1.4 1.4.8 0 1.4-.6 1.4-1.4v-8.4c0-.8-.6-1.4-1.4-1.4z" class="st1"/>
    <path id="XMLID_1238_" d="M24.7 110.6s1.9 16.3 7.7 16.3c5.8 0 7.7-16.3 7.7-16.3H24.7z" class="st11"/>
    <path id="XMLID_1237_" d="M32.5 127.2c-2.8 0-5-2.9-6.7-8.7-1.2-4.1-1.7-8.1-1.7-8.3 0-.2 0-.4.2-.5.1-.1.3-.2.5-.2h15.4c.2 0 .4.1.5.2.1.1.2.3.2.5s-.5 4.2-1.7 8.3c-1.7 5.8-4 8.7-6.7 8.7zm-7-16.3c.2 1.4.7 4.3 1.6 7.3 1.9 6.3 4 7.6 5.4 7.6 1.4 0 3.5-1.3 5.3-7.6.9-2.9 1.4-5.9 1.5-7.3H25.5z" class="st1"/>
    <path id="XMLID_1236_" d="M3.1 96.9c1.4 0 2.5-1.1 2.5-2.5V84c0-1.4-1.1-2.5-2.5-2.5S.6 82.6.6 84v10.3c0 1.5 1.1 2.6 2.5 2.6z" class="st13"/>
    <path id="XMLID_1235_" d="M61.8 96.9c1.4 0 2.5-1.1 2.5-2.5V84c0-1.4-1.1-2.5-2.5-2.5s-2.5 1.1-2.5 2.5v10.3c0 1.5 1.1 2.6 2.5 2.6z" class="st13"/>
    <path id="XMLID_1234_" d="M3.1 97.5c-1.7 0-3.1-1.4-3.1-3.1V84c0-1.7 1.4-3.1 3.1-3.1 1.7 0 3.1 1.4 3.1 3.1v10.3c.1 1.8-1.3 3.2-3.1 3.2zm0-15.4c-1.1 0-1.9.9-1.9 1.9v10.3c0 1.1.9 1.9 1.9 1.9S5 95.3 5 94.3V84c.1-1-.8-1.9-1.9-1.9z" class="st1"/>
    <path id="XMLID_1233_" d="M61.8 97.5c-1.7 0-3.1-1.4-3.1-3.1V84c0-1.7 1.4-3.1 3.1-3.1 1.7 0 3.1 1.4 3.1 3.1v10.3c0 1.8-1.4 3.2-3.1 3.2zm0-15.4c-1.1 0-1.9.9-1.9 1.9v10.3c0 1.1.9 1.9 1.9 1.9 1.1 0 1.9-.9 1.9-1.9V84c0-1-.8-1.9-1.9-1.9z" class="st1"/>
    <path id="XMLID_1232_" d="M54.3 141.7H10.5s.1-1.2.1-2.8c0-1.5 1.4-2.8 3.2-2.8h37.4c1.7 0 3.2 1.2 3.2 2.8-.1 1.6-.1 2.8-.1 2.8z" class="st11"/>
    <path id="XMLID_1231_" d="M54.4 142.5H10.7c-.2 0-.4-.1-.5-.2-.1-.1-.2-.4-.2-.6 0 0 .1-1.2.1-2.7 0-1.9 1.8-3.5 3.9-3.5h37.4c2.2 0 3.9 1.6 3.9 3.5 0 1.5-.1 2.8-.1 2.8-.1.4-.4.7-.8.7zM11.5 141h42.2v-2c0-1.1-1.1-2-2.4-2H13.9c-1.3 0-2.4.9-2.4 2v2z" class="st1"/>
    <path id="XMLID_1230_" d="M17.4 144.6c0 1.7-1.4 3-3 3s-3-1.4-3-3c0-1.7 1.4-3 3-3s3 1.4 3 3z" class="st11"/>
    <path id="XMLID_1229_" d="M54.1 144.6c0 1.7-1.4 3-3 3s-3-1.4-3-3c0-1.7 1.4-3 3-3s3 1.4 3 3z" class="st11"/>
    <path id="XMLID_1228_" d="M14.3 148.2c-2 0-3.6-1.6-3.6-3.6s1.6-3.6 3.6-3.6 3.6 1.6 3.6 3.6-1.6 3.6-3.6 3.6zm0-6c-1.3 0-2.4 1.1-2.4 2.4s1.1 2.4 2.4 2.4 2.4-1.1 2.4-2.4-1-2.4-2.4-2.4z" class="st1"/>
    <path id="XMLID_1227_" d="M51 148.2c-2 0-3.6-1.6-3.6-3.6S49 141 51 141s3.6 1.6 3.6 3.6-1.6 3.6-3.6 3.6zm0-6c-1.3 0-2.4 1.1-2.4 2.4s1.1 2.4 2.4 2.4c1.3 0 2.4-1.1 2.4-2.4s-1-2.4-2.4-2.4z" class="st1"/>
  </g>
  <g id="XMLID_1184_">
    <g id="XMLID_1225_">
      <path fill="#e9b99e" d="M102.2 59.1l-1.2 1.2c-1.2 1.2-3.1 1.2-4.3.1l-14-13.7c-1.2-1.2-1.2-3.1-.1-4.3l1.2-1.2c1.2-1.2 3.1-1.2 4.3-.1l14.1 13.7c1.1 1.2 1.2 3.1 0 4.3z"/>
      <path d="M96.2 60.9L82.1 47.2c-.7-.7-1.1-1.7-1.1-2.7 0-1 .4-2 1.1-2.7l1.2-1.2c.7-.7 1.7-1.1 2.7-1.1 1 0 2 .4 2.7 1.1l14.1 13.7c1.5 1.5 1.5 3.9.1 5.4l-1.2 1.2c-.7.8-1.7 1.1-2.7 1.1-1.1 0-2.1-.4-2.8-1.1zm5.4-2.3c.9-.9.8-2.3 0-3.2L87.5 41.7c-.9-.9-2.3-.8-3.2 0l-1.2 1.2c-.9.9-.8 2.3 0 3.2l14.1 13.7c.9.9 2.3.8 3.2 0l1.2-1.2z" class="st4"/>
    </g>
    <g id="XMLID_1224_">
      <path d="M86.7 47.3l1.9-2c1.2-1.3 3.4-1.2 4.8.1l5.9 5.6 5.2-5.5.1-.1c.3-.3 1.6-1.7 5.9-6.2 7.4-7.8 13.5-.1 13.5-.1l-7.9 8.5-13.6 14.3c-1.4 1.4-3.8 1.4-5.4-.1l-.6-.6c-.2-.1-.4-.3-.6-.5L87 52.1c-1.4-1.3-1.5-3.5-.3-4.8z" class="st15"/>
      <path d="M96.6 62.3l-.6-.5c-.2-.2-.5-.3-.7-.5l-8.9-8.6c-.8-.8-1.3-1.8-1.4-2.9-.1-1.1.3-2.2 1-2.9l1.9-2c.7-.8 1.8-1.2 2.9-1.2 1.1 0 2.2.5 3 1.3l5.4 5.1 4.7-4.9.1-.1c.4-.4 1.7-1.8 5.8-6.1 2.5-2.6 5.1-3.8 7.7-3.7 4.1.2 6.8 3.5 6.9 3.7.2.3.2.7 0 1l-7.9 8.5-13.6 14.3c-.8.9-1.9 1.3-3.1 1.3-1-.4-2.2-.9-3.2-1.8zm21.1-25.8c-2.2-.1-4.4 1-6.6 3.2l-5.8 6.1-.1.1-5.3 5.6c-.3.3-.7.3-1 0L93 45.9c-.6-.5-1.3-.8-2-.9-.7 0-1.3.2-1.8.7l-1.9 2c-.5.5-.7 1.1-.6 1.8.1.7.4 1.4 1 2l8.9 8.6c.1.1.3.3.5.4l.1.1.6.6c1.3 1.2 3.3 1.3 4.4.2l13.6-14.3 7.5-8c-1-.7-3-2.4-5.6-2.6z" class="st1"/>
    </g>
    <g id="XMLID_1219_">
      <path id="XMLID_1223_" d="M154.8 86.3c3.9 0 7.1 3.6 7.1 7.6v38.7h-14.3l-.2-37.1c0-4-2.8-9.6 7.4-9.2z" class="st16"/>
      <path id="XMLID_1222_" d="M119.4 86.6c-3.9.4-6.8 4.3-6.4 8.2l3.5 38.5 14.2-1.3-3.2-37c-.3-4 2-9.8-8.1-8.4z" class="st16"/>
      <path id="XMLID_1221_" d="M147 132.8l-.2-37.1c0-.6-.1-1.4-.2-2.1-.2-2-.5-4.3 1-5.9 1.3-1.4 3.6-1.9 7.2-1.8 4.2 0 7.8 3.8 7.8 8.2v38.7c0 .4-.3.7-.7.7h-14.3c-.3 0-.6-.3-.6-.7zm14.3-38.7c0-3.7-3-6.9-6.5-6.9-3.1-.1-5.2.3-6.2 1.4-1.1 1.1-.9 2.9-.6 4.9.1.7.2 1.5.2 2.2l.2 36.5h13V94.1z" class="st1"/>
      <path id="XMLID_1220_" d="M115.9 133.6L112.3 95c-.2-2.1.4-4.2 1.7-5.9 1.3-1.8 3.2-2.8 5.3-3 3.6-.5 6-.1 7.3 1.1 1.6 1.4 1.6 3.8 1.5 5.8v2.1l3.2 37c0 .4-.2.7-.6.7l-14.2 1.3h-.1c-.2.1-.5-.2-.5-.5zm11-38.3c-.1-.7 0-1.5 0-2.3 0-1.9.1-3.7-1.1-4.8-1.1-1-3.2-1.2-6.3-.8-1.7.2-3.2 1-4.4 2.5-1.1 1.4-1.6 3.2-1.5 5l3.5 37.9 12.9-1.2-3.1-36.3z" class="st1"/>
    </g>
    <path id="XMLID_1218_" d="M145.4 140.4h18.1c.4 0 .7-.3.7-.7v-.7c0-2.4-1.9-4.3-4.3-4.3h-11c-2.4 0-4.3 1.9-4.3 4.3v.7c0 .4.4.7.8.7z" class="st7"/>
    <path id="XMLID_1217_" d="M115 139.9h18c.5 0 .8-.4.8-.8 0-2.7-2.2-5.8-4.9-5.8l-9.8.9c-2.7 0-4.9 2.2-4.9 4.9 0 .5.4.8.8.8z" class="st7"/>
    <g id="XMLID_1216_">
      <path d="M176.8 52.2l-13.7-13.5c-.3-.4-2.4-2.1-3.2-2.7-2.8-1.9-7.5-1.5-10.2 1.4l6.3 7.8 13.7 12.6c1.3 1.7 3.7 1.9 5.4.6l1.2-.9c1.5-1.3 1.8-3.7.5-5.3z" class="st15"/>
      <path d="M169.1 58.3l-13.6-12.6-.1-.1-6.3-7.8c-.2-.3-.2-.7 0-.9 2.8-3 7.8-3.7 11.1-1.5.9.6 2.9 2.3 3.4 2.8l13.7 13.5.1.1c.8.9 1.1 2.1 1 3.3-.1 1.2-.7 2.3-1.7 3l-1.2.9c-.8.7-1.8 1-2.8 1-1.4 0-2.7-.6-3.6-1.7zm-6.5-19.1s0-.1 0 0c-.3-.4-2.3-2.1-3.1-2.6-2.3-1.5-6.3-1.5-8.9.9l5.9 7.3 13.6 12.6.1.1c1.1 1.4 3.1 1.6 4.4.5l1.2-.9c.7-.5 1.1-1.3 1.2-2.1.1-.8-.1-1.6-.6-2.3l-13.8-13.5z" class="st1"/>
    </g>
    <path id="XMLID_1215_" fill="#101111" d="M121 97.5c11.3-3.6 22.4-3.9 33.2 0 4.4 0 8-4.8 8-10.7 0-5.9-3.6-10.7-8-10.7H121c-4.4 0-8 4.8-8 10.7 0 5.9 3.6 10.7 8 10.7z"/>
    <path id="XMLID_1214_" d="M112.3 87.2c0-6.3 3.9-11.4 8.7-11.4h33.2c4.8 0 8.7 5.1 8.7 11.4 0 6.3-3.9 11.4-8.7 11.4h-.2c-10.2-3.7-21.2-3.7-32.8 0h-.2c-4.8 0-8.7-5.1-8.7-11.4zm42 10c4-.1 7.2-4.6 7.2-10.1S158.2 77 154.2 77H121c-4 0-7.3 4.5-7.3 10.1 0 5.5 3.2 10 7.2 10.1 5.9-1.9 11.6-2.8 17.2-2.8s11 1 16.2 2.8z" class="st1"/>
    <g id="XMLID_1213_">
      <path d="M133.1 88h8.9c11.6 0 21-9.5 21-21V52.6c0-11.6-9.5-21-21-21h-8.9c-11.6 0-21 9.5-21 21v14.3c0 11.6 9.5 21.1 21 21.1z" class="st15"/>
      <path d="M111.3 66.9V52.6c0-12 9.8-21.8 21.8-21.8h8.9c12 0 21.8 9.8 21.8 21.8v14.3c0 12-9.8 21.8-21.8 21.8h-8.9c-12 0-21.8-9.7-21.8-21.8zm21.8-34.5c-11.2 0-20.2 9.1-20.2 20.2v14.3c0 11.2 9.1 20.2 20.2 20.2h8.9c11.2 0 20.2-9.1 20.2-20.2V52.6c0-11.2-9.1-20.2-20.2-20.2h-8.9z" class="st1"/>
    </g>
    <g id="XMLID_1206_">
      <g id="XMLID_1210_">
        <g id="XMLID_1211_">
          <g id="XMLID_1212_">
            <path d="M152.3 18.7s3.4.1 3.5 3.5c0 3.4-3.4 3.3-3.4 3.3l-.1-6.8z" class="st18"/>
            <path d="M152.3 26c-.3 0-.5-.2-.5-.5v-6.8c0-.1.1-.3.1-.3.1-.1.2-.1.3-.1 1.4 0 3.9.9 3.9 3.9 0 1.1-.3 2-1 2.7-.9 1-2.5 1.1-2.8 1.1.1 0 0 0 0 0zm.5-1c.5-.1 1.2-.3 1.8-.8.5-.5.7-1.1.7-2 0-2.2-1.7-2.8-2.5-2.9V25z" class="st4"/>
          </g>
        </g>
      </g>
      <g id="XMLID_1207_">
        <g id="XMLID_1208_">
          <path id="XMLID_1209_" d="M152.9 20.1s2 0 2 2-2 2-2 2v-4z" class="st19"/>
        </g>
      </g>
    </g>
    <g id="XMLID_1199_">
      <g id="XMLID_1203_">
        <g id="XMLID_1204_">
          <g id="XMLID_1205_">
            <path d="M122.5 18.7s-3.4.1-3.5 3.5c0 3.4 3.4 3.3 3.4 3.3l.1-6.8z" class="st18"/>
            <path d="M119.6 24.8c-.7-.7-1-1.6-1-2.7 0-3 2.6-3.9 3.9-3.9.1 0 .3 0 .3.1.1.1.1.2.1.3v6.8c0 .3-.2.5-.5.5-.1.1-1.7 0-2.8-1.1zm-.1-2.6c0 .8.2 1.5.7 2 .5.5 1.3.7 1.8.8v-5.7c-.8.1-2.5.7-2.5 2.9z" class="st4"/>
          </g>
        </g>
      </g>
      <g id="XMLID_1200_">
        <g id="XMLID_1201_">
          <path id="XMLID_1202_" d="M121.9 20.1s-2 0-2 2 2 2 2 2v-4z" class="st19"/>
        </g>
      </g>
    </g>
    <path id="XMLID_1198_" d="M122.4 26.2c0 4.5 6.7 8.1 14.9 8.1l.3.3c9.6 0 14.9-4.5 14.9-8.9l-.1-15.8c0-4.5-6.7-8.1-14.9-8.1h-.3c-8.2 0-14.9 3.7-14.9 8.1l.1 16.3z" class="st4"/>
    <path id="XMLID_1197_" d="M137.2 1.7v32.6c-8.2 0-14.8-3.6-14.8-8.1l-.1-16.4c0-4.4 6.7-8.1 14.9-8.1z" class="st4"/>
    <path id="XMLID_1193_" d="M122.1 9.7v13.1c0 1-.3 3 1.2 5.7 1.1 1.9 3.3 3.6 6.3 4.5 2.2.7 4.9 1.1 7.6 1.1h.3c2.7 0 5.2-.4 7.5-1.1 1.2-.4 2.2-.8 3.2-1.3 1.4-.8 2.3-1.8 3-2.8 1.2-1.8 1.4-3.3 1.4-4.5V9.5c0-4.5-6.8-8.2-15.2-8.2h-.3c-4 0-7.8.9-10.7 2.4-2.8 1.7-4.3 3.8-4.3 6zm.5 0c0-2.1 1.5-4.1 4.2-5.6 2.8-1.5 6.4-2.3 10.3-2.3h.3c8 0 14.6 3.5 14.6 7.8l.1 16.3c0 1.3-.6 2.6-1.7 3.7-.7.7-1.5 1.3-2.5 1.8-.4.2-.8.4-1.3.6-2.6 1.1-5.7 1.7-9.1 1.7h-.4c-3.5 0-6.7-.7-9.2-1.8-1.4-.6-2.7-1.4-3.6-2.3-1.1-1.1-1.8-5.1-1.8-6.4l.1-13.5zm5.4 22.5c-1.5-.6-2.7-1.4-3.6-2.3-1.2-1.2-1.9-5.2-1.9-6.6l-.1-13.6c0-2.2 1.5-4.2 4.3-5.7s6.5-2.4 10.4-2.4h.3c8.1 0 14.8 3.6 14.8 8l.1 16.3c0 1.4-.6 2.7-1.8 3.9-.7.7-1.5 1.3-2.6 1.9-.4.2-.8.4-1.3.6-2.6 1.1-5.8 1.7-9.1 1.7h-.4c-3.2 0-6.5-.6-9.1-1.8zM137.2 2c-3.9 0-7.5.8-10.3 2.3-2.7 1.5-4.1 3.4-4.1 5.4l.1 13.6c0 1.4.7 5.3 1.7 6.3.9.9 2.1 1.6 3.5 2.3 2.6 1.1 5.8 1.8 9.1 1.8h.4c3.3 0 6.4-.6 9-1.7.4-.2.9-.4 1.3-.6 1-.5 1.8-1.1 2.5-1.8 1.1-1.1 1.7-2.3 1.7-3.6L152 9.7c0-4.2-6.5-7.7-14.4-7.7h-.4z" class="st4"/>
    <g id="XMLID_1186_">
      <path id="XMLID_1192_" d="M120.7 16.8c1.7-3.1 1.7-6.8 3.7-9.7 1.2-1.7 2.8-3.1 4.6-4 3.4-1.7 7.5-2.5 11.2-1.9 2 .3 4.4 1 6.2 2 1.8 1.1 3.5 2.2 4.7 4 1 1.6 1.5 3.5 1.6 5.4.1.9.1 1.9.1 2.8 0 .3-.2 2.6-.1 2.7h-.1c0 .3-.4.1-.6 0-.4-.1-.7-.3-1-.5-1.1-.6-2-1.5-2.8-2.5-1.4-1.8-2.3-3.8-2.8-6 0 0-.2.2-.7.4-3.3 1.7-6.6 3.4-10 4.9-2.6 1.2-5.3 2.3-8.1 3.2-1.4.5-3 1-4.6.6-.5-.1-1-.3-1.4-.7-.6-.4-.1-.3.1-.7z" class="st4"/>
      <path id="XMLID_1187_" d="M151.5 19.2c-.4-.2-.8-.3-1.2-.6-1.1-.7-2.2-1.6-3.1-2.8-1.1-1.4-2-3.1-2.6-5.1-3.2 1.7-6.4 3.3-9.6 4.7-3 1.3-5.7 2.4-8.2 3.2-1.5.5-3.3 1.1-5.1.6-.7-.2-1.4-.5-1.9-1-.2-.1-.6-.5-.6-1.1 0-.5.4-.8.6-1 .7-1.2 1-2.6 1.4-4.1.5-1.9 1-3.9 2.3-5.6 1.3-1.8 3-3.3 5-4.3 3.7-1.9 8.1-2.6 11.9-2 1.2.2 4.2.8 6.6 2.2 1.8 1.1 3.7 2.4 5 4.4 1 1.6 1.6 3.5 1.8 5.9.1 1.1.1 2.1.1 2.9v.5c0 .4-.1 1.4-.1 1.8.1.3.1.6-.1.8-.1.2-.2.3-.3.4-.1.1-.1.1-.2.1-.2.1-.4.2-.7.2-.5.2-.8 0-1-.1zm-.1-1zm-5.8-10c.3.1.6.4.6.7.6 2.3 1.5 4.1 2.7 5.6.8 1 1.6 1.7 2.5 2.3h.1c0-.3 0-.6.1-.9v-.4-2.7c-.1-2-.6-3.6-1.4-4.9-1-1.5-2.4-2.6-4.3-3.7-1.4-.8-3.5-1.5-5.8-1.9-3.4-.5-7.2.1-10.6 1.8-1.7.8-3.2 2.1-4.2 3.6-1 1.4-1.4 3.1-1.9 4.9-.4 1.5-.8 3-1.6 4.4.1 0 .2.1.3.1 1.3.3 2.7-.2 4-.6 2.4-.8 5-1.8 8-3.1 3.3-1.5 6.7-3.1 10-4.9l.6-.3c.2-.1.4-.2.6-.2 0 .1.2.2.3.2zm-25.9 8.1z" class="st4"/>
    </g>
    <g id="XMLID_1185_">
      <path fill="#d9dbdc" d="M149.7 33.1s-3.5 3.7-12 3.7-13-3.4-13-3.4l2.9-1.1s4.8 1.9 9.7 1.9c4.8 0 9.7-2 9.7-2l2.7.9z"/>
      <path d="M124.4 33.9c-.2-.2-.3-.4-.3-.7 0-.3.2-.5.5-.6l2.9-1.1c.2-.1.3-.1.5 0 0 0 4.8 1.8 9.4 1.8 4.6 0 9.4-1.9 9.5-1.9.2-.1.3-.1.5 0l2.6.9c.2.1.4.3.5.5.1.2 0 .5-.2.7-.2.2-3.8 3.9-12.5 3.9-8.7.1-13.2-3.3-13.4-3.5zm22.7-1c-1.1.4-5.4 1.9-9.8 1.9-4.3 0-8.6-1.4-9.7-1.8l-1.3.5c1.8 1 5.6 2.6 11.3 2.6 4.2 0 7.1-1 8.8-1.7.7-.3 1.3-.7 1.7-1l-1-.5zm2.6.2z" class="st4"/>
    </g>
  </g>
  <g id="XMLID_1161_">
    <path id="XMLID_1183_" d="M114 107.3h46.9c2.7 0 4.9-2.2 4.9-4.9V60.6c0-2.7-2.2-4.9-4.9-4.9H114c-2.7 0-4.9 2.2-4.9 4.9v41.8c0 2.7 2.2 4.9 4.9 4.9z" class="st0"/>
    <path id="XMLID_1182_" d="M108.4 102.4V60.6c0-3.1 2.5-5.6 5.6-5.6h46.9c3.1 0 5.6 2.5 5.6 5.6v41.8c0 3.1-2.5 5.6-5.6 5.6H114c-3.1.1-5.6-2.4-5.6-5.6zm5.6-45.9c-2.3 0-4.2 1.9-4.2 4.2v41.8c0 2.3 1.9 4.2 4.2 4.2h46.9c2.3 0 4.2-1.9 4.2-4.2V60.6c0-2.3-1.9-4.2-4.2-4.2H114z" class="st1"/>
    <path d="M161.1 107.2l-2.6 3.2h-41.8l-2.8-3.2z" class="st12"/>
    <path id="XMLID_1181_" d="M116.1 111l-2.9-3.2c-.2-.2-.2-.5-.1-.8.1-.3.4-.4.7-.4H161c.3 0 .5.2.7.4.1.3.1.6-.1.8L159 111c-.1.2-.4.3-.6.3h-41.8c-.1 0-.3-.1-.5-.3zm43.4-2.9h-44l1.5 1.7h41.1l1.4-1.7z" class="st1"/>
    <path id="XMLID_1180_" d="M114.2 76h47.3c.4 0 .7-.3.7-.7 0-.4-.3-.7-.7-.7h-47.3c-.4 0-.7.3-.7.7 0 .4.3.7.7.7z" class="st1"/>
    <path id="XMLID_1179_" d="M114.2 82.3h47.3c.4 0 .7-.3.7-.7 0-.4-.3-.7-.7-.7h-47.3c-.4 0-.7.3-.7.7 0 .3.3.7.7.7z" class="st1"/>
    <path id="XMLID_1178_" d="M114.2 88.5h47.3c.4 0 .7-.3.7-.7s-.3-.7-.7-.7h-47.3c-.4 0-.7.3-.7.7s.3.7.7.7z" class="st1"/>
    <path id="XMLID_1177_" d="M114.2 94.8h47.3c.4 0 .7-.3.7-.7 0-.4-.3-.7-.7-.7h-47.3c-.4 0-.7.3-.7.7 0 .3.3.7.7.7z" class="st1"/>
    <path id="XMLID_1176_" d="M114.2 101h47.3c.4 0 .7-.3.7-.7 0-.4-.3-.7-.7-.7h-47.3c-.4 0-.7.3-.7.7 0 .4.3.7.7.7z" class="st1"/>
    <path id="XMLID_1175_" d="M137.3 136.4c1.2 0 2.1-1 2.1-2.1v-8.1c0-1.2-1-2.1-2.1-2.1-1.2 0-2.1 1-2.1 2.1v8.1c0 1.1.9 2.1 2.1 2.1z" class="st16"/>
    <path id="XMLID_1174_" d="M134.5 134.3v-8.1c0-1.6 1.3-2.9 2.9-2.9 1.6 0 2.9 1.3 2.9 2.9v8.1c0 1.6-1.3 2.9-2.9 2.9-1.6 0-2.9-1.3-2.9-2.9zm1.5-8.1v8.1c0 .8.6 1.4 1.4 1.4.8 0 1.4-.6 1.4-1.4v-8.1c0-.8-.6-1.4-1.4-1.4-.8 0-1.4.7-1.4 1.4z" class="st1"/>
    <path id="XMLID_1173_" d="M144.9 110.9s-1.9 15.8-7.5 15.8S130 111 130 111l14.9-.1z" class="st16"/>
    <path id="XMLID_1172_" d="M131 118.6c-1.2-3.9-1.6-7.8-1.6-8 0-.2 0-.4.2-.5.1-.1.3-.2.5-.2H145c.2 0 .4.1.5.2.1.1.2.3.2.5s-.5 4-1.7 8c-1.6 5.6-3.8 8.4-6.5 8.4s-4.9-2.8-6.5-8.4zm-.2-7.4c.2 1.3.7 4.2 1.5 7 1.8 6.1 3.8 7.4 5.2 7.4 1.4 0 3.4-1.3 5.2-7.4.8-2.8 1.3-5.7 1.5-7h-13.4z" class="st1"/>
    <path id="XMLID_1171_" d="M168.3 97.7c-1.3 0-2.4-1.1-2.4-2.4v-10c0-1.3 1.1-2.4 2.4-2.4 1.3 0 2.4 1.1 2.4 2.4v10c0 1.3-1.1 2.4-2.4 2.4z" class="st0"/>
    <path id="XMLID_1170_" d="M106.7 97.7c-1.3 0-2.4-1.1-2.4-2.4v-10c0-1.3 1.1-2.4 2.4-2.4 1.3 0 2.4 1.1 2.4 2.4v10c0 1.3-1.1 2.4-2.4 2.4z" class="st0"/>
    <path id="XMLID_1169_" d="M165.2 95.2v-10c0-1.7 1.4-3 3-3 1.7 0 3 1.4 3 3v10c0 1.7-1.4 3-3 3-1.6.1-3-1.3-3-3zm1.2-9.9v10c0 1 .8 1.9 1.9 1.9 1 0 1.9-.8 1.9-1.9v-10c0-1-.8-1.9-1.9-1.9-1.1 0-1.9.8-1.9 1.9z" class="st1"/>
    <path id="XMLID_1168_" d="M103.6 95.2v-10c0-1.7 1.4-3 3-3 1.7 0 3 1.4 3 3v10c0 1.7-1.4 3-3 3-1.6.1-3-1.3-3-3zm1.2-9.9v10c0 1 .8 1.9 1.9 1.9 1 0 1.9-.8 1.9-1.9v-10c0-1-.8-1.9-1.9-1.9-1.1 0-1.9.8-1.9 1.9z" class="st1"/>
    <path id="XMLID_1167_" d="M116.4 141.1h42.3s-.1-1.2-.1-2.7c0-1.5-1.4-2.7-3.1-2.7h-36.2c-1.7 0-3.1 1.2-3.1 2.7.1 1.5.2 2.7.2 2.7z" class="st16"/>
    <path id="XMLID_1166_" d="M115.5 141.1c0-.1-.1-1.2-.1-2.7 0-1.9 1.7-3.4 3.8-3.4h36.2c2.1 0 3.8 1.5 3.8 3.4 0 1.4.1 2.6.1 2.6 0 .2-.1.4-.2.5-.1.1-.3.2-.5.2h-42.3c-.4.1-.7-.2-.8-.6zm42.2-2.7c0-1.1-1-2-2.3-2h-36.2c-1.3 0-2.3.9-2.3 2v2h40.8c.1-.6 0-1.3 0-2z" class="st1"/>
    <circle id="XMLID_1165_" cx="155" cy="143.8" r="2.9" class="st16"/>
    <circle id="XMLID_1164_" cx="119.5" cy="143.8" r="2.9" class="st16"/>
    <path id="XMLID_1163_" d="M151.5 143.8c0-1.9 1.6-3.5 3.5-3.5s3.5 1.6 3.5 3.5-1.6 3.5-3.5 3.5-3.5-1.5-3.5-3.5zm1.2 0c0 1.3 1 2.3 2.3 2.3 1.3 0 2.3-1 2.3-2.3 0-1.3-1-2.3-2.3-2.3-1.3 0-2.3 1.1-2.3 2.3z" class="st1"/>
    <path id="XMLID_1162_" d="M116 143.8c0-1.9 1.6-3.5 3.5-3.5s3.5 1.6 3.5 3.5-1.6 3.5-3.5 3.5c-1.9.1-3.5-1.5-3.5-3.5zm1.2 0c0 1.3 1 2.3 2.3 2.3 1.3 0 2.3-1 2.3-2.3 0-1.3-1-2.3-2.3-2.3-1.3 0-2.3 1.1-2.3 2.3z" class="st1"/>
  </g>
</svg>
