<svg viewBox="0 0 512 512" xmlns="http://www.w3.org/2000/svg"><path d="M151.538 90.07a7.726 7.726 0 01-7.726-7.726V16.986a7.726 7.726 0 1115.452 0v65.357a7.726 7.726 0 01-7.726 7.727z" fill="#2b4d66"/><path d="M480.056 33.974h-161.32c-5.953 0-10.78 4.826-10.78 10.78v122.96c0 5.953 4.826 10.78 10.78 10.78h12.947a7.034 7.034 0 016.093 3.518l15.92 27.575c1.271 2.201 4.448 2.201 5.719 0l15.92-27.575a7.036 7.036 0 016.093-3.518h98.627c5.953 0 10.78-4.826 10.78-10.78V44.753c0-5.953-4.826-10.779-10.779-10.779z" fill="#d3effb"/><path d="M351.742 182.011l-6.983 12.095 8.937 15.479c1.271 2.201 4.448 2.201 5.719 0l15.92-27.575a7.037 7.037 0 016.094-3.518h-23.593a7.04 7.04 0 00-6.094 3.519zM480.056 33.974h-23.593c5.953 0 10.78 4.826 10.78 10.78v122.96c0 5.953-4.826 10.78-10.78 10.78h23.593c5.953 0 10.78-4.826 10.78-10.78V44.753c-.001-5.953-4.827-10.779-10.78-10.779z" fill="#b1e4f9"/><path d="M350.335 143.317a7.725 7.725 0 01-7.726-7.726V76.875a7.726 7.726 0 1115.452 0v58.716a7.725 7.725 0 01-7.726 7.726zm40.633 0a7.725 7.725 0 01-7.726-7.726V76.875a7.726 7.726 0 1115.452 0v58.716a7.725 7.725 0 01-7.726 7.726z" fill="#2b4d66"/><path d="M390.968 112.952h-40.633a7.725 7.725 0 01-7.726-7.726 7.725 7.725 0 017.726-7.726h40.633a7.725 7.725 0 017.726 7.726 7.725 7.725 0 01-7.726 7.726zm27.448 30.365a7.725 7.725 0 01-7.726-7.726v-23.213a7.726 7.726 0 1115.452 0v23.213a7.725 7.725 0 01-7.726 7.726zm0-41.404a7.725 7.725 0 01-7.726-7.726v-3.663a7.726 7.726 0 1115.452 0v3.663a7.725 7.725 0 01-7.726 7.726zm30.04 19.551a7.725 7.725 0 01-7.726-7.726V76.875a7.726 7.726 0 1115.452 0v36.863a7.725 7.725 0 01-7.726 7.726zm0 21.853a7.725 7.725 0 01-7.726-7.726v-3.662a7.726 7.726 0 1115.452 0v3.662a7.725 7.725 0 01-7.726 7.726z" fill="#2b4d66"/><path d="M252.47 281.537H50.605c-11.725 0-21.23-9.505-21.23-21.23V141.546c0-42.078 34.111-76.19 76.19-76.19h91.945c42.078 0 76.19 34.111 76.19 76.19v118.761c0 11.725-9.505 21.23-21.23 21.23z" fill="#d3effb"/><path d="M197.51 65.357h-22.319c42.078 0 76.19 34.111 76.19 76.19v118.761c0 11.725-9.505 21.23-21.23 21.23h22.319c11.725 0 21.23-9.505 21.23-21.23V141.546c0-42.078-34.111-76.189-76.19-76.189z" fill="#b1e4f9"/><circle cx="151.538" cy="16.987" fill="#dd636e" r="16.987"/><path d="M211.492 190.949H91.583c-7.733 0-14.002-6.269-14.002-14.002v-29.794c0-7.733 6.269-14.002 14.002-14.002h119.909c7.733 0 14.002 6.269 14.002 14.002v29.794c0 7.733-6.269 14.002-14.002 14.002z" fill="#365e7d"/><path d="M211.492 133.152h-19.819c7.733 0 14.002 6.269 14.002 14.002v29.793c0 7.733-6.269 14.002-14.002 14.002h19.819c7.733 0 14.002-6.269 14.002-14.002v-29.793c0-7.733-6.269-14.002-14.002-14.002z" fill="#2b4d66"/><path d="M118.604 172.956a7.726 7.726 0 01-7.726-7.726v-6.731a7.726 7.726 0 1115.452 0v6.731a7.726 7.726 0 01-7.726 7.726zm65.868 0a7.726 7.726 0 01-7.726-7.726v-6.731a7.726 7.726 0 1115.452 0v6.731a7.726 7.726 0 01-7.726 7.726z" fill="#f6f1f1"/><path d="M178.173 241.048h-53.271a7.726 7.726 0 110-15.452h53.271a7.726 7.726 0 110 15.452z" fill="#dd636e"/><path d="M251.381 420.993H51.694v-76.839c0-21.34 12.289-33.629 27.448-33.629h144.792c15.159 0 27.448 12.289 27.448 33.629v76.839z" fill="#d3effb"/><path d="M223.934 310.526H202.54c15.159 0 27.448 12.289 27.448 33.629v76.839h21.394v-76.839c-.001-21.341-12.289-33.629-27.448-33.629z" fill="#b1e4f9"/><path d="M99.461 281.537h104.154v28.989H99.461z" fill="#365e7d"/><path d="M184.472 281.537h19.143v28.989h-19.143z" fill="#2b4d66"/><path d="M276.046 512H27.029a5.864 5.864 0 01-5.864-5.864V392.671c0-13.348 10.82-24.168 24.168-24.168h212.41c13.348 0 24.168 10.82 24.168 24.168v113.465a5.865 5.865 0 01-5.865 5.864z" fill="#365e7d"/><path d="M257.743 368.503h-22.82c13.348 0 24.168 10.82 24.168 24.168V512h16.956a5.864 5.864 0 005.864-5.864V392.671c0-13.348-10.821-24.168-24.168-24.168z" fill="#2b4d66"/><circle cx="151.538" cy="444.128" fill="#f6f1f1" r="29.316"/><path d="M151.538 414.812c-3.113 0-6.111.489-8.925 1.388 11.826 3.777 20.391 14.85 20.391 27.928s-8.565 24.152-20.391 27.928a29.282 29.282 0 008.925 1.388c16.191 0 29.316-13.125 29.316-29.316 0-16.19-13.125-29.316-29.316-29.316z" fill="#dae4ea"/><path d="M203.614 368.85H99.461v-22.68a6.688 6.688 0 016.688-6.688h90.778a6.688 6.688 0 016.688 6.688v22.68z" fill="#dd636e"/><path d="M196.927 339.482H177.57a6.688 6.688 0 016.688 6.688v22.68h19.356v-22.68a6.687 6.687 0 00-6.687-6.688z" fill="#da4a54"/></svg>