<svg xmlns="http://www.w3.org/2000/svg" xmlns:xlink="http://www.w3.org/1999/xlink"><symbol id="icon-bootstrap" viewBox="0 0 256 256"><path fill="#563D7C" d="M0 222.991C0 241.223 14.779 256 33.009 256H222.99C241.223 256 256 241.221 256 222.991V33.01C256 14.777 241.221 0 222.991 0H33.01C14.777 0 0 14.779 0 33.009V222.99z"/><path fill="#FFF" d="M106.158 113.238V76.985h31.911c3.04 0 5.97.253 8.792.76 2.822.506 5.319 1.41 7.49 2.713 2.17 1.303 3.907 3.112 5.21 5.427 1.302 2.316 1.954 5.283 1.954 8.9 0 6.513-1.954 11.217-5.862 14.111-3.907 2.895-8.9 4.342-14.979 4.342h-34.516zM72.075 50.5v155h75.112c6.947 0 13.713-.868 20.298-2.605 6.585-1.737 12.446-4.414 17.584-8.032 5.137-3.618 9.226-8.286 12.265-14.002 3.04-5.717 4.559-12.483 4.559-20.298 0-9.697-2.352-17.982-7.055-24.856-4.704-6.875-11.832-11.687-21.384-14.437 6.947-3.328 12.194-7.598 15.74-12.808 3.545-5.21 5.318-11.722 5.318-19.538 0-7.236-1.194-13.314-3.582-18.235-2.388-4.92-5.753-8.864-10.095-11.831-4.341-2.967-9.551-5.102-15.63-6.404-6.078-1.303-12.808-1.954-20.189-1.954H72.075zm34.083 128.515v-42.549h37.121c7.381 0 13.315 1.7 17.802 5.102 4.486 3.401 6.73 9.081 6.73 17.041 0 4.053-.688 7.381-2.063 9.986-1.375 2.605-3.22 4.668-5.536 6.187-2.315 1.52-4.993 2.605-8.032 3.257-3.04.65-6.223.976-9.552.976h-36.47z"/></symbol><symbol id="icon-btn-next" viewBox="0 0 490.667 490.667"><path d="M466.219 237.781L231.552 3.115c-2.004-2-4.721-3.12-7.552-3.115H32a10.667 10.667 0 00-7.552 18.219l227.136 227.115L24.448 472.448c-4.171 4.16-4.179 10.914-.019 15.085A10.667 10.667 0 0032 490.667h192a10.663 10.663 0 007.552-3.115l234.667-234.667c4.171-4.16 4.179-10.914.019-15.085a.17.17 0 01-.019-.019z"/></symbol><symbol id="icon-btn-prev" viewBox="0 0 490.667 490.667"><path d="M239.077 245.333L466.213 18.219c4.171-4.16 4.179-10.914.019-15.085A10.667 10.667 0 00458.661 0h-192a10.663 10.663 0 00-7.552 3.115L24.443 237.781c-4.164 4.165-4.164 10.917 0 15.083L259.11 487.531a10.669 10.669 0 007.552 3.136h192a10.667 10.667 0 007.552-18.219L239.077 245.333z"/></symbol><symbol id="icon-btn-top" viewBox="0 0 48 48"><path fill="#f2f2f2" d="M5 30.9L8.1 34 24 18.1 39.9 34l3.1-3.1L24 12z"/></symbol><symbol id="icon-close" viewBox="0 0 357 357"><path fill="#ffffff" d="M357 35.7L321.3 0 178.5 142.8 35.7 0 0 35.7l142.8 142.8L0 321.3 35.7 357l142.8-142.8L321.3 357l35.7-35.7-142.8-142.8z"/></symbol><symbol id="icon-css" viewBox="0 0 512 512"><path fill="#2196f3" d="M32 0l40.8 460.8L256 512l183.136-51.168L480 0z"/><path fill="#fafafa" d="M392.768 150.688l-5.152 57.888-15.552 173.536L256 414.208l-.096.032-116-32.128-8.096-90.752h56.832l4.224 47.072 63.072 17.024.032-.032 63.168-17.024 8.608-78.432-198.656.544-5.632-53.632 209.056-2.464 4.224-57.408-218.88.608-3.68-53.408h283.648z"/></symbol><symbol id="icon-email" viewBox="0 0 512 512"><path d="M486.4 59.733H25.6c-14.138 0-25.6 11.461-25.6 25.6v341.333c0 14.138 11.461 25.6 25.6 25.6h460.8c14.138 0 25.6-11.461 25.6-25.6V85.333c0-14.138-11.461-25.6-25.6-25.6zm8.533 366.934a8.533 8.533 0 0 1-8.533 8.533H25.6a8.533 8.533 0 0 1-8.533-8.533V85.333A8.533 8.533 0 0 1 25.6 76.8h460.8a8.533 8.533 0 0 1 8.533 8.533v341.334z"/><path d="M470.076 93.898a8.53 8.53 0 0 0-6.229 1.966L266.982 261.239a17.068 17.068 0 0 1-21.965 0L48.154 95.863a8.535 8.535 0 0 0-10.974 13.073l196.864 165.367c12.688 10.683 31.224 10.683 43.913 0L474.82 108.937a8.532 8.532 0 0 0 1.049-12.023 8.524 8.524 0 0 0-5.793-3.016zM164.124 273.13a8.535 8.535 0 0 0-8.229 2.65l-119.467 128a8.532 8.532 0 1 0 12.476 11.639l119.467-128a8.532 8.532 0 0 0-4.247-14.289zM356.105 275.78a8.534 8.534 0 1 0-12.476 11.639l119.467 128a8.533 8.533 0 1 0 12.476-11.64L356.105 275.78z"/></symbol><symbol id="icon-fb" viewBox="0 0 512 512"><path d="M384 176h-96v-64c0-17.664 14.336-32 32-32h32V0h-64c-53.024 0-96 42.976-96 96v80h-64v80h64v256h96V256h64l32-80z" fill="currentColor"/></symbol><symbol id="icon-figma" viewBox="0 0 48 48"><path fill="#333" d="M0 24C0 10.745 10.745 0 24 0s24 10.745 24 24-10.745 24-24 24S0 37.255 0 24z"/><path fill="#0ACF83" d="M19.2 38.4a4.8 4.8 0 004.8-4.8v-4.8h-4.8a4.8 4.8 0 000 9.6z"/><path fill="#A259FF" d="M14.4 24a4.8 4.8 0 014.8-4.8H24v9.6h-4.8a4.8 4.8 0 01-4.8-4.8z"/><path fill="#F24E1E" d="M14.4 14.4a4.8 4.8 0 014.8-4.8H24v9.6h-4.8a4.8 4.8 0 01-4.8-4.8z"/><path fill="#FF7262" d="M24 9.6h4.8a4.8 4.8 0 110 9.6H24V9.6z"/><path fill="#1ABCFE" d="M33.6 24a4.8 4.8 0 11-9.6 0 4.8 4.8 0 019.6 0z"/></symbol><symbol id="icon-github-f" viewBox="0 0 512 512"><path d="M255.968 5.329C114.624 5.329 0 120.401 0 262.353c0 113.536 73.344 209.856 175.104 243.872 12.8 2.368 17.472-5.568 17.472-12.384 0-6.112-.224-22.272-.352-43.712-71.2 15.52-86.24-34.464-86.24-34.464-11.616-29.696-28.416-37.6-28.416-37.6-23.264-15.936 1.728-15.616 1.728-15.616 25.696 1.824 39.2 26.496 39.2 26.496 22.848 39.264 59.936 27.936 74.528 21.344 2.304-16.608 8.928-27.936 16.256-34.368-56.832-6.496-116.608-28.544-116.608-127.008 0-28.064 9.984-51.008 26.368-68.992-2.656-6.496-11.424-32.64 2.496-68 0 0 21.504-6.912 70.4 26.336 20.416-5.696 42.304-8.544 64.096-8.64 21.728.128 43.648 2.944 64.096 8.672 48.864-33.248 70.336-26.336 70.336-26.336 13.952 35.392 5.184 61.504 2.56 68 16.416 17.984 26.304 40.928 26.304 68.992 0 98.72-59.84 120.448-116.864 126.816 9.184 7.936 17.376 23.616 17.376 47.584 0 34.368-.32 62.08-.32 70.496 0 6.88 4.608 14.88 17.6 12.352C438.72 472.145 512 375.857 512 262.353 512 120.401 397.376 5.329 255.968 5.329z" fill="currentColor"/></symbol><symbol id="icon-github" viewBox="0 0 24 24"><path fill="none" d="M0 0h24v24H0z"/><path fill="#2c2c2c" d="M15.408 2.913c1.388-.97 2.194-1.596 2.705-1.746.366-.108.675-.08.946.03.318.131.634.41.87.974a5.748 5.748 0 01.253 3.64 6.051 6.051 0 011.243 3.682c0 2.286-.568 3.848-1.414 4.934-.978 1.254-2.353 1.894-3.807 2.226.222.56.32 1.169.278 1.783V22a.9.9 0 01-1.8 0v-3.591l.003-.069a2.286 2.286 0 00-.603-1.736.9.9 0 01.553-1.51c1.46-.169 2.986-.529 3.957-1.773.653-.839 1.034-2.062 1.034-3.828a4.239 4.239 0 00-1.11-2.869.9.9 0 01-.185-.917 3.938 3.938 0 00.007-2.657c-.079.046-.164.098-.24.15-.48.327-1.122.82-2.003 1.43a.9.9 0 01-.755.126 10.768 10.768 0 00-5.806 0 .9.9 0 01-.755-.127C7.67 3.863 6.869 3.572 6.414 3.46a3.945 3.945 0 00.129 2.247.9.9 0 01-.186.917 4.24 4.24 0 00-1.11 2.897c0 1.75.381 2.964 1.034 3.8.973 1.244 2.505 1.613 3.969 1.802a.899.899 0 01.543 1.507 2.287 2.287 0 00-.604 1.718c.002.02.002.04.002.061V22a.9.9 0 01-1.8 0v-1.648c-1.017.16-1.799.047-2.427-.197-.871-.339-1.47-.946-1.973-1.583-.258-.325-.486-.656-.737-.925-.143-.154-.286-.293-.48-.343a.9.9 0 01.45-1.742c.726.186 1.271.719 1.79 1.389.44.568.856 1.285 1.702 1.562.436.144.976.16 1.675.01v-.09a4.113 4.113 0 01.284-1.765c-1.455-.343-2.833-.988-3.811-2.238-.848-1.084-1.416-2.637-1.416-4.905A6.054 6.054 0 014.692 5.81a5.748 5.748 0 01.253-3.64.902.902 0 01.568-.515s1.23-.507 3.942 1.26a12.562 12.562 0 015.953-.002z"/></symbol><symbol id="icon-gulp" viewBox="0 0 175 387"><g fill="#DA4648" fill-rule="evenodd"><path d="M86.72 304.739c-22.574 0-40.017-3.391-48.405-5.412-5.736-1.382-10.342-2.812-13.841-4.281l11.187 19.113 4.376 59.719c0 6.695 21.268 12.122 47.503 12.122s47.503-5.427 47.503-12.122l3.465-60.369 10.585-18.519c-3.514 1.489-8.161 2.938-13.969 4.337-8.388 2.021-25.831 5.412-48.404 5.412zm62.736-194.328C132.888 112.725 110.899 114 87.54 114c-23.359 0-45.348-1.275-61.916-3.589-8.207-1.146-14.7-2.498-19.299-4.016-1.097-.363-2.956-.982-4.745-1.968L11.845 198.9a80.437 80.437 0 0 1 1.597-4.871 92.354 92.354 0 0 1 4.181-9.731 86.201 86.201 0 0 1 5.169-8.984 69.482 69.482 0 0 1 5.946-7.79c2.102-2.372 4.258-4.412 6.472-6.122 2.213-1.708 4.447-3.044 6.702-4.006 2.256-.962 4.49-1.444 6.703-1.444 2.549 0 5.015.697 7.397 2.091 2.381 1.393 4.607 3.65 6.681 6.769.476.697.778 1.402.903 2.115.127.714.189 1.386.189 2.016 0 1.493-.357 2.672-1.071 3.534-.714.863-1.562 1.294-2.542 1.294-.898 0-1.731-.473-2.501-1.418-.771-.946-1.632-2.298-2.585-4.057-.897-1.593-1.884-2.745-2.962-3.459-1.079-.713-2.248-1.07-3.509-1.07-1.961 0-4.055.813-6.282 2.439-2.228 1.625-4.434 3.774-6.618 6.445-2.186 2.672-4.28 5.724-6.283 9.159a95.582 95.582 0 0 0-5.317 10.551c-1.541 3.602-2.765 7.153-3.676 10.653-.911 3.5-1.366 6.644-1.366 9.431 0 .93.064 1.885.189 2.862.127.98.364 1.867.715 2.664.349.797.826 1.451 1.428 1.964.603.516 1.366.772 2.29.772 1.037 0 2.213-.348 3.531-1.045 1.316-.695 2.682-1.609 4.096-2.736a51.479 51.479 0 0 0 4.266-3.834 68.31 68.31 0 0 0 3.992-4.33 63.288 63.288 0 0 0 3.277-4.205c.953-1.344 1.667-2.514 2.144-3.51l3.908-11.697c.476-1.26 1.099-2.156 1.87-2.687.77-.531 1.562-.797 2.375-.797.391 0 .783.067 1.176.199.393.133.742.341 1.051.622.308.283.553.647.735 1.096.182.447.273.97.273 1.567 0 1.593-.14 3.085-.42 4.48a35.597 35.597 0 0 1-1.072 4.082 70.343 70.343 0 0 1-1.45 4.006 98.955 98.955 0 0 0-1.554 4.207c-.112.166-.315.687-.61 1.566-.294.881-.65 1.985-1.071 3.311-.42 1.328-.876 2.812-1.366 4.455-.491 1.643-.994 3.318-1.512 5.027a408.413 408.413 0 0 0-1.492 5.028 1259.144 1259.144 0 0 0-2.228 7.789 56.33 56.33 0 0 1-.462 1.594c-.14.529-.365 1.119-.672 1.765a11.665 11.665 0 0 1-1.093 1.842A6.712 6.712 0 0 1 40 239.945c-.504.381-1.022.573-1.555.573-.896 0-1.548-.299-1.953-.895-.407-.598-.609-1.693-.609-3.285v-.697c0-.233.013-.483.041-.746.027-.532.238-1.528.631-2.989.392-1.459.861-3.109 1.408-4.951.546-1.842 1.135-3.75 1.765-5.725.629-1.974 1.197-3.74 1.702-5.3a83.674 83.674 0 0 1-4.833 4.953 52.125 52.125 0 0 1-5.337 4.429c-1.822 1.311-3.657 2.381-5.505 3.211-1.849.829-3.628 1.245-5.337 1.245-1.961 0-3.649-.432-5.065-1.295-.255-.157-.496-.332-.736-.506l5.712 59.888c1.487 3.727 29.481 12.884 66.391 12.884 36.927 0 64.932-9.166 66.393-12.89l8.205-71.202c-.679.623-1.34 1.232-1.972 1.822-2.354 2.189-4.575 4.072-6.662 5.648-2.086 1.576-4.125 2.797-6.114 3.658-1.99.864-4.119 1.295-6.388 1.295-2.129 0-3.776-.465-4.938-1.394-1.162-.928-1.744-2.205-1.744-3.832v-.373c0-.116.014-.258.043-.424.111-.994.547-2.141 1.303-3.434a39.467 39.467 0 0 1 2.73-4.031 111.206 111.206 0 0 1 3.404-4.232 195.7 195.7 0 0 0 3.342-4.057c1.022-1.275 1.869-2.445 2.541-3.508.674-1.062 1.01-1.924 1.01-2.588 0-.398-.141-.713-.42-.947-.281-.23-.744-.348-1.387-.348-1.121 0-2.277.291-3.466.871-1.192.58-2.37 1.362-3.532 2.34a31.982 31.982 0 0 0-3.404 3.36 49.566 49.566 0 0 0-3.109 3.931 53.324 53.324 0 0 0-2.647 4.108 57.767 57.767 0 0 0-2.039 3.806c-.168.366-.406.881-.715 1.543-.308.664-.644 1.412-1.008 2.241-.365.83-.75 1.685-1.156 2.562a111.16 111.16 0 0 0-1.113 2.49l-.902 2.09a47.207 47.207 0 0 1-.569 1.27c-.14.298-.371.861-.693 1.691-.322.83-.694 1.801-1.113 2.912l-1.325 3.51a1626.309 1626.309 0 0 0-2.373 6.371c-.308.828-.506 1.393-.59 1.692a18.168 18.168 0 0 1-.986 2.44 10.044 10.044 0 0 1-1.303 2.016 5.96 5.96 0 0 1-1.681 1.392c-.631.35-1.338.523-2.121.523-1.01 0-1.842-.242-2.502-.722-.657-.481-.987-1.403-.987-2.762 0-.664.084-1.344.252-2.04.168-.697.379-1.387.631-2.066.252-.682.512-1.344.778-1.991.265-.648.511-1.269.734-1.867a973.25 973.25 0 0 1 4.623-9.98 460.161 460.161 0 0 0 4.518-9.904c.3-.682.576-1.35.869-2.028-.088.086-.174.176-.26.26-1.822 1.76-3.635 3.31-5.442 4.654-1.808 1.344-3.601 2.414-5.378 3.211-1.78.795-3.51 1.194-5.192 1.194-1.148 0-2.107-.182-2.877-.547-.771-.366-1.386-.864-1.849-1.493-.463-.63-.793-1.377-.989-2.24-.066-.295-.107-.603-.15-.91a40.99 40.99 0 0 1-1.488 1.11c-1.737 1.226-3.446 2.214-5.127 2.96-1.68.747-3.194 1.12-4.537 1.12-1.346 0-2.438-.448-3.28-1.344-.84-.895-1.259-2.422-1.259-4.578 0-1.528.224-3.303.671-5.326-.728 1.294-1.638 2.605-2.73 3.931a23.953 23.953 0 0 1-3.74 3.635A18.687 18.687 0 0 1 70.803 228c-1.738.68-3.629 1.02-5.673 1.02-.925 0-1.814-.116-2.669-.348a5.594 5.594 0 0 1-2.248-1.195c-.645-.563-1.162-1.319-1.555-2.264-.392-.945-.588-2.133-.588-3.559 0-.033.056-.539.168-1.519.112-.979.469-2.522 1.072-4.629.602-2.106 1.534-4.836 2.793-8.188 1.262-3.351 3.041-7.416 5.338-12.193.588-1.262 1.268-2.166 2.037-2.713.772-.548 1.604-.822 2.5-.822.393 0 .799.059 1.219.174.422.117.813.299 1.178.548.363.249.658.565.883.946.222.381.336.82.336 1.318 0 .332-.043.649-.127.945-.141.567-.442 1.303-.902 2.215-.463.914-1.003 1.959-1.62 3.137a293.69 293.69 0 0 0-1.953 3.809 54.344 54.344 0 0 0-1.912 4.23 42.237 42.237 0 0 0-1.513 4.455c-.42 1.51-.659 2.979-.714 4.405 0 .597.139 1.144.42 1.642.28.498.743.746 1.387.746 1.82 0 3.557-.598 5.211-1.791 1.652-1.195 3.178-2.68 4.58-4.455a42.767 42.767 0 0 0 3.803-5.725c1.135-2.041 2.08-3.906 2.836-5.599a28.386 28.386 0 0 0 1.408-3.633 36.134 36.134 0 0 1 1.324-3.584c.477-1.096 1.022-2.008 1.639-2.738.615-.729 1.387-1.095 2.31-1.095 1.01 0 1.807.382 2.397 1.145.588.764.881 1.676.881 2.737 0 .597-.188 1.42-.567 2.465a70.18 70.18 0 0 1-1.429 3.584 459.325 459.325 0 0 1-1.869 4.304 75.544 75.544 0 0 0-1.869 4.655 46.122 46.122 0 0 0-1.43 4.629c-.379 1.509-.567 2.912-.567 4.205 0 1.195.616 1.793 1.848 1.793.869 0 1.947-.299 3.236-.897 1.289-.598 2.641-1.435 4.055-2.514.353-.269.709-.55 1.062-.845.395-1.629.858-3.135 1.397-4.504.98-2.59 1.975-5.16 2.984-7.715a4697.75 4697.75 0 0 1 2.774-7.019l12.732-32.104c.504-1.294 1.184-2.207 2.037-2.738.856-.53 1.717-.796 2.586-.796.867 0 1.658.282 2.373.846.715.565 1.073 1.477 1.073 2.738 0 .597-.12 1.228-.358 1.891a22.894 22.894 0 0 1-.904 2.14 396.042 396.042 0 0 0-2.5 5.724 867.899 867.899 0 0 0-6.514 15.654 5011.643 5011.643 0 0 1-3.404 8.387c-1.105 2.722-2.143 5.3-3.11 7.74-.966 2.439-1.798 4.555-2.5 6.346a27.944 27.944 0 0 0-.902 2.664c-.295 1.011-.441 1.916-.441 2.713 0 .496.084.894.252 1.193.168.299.49.449.966.449.588 0 1.323-.207 2.206-.623.882-.414 1.834-.963 2.857-1.643a45.66 45.66 0 0 0 3.193-2.339 99.148 99.148 0 0 0 3.299-2.737 89.618 89.618 0 0 0 3.131-2.838c.994-.945 1.885-1.816 2.67-2.613.184-.191.404-.326.646-.427a89.386 89.386 0 0 0 1.286-4.151c.224-.598.533-1.443.925-2.539.391-1.096.84-2.174 1.344-3.236.504-1.061 1.073-1.983 1.701-2.762.631-.779 1.311-1.17 2.039-1.17 1.121 0 1.934.258 2.438.771.504.516.756 1.27.756 2.266 0 .199-.028.514-.084.945-.057.432-.125.889-.209 1.37-.084.48-.176.937-.274 1.369-.099.431-.189.746-.273.945a56.639 56.639 0 0 1 3.361-3.359 34.588 34.588 0 0 1 3.74-3.012 21.613 21.613 0 0 1 3.952-2.192c1.343-.562 2.689-.845 4.033-.845.924 0 1.842.133 2.752.399.91.265 1.724.655 2.437 1.169a6.113 6.113 0 0 1 1.744 1.942c.448.779.672 1.683.672 2.712 0 1.362-.342 2.813-1.029 4.356a31.546 31.546 0 0 1-2.584 4.652 58.26 58.26 0 0 1-3.361 4.555 173.74 173.74 0 0 1-3.383 4.031 343.597 343.597 0 0 0-2.649 3.086c-.712.848-1.086 1.42-1.113 1.719 0 .398.127.721.379.971.252.248.672.373 1.26.373.476 0 1.178-.266 2.101-.797.924-.531 2.221-1.451 3.887-2.762s3.783-3.07 6.346-5.277a605.745 605.745 0 0 0 6.135-5.366l11.114-102.929c-1.79.988-3.652 1.608-4.75 1.971-4.598 1.518-11.091 2.87-19.299 4.016zM87.474 85.99c-48.049 0-87 5.372-87 12s38.951 12 87 12 87-5.372 87-12-38.951-12-87-12zm34.738 15.507c0 1.555-4.629 2.816-10.34 2.816-5.71 0-10.339-1.261-10.339-2.816 0-1.556 4.629-2.817 10.339-2.817 5.711 0 10.34 1.261 10.34 2.817z"/><path d="M103.627 100.252a.467.467 0 0 0-.078.25c0 1.007 3.727 1.822 8.323 1.822 4.597 0 8.323-.815 8.323-1.822l10.871-44.078 43.233-45.645a.878.878 0 0 0 .041-.043c.915-1.035-.942-4.238-4.023-6.985-3.081-2.747-6.408-3.677-7.442-2.631a.843.843 0 0 0-.023.024l-46.127 48.538-13.098 50.57z"/></g></symbol><symbol id="icon-html5" viewBox="0 0 512 512"><path d="M38.238 0c-4.706 0-8.212 3.835-7.794 8.521l39.671 444.978c.418 4.687 4.468 9.552 9.004 10.811l168.344 46.742c4.535 1.259 11.954 1.259 16.49.003l168.856-46.819c4.535-1.258 8.59-6.122 9.007-10.808L481.553 8.521C481.974 3.835 478.464 0 473.758 0H38.238zm358.83 102.054c-.375 4.18-1.023 11.437-1.441 16.124l-1.045 11.675c-.421 4.685-1.02 11.386-1.336 14.889-.315 3.504-.614 6.371-.669 6.371H184.39c-4.706 0-8.212 3.835-7.794 8.521l3.667 40.99c.418 4.685 4.612 8.521 9.317 8.521h190.299c4.191 0 7.312 3.421 6.932 7.601-.382 4.18-1.034 11.439-1.451 16.124l-11.791 132.15c-.421 4.687-.953 10.674-1.182 13.306-.234 2.63-4.134 5.811-8.669 7.069l-99.474 27.582c-4.535 1.256-8.302 2.296-8.373 2.312-.07.015-3.836-1.003-8.373-2.26l-99.58-27.632c-4.535-1.258-8.587-6.122-9.004-10.809l-6.41-71.945c-.418-4.687 3.092-8.522 7.798-8.522h39.751c4.706 0 8.896 3.835 9.317 8.522l2.514 28.164c.418 4.687 4.475 9.524 9.019 10.751l46.579 12.579c4.541 1.227 8.275 2.231 8.296 2.231.021 0 3.753-1.006 8.296-2.233l46.663-12.609c4.541-1.227 8.602-6.066 9.023-10.751l5.06-56.427c.421-4.687-3.085-8.522-7.791-8.522H137.765c-4.706 0-8.896-3.836-9.314-8.521l-12.416-139.126c-.418-4.687-1.066-11.942-1.441-16.124-.371-4.18 3.172-7.601 7.878-7.601H389.191c4.705-.002 8.25 3.418 7.877 7.6z" fill="#dd512a"/></symbol><symbol id="icon-illustrator" viewBox="0 0 240 234"><path fill="#261300" d="M10,10h220v214H10V10z"/><g fill="#FF7C00"><path class="st1" d="M0,0v234h240V0H0z M10,10h220v214H10V10z"/><path class="st1" d="M83.3,132.5l-7.9,30c-0.2,0.8-0.5,1-1.5,1H59.2c-1,0-1.2-0.3-1-1.5l28.4-99.4c0.5-1.8,0.8-3.4,1-8.3   c0-0.7,0.3-1,0.8-1h21c0.7,0,1,0.2,1.2,1l31.8,107.9c0.2,0.8,0,1.3-0.8,1.3H125c-0.8,0-1.3-0.2-1.5-0.9l-8.3-30.1L83.3,132.5   L83.3,132.5z M111.1,116.3c-2.8-11.1-9.4-35.3-11.9-47h-0.2c-2.1,11.7-7.4,31.5-11.6,47H111.1z M156.1,60.7   c0-6.4,4.5-10.2,10.2-10.2c6.1,0,10.2,4.1,10.2,10.2c0,6.6-4.3,10.2-10.4,10.2C160.3,70.9,156.1,67.3,156.1,60.7L156.1,60.7z    M157.3,83.4c0-0.8,0.3-1.2,1.2-1.2h15.7c0.8,0,1.2,0.3,1.2,1.2v78.9c0,0.8-0.2,1.2-1.2,1.2h-15.5c-1,0-1.3-0.5-1.3-1.3V83.4z"/></g></symbol><symbol id="icon-javascript" viewBox="0 0 500 500"><g fill-rule="nonzero"><path fill="#f7df1e" d="M46.416 2.791h407.168c23.935 0 43.625 19.69 43.625 43.625v407.168c0 23.935-19.69 43.625-43.625 43.625H46.416c-23.935 0-43.625-19.69-43.625-43.625V46.416c0-23.935 19.69-43.625 43.625-43.625z"/><path d="M334.924 389.019c9.888 16.286 22.83 28.21 45.806 28.21 19.34 0 31.555-9.597 31.555-22.83 0-15.996-12.65-21.667-33.736-30.828l-11.634-5.09c-33.591-14.25-55.84-31.992-55.84-69.945 0-34.9 26.466-61.366 68.055-61.366 29.52 0 50.75 10.179 66.02 37.226l-36.21 23.267c-7.852-14.396-16.431-19.922-29.81-19.922-13.669 0-22.249 8.58-22.249 19.922 0 13.815 8.726 19.486 28.502 28.21l11.634 4.945c39.553 16.868 61.802 34.173 61.802 73 0 41.734-32.864 64.71-77.071 64.71-43.044 0-70.964-20.65-84.633-47.551l37.809-21.813v-.145zm-164.176 4.071c7.27 12.942 13.96 23.849 29.956 23.849 15.268 0 24.866-5.817 24.866-29.084V229.642h46.533v158.504c0 48.279-28.21 70.091-69.364 70.091-29.752 1.658-57.6-15.283-69.8-42.462l37.809-22.685z"/></g></symbol><symbol id="icon-less" viewBox="0 0 64 64"><g transform="matrix(.64 0 0 .64 -8.96 32)"><circle r="50" cx="64" fill="#214674"/><path d="M75.3-.6c4 1.4 6.1 3.8 6.1 7.3 0 2.3-.8 4-2.5 5.4-1.7 1.3-4 2.1-7.1 2.1-2.9 0-5.6-.8-8.1-2.1-.3-.2-.5-.5-.5-.9a8.93 8.93 0 01.6-2l.8-1.6c.3-.4.7-.5 1.2-.3 2.2 1 4 1.6 5.7 1.6.8 0 1.5-.1 2-.4s.7-.7.7-1.1c0-.9-.7-1.6-2.1-2l-2.5-.9c-3.8-1.4-5.7-3.6-5.7-6.8 0-2.3.8-4.1 2.4-5.4s3.7-2.5 6.4-2.5c1.3 0 2.8.2 4.4.6 1.4.3 2.5 1 3.5 1.6.3.2.5.5.5.9 0 .7-.2 1.4-.5 2.2-.3.7-.6 1.3-1 1.7-.3.3-.7.4-1 .2-2.3-1-4.2-1.5-5.8-1.5-.6 0-1.1.1-1.4.4s-.5.6-.5 1c0 .7.6 1.3 1.7 1.7zM93.9 3c-1.3 1.1-2 2.7-2 4.9v7.9c0 2.6-.8 4.6-2.6 6s-3.9 2-6.3 2.1h-1.4v-3.3c0-.4.2-.7.6-.8.9-.3 1.3-.7 1.7-1.1.9-.8 1.6-2.2 1.6-4V8.3c0-2.2.2-3.9 1-5.1.6-.9 1.6-1.7 3-2.5.6-.3.6-1.2 0-1.6-1.7-1-2.8-2.2-3.5-3.7-.5-1.1-.5-2.6-.5-4.5v-5.8c0-1.9-.6-3.3-1.4-4a3.41 3.41 0 00-1.8-1c-.4-.1-.6-.5-.6-.9v-2.1c0-.5.4-.9.9-.9h2.7c1.5 0 2.8.8 3.9 1.7 1.2 1 2.1 2.2 2.6 3.9.3.9.3 1.8.3 2.7v6.7c0 2.4.7 4.2 1.9 5.3.6.6 1.4 1.1 2.7 1.6.4.1.6.5.6.8V.6c0 .4-.2.7-.6.9-1.4.4-2.2.9-2.8 1.5zM44.8-23.8h-1.3c-1.5 0-2.8.8-3.9 1.7-1.2 1-2.3 2.2-2.6 3.9-.2 1-.1 1.8-.1 2.7v6.7c0 2.4-.9 4.1-2.1 5.3-.6.6-1.8 1.1-3.2 1.6-.4.2-.6.5-.6.9V.7c0 .4.2.7.6.9 1.2.4 2.3.9 3 1.5 1.3 1.1 2.2 2.7 2.2 4.9v7.9c0 2.6.6 4.6 2.4 6s3.9 2 6.3 2.1h.7c.5 0 .9-.4.9-.9v-2.4c0-.4-.2-.7-.6-.8-.9-.3-1.5-.7-1.9-1.1-.9-.8-1.4-2.2-1.4-4V8.4c0-2.2-.4-3.9-1.2-5.1-.6-.9-1.6-1.7-3-2.5-.6-.3-.6-1.2 0-1.6 1.7-1 2.8-2.2 3.5-3.7.5-1.1.7-2.6.7-4.5v-5.8c0-1.9.4-3.3 1.2-4 .4-.4 1.1-.7 2.1-1h.9c.5 0 .9-.4.9-.9v-2.1c0-.5-.4-.9-.9-.9zM61 8.1h-1.2C58.5 8.1 58 7.4 58 6v-25.9c0-1.6-.5-2.7-1-3.3-.6-.6-1.6-.6-3-.6h-2.2c-.5 0-.9.4-.9.9V7.3c0 2.2.5 3.7 1.4 4.8.9 1 2.3 1.5 4.4 1.5 1.3 0 2.7-.1 4.2-.3.4-.1.7-.4.8-.8v-1.2c-.2-1.2-.4-2.2-.7-3.2z" fill="#f6f6f6"/></g></symbol><symbol id="icon-messenger" viewBox="0 0 512 512"><path d="M432.557 68.936a8.018 8.018 0 0 0-11.03 11.64c42.505 40.278 65.914 93.477 65.914 149.796 0 118.186-103.825 214.337-231.441 214.337-21.428 0-42.659-2.714-63.101-8.067a8.016 8.016 0 0 0-7.535 1.927l-49.628 46.87v-67.288a8.014 8.014 0 0 0-3.943-6.904C64.647 371.611 24.559 303.995 24.559 230.372 24.559 112.186 128.383 16.035 256 16.035c47.712 0 93.521 13.337 132.476 38.568a8.018 8.018 0 1 0 8.717-13.459C355.637 14.227 306.813 0 256 0 190.008 0 127.938 23.89 81.222 67.269 34.342 110.8 8.524 168.724 8.524 230.372c0 39.565 10.956 78.593 31.685 112.863 19.277 31.873 46.699 59.261 79.492 79.445v81.359c0 6.871 8.505 10.567 13.523 5.829l59.949-56.618c20.426 4.974 41.538 7.495 62.827 7.495 65.992 0 128.062-23.89 174.779-67.269 46.879-43.531 72.697-101.456 72.697-163.103 0-60.768-25.186-118.1-70.919-161.437z"/><path d="M442.111 165.838c-2.14-2.988-6.168-4.146-9.568-2.744l-140.792 57.973-64.677-56.594a8.018 8.018 0 0 0-11.272.708l-22.805 25.656c-2.902 3.265-2.6 8.416.666 11.319 3.265 2.902 8.417 2.6 11.319-.666l17.521-19.71 62.429 54.627a8.021 8.021 0 0 0 8.332 1.38l110.888-45.659-114.473 121.2-62.608-54.783a8.015 8.015 0 0 0-8.493-1.312l-103.337 45.211 61.231-68.885a8.016 8.016 0 0 0-.666-11.318 8.017 8.017 0 0 0-11.319.666l-85.521 96.211c-2.393 2.693-2.678 6.779-.678 9.775 2.13 3.193 6.364 4.436 9.884 2.897l132.17-57.825 64.586 56.513a8.019 8.019 0 0 0 11.109-.529l145.386-153.938c2.605-2.756 2.896-7.091.688-10.173z"/></symbol><symbol id="icon-phone" viewBox="0 0 512.076 512.076"><path d="M498.639 395.039l-103.646-69.12c-13.153-8.701-30.784-5.838-40.508 6.579l-30.191 38.818a12.903 12.903 0 0 1-16.546 3.482l-5.743-3.166c-19.038-10.377-42.726-23.296-90.453-71.04s-60.672-71.45-71.049-90.453l-3.149-5.743a12.92 12.92 0 0 1 3.413-16.606l38.792-30.182c12.412-9.725 15.279-27.351 6.588-40.508l-69.12-103.646C108.12.056 90.25-3.966 76.461 4.323L33.12 30.358A61.136 61.136 0 0 0 5.242 66.539c-15.607 56.866-3.866 155.008 140.706 299.597 115.004 114.995 200.619 145.92 259.465 145.92a151.181 151.181 0 0 0 40.107-5.239 61.079 61.079 0 0 0 36.181-27.878l26.061-43.315c8.301-13.792 4.281-31.673-9.123-40.585zm-5.581 31.829l-26.001 43.341a44.103 44.103 0 0 1-26.027 20.173c-52.497 14.413-144.213 2.475-283.008-136.32S7.29 123.559 21.703 71.054a44.17 44.17 0 0 1 20.198-26.061l43.341-26.001c5.983-3.6 13.739-1.855 17.604 3.959l37.547 56.371 31.514 47.266c3.774 5.707 2.534 13.356-2.85 17.579l-38.801 30.182c-11.808 9.029-15.18 25.366-7.91 38.332l3.081 5.598c10.906 20.002 24.465 44.885 73.967 94.379 49.502 49.493 74.377 63.053 94.37 73.958l5.606 3.089c12.965 7.269 29.303 3.898 38.332-7.91l30.182-38.801c4.224-5.381 11.87-6.62 17.579-2.85l103.637 69.12c5.818 3.862 7.563 11.622 3.958 17.604zM290.161 85.39c80.081.089 144.977 64.986 145.067 145.067 0 4.713 3.82 8.533 8.533 8.533s8.533-3.82 8.533-8.533c-.099-89.503-72.63-162.035-162.133-162.133-4.713 0-8.533 3.82-8.533 8.533s3.82 8.533 8.533 8.533z"/><path d="M290.161 136.59c51.816.061 93.806 42.051 93.867 93.867a8.533 8.533 0 0 0 17.066 0c-.071-61.238-49.696-110.863-110.933-110.933-4.713 0-8.533 3.82-8.533 8.533s3.82 8.533 8.533 8.533z"/><path d="M290.161 187.79c23.552.028 42.638 19.114 42.667 42.667a8.533 8.533 0 0 0 17.066 0c-.038-32.974-26.759-59.696-59.733-59.733-4.713 0-8.533 3.82-8.533 8.533s3.82 8.533 8.533 8.533z"/></symbol><symbol id="icon-photoshop" viewBox="0 0 240 234"><path fill="#001D26" d="M10,10h220v214H10V10z"/><path fill="#00C8FF" d="M0,0v234h240V0H0z M10,10h220v214H10V10z M58,54.8c0-0.7,1.4-1.2,2.2-1.2c6.4-0.3,15.9-0.5,25.8-0.5  c27.7,0,38.5,15.2,38.5,34.7c0,25.4-18.4,36.3-41,36.3c-3.8,0-5.1-0.2-7.8-0.2v38.4c0,0.8-0.3,1.2-1.2,1.2H59.2  c-0.8,0-1.2-0.3-1.2-1.2L58,54.8L58,54.8z M75.8,107.9c2.3,0.2,4.1,0.2,8.1,0.2c11.7,0,22.7-4.1,22.7-20c0-12.7-7.9-19.1-21.2-19.1  c-4,0-7.8,0.2-9.6,0.3V107.9L75.8,107.9z M161.8,96c-7.9,0-10.6,4-10.6,7.3c0,3.6,1.8,6.1,12.4,11.6c15.7,7.6,20.6,14.9,20.6,25.6  c0,16-12.2,24.6-28.7,24.6c-8.7,0-16.2-1.8-20.5-4.3c-0.7-0.3-0.8-0.8-0.8-1.6v-14.7c0-1,0.5-1.3,1.2-0.8c6.3,4.1,13.5,5.9,20.1,5.9  c7.9,0,11.2-3.3,11.2-7.8c0-3.6-2.3-6.8-12.4-12c-14.2-6.8-20.1-13.7-20.1-25.2c0-12.9,10.1-23.6,27.6-23.6c8.6,0,14.6,1.3,17.9,2.8  c0.8,0.5,1,1.3,1,2v13.7c0,0.8-0.5,1.3-1.5,1C174.8,97.7,168.3,96,161.8,96L161.8,96z"/></symbol><symbol id="icon-react" viewBox="0 0 841.9 595.3"><g fill="#61DAFB"><path d="M666.3 296.5c0-32.5-40.7-63.3-103.1-82.4 14.4-63.6 8-114.2-20.2-130.4-6.5-3.8-14.1-5.6-22.4-5.6v22.3c4.6 0 8.3.9 11.4 2.6 13.6 7.8 19.5 37.5 14.9 75.7-1.1 9.4-2.9 19.3-5.1 29.4-19.6-4.8-41-8.5-63.5-10.9-13.5-18.5-27.5-35.3-41.6-50 32.6-30.3 63.2-46.9 84-46.9V78c-27.5 0-63.5 19.6-99.9 53.6-36.4-33.8-72.4-53.2-99.9-53.2v22.3c20.7 0 51.4 16.5 84 46.6-14 14.7-28 31.4-41.3 49.9-22.6 2.4-44 6.1-63.6 11-2.3-10-4-19.7-5.2-29-4.7-38.2 1.1-67.9 14.6-75.8 3-1.8 6.9-2.6 11.5-2.6V78.5c-8.4 0-16 1.8-22.6 5.6-28.1 16.2-34.4 66.7-19.9 130.1-62.2 19.2-102.7 49.9-102.7 82.3 0 32.5 40.7 63.3 103.1 82.4-14.4 63.6-8 114.2 20.2 130.4 6.5 3.8 14.1 5.6 22.5 5.6 27.5 0 63.5-19.6 99.9-53.6 36.4 33.8 72.4 53.2 99.9 53.2 8.4 0 16-1.8 22.6-5.6 28.1-16.2 34.4-66.7 19.9-130.1 62-19.1 102.5-49.9 102.5-82.3zm-130.2-66.7c-3.7 12.9-8.3 26.2-13.5 39.5-4.1-8-8.4-16-13.1-24-4.6-8-9.5-15.8-14.4-23.4 14.2 2.1 27.9 4.7 41 7.9zm-45.8 106.5c-7.8 13.5-15.8 26.3-24.1 38.2-14.9 1.3-30 2-45.2 2-15.1 0-30.2-.7-45-1.9-8.3-11.9-16.4-24.6-24.2-38-7.6-13.1-14.5-26.4-20.8-39.8 6.2-13.4 13.2-26.8 20.7-39.9 7.8-13.5 15.8-26.3 24.1-38.2 14.9-1.3 30-2 45.2-2 15.1 0 30.2.7 45 1.9 8.3 11.9 16.4 24.6 24.2 38 7.6 13.1 14.5 26.4 20.8 39.8-6.3 13.4-13.2 26.8-20.7 39.9zm32.3-13c5.4 13.4 10 26.8 13.8 39.8-13.1 3.2-26.9 5.9-41.2 8 4.9-7.7 9.8-15.6 14.4-23.7 4.6-8 8.9-16.1 13-24.1zM421.2 430c-9.3-9.6-18.6-20.3-27.8-32 9 .4 18.2.7 27.5.7 9.4 0 18.7-.2 27.8-.7-9 11.7-18.3 22.4-27.5 32zm-74.4-58.9c-14.2-2.1-27.9-4.7-41-7.9 3.7-12.9 8.3-26.2 13.5-39.5 4.1 8 8.4 16 13.1 24 4.7 8 9.5 15.8 14.4 23.4zM420.7 163c9.3 9.6 18.6 20.3 27.8 32-9-.4-18.2-.7-27.5-.7-9.4 0-18.7.2-27.8.7 9-11.7 18.3-22.4 27.5-32zm-74 58.9c-4.9 7.7-9.8 15.6-14.4 23.7-4.6 8-8.9 16-13 24-5.4-13.4-10-26.8-13.8-39.8 13.1-3.1 26.9-5.8 41.2-7.9zm-90.5 125.2c-35.4-15.1-58.3-34.9-58.3-50.6 0-15.7 22.9-35.6 58.3-50.6 8.6-3.7 18-7 27.7-10.1 5.7 19.6 13.2 40 22.5 60.9-9.2 20.8-16.6 41.1-22.2 60.6-9.9-3.1-19.3-6.5-28-10.2zM310 490c-13.6-7.8-19.5-37.5-14.9-75.7 1.1-9.4 2.9-19.3 5.1-29.4 19.6 4.8 41 8.5 63.5 10.9 13.5 18.5 27.5 35.3 41.6 50-32.6 30.3-63.2 46.9-84 46.9-4.5-.1-8.3-1-11.3-2.7zm237.2-76.2c4.7 38.2-1.1 67.9-14.6 75.8-3 1.8-6.9 2.6-11.5 2.6-20.7 0-51.4-16.5-84-46.6 14-14.7 28-31.4 41.3-49.9 22.6-2.4 44-6.1 63.6-11 2.3 10.1 4.1 19.8 5.2 29.1zm38.5-66.7c-8.6 3.7-18 7-27.7 10.1-5.7-19.6-13.2-40-22.5-60.9 9.2-20.8 16.6-41.1 22.2-60.6 9.9 3.1 19.3 6.5 28.1 10.2 35.4 15.1 58.3 34.9 58.3 50.6-.1 15.7-23 35.6-58.4 50.6zM320.8 78.4z"/><circle cx="420.9" cy="296.5" r="45.7"/><path d="M520.5 78.1z"/></g></symbol><symbol id="icon-sass" viewBox="0 0 410.871 410.871"><path fill-rule="evenodd" clip-rule="evenodd" fill="#C69" d="M205.436 0c113.458 0 205.435 91.977 205.435 205.436s-91.977 205.436-205.435 205.436C91.977 410.871 0 318.895 0 205.436S91.977 0 205.436 0z"/><path fill="#FFF" d="M334.299 87.929c-9.303-36.486-69.801-48.48-127.059-28.139-34.075 12.106-70.964 31.106-97.488 55.916-31.537 29.497-36.566 55.172-34.493 65.9 7.312 37.854 59.18 62.597 80.501 80.955v.111c-6.287 3.095-52.303 26.383-63.073 50.191-11.363 25.117 1.809 43.141 10.529 45.566 27.019 7.518 54.745-6.004 69.645-28.229 14.378-21.448 13.182-49.145 6.933-62.921 8.619-2.274 18.669-3.293 31.44-1.802 36.037 4.209 43.107 26.711 41.756 36.127-1.352 9.418-8.91 14.596-11.438 16.158-2.527 1.564-3.299 2.105-3.086 3.268.307 1.689 1.477 1.627 3.631 1.262 2.967-.5 18.924-7.66 19.605-25.043.869-22.07-20.281-46.758-57.73-46.113-15.423.267-25.121 1.733-32.126 4.34a71.867 71.867 0 0 0-1.59-1.758c-23.152-24.701-65.951-42.174-64.136-75.38.66-12.072 4.856-43.861 82.239-82.421 63.39-31.587 114.136-22.895 122.906-3.631 12.527 27.521-27.121 78.673-92.951 86.052-25.081 2.812-38.288-6.909-41.573-10.529-3.459-3.812-3.974-3.983-5.265-3.268-2.103 1.165-.77 4.53 0 6.536 1.966 5.115 10.031 14.186 23.782 18.699 12.097 3.97 41.544 6.15 77.157-7.624 39.886-15.43 71.032-58.348 61.884-94.223zm-169.69 185.938c2.988 11.056 2.661 21.366-.427 30.703a50.312 50.312 0 0 1-2.461 6.078c-2.381 4.94-5.576 9.564-9.488 13.832-11.937 13.022-28.613 17.945-35.764 13.797-7.722-4.477-3.854-22.836 9.985-37.465 14.888-15.738 36.309-25.857 36.309-25.857l-.032-.065c.616-.331 1.243-.673 1.878-1.023z"/></symbol><symbol id="icon-swipe" viewBox="0 0 490.651 490.651"><g fill="#fff"><path d="M437.328 42.651h-128c-5.888 0-10.667 4.779-10.667 10.667s4.779 10.667 10.667 10.667h128c5.888 0 10.667-4.779 10.667-10.667s-4.779-10.667-10.667-10.667z"/><path d="M444.88 45.787L402.213 3.12c-4.16-4.16-10.923-4.16-15.083 0s-4.16 10.923 0 15.083l35.115 35.115-35.136 35.136c-4.16 4.16-4.16 10.923 0 15.083a10.716 10.716 0 0015.104 0L444.88 60.87c4.16-4.161 4.16-10.923 0-15.083zM159.995 42.651h-128c-5.888 0-10.667 4.779-10.667 10.667s4.779 10.667 10.667 10.667h128c5.888 0 10.667-4.779 10.667-10.667s-4.779-10.667-10.667-10.667z"/><path d="M47.077 53.317l35.115-35.115c4.16-4.16 4.16-10.923 0-15.083s-10.923-4.16-15.083 0L24.443 45.787c-4.16 4.16-4.16 10.923 0 15.083l42.667 42.667a10.716 10.716 0 007.552 3.115c2.731 0 5.461-1.045 7.531-3.136 4.16-4.16 4.16-10.923 0-15.083L47.077 53.317zM426.661 213.317a42.524 42.524 0 00-23.723 7.211c-5.845-16.597-21.696-28.544-40.277-28.544a42.524 42.524 0 00-23.723 7.211c-5.845-16.597-21.696-28.544-40.277-28.544a42.321 42.321 0 00-21.333 5.739v-69.739c0-23.531-19.136-42.667-42.667-42.667-23.531 0-42.667 19.136-42.667 42.667v181.333l-37.077-27.797c-21.973-16.491-53.248-14.293-72.725 5.163-12.48 12.48-12.48 32.768 0 45.248l151.915 151.936c18.133 18.133 42.261 28.117 67.904 28.117h49.984c64.683 0 117.333-52.629 117.333-117.333V255.984c0-23.531-19.136-42.667-42.667-42.667zm21.334 160c0 52.928-43.072 96-96 96h-49.984c-19.968 0-38.72-7.765-52.821-21.867L97.275 295.515c-4.16-4.16-4.16-10.923 0-15.083 6.613-6.592 15.445-9.984 24.32-9.984 7.211 0 14.464 2.24 20.544 6.805l54.123 40.597a10.704 10.704 0 0011.179 1.003 10.684 10.684 0 005.888-9.536V106.651c0-11.755 9.557-21.333 21.333-21.333s21.333 9.579 21.333 21.333v160c0 5.888 4.779 10.667 10.667 10.667s10.667-4.779 10.667-10.667v-53.333c0-11.755 9.557-21.333 21.333-21.333s21.333 9.579 21.333 21.333v53.333c0 5.888 4.779 10.667 10.667 10.667s10.667-4.779 10.667-10.667v-32c0-11.755 9.557-21.333 21.333-21.333s21.333 9.579 21.333 21.333v32c0 5.888 4.779 10.667 10.667 10.667s10.667-4.779 10.667-10.667v-10.667c0-11.755 9.557-21.333 21.333-21.333s21.333 9.579 21.333 21.333v117.333z"/></g></symbol><symbol id="icon-telegram" viewBox="0 0 512 512"><path d="M490.626 153.442c-13.697-31.292-33.236-59.158-58.073-82.819a8.015 8.015 0 0 0-11.335.275 8.015 8.015 0 0 0 .275 11.333c48.024 45.751 74.473 107.464 74.473 173.769 0 132.318-107.648 239.967-239.967 239.967S16.033 388.318 16.033 256 123.682 16.033 256 16.033c48.336 0 94.93 14.306 134.742 41.369a8.017 8.017 0 0 0 9.014-13.259C357.274 15.265 307.565 0 256 0 187.62 0 123.333 26.628 74.981 74.981 26.629 123.333 0 187.62 0 256s26.629 132.667 74.981 181.019C123.333 485.372 187.62 512 256 512s132.667-26.628 181.019-74.981C485.371 388.667 512 324.38 512 256c0-35.652-7.192-70.158-21.374-102.558z"/><path d="M372.333 108.552l-154.176 71.771c-4.014 1.868-5.753 6.638-3.884 10.652s6.638 5.755 10.65 3.885l95.106-44.274-46.237 37.431-106.107 85.896-58.036-25.392 81.326-37.858a8.017 8.017 0 0 0 3.884-10.652c-1.868-4.014-6.639-5.755-10.65-3.885l-87.54 40.752a12.962 12.962 0 0 0-7.474 12.035 12.954 12.954 0 0 0 7.748 11.55l64.802 28.35 18.979 113.873c1.168 7.041 10.702 9.046 14.613 3.075l53.836-82.171 101.811 47.512c8.157 3.81 17.864-2.012 18.39-10.966l14.344-243.849c.015-.226.014-.458.009-.685-.16-5.675-6.256-9.426-11.394-7.05zM190.018 360.931l-12.404-74.428 126.369-102.299-96.718 108.441a8.097 8.097 0 0 0-1.816 3.479l-15.431 64.807zm17.031-2.3l11.72-49.228 15.724 7.338-27.444 41.89zm36.322-55.44l-16.967-7.917 83.469-93.586-12.073 18.428-54.429 83.075zm110.266 51.458l-95.586-44.607 107.897-164.684-12.311 209.291z"/></symbol><symbol id="icon-typescript" viewBox="0 0 512 512"><rect fill="#3178c6" height="512" rx="50" width="512"/><rect fill="#3178c6" height="512" rx="50" width="512"/><path clip-rule="evenodd" d="m316.939 407.424v50.061c8.138 4.172 17.763 7.3 28.875 9.386s22.823 3.129 35.135 3.129c11.999 0 23.397-1.147 34.196-3.442 10.799-2.294 20.268-6.075 28.406-11.342 8.138-5.266 14.581-12.15 19.328-20.65s7.121-19.007 7.121-31.522c0-9.074-1.356-17.026-4.069-23.857s-6.625-12.906-11.738-18.225c-5.112-5.319-11.242-10.091-18.389-14.315s-15.207-8.213-24.18-11.967c-6.573-2.712-12.468-5.345-17.685-7.9-5.217-2.556-9.651-5.163-13.303-7.822-3.652-2.66-6.469-5.476-8.451-8.448-1.982-2.973-2.974-6.336-2.974-10.091 0-3.441.887-6.544 2.661-9.308s4.278-5.136 7.512-7.118c3.235-1.981 7.199-3.52 11.894-4.615 4.696-1.095 9.912-1.642 15.651-1.642 4.173 0 8.581.313 13.224.938 4.643.626 9.312 1.591 14.008 2.894 4.695 1.304 9.259 2.947 13.694 4.928 4.434 1.982 8.529 4.276 12.285 6.884v-46.776c-7.616-2.92-15.937-5.084-24.962-6.492s-19.381-2.112-31.066-2.112c-11.895 0-23.163 1.278-33.805 3.833s-20.006 6.544-28.093 11.967c-8.086 5.424-14.476 12.333-19.171 20.729-4.695 8.395-7.043 18.433-7.043 30.114 0 14.914 4.304 27.638 12.912 38.172 8.607 10.533 21.675 19.45 39.204 26.751 6.886 2.816 13.303 5.579 19.25 8.291s11.086 5.528 15.415 8.448c4.33 2.92 7.747 6.101 10.252 9.543 2.504 3.441 3.756 7.352 3.756 11.733 0 3.233-.783 6.231-2.348 8.995s-3.939 5.162-7.121 7.196-7.147 3.624-11.894 4.771c-4.748 1.148-10.303 1.721-16.668 1.721-10.851 0-21.597-1.903-32.24-5.71-10.642-3.806-20.502-9.516-29.579-17.13zm-84.159-123.342h64.22v-41.082h-179v41.082h63.906v182.918h50.874z" fill="#fff" fill-rule="evenodd"/></symbol><symbol id="icon-vk" viewBox="0 0 511.962 511.962"><path d="M250.503 400.807h30.592s9.248-1.024 13.952-6.112c4.352-4.672 4.192-13.44 4.192-13.44s-.608-41.056 18.464-47.104c18.784-5.952 42.912 39.68 68.48 57.248 19.328 13.28 34.016 10.368 34.016 10.368l68.384-.96s35.776-2.208 18.816-30.336c-1.376-2.304-9.888-20.8-50.848-58.816-42.88-39.808-37.12-33.344 14.528-102.176 31.456-41.92 44.032-67.52 40.096-78.464-3.744-10.432-26.88-7.68-26.88-7.68l-76.928.448s-5.696-.768-9.952 1.76c-4.128 2.496-6.784 8.256-6.784 8.256s-12.192 32.448-28.448 60.032c-34.272 58.208-48 61.28-53.6 57.664-13.024-8.416-9.76-33.856-9.76-51.904 0-56.416 8.544-79.936-16.672-86.016-8.384-2.016-14.528-3.36-35.936-3.584-27.456-.288-50.72.096-63.872 6.528-8.768 4.288-15.52 13.856-11.392 14.4 5.088.672 16.608 3.104 22.72 11.424 7.904 10.72 7.616 34.848 7.616 34.848s4.544 66.4-10.592 74.656c-10.4 5.664-24.64-5.888-55.2-58.72-15.648-27.04-27.488-56.96-27.488-56.96s-2.272-5.568-6.336-8.544c-4.928-3.616-11.84-4.768-11.84-4.768l-73.152.448s-10.976.32-15.008 5.088c-3.584 4.256-.288 13.024-.288 13.024s57.28 133.984 122.112 201.536c59.488 61.92 127.008 57.856 127.008 57.856z" fill="currentColor"/></symbol><symbol id="icon-webpack" viewBox="0 0 256 290" preserveAspectRatio="xMidYMid"><path fill="#FFF" d="M128 .048l128 72.405V217.31l-128 72.405L0 217.31V72.453z"/><path fill="#8ED6FB" d="M233.153 212.287l-100.902 57.14V224.99l62.889-34.632 38.013 21.929zm6.907-6.231V86.654l-36.902 21.3v76.8l36.902 21.302zm-217.6 6.23l100.903 57.094v-44.438l-62.889-34.584-38.014 21.929zm-6.907-6.23V86.654l36.903 21.3v76.8l-36.903 21.302zm4.3-127.13l103.51-58.543v42.99L57.045 99.84l-.532.29-36.66-21.205zm215.86 0L132.251 20.382v42.99l66.27 36.515.531.29 36.661-21.253z"/><path fill="#1C78C0" d="M123.363 214.847l-62.02-34.15v-67.574l62.02 35.792v65.932zm8.888 0l62.02-34.101v-67.623l-62.02 35.792v65.932zM65.497 105.298l62.31-34.246 62.26 34.246-62.26 35.937-62.31-35.937z"/></symbol><symbol id="icon-wechat" viewBox="0 0 512 512"><path d="M221.795 131.128c-18.566 0-33.67 15.105-33.67 33.67s15.105 33.67 33.67 33.67 33.67-15.103 33.67-33.67c.001-18.565-15.104-33.67-33.67-33.67zm0 51.307c-9.725 0-17.637-7.912-17.637-17.637 0-9.725 7.912-17.637 17.637-17.637s17.637 7.912 17.637 17.637c0 9.725-7.912 17.637-17.637 17.637zM127.733 131.128c-18.566 0-33.67 15.105-33.67 33.67s15.105 33.67 33.67 33.67 33.67-15.103 33.67-33.67c0-18.565-15.105-33.67-33.67-33.67zm0 51.307c-9.725 0-17.637-7.912-17.637-17.637 0-9.725 7.912-17.637 17.637-17.637s17.637 7.912 17.637 17.637c0 9.725-7.912 17.637-17.637 17.637z"/><path d="M512 327.27c0-40.141-17.926-77.462-50.476-105.085a8.017 8.017 0 0 0-10.374 12.225c28.901 24.528 44.818 57.505 44.818 92.86 0 38.173-19.04 74.162-52.24 98.736a8.017 8.017 0 0 0-3.056 8.182l8.685 39.081-41.19-24.715a8.022 8.022 0 0 0-6.657-.732c-16.44 5.474-33.748 8.25-51.446 8.25-80.451 0-145.904-57.78-145.904-128.802s65.453-128.802 145.904-128.802c26.433 0 52.322 6.306 74.871 18.239a8.018 8.018 0 0 0 7.499-14.171c-24.85-13.149-53.333-20.101-82.37-20.101-.355 0-.707.01-1.06.012.336-3.973.526-7.968.526-11.948 0-86.15-78.399-156.237-174.764-156.237S0 84.35 0 170.499c0 17.931 3.369 35.515 10.014 52.265 1.695 4.275 6.813 6.263 10.956 4.255 3.726-1.806 5.474-6.32 3.947-10.167-5.896-14.86-8.885-30.455-8.885-46.353 0-77.309 71.206-140.204 158.731-140.204S333.495 93.19 333.495 170.499c0 4.253-.223 8.526-.654 12.756-74.909 7.116-134.723 60.097-143.574 126.857-4.808.385-9.674.59-14.503.59-28.915 0-57.224-6.945-81.868-20.082a8.015 8.015 0 0 0-7.544.001l-36.721 19.584 12.973-34.595a8.014 8.014 0 0 0-2.042-8.68c-7.636-7.114-14.442-14.95-20.231-23.292a8.018 8.018 0 0 0-13.173 9.142c5.437 7.835 11.673 15.262 18.583 22.135l-18.577 49.541c-2.533 6.754 4.885 13.3 11.279 9.888l51.738-27.593c26.037 13.088 55.529 19.986 85.583 19.986 4.449 0 8.93-.155 13.375-.455-.002.33-.014.658-.014.99 0 79.862 72.644 144.835 161.937 144.835 18.158 0 35.958-2.667 52.969-7.933l54.071 32.445c5.928 3.552 13.443-1.897 11.95-8.614l-11.622-52.3C492.178 408.183 512 368.94 512 327.27z"/><path d="M298.756 293.6c-18.566 0-33.67 15.105-33.67 33.67s15.105 33.67 33.67 33.67 33.67-15.105 33.67-33.67-15.105-33.67-33.67-33.67zm0 51.307c-9.725 0-17.637-7.912-17.637-17.637s7.912-17.637 17.637-17.637 17.637 7.913 17.637 17.637c0 9.725-7.912 17.637-17.637 17.637zM401.37 293.6c-18.566 0-33.67 15.105-33.67 33.67s15.105 33.67 33.67 33.67c18.566 0 33.67-15.105 33.67-33.67s-15.105-33.67-33.67-33.67zm0 51.307c-9.725 0-17.637-7.912-17.637-17.637s7.912-17.637 17.637-17.637 17.637 7.912 17.637 17.637-7.913 17.637-17.637 17.637z"/></symbol><symbol id="icon-whatsapp" viewBox="0 0 512 512"><path d="M437.019 74.981C388.667 26.629 324.38 0 256 0S123.333 26.629 74.981 74.981C26.629 123.333 0 187.62 0 256c0 51.582 15.212 101.126 44.038 143.582L.648 500.825c-2.843 6.632 4.272 13.513 10.815 10.396l96.843-46.115C151.658 495.802 202.618 512 256 512c68.38 0 132.667-26.628 181.019-74.981C485.372 388.668 512 324.38 512 256s-26.628-132.667-74.981-181.019zM256 495.967c-51.553 0-100.69-16.112-142.1-46.596-2.356-1.735-5.558-2.039-8.199-.781l-81.945 39.02 36.766-85.784a8.013 8.013 0 0 0-.816-7.775C31.135 353.5 16.033 305.764 16.033 256 16.033 123.682 123.682 16.033 256 16.033S495.967 123.682 495.967 256 388.318 495.967 256 495.967z"/><path d="M397.05 96.066a8.017 8.017 0 0 0-10.61 12.021c42.433 37.451 66.771 91.363 66.771 147.913 0 108.743-88.469 197.211-197.211 197.211-108.743 0-197.211-88.468-197.211-197.211S147.257 58.789 256 58.789c34.673 0 68.768 9.122 98.6 26.379 3.833 2.218 8.737.907 10.954-2.926s.908-8.736-2.924-10.954C330.359 52.623 293.487 42.756 256 42.756c-117.584 0-213.244 95.66-213.244 213.244S138.416 469.244 256 469.244 469.244 373.584 469.244 256c0-61.148-26.314-119.441-72.194-159.934z"/><path d="M392.149 342.917l-7.689-41.647a8.019 8.019 0 0 0-6.311-6.406l-60.465-12.092a8.029 8.029 0 0 0-7.241 2.194l-24.826 24.827c-41.844-18.678-64.966-41.848-85.333-85.484l24.751-24.751a8.016 8.016 0 0 0 2.192-7.241l-12.092-60.466a8.019 8.019 0 0 0-6.406-6.312l-41.647-7.689a8.01 8.01 0 0 0-3.231.066 59.162 59.162 0 0 0-28.756 15.884c-13.703 13.703-18.937 33.724-15.134 57.897 3.465 22.03 10.454 45.99 19.678 67.467a8.015 8.015 0 0 0 10.53 4.202 8.017 8.017 0 0 0 4.202-10.53c-8.713-20.284-15.308-42.883-18.572-63.631-3.015-19.171.562-33.997 10.633-44.068a43.14 43.14 0 0 1 19.436-11.207l34.612 6.39 10.187 50.934-25.652 25.652a8.014 8.014 0 0 0-1.651 8.937c23.32 52.224 50.677 79.559 100.937 100.858a8.02 8.02 0 0 0 8.797-1.713l25.651-25.652 50.933 10.187 6.391 34.612a43.16 43.16 0 0 1-11.206 19.436c-10.072 10.07-24.901 13.648-44.069 10.632-38.321-6.029-91.477-24.633-125.737-58.757l-.492-.493c-9.305-9.341-17.968-20.672-25.75-33.68a8.016 8.016 0 0 0-10.995-2.764 8.016 8.016 0 0 0-2.764 10.995c8.451 14.128 17.921 26.497 28.178 36.797l.496.494c36.988 36.842 93.768 56.828 134.571 63.246 16.27 2.56 33.749 1.36 48.085-7.402a52.89 52.89 0 0 0 9.812-7.731 59.155 59.155 0 0 0 15.883-28.758 8.039 8.039 0 0 0 .064-3.233z"/></symbol></svg>