<svg xmlns="http://www.w3.org/2000/svg" viewBox="0 0 167 167"><style>.st2{fill:#020203}.st4{fill:#e3131a}</style><defs><filter id="Adobe_OpacityMaskFilter" width="167.1" height="167.1" x="0" y="0" filterUnits="userSpaceOnUse"><feColorMatrix values="1 0 0 0 0 0 1 0 0 0 0 0 1 0 0 0 0 0 1 0"/></filter></defs><mask id="SVGID_1_" width="167.1" height="167.1" x="0" y="0" maskUnits="userSpaceOnUse"><g filter="url(#Adobe_OpacityMaskFilter)"><path fill="#fff" d="M-20.2-.3h203v171.5h-203z" transform="rotate(-23.627 81.276 85.413)"/><path id="XMLID_754_" d="M58.1 176.8c-1.3.4-1.5.5-1.9-.2-.6-1.1-1.6-1.4-2.9-1.2h-.4l1.5-1.8c1.9.4 3.5-.6 5.2-1.1.7-.2 1.5-.4 2.2-.6l2.4-.6c.6-.2 1.1-.5 1.8-.2-.5.8-1.2 1.1-2 1.1-1 0-1.8.3-2.6.8-1.3.8-1.6 1.3-1.1 2.5 0 .1.1.2.1.4-.7.6-1.5.8-2.3.9v-.7h-.2c.1.3.2.5.2.7z" class="st2"/><path id="XMLID_753_" d="M68.1 157.3c.2 0 .5 0 .7.1.4.2.6.6.3 1s-.7.3-1.1.1c-.2-.1-.3-.3-.5-.5.3-.3.5-.5.6-.7z" class="st2"/><path id="XMLID_752_" d="M166.2 63c-.5.5-1.5.6-2.1.2-.5-.4-.6-.9-.2-1.4.4-.4 1.4-.6 2-.2.5.3.6 1 .3 1.4z" class="st2"/><path id="XMLID_751_" d="M53.6 178.4c.1-.9.5-1.4 1.5-1.6.6 1.2.2 1.7-1.5 1.6z" class="st2"/><path id="XMLID_750_" d="M171.2 107.3c1.3 0 1.3 0 1.7 1.2-1.6.2-1.6.2-1.7-1.2z" class="st2"/><path id="XMLID_749_" d="M143.3 70.8c-.1-.4-.1-.7-.2-1 .4 0 .8-.2 1 0 .2.1.2.5.2.8-.2 0-.5.1-1 .2z" class="st2"/><path id="XMLID_748_" d="M144.6 106.6c.6 0 1-.1 1.2 0 .2.1.2.5 0 .8-.1.1-.6.2-.8.1-.2-.2-.2-.5-.4-.9z" class="st2"/><path id="XMLID_747_" d="M154.3 58.3c.4-.2.8-.2.9.2 0 .1-.1.3-.2.3-.5.2-.7 0-.7-.5z" class="st2"/><path id="XMLID_746_" d="M138.6 107c0-.3 0-.6.1-.8 0-.1.3-.1.5-.1 0 .3.1.5.1.8-.1.1-.4.1-.7.1z" class="st2"/><path id="XMLID_745_" d="M134.2 92.5c0-.2-.1-.4 0-.4.2-.1.3-.1.5-.1l.1.3c-.2.1-.4.1-.6.2z" class="st2"/><path id="XMLID_744_" d="M187.3 86.7c-.2.1-.4.1-.5.1-.1 0-.1-.2-.1-.3.1-.1.3-.2.4-.1.1 0 .2.1.2.3z" class="st2"/><path id="XMLID_743_" d="M50.4 179.6c0 .1.1.2 0 .2l-.2.1v-.3h.2z" class="st2"/><path id="XMLID_742_" d="M164.7 100.1c.1 0 .2.1.3.1 0 0 0 .2-.1.2h-.4c.1-.1.2-.2.2-.3z" class="st2"/><path id="XMLID_741_" d="M58.1 176.8c-.1-.2-.1-.4-.2-.7h.2c.1.3 0 .5 0 .7z" class="st2"/><g id="XMLID_721_"><path id="XMLID_739_" d="M140.2 148h.3c.1 0 .1-.1.1-.2h-.3c-.1 0-.1.1-.1.2z" class="st2"/><path id="XMLID_738_" d="M103.9 141.8c1 .6 1.1 1.2.3 2.2-.8.9-2.4 1.3-3.3.8-.7-.4-1.1-2.1-.6-2.7.6-.8 2.5-1 3.6-.3z" class="st2"/><path d="M133.7 156l1.7-.7c.3-.6.1-1.4-.5-1.7-.7-.4-1.9-.2-2.3.4-.5.6-.3 1.4.4 1.8.2.1.5.2.7.2z" class="st2"/><path id="XMLID_737_" d="M80.4 148.3c-.4-.3-.8-.6-1-.9-.4-.7 0-1.3.8-1.6 1.1-.4 2.1-.2 2.5.5.2.4 0 .8-.4.8-1.1-.1-1.3.6-1.9 1.2z" class="st2"/><path id="XMLID_736_" d="M87.8 148.6c-.5-.3-.7-1-.3-1.5.5-.6 1.5-.8 2-.4.4.3.5 1.2 0 1.7-.4.4-1.2.5-1.7.2z" class="st2"/><path id="XMLID_735_" d="M120.7 140.9c-.7.1-1.1.2-1.5.1-.5-.1-.6-.7-.2-1.1.4-.4.9-.5 1.2-.2.2.2.2.6.5 1.2z" class="st2"/><path id="XMLID_734_" d="M138.7 118.6c-.7.1-1.2.2-1.6.1-.2 0-.2-.6-.1-.9.2-.4.9-.6 1.3-.3.2.2.2.6.4 1.1z" class="st2"/><path id="XMLID_733_" d="M112.6 114.2c-.7 0-1.2.1-1.5 0-.5-.1-.6-.5-.3-.9s.8-.5 1.2-.2c.3.2.4.6.6 1.1z" class="st2"/><path id="XMLID_732_" d="M97.6 127.3c-.7 0-1.1 0-1.4-.1-.5-.2-.5-.6-.2-1 .3-.3.8-.3 1 0 .3.3.4.6.6 1.1z" class="st2"/><path id="XMLID_731_" d="M125 109.2c.7 0 1.1-.1 1.4 0 .2.1.3.5.2.7-.3.4-.8.4-1.2.2-.1-.1-.1-.4-.4-.9z" class="st2"/><path id="XMLID_730_" d="M136.3 144c0-.4-.1-.7 0-.8.1-.1.5-.1.8 0 .1 0 .2.4.1.5-.2.2-.5.2-.9.3z" class="st2"/><path id="XMLID_729_" d="M111.2 154.2h-.8c-.1 0-.1-.4 0-.4.2-.1.5-.1.7-.1.1 0 .1.2.1.5z" class="st2"/><path id="XMLID_728_" d="M121.7 160.6c-.4 0-.6.1-.7 0-.1-.1-.1-.3 0-.4 0-.1.3-.1.4-.1.1.1.1.2.3.5z" class="st2"/><path id="XMLID_727_" d="M113.1 130.7c0-.2-.1-.3 0-.4.1-.1.2-.1.4-.1 0 0 .1.2 0 .2-.1.2-.2.2-.4.3z" class="st2"/><path id="XMLID_726_" d="M129.7 130.3h-.5c0-.1 0-.2.1-.3 0 0 .2-.1.3 0 0 0 0 .2.1.3z" class="st2"/><path id="XMLID_725_" d="M86.4 140.7c-.1 0-.2 0-.2-.1v-.2c.1 0 .2 0 .2.1.1 0 .1.1 0 .2z" class="st2"/><path id="XMLID_724_" d="M144.1 123.7c-.1 0-.2.1-.2.1-.1 0-.1-.1-.1-.2.1 0 .2-.1.2-.1s0 .1.1.2z" class="st2"/><path id="XMLID_723_" d="M102.9 127.3v-.2h.2v.1c-.1.1-.2.1-.2.1z" class="st2"/><path id="XMLID_722_" d="M140.2 148v-.2h.3c0 .1 0 .2-.1.2h-.2z" class="st2"/></g><path id="XMLID_718_" d="M93.9 121.9c.9 1.3.5 2.9-.7 3.5-1.4.7-3.7.3-4.4-.7-.8-1.2-.4-2.8 1-3.5 1.6-.8 3.3-.5 4.1.7zm-2.1.8c-.1 0-.2-.1-.3-.1-.1 0-.1.1-.2.2.1 0 .3.1.4.1 0 0 0-.1.1-.2z" class="st2"/><path id="XMLID_717_" d="M124.2 134.6c-.8-1.1-.6-1.9.8-2.7 1.3-.8 3.3-.6 4 .3.5.7.1 2.9-.7 3.4-1.1.7-3.2.2-4.1-1z" class="st2"/><path id="XMLID_716_" d="M89.9 88.9c1.3.1 2.6.1 3.8.3.7.1 1.4.4 1.3 1.2-.1.7-.9 1.3-1.9 1.4-1 .1-2 .1-3.1.2.2-1.1-1.1-1.8-.1-3.1z" class="st2"/><path id="XMLID_715_" d="M123.9 99c1.8-1.2 3.5-2 5.5-1.9 1.3.1 1.6.6.8 1.6-.4.5-1.1 1.1-1.7 1.2-1.6.2-3-.3-4.6-.9z" class="st2"/><path id="XMLID_714_" d="M105.3 103.6c.6.8.4 1.8-.5 2.3-.8.5-2.2.3-2.8-.4-.5-.7-.2-2 .7-2.4.9-.5 2-.3 2.6.5z" class="st2"/><path id="XMLID_713_" d="M159.3 131.7c.2.5.5 1 .6 1.4.1.9-.6 1.5-1.7 1.5-1.5 0-2.4-.5-2.5-1.5 0-.5.4-1 .9-.7 1.1.5 1.7-.2 2.7-.7z" class="st2"/><path id="XMLID_712_" d="M151.3 128.6c.4.6.2 1.5-.4 1.9-.8.5-2.1.4-2.4-.2-.3-.5.1-1.6.8-2 .6-.4 1.7-.2 2 .3z" class="st2"/><path id="XMLID_711_" d="M111.3 125.7c.8.2 1.4.1 1.7.4.5.3.2 1.1-.3 1.4-.6.3-1.2.2-1.4-.2-.2-.4-.1-.9 0-1.6z" class="st2"/><path id="XMLID_710_" d="M80.1 145.3c.8.2 1.4.2 1.8.5.2.1 0 .8-.3 1.1-.4.4-1.3.3-1.5-.2-.2-.3 0-.7 0-1.4z" class="st2"/><path id="XMLID_709_" d="M106.6 160c.8.2 1.4.3 1.7.5.4.3.4.9-.2 1.2-.5.3-1.2.3-1.4-.2-.2-.2-.1-.7-.1-1.5z" class="st2"/><path id="XMLID_708_" d="M129.7 150.1c.7.3 1.2.3 1.5.6.4.4.3.9-.3 1.2-.5.3-1 .1-1.2-.4v-1.4z" class="st2"/><path id="XMLID_707_" d="M90.4 161.4c-.7-.2-1.3-.3-1.6-.6-.2-.1 0-.8.2-.9.5-.4 1.1-.2 1.4.2.2.3 0 .7 0 1.3z" class="st2"/><path id="XMLID_706_" d="M100.3 100.1c-.1 1.1-.5 1.6-1.5 1.7-.2-.9.4-1.3 1.5-1.7z" class="st2"/><path id="XMLID_705_" d="M95.7 116.2c-.2.4-.2.8-.4.9-.2.1-.7-.1-.9-.2-.1-.1 0-.6.2-.6.2-.2.6-.1 1.1-.1z" class="st2"/><path id="XMLID_704_" d="M128.4 113.4c.4.1.7.2.8.3.1.1-.1.5-.2.5-.3 0-.6 0-.8-.2 0 .1.1-.2.2-.6z" class="st2"/><path id="XMLID_703_" d="M120.1 102.1c.4.1.7.1.7.3.1.1-.1.4-.2.5 0 .1-.4 0-.5-.1 0-.2.1-.4 0-.7z" class="st2"/><path id="XMLID_702_" d="M114.4 140.4c-.1.2-.1.4-.2.5-.1.1-.3 0-.4-.1 0 0 0-.2.1-.3.1 0 .3-.1.5-.1z" class="st2"/><path id="XMLID_701_" d="M96 134.8c.2.1.4.1.5.2-.1.1-.1.3-.2.4 0 0-.3 0-.3-.1-.1-.1 0-.3 0-.5z" class="st2"/><path id="XMLID_700_" d="M101.3 91.3c.3 0 .5 0 .5.1s0 .3-.1.4c-.1.1-.3.1-.4.1v-.6z" class="st2"/><path id="XMLID_699_" d="M148.8 138.4c.1.1.2.1.2.2s-.1.2-.1.2c-.1-.1-.2-.1-.2-.2-.1 0 0-.1.1-.2z" class="st2"/><path id="XMLID_698_" d="M76.9 137.4c.1 0 .2-.1.3 0v.2c-.1 0-.2.1-.3 0-.1 0 0-.2 0-.2z" class="st2"/><path id="XMLID_697_" d="M124 148.2c0 .1-.1.2-.1.2-.1 0-.2-.1-.2-.1s0-.1.1-.1h.2z" class="st2"/><path id="XMLID_696_" d="M93.3 110.2c0 .1-.1.2-.1.3-.1 0-.3-.1-.4-.1.1-.1.1-.2.2-.2.1-.1.2-.1.3 0z" class="st2"/><path id="XMLID_695_" d="M163 90.1c-.6.6-1.4.6-2.1.8-.2.1-.4 0-.5 0-.8-.2-1.6-1.3-1.3-2.1.3-.7.5-1.3 1.3-1.7 1.1-.5 2.4-.3 3.1.4.4.4.4.9.3 1.4.1.5-.1 1-.8 1.2z" class="st2"/><path id="XMLID_694_" d="M157.4 131.7c0-.2-.1-.3-.1-.5.6.1.9.5.8 1-.1.3-.2.7-.4 1-.1.1-.2.3-.4.3-1 .6-1.9.5-2.7-.3-.2-.2-.3-.4-.5-.6.1-.5.4-1 .8-1.4.2-.2.4-.3.7-.4 1-.2 1.1-.2 1.5.7l.1.1.2.1z" class="st2"/><path id="XMLID_692_" d="M175 112.6c.2-.2.4-.4.5-.6.3-.5.8-.9 1.6-.9h.5c.1 0 .3 0 .4.1.4.4.8.7.9 1.3v.2c0 .3 0 .7-.2.8-.4.3-.9.6-1.4.7-1 .3-1.8-.4-2-1-.1-.3-.2-.4-.3-.6z" class="st2"/><path id="XMLID_691_" d="M142.8 148c-.6.2-.6.2-.8-.2 0-.2-.1-.3-.1-.5 0-.5.2-.8.8-1 .2-.1.4-.1.5-.1.5-.1.9 0 1.2.4.2.3.4.4.7.6.2.1.4.3.5.5.3.5 0 1.2-.6 1.4-.8.4-1.6.2-1.9-.3 0-.4-.1-.6-.3-.8z" class="st2"/><path id="XMLID_688_" d="M183.6 127.8c-.4.1-.7.2-1 .6-.3.4-1.2.5-1.6.3-.5-.3-.7-1-.5-1.4.3-.6.9-.9 1.6-1 .7-.1 1.1.2 1.4.6.3.2.2.5.1.9zm-1.8-.4s0-.1.1-.1c-.2-.1-.3-.1-.6-.3.1.3.3.4.5.4z" class="st2"/><path id="XMLID_687_" d="M162 125.9h-1.2c-.5 0-1-.3-1-.7 0-.4 0-.8.2-1.2.2-.4.7-.4 1-.4 1-.1 1.6.6 1.3 1.4l-.3.9z" class="st2"/><path id="XMLID_684_" d="M201.2 120.2c-.6.3-1.4.2-1.7-.3-.3-.4 0-1.2.5-1.5.6-.3 1.6-.2 2 .4.1.3-.4 1.2-.8 1.4zm-.8-1h.2v-.4c-.2 0-.2.1-.2.1v.3z" class="st2"/><path id="XMLID_683_" d="M150.2 106.1c.5-.3.9-.3 1.3-.1.5.2.5.7.5 1.1-.1.4-.5.8-.9.8s-.9-.1-1.2-.3c-.3-.1-.1-.5-.1-.8.1-.3.1-.6.4-.7z" class="st2"/><path id="XMLID_682_" d="M163 93.7c-.5.3-1.4.1-1.7-.3-.3-.4 0-1.1.6-1.4.6-.3 1.2-.3 1.6.2.3.4.1 1.1-.5 1.5z" class="st2"/><path id="XMLID_681_" d="M171.6 99.6c-.4.2-.8.2-1.2.1-.1-.1-.3-.2-.3-.3.1-.4.1-.7.3-1.1 0-.1.3-.2.4-.2.2-.1.5-.1.7-.1.3 0 .7.2.7.5-.1.4-.2.8-.6 1.1z" class="st2"/><path id="XMLID_680_" d="M143.8 116.5c-.5.3-1 .3-1.3-.1-.3-.4-.2-1 .2-1.3.5-.3 1.1-.3 1.4.2.3.4.2.8-.3 1.2z" class="st2"/><path id="XMLID_679_" d="M131.7 110.6c-.2-.3-.1-.7.2-.9.4-.2.8-.2 1.1.1.2.3.2.7-.2.9-.3.2-.8.2-1.1-.1z" class="st2"/><path id="XMLID_678_" d="M177.8 85c-.4.2-.7.1-.9-.1-.2-.2 0-.7.3-.8.2-.1.7 0 .8.2.2.3.2.5-.2.7z" class="st2"/><path id="XMLID_677_" d="M150.3 136.6c.1.2.1.5-.2.7-.3.2-.7.1-.8-.1-.2-.2-.1-.5.2-.7.2-.1.6-.1.8.1z" class="st2"/><path id="XMLID_676_" d="M125.7 117c.1.2 0 .5-.2.6-.3.1-.7.1-.8-.1-.1-.2 0-.4.3-.6.3-.2.6-.2.7.1z" class="st2"/><path id="XMLID_675_" d="M150.2 127.7c.2.2.1.5-.2.7-.2.1-.6.1-.7-.1-.2-.2-.1-.4.2-.6.2-.2.5-.2.7 0z" class="st2"/><path id="XMLID_674_" d="M175 129.9c.4-.3.9-.3 1 0 .1.2 0 .3-.2.5-.3.2-.8.2-.9 0 0-.2 0-.4.1-.5z" class="st2"/><path id="XMLID_673_" d="M140.4 124.7c.1.1-.1.6-.3.7-.3.1-.4 0-.6-.2-.2-.2-.1-.5.2-.7.2-.1.6 0 .7.2z" class="st2"/><path id="XMLID_672_" d="M146.2 125.2c-.2.2-.3.5-.5.6-.1.1-.4.1-.6.1-.1 0-.2-.2-.2-.3 0-.2.2-.3.5-.3s.5 0 .8-.1z" class="st2"/><path id="XMLID_671_" d="M193.1 101.9c-.4.2-.7.2-.9 0-.1-.2 0-.3.2-.5.3-.2.7-.2.8 0 0 .2-.1.4-.1.5z" class="st2"/><path id="XMLID_670_" d="M133.6 112.1c-.2.1-.4.1-.6-.1-.1-.2 0-.4.2-.6.2-.1.4-.1.6.1.1.2.1.5-.2.6z" class="st2"/><path id="XMLID_669_" d="M154.6 105.7c.4-.3.7-.4.9-.1.1.2 0 .4-.2.5-.2.2-.4.1-.7-.4z" class="st2"/><path id="XMLID_668_" d="M149.1 113.2c.3-.4.6-.6 1.3-.5-.5.5-.8.6-1.3.5z" class="st2"/><path id="XMLID_667_" d="M185.7 109.7c-.3.2-.6.1-.7 0 0-.1 0-.3.1-.4.1-.2.5-.1.6 0v.4z" class="st2"/><path id="XMLID_666_" d="M163.5 95.5c-.3-.1-.5-.1-.6-.2-.2-.1-.1-.3.1-.5.2-.1.5-.1.6.1 0 .1-.1.3-.1.6z" class="st2"/><path id="XMLID_665_" d="M160 114.5c-.1.3-.2.5-.3.6-.2.1-.4.1-.5 0-.1-.2-.1-.4.1-.5.2-.2.4-.1.7-.1z" class="st2"/><path id="XMLID_664_" d="M185.8 126.1c.3.1.5.1.6.2.2.1.1.3-.1.5-.2.1-.4.1-.5-.1v-.6z" class="st2"/><path id="XMLID_663_" d="M130 121c-.1.3-.1.4-.2.6-.1.1-.4.1-.5-.1-.1-.2-.1-.4.2-.5 0-.1.2 0 .5 0z" class="st2"/><path id="XMLID_662_" d="M182.3 90c-.3-.1-.5-.1-.6-.2-.1-.1 0-.3.1-.4.2-.2.4-.1.5 0v.6z" class="st2"/><path id="XMLID_661_" d="M181.8 130.1c-.3.2-.6.2-.7.1 0-.1 0-.2.1-.3.2-.2.6-.2.7 0 0 0-.1.1-.1.2z" class="st2"/><path id="XMLID_660_" d="M163.6 121.6c.2.1.4.1.5.1.1.1.1.3-.1.4-.1 0-.4 0-.5-.1-.1 0 0-.2.1-.4z" class="st2"/><path id="XMLID_659_" d="M163.8 132.8c.2 0 .4.1.4.1 0 .1 0 .3-.1.4-.1.1-.3 0-.5 0 .2-.2.2-.3.2-.5z" class="st2"/><path id="XMLID_658_" d="M150.3 121.2c.3 0 .5 0 .5.1s0 .3-.1.4h-.4v-.5z" class="st2"/><path id="XMLID_657_" d="M172.3 89.2c.2.1.4.1.4.1 0 .1 0 .2-.1.3h-.3c-.1-.1 0-.2 0-.4z" class="st2"/><path id="XMLID_656_" d="M143.9 106.2l-.4.4s-.2 0-.3-.1c.1-.1.1-.3.2-.4 0 0 .2.1.5.1z" class="st2"/><path id="XMLID_655_" d="M132.5 126.7c-.1.3-.4.4-.7.3 0 0-.1-.1-.1-.2.3-.2.5-.2.8-.1z" class="st2"/><path id="XMLID_654_" d="M132.8 128.7c-.2 0-.4 0-.4-.1v-.4h.4v.5z" class="st2"/><path id="XMLID_653_" d="M153.9 106.2c.2 0 .3 0 .4.1 0 .1 0 .2-.1.3-.1 0-.3 0-.4-.1 0 0 .1-.1.1-.3z" class="st2"/><path id="XMLID_652_" d="M157.2 125.3c-.1.1-.1.3-.2.3h-.4c0-.1 0-.3.1-.3.2-.1.3 0 .5 0z" class="st2"/><path id="XMLID_651_" d="M170.6 106.6c0 .2-.1.4-.3.4-.1 0-.2-.1-.2-.2.1-.2.3-.2.5-.2z" class="st2"/><path id="XMLID_650_" d="M147.6 145.3c-.1.1-.1.2-.2.3h-.3c0-.1 0-.2.1-.2.1-.1.3-.1.4-.1z" class="st2"/><path id="XMLID_649_" d="M146 138.5c-.2 0-.3 0-.4-.1v-.2c.1 0 .3-.1.3 0 .1 0 .1.2.1.3z" class="st2"/><path id="XMLID_648_" d="M162.5 99.4h-.7c.3-.4.3-.4.7 0z" class="st2"/><path id="XMLID_647_" d="M182.2 115.2c-.1.1-.1.3-.2.3s-.2 0-.3-.1c0 0 0-.2.1-.2h.4z" class="st2"/><path id="XMLID_646_" d="M194.9 105.5c-.1.1-.1.3-.2.3h-.2c0-.1 0-.2.1-.3 0 0 .1.1.3 0z" class="st2"/><path id="XMLID_645_" d="M151.8 133.4c-.2.1-.4.2-.7.3v-.1c.2-.1.4-.3.6-.4.1.1.1.1.1.2z" class="st2"/><path id="XMLID_644_" d="M172.4 125.4c-.1.1-.1.2-.1.3h-.3c0-.1 0-.2.1-.2 0-.1.2-.1.3-.1z" class="st2"/><path id="XMLID_643_" d="M145.9 137.4l-.3-.3c.2-.2.2-.2.3.3z" class="st2"/><path id="XMLID_642_" d="M139.4 129.3c-.3.4-.3.4-.6.2.1 0 .3-.1.6-.2z" class="st2"/><path id="XMLID_641_" d="M161.2 104c-.1 0-.3 0-.3-.1v-.2h.2c.1.1 0 .2.1.3z" class="st2"/><path id="XMLID_640_" d="M151.6 98.2h-.7c.4-.1.4-.1.7 0z" class="st2"/><path id="XMLID_639_" d="M131.1 109c0 .1-.1.2-.1.2h-.3c0-.1 0-.1.1-.2h.3z" class="st2"/><path id="XMLID_638_" d="M153.5 145.9c0 .1 0 .2-.1.2h-.3v-.2h.4z" class="st2"/><path id="XMLID_637_" d="M158.1 98.3h-.3c0-.1 0-.1.1-.2h.2v.2z" class="st2"/><path id="XMLID_636_" d="M143.3 130.1c.1 0 .2.1.2.1v.2h-.2v-.3z" class="st2"/><path id="XMLID_635_" d="M175.4 104.7c-.1.1-.1.2-.2.2h-.2s0-.1.1-.1c.1-.1.2-.1.3-.1z" class="st2"/><path id="XMLID_634_" d="M174 102.2c.1 0 .3.1.4.1v.1h-.4v-.2z" class="st2"/><path id="XMLID_633_" d="M147.9 102.4c-.1.2-.1.2-.2.3 0 0-.1 0-.1-.1v-.1c.1 0 .2-.1.3-.1z" class="st2"/><path id="XMLID_632_" d="M181.8 127.4c-.2 0-.4 0-.6-.4.3.1.5.2.6.3.1 0 .1 0 0 .1z" class="st2"/><path id="XMLID_631_" d="M200.4 119.2v-.3s.1-.1.2-.1v.4c-.1.1-.1 0-.2 0z" class="st2"/><path id="XMLID_630_" d="M107.1 21.2c-.5.2-1 .5-1.5.7-.5-.6-.2-1.1 0-1.5.5.2 1 .5 1.5.8z" class="st2"/><path id="XMLID_629_" d="M63.4 27.6c-.5.5-1.5.6-2.1.2-.5-.4-.6-.9-.2-1.4.4-.4 1.4-.6 2-.2.6.3.7 1 .3 1.4z" class="st2"/><path id="XMLID_628_" d="M68.5 71.9c1.3 0 1.3 0 1.7 1.2-1.6.2-1.6.2-1.7-1.2z" class="st2"/><path id="XMLID_627_" d="M40.6 35.4c-.1-.4-.1-.7-.2-1 .4 0 .8-.2 1 0 .2.1.2.5.2.8-.2 0-.5.1-1 .2z" class="st2"/><path id="XMLID_626_" d="M41.9 71.2c.6 0 1-.1 1.2 0 .2.1.2.5 0 .8-.1 0-.6.1-.8 0-.2-.1-.2-.4-.4-.8z" class="st2"/><path id="XMLID_625_" d="M92 52.2c-.2.3-.3.5-.4.6-.4.1-.7.1-1.1.1l-.1-.3c.3-.2.6-.3.9-.4.1-.2.4-.1.7 0z" class="st2"/><path id="XMLID_624_" d="M82.1 15.7c.1-.4.1-.7.2-.8.3-.1.6-.1.9-.1 0 .2 0 .4-.1.5-.1.2-.4.2-1 .4z" class="st2"/><path id="XMLID_623_" d="M51.6 22.9c.4-.2.8-.2.9.2 0 .1-.1.3-.2.3-.5.1-.8 0-.7-.5z" class="st2"/><path id="XMLID_622_" d="M35.8 71.6c0-.3 0-.6.1-.8 0-.1.3-.1.5-.1 0 .3.1.5 0 .8.1.1-.2.1-.6.1z" class="st2"/><path id="XMLID_621_" d="M2 149.2c0-.3-.1-.5 0-.6.1-.1.4-.1.5-.1.1 0 .1.3.1.3-.1.2-.3.3-.6.4z" class="st2"/><path id="XMLID_620_" d="M31.5 57.1c0-.2-.1-.4 0-.4.2-.1.3-.1.5-.1l.1.3c-.2.1-.4.1-.6.2z" class="st2"/><path id="XMLID_619_" d="M84.6 51.3c-.2.1-.4.1-.5.1-.1 0-.1-.2-.1-.3.1 0 .3-.2.4-.1.1 0 .1.1.2.3z" class="st2"/><path id="XMLID_618_" d="M62 64.7c.1 0 .3 0 .3.1 0 0 0 .2-.1.2h-.4c.1-.1.1-.2.2-.3z" class="st2"/><path id="XMLID_617_" d="M.2 142.1c0-.1-.1-.1-.1-.2l.1-.1c.1 0 .1.1.2.1 0 .1-.1.1-.2.2z" class="st2"/><g id="XMLID_593_"><path id="XMLID_615_" d="M37.5 112.5h.3c.1 0 .1-.1.1-.2h-.3c-.1.1-.1.2-.1.2z" class="st2"/><path id="XMLID_614_" d="M4.6 102.1c1 .6 1.1 1.2.3 2.2-.8.9-2.4 1.3-3.3.8-.7-.4-1.1-2.1-.6-2.7.6-.9 2.5-1 3.6-.3z" class="st2"/><path id="XMLID_613_" d="M47.5 127.5c-1.1.3-2.1.5-3.1.7-.6.1-1.3.1-1.5-.6-.2-.5.3-1.2 1.1-1.5.7-.3 1.5-.6 2.4-.9.2.8 1.5 1.1 1.1 2.3z" class="st2"/><path id="XMLID_612_" d="M17 128.4c-1 1.3-2.1 2.4-3.7 2.8-1 .3-1.5-.1-1.2-1 .2-.5.5-1.1 1-1.3 1.1-.6 2.5-.6 3.9-.5z" class="st2"/><path id="XMLID_611_" d="M30.3 120.4c-.7-.4-.9-1.2-.4-1.8.5-.6 1.6-.8 2.3-.4.7.4.8 1.4.3 2-.5.5-1.5.6-2.2.2z" class="st2"/><path id="XMLID_610_" d="M-14.9 113.2c-.5-.3-.7-1-.3-1.5.5-.6 1.5-.8 2-.4.4.3.5 1.2 0 1.7-.4.4-1.3.5-1.7.2z" class="st2"/><path id="XMLID_609_" d="M17.9 105.5c-.7.1-1.1.2-1.5.1-.5-.1-.6-.7-.2-1.1.4-.4.9-.5 1.2-.2.3.2.3.6.5 1.2z" class="st2"/><path id="XMLID_608_" d="M36 83.2c-.7 0-1.2.2-1.6.1-.2 0-.2-.6-.1-.9.2-.4.9-.6 1.3-.3.2.2.2.6.4 1.1z" class="st2"/><path id="XMLID_607_" d="M9.9 78.8c-.7 0-1.2.1-1.5 0-.5-.1-.6-.5-.3-.9s.8-.5 1.2-.2c.3.2.3.5.6 1.1z" class="st2"/><path id="XMLID_606_" d="M-5.1 91.9c-.7 0-1.1 0-1.4-.1-.5-.2-.5-.6-.2-1 .3-.3.8-.3 1 0 .3.3.4.6.6 1.1z" class="st2"/><path id="XMLID_605_" d="M22.3 73.8c.7 0 1.1-.1 1.4 0 .2.1.3.5.2.7-.3.4-.8.4-1.2.2-.1-.1-.2-.4-.4-.9z" class="st2"/><path id="XMLID_604_" d="M35.4 121.7c-.3-.8-.1-1.3.6-1.7.4.7.2 1.1-.6 1.7z" class="st2"/><path id="XMLID_603_" d="M33.6 108.6c0-.4-.1-.7 0-.8.1-.1.5-.1.8-.1.1 0 .2.4.1.5-.2.3-.5.3-.9.4z" class="st2"/><path id="XMLID_602_" d="M8.5 118.8h-.8c-.1 0-.1-.4 0-.4.2-.1.5-.1.7-.1.1 0 .1.2.1.5z" class="st2"/><path id="XMLID_601_" d="M19 125.2c-.4 0-.6.1-.7 0-.1-.1-.1-.3 0-.4 0 0 .3-.1.4-.1.1.1.1.2.3.5z" class="st2"/><path id="XMLID_600_" d="M10.4 95.3c0-.2-.1-.3 0-.4.1-.1.2-.1.4-.1 0 0 .1.2 0 .2-.1.2-.2.2-.4.3z" class="st2"/><path id="XMLID_599_" d="M27 94.9h-.5c0-.1 0-.2.1-.3 0 0 .2-.1.3 0 0 0 0 .2.1.3z" class="st2"/><path id="XMLID_598_" d="M37.6 128.5c-.2 0-.4.1-.5.1-.1-.1-.1-.2-.1-.3 0-.1.2-.1.3-.2.2.1.2.2.3.4z" class="st2"/><path id="XMLID_597_" d="M-16.3 105.3c-.1 0-.2 0-.2-.1v-.2c.1 0 .2 0 .2.1.1 0 0 .1 0 .2z" class="st2"/><path id="XMLID_596_" d="M41.3 88.3c-.1 0-.2.1-.2.1-.1 0-.1-.1-.1-.2.1 0 .2-.1.2-.1.1 0 .1.1.1.2z" class="st2"/><path id="XMLID_595_" d="M.1 91.9v-.2c.1 0 .2 0 .2.1v.1c0-.1-.1 0-.2 0z" class="st2"/><path id="XMLID_594_" d="M37.5 112.5v-.2h.3c0 .1 0 .2-.1.2 0 .1-.1 0-.2 0z" class="st2"/></g><path id="XMLID_590_" d="M-7.2 74c.9 1.3.5 2.9-.7 3.5-1.4.7-3.7.3-4.4-.7-.8-1.2-.4-2.8 1-3.5 1.5-.9 3.3-.6 4.1.7zm-2.2.8c-.1 0-.2-.1-.3-.1-.1 0-.1.1-.2.2.1 0 .3.1.4.1.1-.1.1-.1.1-.2z" class="st2"/><path id="XMLID_589_" d="M21.5 99.2c-.8-1.1-.6-1.9.8-2.7 1.3-.8 3.3-.6 4 .3.5.7.1 2.9-.7 3.4-1.1.7-3.2.2-4.1-1z" class="st2"/><path id="XMLID_588_" d="M-12.8 53.5c1.3.1 2.6.1 3.8.3.7.1 1.4.4 1.3 1.2-.1.7-.9 1.3-1.9 1.4-1 .1-2 .1-3.1.2.2-1.1-1.2-1.8-.1-3.1z" class="st2"/><path id="XMLID_587_" d="M15.2 61.5c1.8-1.2 3.5-2 5.5-1.9 1.3.1 1.6.6.8 1.6-.4.5-1.1 1.1-1.7 1.2-1.6.2-3.1-.3-4.6-.9z" class="st2"/><path id="XMLID_586_" d="M2.5 68.2c.6.8.4 1.8-.5 2.3-.7.5-2.1.3-2.7-.5-.5-.7-.2-2 .7-2.4.8-.4 2-.2 2.5.6z" class="st2"/><path id="XMLID_585_" d="M56.6 96.3c.2.5.5 1 .6 1.4.1.9-.6 1.5-1.7 1.5-1.5.1-2.4-.5-2.5-1.5 0-.5.4-1 .9-.7 1.1.5 1.7-.2 2.7-.7z" class="st2"/><path id="XMLID_584_" d="M48.6 93.2c.4.6.2 1.5-.4 1.9-.8.5-2.1.4-2.4-.3-.3-.5.1-1.6.8-2 .6-.3 1.6-.1 2 .4z" class="st2"/><path id="XMLID_583_" d="M8.6 90.3c.8.2 1.4.1 1.7.4.5.3.2 1.1-.3 1.4-.6.3-1.2.2-1.4-.2-.3-.4-.1-.9 0-1.6z" class="st2"/><path id="XMLID_582_" d="M3.9 124.6c.8.2 1.4.3 1.7.5.4.3.4.9-.2 1.2-.5.3-1.2.3-1.4-.2-.2-.2-.1-.7-.1-1.5z" class="st2"/><path id="XMLID_581_" d="M27 114.7c.7.3 1.2.3 1.5.6.4.4.3.9-.3 1.2-.5.3-1 .1-1.2-.4-.1-.3 0-.7 0-1.4z" class="st2"/><path id="XMLID_580_" d="M-2.4 64.7c-.1 1.1-.5 1.6-1.5 1.7-.2-.9.3-1.3 1.5-1.7z" class="st2"/><path id="XMLID_579_" d="M-7 80.8c-.2.4-.2.8-.4.9-.2.1-.7-.1-.9-.2-.1-.1 0-.6.2-.6.2-.2.6-.1 1.1-.1z" class="st2"/><path id="XMLID_578_" d="M25.7 78c.4.1.7.2.8.3.1.1-.1.5-.2.5-.3 0-.6 0-.8-.2 0 .1.1-.3.2-.6z" class="st2"/><path id="XMLID_577_" d="M17.4 66.7c.4.1.7.1.7.3.1.1-.1.4-.2.5 0 .1-.4 0-.5-.1v-.7z" class="st2"/><path id="XMLID_576_" d="M11.7 105c-.1.2-.1.4-.2.5-.1.1-.3 0-.4-.1 0 0 0-.2.1-.3.1 0 .3-.1.5-.1z" class="st2"/><path id="XMLID_575_" d="M-6.7 99.4c.2.1.4.1.5.2-.1.1-.1.3-.2.4 0 0-.3 0-.3-.1-.1-.2 0-.3 0-.5z" class="st2"/><path id="XMLID_574_" d="M-1.4 55.9c.3 0 .5 0 .5.1s0 .3-.1.4c-.1.1-.3.1-.4.1v-.6z" class="st2"/><path id="XMLID_573_" d="M46.1 103c.1.1.2.1.2.2s-.1.2-.1.2c-.1-.1-.2-.1-.2-.2-.1 0 0-.1.1-.2z" class="st2"/><path id="XMLID_572_" d="M21.2 112.8c0 .1-.1.2-.1.2-.1 0-.2-.1-.2-.1s0-.1.1-.1h.2z" class="st2"/><path id="XMLID_571_" d="M-9.4 74.8c0 .1-.1.2-.1.3-.1 0-.3-.1-.4-.1.1-.1.1-.2.2-.2.1-.1.2-.1.3 0z" class="st2"/><path id="XMLID_570_" d="M60.3 54.7c-.6.6-1.4.6-2.1.8h-.5c-.8-.2-1.6-1.3-1.3-2.1.3-.7.5-1.3 1.3-1.7 1.1-.5 2.4-.3 3.1.4.4.4.4.9.3 1.4 0 .5-.1 1-.8 1.2z" class="st2"/><path id="XMLID_569_" d="M54.7 96.3c0-.2-.1-.3-.1-.5.6.1.9.5.8 1-.1.3-.2.7-.4 1-.1.1-.2.3-.4.3-1 .6-1.9.5-2.7-.3-.2-.2-.3-.4-.5-.6.1-.5.4-1 .8-1.4.2-.2.4-.3.7-.4 1-.2 1.1-.2 1.5.7l.1.1c.1.1.2.1.2.1z" class="st2"/><path id="XMLID_567_" d="M72.3 77.2c.2-.2.4-.4.5-.6.3-.5.8-.9 1.6-.9h.9c.4.4.8.7.9 1.3v.2c0 .3 0 .7-.2.8-.4.3-.9.6-1.4.7-1 .3-1.8-.4-2-1-.1-.2-.2-.3-.3-.5z" class="st2"/><path id="XMLID_566_" d="M40.1 112.5c-.6.2-.6.2-.8-.2 0-.2-.1-.3-.1-.5 0-.5.2-.8.8-1 .2-.1.4-.1.5-.1.5-.1.9 0 1.2.4.2.3.4.4.7.6.2.1.4.3.5.5.3.5 0 1.2-.6 1.4-.8.4-1.6.2-1.9-.3-.1-.3-.2-.5-.3-.8z" class="st2"/><path id="XMLID_563_" d="M80.9 92.4c-.4.1-.7.2-1 .6-.3.4-1.2.5-1.6.3-.5-.3-.7-1-.5-1.4.3-.6.9-.9 1.6-1 .7-.1 1.1.2 1.4.6.3.2.2.5.1.9zm-1.8-.4s0-.1.1-.1c-.2-.1-.3-.1-.6-.3.1.3.3.4.5.4z" class="st2"/><path id="XMLID_562_" d="M59.3 90.5h-1.2c-.5 0-1-.3-1-.7 0-.4 0-.8.2-1.2.2-.4.7-.4 1-.4 1-.1 1.6.6 1.3 1.4l-.3.9z" class="st2"/><path id="XMLID_559_" d="M98.4 84.8c-.6.3-1.4.2-1.7-.3-.3-.4 0-1.2.5-1.5.6-.3 1.6-.2 2 .4.1.3-.3 1.2-.8 1.4zm-.7-1h.2v-.4c-.2 0-.2.1-.2.1v.3z" class="st2"/><path id="XMLID_558_" d="M47.5 70.7c.5-.3.9-.3 1.3-.1.5.2.5.7.5 1.1-.1.4-.5.8-.9.8s-.9-.1-1.2-.3c-.3-.1-.1-.5-.1-.8 0-.3.1-.6.4-.7z" class="st2"/><path id="XMLID_557_" d="M60.3 58.3c-.5.3-1.4.1-1.7-.3-.3-.4 0-1.1.6-1.4.6-.3 1.2-.3 1.6.2.3.4.1 1.1-.5 1.5z" class="st2"/><path id="XMLID_556_" d="M68.8 64.2c-.4.2-.8.2-1.2.1-.1-.1-.3-.2-.3-.3.1-.4.1-.7.3-1.1 0-.1.3-.2.4-.2.2-.1.5-.1.7-.1.3 0 .7.2.7.5 0 .4-.1.8-.6 1.1z" class="st2"/><path id="XMLID_555_" d="M41.1 81.1c-.5.3-1 .3-1.3-.1-.3-.4-.2-1 .2-1.3.5-.3 1.1-.3 1.4.2.3.4.2.8-.3 1.2z" class="st2"/><path id="XMLID_554_" d="M101.7 89.2c.2-.1.4-.3.6-.4.3-.2.6-.2.8 0 .1.1.3.2.4.4.1.1.1.3 0 .5-.1.1-.4.3-.5.3-.6-.1-1.1-.2-1.3-.8z" class="st2"/><path id="XMLID_553_" d="M29 75.2c-.2-.3-.1-.7.2-.9.4-.2.8-.2 1.1.1.2.3.2.7-.2.9-.3.2-.9.1-1.1-.1z" class="st2"/><path id="XMLID_552_" d="M84.5 96.1c.3-.2.8-.1.9.1.2.2.1.6-.2.7-.3.2-.7.2-.9 0-.1-.2-.1-.6.2-.8z" class="st2"/><path id="XMLID_551_" d="M75.1 49.6c-.4.2-.7.1-.9-.1-.1-.2 0-.7.3-.8.2-.1.7 0 .8.2.2.3.2.5-.2.7z" class="st2"/><path id="XMLID_550_" d="M47.5 101.2c.1.2.1.5-.2.7-.3.2-.7.1-.8-.1-.2-.2-.1-.5.2-.7.3-.1.7-.1.8.1z" class="st2"/><path id="XMLID_549_" d="M23 81.6c.1.2 0 .5-.2.6-.3.1-.7.1-.8-.1-.1-.2 0-.4.3-.6.2-.2.6-.2.7.1z" class="st2"/><path id="XMLID_548_" d="M47.5 92.3c.2.2.1.5-.2.7-.2.1-.6.1-.7-.1-.2-.2-.1-.4.2-.6.2-.2.5-.2.7 0z" class="st2"/><path id="XMLID_547_" d="M72.2 94.5c.4-.3.9-.3 1 0 .1.2 0 .3-.2.5-.3.2-.8.2-.9 0 0-.2.1-.4.1-.5z" class="st2"/><path id="XMLID_546_" d="M37.7 89.2c.1.1-.1.6-.3.7-.3.1-.4 0-.6-.2-.2-.2-.1-.5.2-.7.2 0 .6.1.7.2z" class="st2"/><path id="XMLID_545_" d="M43.5 89.8c-.2.2-.3.5-.5.6-.1.1-.4.1-.6.1-.1 0-.2-.2-.2-.3 0-.2.3-.3.5-.3s.5 0 .8-.1z" class="st2"/><path id="XMLID_544_" d="M90.4 66.5c-.4.2-.7.2-.9 0-.1-.2 0-.3.2-.5.3-.2.7-.2.8 0 0 .2-.1.4-.1.5z" class="st2"/><path id="XMLID_543_" d="M30.9 76.7c-.2.1-.4.1-.6-.1-.1-.2 0-.4.2-.6.2-.1.4-.1.6.1.1.2 0 .5-.2.6z" class="st2"/><path id="XMLID_542_" d="M51.9 70.3c.4-.3.7-.4.9-.1.1.2 0 .4-.2.5-.2.2-.4.1-.7-.4z" class="st2"/><path id="XMLID_541_" d="M46.4 77.8c.3-.4.6-.5 1.3-.5-.5.5-.8.6-1.3.5z" class="st2"/><path id="XMLID_540_" d="M82.9 74.3c-.3.2-.6.2-.7 0 0-.1 0-.3.1-.4.1-.2.5-.1.6 0 .1.2 0 .3 0 .4z" class="st2"/><path id="XMLID_539_" d="M60.8 60.1c-.3-.1-.5-.1-.6-.2-.2-.1-.1-.3.1-.5.2-.1.5-.1.6.1 0 .1-.1.3-.1.6z" class="st2"/><path id="XMLID_538_" d="M57.3 79c-.1.3-.2.5-.3.6-.2.1-.4.1-.5 0-.1-.2-.1-.4.1-.5.1-.1.4 0 .7-.1z" class="st2"/><path id="XMLID_537_" d="M83.1 90.7c.3.1.5.1.6.2.2.1.1.3-.1.5-.2.1-.4.1-.5-.1v-.6z" class="st2"/><path id="XMLID_536_" d="M27.2 85.6c-.1.3-.1.4-.2.6-.1.1-.4.1-.5-.1-.1-.2-.1-.4.2-.5.1-.1.3 0 .5 0z" class="st2"/><path id="XMLID_535_" d="M79.5 54.6c-.3-.1-.5-.1-.6-.2-.1-.1 0-.3.1-.4.2-.2.4-.1.5 0 .1.2.1.4 0 .6z" class="st2"/><path id="XMLID_534_" d="M79.1 94.7c-.3.2-.6.2-.7.1 0-.1 0-.2.1-.3.2-.2.6-.2.7 0-.1 0-.1.1-.1.2z" class="st2"/><path id="XMLID_533_" d="M60.8 86.2c.2.1.4.1.5.1.1.1.1.3-.1.4-.1 0-.3 0-.5-.1 0 0 .1-.2.1-.4z" class="st2"/><path id="XMLID_532_" d="M61.1 97.4c.2 0 .4.1.4.1 0 .1 0 .3-.1.4-.1.1-.3 0-.5 0 .1-.2.2-.3.2-.5z" class="st2"/><path id="XMLID_531_" d="M47.6 85.8c.3 0 .5 0 .5.1s0 .3-.1.4c0 0-.3.1-.4 0v-.5z" class="st2"/><path id="XMLID_530_" d="M69.6 53.8c.2.1.4.1.4.1 0 .1 0 .2-.1.3h-.3c-.1-.1-.1-.2 0-.4z" class="st2"/><path id="XMLID_529_" d="M41.1 70.8l-.4.4s-.2 0-.3-.1c.1-.1.1-.3.2-.4.1 0 .3.1.5.1z" class="st2"/><path id="XMLID_528_" d="M29.8 91.3c-.1.3-.4.4-.7.3l-.1-.2c.2-.2.5-.2.8-.1z" class="st2"/><path id="XMLID_527_" d="M30 93.2c-.2 0-.4 0-.4-.1v-.4h.4c.1.2 0 .4 0 .5z" class="st2"/><path id="XMLID_526_" d="M51.2 70.8c.2 0 .3 0 .4.1 0 .1 0 .2-.1.3-.1 0-.3 0-.4-.1 0 0 .1-.1.1-.3z" class="st2"/><path id="XMLID_525_" d="M104.5 88.5c.1-.2.1-.4.2-.6.4.4.4.4-.2.6z" class="st2"/><path id="XMLID_524_" d="M54.5 89.9c-.1.1-.1.3-.2.3h-.4c0-.1 0-.3.1-.3.2-.1.3 0 .5 0z" class="st2"/><path id="XMLID_523_" d="M67.9 71.2c0 .2-.1.4-.3.4-.1 0-.2-.1-.2-.2.1-.2.3-.2.5-.2z" class="st2"/><path id="XMLID_522_" d="M44.9 109.9c-.1.1-.1.2-.2.3h-.3c0-.1 0-.2.1-.2.1-.1.2-.1.4-.1z" class="st2"/><path id="XMLID_521_" d="M43.3 103.1c-.2 0-.3 0-.4-.1v-.2c.1 0 .3-.1.3 0 .1 0 .1.2.1.3z" class="st2"/><path id="XMLID_520_" d="M59.8 64h-.7c.3-.4.3-.4.7 0z" class="st2"/><path id="XMLID_519_" d="M79.5 79.8c-.1.1-.1.3-.2.3s-.2 0-.3-.1c0 0 0-.2.1-.2h.4z" class="st2"/><path id="XMLID_518_" d="M92.2 70.1c-.1.1-.1.3-.2.3h-.2c0-.1 0-.2.1-.3 0 0 .1.1.3 0z" class="st2"/><path id="XMLID_517_" d="M49.1 98c-.2.1-.4.2-.7.3v-.1c.2-.1.4-.3.6-.4.1.1.1.1.1.2z" class="st2"/><path id="XMLID_516_" d="M69.7 90c-.1.1-.1.2-.1.3h-.3c0-.1 0-.2.1-.2 0-.1.1-.1.3-.1z" class="st2"/><path id="XMLID_515_" d="M43.2 101.9l-.3-.3c.1-.1.2-.1.3.3z" class="st2"/><path id="XMLID_514_" d="M36.6 93.9c-.3.4-.3.4-.6.2.2 0 .3-.1.6-.2z" class="st2"/><path id="XMLID_513_" d="M58.5 68.6c-.1 0-.3 0-.3-.1v-.2h.2c0 .1 0 .2.1.3z" class="st2"/><path id="XMLID_512_" d="M48.9 62.8h-.7c.4-.1.4-.1.7 0z" class="st2"/><path id="XMLID_511_" d="M28.4 73.6c0 .1-.1.2-.1.2H28c0-.1 0-.1.1-.2h.3z" class="st2"/><path id="XMLID_510_" d="M87.9 96.5c.1 0 .2.1.2.1l-.1.1h-.2c0-.1 0-.1.1-.2z" class="st2"/><path id="XMLID_509_" d="M50.7 110.5c0 .1 0 .2-.1.2h-.3v-.2h.4z" class="st2"/><path id="XMLID_508_" d="M55.4 62.9h-.3c0-.1 0-.1.1-.2h.2v.2z" class="st2"/><path id="XMLID_507_" d="M40.6 94.7c.1 0 .2.1.2.1v.2h-.2v-.3z" class="st2"/><path id="XMLID_506_" d="M72.7 69.2c-.1.1-.1.2-.2.2h-.2s0-.1.1-.1.2 0 .3-.1z" class="st2"/><path id="XMLID_505_" d="M71.3 66.8c.1 0 .3.1.4.1v.1h-.4v-.2z" class="st2"/><path id="XMLID_504_" d="M45.2 67c-.1.2-.1.2-.2.3 0 0-.1 0-.1-.1v-.1c.1-.1.2-.1.3-.1z" class="st2"/><path id="XMLID_503_" d="M79.1 92c-.2 0-.4 0-.6-.4.3.1.5.2.6.3.1 0 0 0 0 .1z" class="st2"/><path id="XMLID_502_" d="M97.7 83.8v-.3s.1-.1.2-.1v.4h-.2z" class="st2"/><path id="XMLID_501_" d="M32.3 81.1c-1.3.4-1.5.5-1.9-.2-.6-1.1-1.6-1.4-2.9-1.2h-.4l1.5-1.8c1.9.4 3.5-.6 5.2-1.1.7-.2 1.5-.4 2.2-.6l2.4-.6c.6-.2 1.1-.5 1.8-.2-.5.8-1.2 1.1-2 1.1-1 0-1.8.3-2.6.8-1.3.8-1.6 1.3-1.1 2.5 0 .1.1.2.1.4-.7.6-1.5.7-2.3.9v-.7h-.2c.1.2.1.4.2.7z" class="st2"/><path id="XMLID_500_" d="M42.3 61.5c.2 0 .5 0 .7.1.4.2.6.6.3 1s-.7.3-1.1.1c-.2-.1-.3-.3-.5-.5.2-.2.4-.5.6-.7z" class="st2"/><path id="XMLID_499_" d="M55 98.2c-1-.6-1.1-1.1-.5-1.8.8-1 1.8-1.2 2.8-.7.9.5 1.1 1.4.4 2.2-.7.9-1.7 1-2.7.3z" class="st2"/><path id="XMLID_498_" d="M36.7 92.5c.6-.8 1.8-1.1 2.5-.6.7.4.9 1.4.4 2.1-.5.7-1.9 1.1-2.6.7-.7-.4-.9-1.4-.3-2.2z" class="st2"/><path id="XMLID_497_" d="M47.6 95.3c-.9 1.1-1.6 1.1-2.4.3-.6-.6-1.2-1.2-.8-2.1.2-.5.6-.8 1.2-.7 1 .2 1.7.6 2.1 1.4.1.4-.1.9-.1 1.1z" class="st2"/><path d="M139.9-33.8l-2 .9c.1.1.2.3.3.4.5.4 1.6.3 2.1-.2l-.4-1.1z" class="st2"/><path id="XMLID_496_" d="M42 88.4c.5-.6.9-.6 1.3-.4.5.2.6.7.3 1.1-.3.4-.8.5-1.2.2-.2-.2-.3-.6-.4-.9z" class="st2"/><path id="XMLID_495_" d="M27.8 82.7c.1-.9.5-1.4 1.5-1.6.5 1.2.1 1.6-1.5 1.6z" class="st2"/><path id="XMLID_494_" d="M145.4 11.6c1.3 0 1.3 0 1.7 1.2-1.6.2-1.7.1-1.7-1.2z" class="st2"/><path id="XMLID_493_" d="M118.7 10.8c.6 0 1-.1 1.2 0 .2.1.2.5 0 .8-.1.1-.6.2-.8.1-.1-.1-.2-.5-.4-.9z" class="st2"/><path id="XMLID_492_" d="M112.7 11.3c0-.3 0-.6.1-.8 0-.1.3-.1.5-.1 0 .3.1.5.1.8 0 0-.4 0-.7.1z" class="st2"/><path id="XMLID_491_" d="M78.9 88.9c0-.3-.1-.5 0-.6.1-.1.4-.1.5-.1.1 0 .1.3.1.3-.1.1-.3.2-.6.4z" class="st2"/><path id="XMLID_490_" d="M108.3-3.3c0-.2-.1-.4 0-.4.2-.1.3-.1.5-.1l.1.3c-.2.1-.3.1-.6.2z" class="st2"/><path id="XMLID_489_" d="M24.6 83.8c0 .1.1.2 0 .2l-.2.1v-.3h.2z" class="st2"/><path id="XMLID_488_" d="M138.9 4.4c.1 0 .2 0 .3.1 0 0 0 .2-.1.2h-.4c.1-.1.1-.2.2-.3z" class="st2"/><path id="XMLID_487_" d="M77.1 81.7c0-.1-.1-.1-.1-.2l.1-.1c.1 0 .1.1.2.1-.1.1-.1.2-.2.2z" class="st2"/><path id="XMLID_486_" d="M32.3 81.1c-.1-.2-.1-.4-.2-.7h.2v.7z" class="st2"/><g id="XMLID_461_"><path id="XMLID_484_" d="M114.4 52.2h.3c.1 0 .1-.1.1-.2h-.3c-.1 0-.1.1-.1.2z" class="st2"/><path id="XMLID_483_" d="M81.5 41.7c1 .6 1.1 1.2.3 2.2-.8.9-2.4 1.3-3.3.8-.7-.4-1.1-2.1-.6-2.7.6-.8 2.5-1 3.6-.3z" class="st2"/><path id="XMLID_482_" d="M124.4 67.1c-1.1.3-2.1.5-3.1.7-.6.1-1.3.1-1.5-.6-.2-.5.3-1.2 1.1-1.5.7-.3 1.5-.6 2.4-.9.1.9 1.5 1.1 1.1 2.3z" class="st2"/><path id="XMLID_481_" d="M93.9 68.1c-1 1.3-2.1 2.4-3.7 2.8-1 .3-1.5-.1-1.2-1 .2-.5.5-1.1 1-1.3 1.1-.6 2.4-.6 3.9-.5z" class="st2"/><path id="XMLID_480_" d="M107.2 60c-.7-.4-.9-1.2-.4-1.8.5-.6 1.6-.8 2.3-.4.7.4.8 1.4.3 2-.5.6-1.5.6-2.2.2z" class="st2"/><path id="XMLID_479_" d="M54.5 52.5c-.4-.3-.8-.6-1-.9-.4-.7 0-1.3.8-1.6 1.1-.4 2.1-.2 2.5.5.2.4 0 .8-.4.8-1-.1-1.3.6-1.9 1.2z" class="st2"/><path id="XMLID_478_" d="M61.9 52.8c-.5-.3-.7-1-.3-1.5.5-.6 1.5-.8 2-.4.4.3.5 1.2 0 1.7-.3.4-1.2.6-1.7.2z" class="st2"/><path id="XMLID_477_" d="M94.8 45.1c-.7.1-1.1.2-1.5.1-.5-.1-.6-.7-.2-1.1.4-.4.9-.5 1.2-.2.3.3.3.7.5 1.2z" class="st2"/><path id="XMLID_476_" d="M112.9 22.8c-.7.1-1.2.2-1.6.1-.2 0-.2-.6-.1-.9.2-.4.9-.6 1.3-.3.2.3.2.6.4 1.1z" class="st2"/><path id="XMLID_475_" d="M86.8 18.4c-.7 0-1.2.1-1.5 0-.5-.1-.6-.5-.3-.9s.8-.5 1.2-.2c.3.2.3.6.6 1.1z" class="st2"/><path id="XMLID_474_" d="M71.8 31.6c-.7 0-1.1 0-1.4-.1-.5-.2-.5-.6-.2-1 .3-.3.8-.3 1 0 .3.2.3.5.6 1.1z" class="st2"/><path id="XMLID_473_" d="M99.2 13.4c.7 0 1.1-.1 1.4 0 .2.1.3.5.2.7-.3.4-.8.4-1.2.2-.2-.1-.2-.4-.4-.9z" class="st2"/><path id="XMLID_472_" d="M112.3 61.4c-.3-.8-.1-1.3.6-1.7.4.6.2 1.1-.6 1.7z" class="st2"/><path id="XMLID_471_" d="M110.5 48.3c0-.4-.1-.7 0-.8.1-.1.5-.1.8 0 .1 0 .2.4.1.5-.2.1-.6.1-.9.3z" class="st2"/><path id="XMLID_470_" d="M85.4 58.4h-.8c-.1 0-.1-.4 0-.4.2-.1.5-.1.7-.1 0 0 0 .3.1.5z" class="st2"/><path id="XMLID_469_" d="M95.8 64.8c-.4 0-.6.1-.7 0-.1-.1-.1-.3 0-.4 0-.1.3-.1.4-.1.1.1.2.3.3.5z" class="st2"/><path id="XMLID_468_" d="M87.3 35c0-.2-.1-.3 0-.4.1-.1.2-.1.4-.1 0 0 .1.2 0 .2-.1.1-.2.2-.4.3z" class="st2"/><path id="XMLID_467_" d="M103.9 34.6h-.5c0-.1 0-.2.1-.3 0 0 .2-.1.3 0 0 0 0 .1.1.3z" class="st2"/><path id="XMLID_466_" d="M114.5 68.2c-.2 0-.4.1-.5.1-.1-.1-.1-.2-.1-.3 0-.1.2-.1.3-.2.1 0 .2.2.3.4z" class="st2"/><path id="XMLID_465_" d="M60.6 44.9c-.1 0-.2 0-.2-.1v-.2c.1 0 .2 0 .2.1.1 0 0 .1 0 .2z" class="st2"/><path id="XMLID_464_" d="M118.2 27.9c-.1 0-.2.1-.2.1-.1 0-.1-.1-.1-.2.1 0 .2-.1.2-.1.1.1.1.2.1.2z" class="st2"/><path id="XMLID_463_" d="M77 31.5v-.2h.2v.1c0 .1-.1.1-.2.1z" class="st2"/><path id="XMLID_462_" d="M114.4 52.2V52h.3c0 .1 0 .2-.1.2h-.2z" class="st2"/></g><path id="XMLID_458_" d="M69.7 13.6c.9 1.3.5 2.9-.7 3.5-1.4.7-3.7.3-4.4-.7-.8-1.2-.4-2.8 1-3.5 1.5-.8 3.2-.5 4.1.7zm-2.2.8c-.1 0-.2-.1-.3-.1-.1 0-.1.1-.2.2.1 0 .3.1.4.1 0 0 .1-.1.1-.2z" class="st2"/><path id="XMLID_457_" d="M94.6 39.7c-.8-1.1-.6-1.9.8-2.7 1.3-.8 3.3-.6 4 .3.5.7.1 2.9-.7 3.4-1.1.7-3.2.2-4.1-1z" class="st2"/><path id="XMLID_456_" d="M98.1 3.2c1.8-1.2 3.5-2 5.5-1.9 1.3.1 1.6.6.8 1.6-.4.5-1.1 1.1-1.7 1.2-1.6.2-3.1-.2-4.6-.9z" class="st2"/><path id="XMLID_455_" d="M79.4 7.8c.6.8.4 1.8-.5 2.3-.8.5-2.2.3-2.8-.4-.5-.7-.2-2 .7-2.4.9-.5 2.1-.2 2.6.5z" class="st2"/><path id="XMLID_454_" d="M133.5 35.9c.2.5.5 1 .6 1.4.1.9-.6 1.5-1.7 1.5-1.5 0-2.4-.5-2.5-1.5 0-.5.4-1 .9-.7 1.1.6 1.7-.1 2.7-.7z" class="st2"/><path id="XMLID_453_" d="M125.5 32.9c.4.6.2 1.5-.4 1.9-.8.5-2.1.4-2.4-.2-.3-.5.1-1.6.8-2 .6-.5 1.6-.3 2 .3z" class="st2"/><path id="XMLID_452_" d="M85.4 29.9c.8.2 1.4.1 1.7.4.5.3.2 1.1-.3 1.4-.6.3-1.2.2-1.4-.2-.2-.4 0-.9 0-1.6z" class="st2"/><path id="XMLID_451_" d="M54.3 49.5c.8.2 1.4.2 1.8.5.2.1-.1.8-.3 1.1-.4.4-1.3.3-1.5-.2-.2-.3-.1-.7 0-1.4z" class="st2"/><path id="XMLID_450_" d="M80.8 64.3c.8.2 1.4.3 1.7.5.4.3.4.9-.2 1.2-.5.3-1.2.3-1.4-.2-.3-.3-.1-.8-.1-1.5z" class="st2"/><path id="XMLID_449_" d="M103.9 54.3c.7.3 1.2.3 1.5.6.4.4.3.9-.3 1.2-.5.3-1 .1-1.2-.4-.1-.3 0-.7 0-1.4z" class="st2"/><path id="XMLID_448_" d="M64.6 65.6c-.7-.2-1.3-.3-1.6-.6-.2-.1 0-.8.2-.9.5-.4 1.1-.2 1.4.2.1.3 0 .7 0 1.3z" class="st2"/><path id="XMLID_447_" d="M74.5 4.4c-.1 1.1-.5 1.5-1.5 1.7-.2-.9.3-1.3 1.5-1.7z" class="st2"/><path id="XMLID_446_" d="M69.9 20.5c-.2.4-.2.8-.4.9-.2.1-.7-.1-.9-.2-.1-.1 0-.6.2-.6.2-.2.6-.1 1.1-.1z" class="st2"/><path id="XMLID_445_" d="M102.6 17.7c.4.1.7.2.8.3.1.1-.1.5-.2.5-.3 0-.6 0-.8-.2-.1 0 .1-.3.2-.6z" class="st2"/><path id="XMLID_444_" d="M94.3 6.3c.4.1.7.2.7.3.1.1-.1.4-.2.5 0 .1-.4 0-.5-.1v-.7z" class="st2"/><path id="XMLID_443_" d="M88.6 44.6c-.1.2-.1.4-.2.5-.1.1-.3 0-.4-.1 0 0 0-.2.1-.3.1 0 .2 0 .5-.1z" class="st2"/><path id="XMLID_442_" d="M70.1 39c.2.1.4.1.5.2-.1.1-.1.3-.2.4 0 0-.3 0-.3-.1V39z" class="st2"/><path id="XMLID_441_" d="M75.5-4.5c.3 0 .5 0 .5.1s0 .3-.1.4c-.1.1-.3.1-.4.1v-.6z" class="st2"/><path id="XMLID_440_" d="M123 42.7c.1.1.2.1.2.2s-.1.2-.1.2c-.1-.1-.2-.1-.2-.2-.1 0 0-.1.1-.2z" class="st2"/><path id="XMLID_439_" d="M51 41.6c.1 0 .2-.1.3 0v.2c-.1 0-.2.1-.3 0v-.2z" class="st2"/><path id="XMLID_438_" d="M98.1 52.5c0 .1-.1.2-.1.2-.1 0-.2-.1-.2-.1s0-.1.1-.1c0-.1.1 0 .2 0z" class="st2"/><path id="XMLID_437_" d="M67.5 14.4c0 .1-.1.2-.1.3-.1 0-.3-.1-.4-.1.1-.1.1-.2.2-.2.1-.1.2 0 .3 0z" class="st2"/><path id="XMLID_436_" d="M137.2-5.7c-.6.6-1.4.6-2.1.8-.2.1-.4 0-.5 0-.8-.2-1.6-1.3-1.3-2.1.3-.7.5-1.3 1.3-1.7 1.1-.5 2.4-.3 3.1.4.4.4.4.9.3 1.4 0 .6-.1 1.1-.8 1.2z" class="st2"/><path id="XMLID_435_" d="M131.6 35.9c0-.2-.1-.3-.1-.5.6.1.9.5.8 1-.1.3-.2.7-.4 1-.1.1-.2.3-.4.3-1 .6-1.9.5-2.7-.3-.2-.2-.3-.4-.5-.6.1-.5.4-1 .8-1.4.2-.2.4-.3.7-.4 1-.2 1.1-.2 1.5.7l.1.1c.1.2.2.1.2.1z" class="st2"/><path id="XMLID_433_" d="M149.1 16.8c.2-.2.4-.4.5-.6.3-.5.8-.9 1.6-.9h.9c.4.4.8.7.9 1.3v.2c0 .3 0 .7-.2.8-.4.3-.9.6-1.4.7-1 .3-1.8-.4-2-1-.1-.1-.2-.3-.3-.5z" class="st2"/><path id="XMLID_432_" d="M117 52.2c-.6.2-.6.2-.8-.2 0-.2-.1-.3-.1-.5 0-.5.2-.8.8-1 .2-.1.4-.1.5-.1.5-.1.9 0 1.2.4.2.3.4.4.7.6.2.1.4.3.5.5.3.5 0 1.2-.6 1.4-.8.4-1.6.2-1.9-.3-.1-.4-.2-.6-.3-.8z" class="st2"/><path id="XMLID_429_" d="M157.8 32.1c-.4.1-.7.2-1 .6-.3.4-1.2.5-1.6.3-.5-.3-.7-1-.5-1.4.3-.6.9-.9 1.6-1 .6-.1 1.1.2 1.4.6.3.1.1.5.1.9zm-1.8-.5s0-.1.1-.1c-.2-.1-.3-.1-.6-.3.1.4.2.4.5.4z" class="st2"/><path id="XMLID_428_" d="M136.1 30.1h-1.2c-.5 0-1-.3-1-.7 0-.4 0-.8.2-1.2.2-.4.7-.4 1-.4 1-.1 1.6.6 1.3 1.4 0 .4-.1.6-.3.9z" class="st2"/><path id="XMLID_427_" d="M124.4 10.3c.5-.3.9-.3 1.3-.1.5.2.5.7.5 1.1-.1.4-.5.8-.9.8s-.9-.1-1.2-.3c-.3-.1-.1-.5-.1-.8 0-.2 0-.5.4-.7z" class="st2"/><path id="XMLID_426_" d="M137.1-2.1c-.5.3-1.4.1-1.7-.3-.3-.4 0-1.1.6-1.4.6-.3 1.2-.3 1.6.2.3.5.1 1.2-.5 1.5z" class="st2"/><path id="XMLID_425_" d="M145.7 3.9c-.4.2-.8.2-1.2.1-.1-.1-.3-.2-.3-.3.1-.4.1-.7.3-1.1 0-.1.3-.2.4-.2.2-.1.5-.1.7-.1.3 0 .7.2.7.5 0 .4-.2.8-.6 1.1z" class="st2"/><path id="XMLID_424_" d="M117.9 20.7c-.5.3-1 .3-1.3-.1-.3-.4-.2-1 .2-1.3.5-.3 1.1-.3 1.4.1.4.5.3 1-.3 1.3z" class="st2"/><path id="XMLID_423_" d="M105.9 14.8c-.2-.3-.1-.7.2-.9.4-.2.8-.2 1.1.1.2.3.2.7-.2.9-.3.2-.9.2-1.1-.1z" class="st2"/><path id="XMLID_422_" d="M161.4 35.8c.3-.2.8-.1.9.1.2.2.1.6-.2.7-.3.2-.7.2-.9 0-.2-.2-.1-.7.2-.8z" class="st2"/><path id="XMLID_421_" d="M124.4 40.9c.1.2.1.5-.2.7-.3.2-.7.1-.8-.1-.2-.2-.1-.5.2-.7.2-.2.7-.1.8.1z" class="st2"/><path id="XMLID_420_" d="M99.9 21.2c.1.2 0 .5-.2.6-.3.1-.7.1-.8-.1-.1-.2 0-.4.3-.6.2-.2.5-.1.7.1z" class="st2"/><path id="XMLID_419_" d="M124.4 31.9c.2.2.1.5-.2.7-.2.1-.6.1-.7-.1-.2-.2-.1-.4.2-.6.2-.2.5-.2.7 0z" class="st2"/><path id="XMLID_418_" d="M149.1 34.2c.4-.3.9-.3 1 0 .1.2 0 .3-.2.5-.3.2-.8.2-.9 0 0-.3.1-.5.1-.5z" class="st2"/><path id="XMLID_417_" d="M114.6 28.9c.1.1-.1.6-.3.7-.3.1-.4 0-.6-.2-.2-.2-.1-.5.2-.7.2 0 .6 0 .7.2z" class="st2"/><path id="XMLID_416_" d="M120.4 29.5c-.2.2-.3.5-.5.6-.1.1-.4.1-.6.1-.1 0-.2-.2-.2-.3 0-.2.3-.3.5-.3.2-.1.4-.1.8-.1z" class="st2"/><path id="XMLID_415_" d="M107.8 16.4c-.2.1-.4.1-.6-.1-.1-.2 0-.4.2-.6.2-.1.4-.1.6.1.1.2 0 .4-.2.6z" class="st2"/><path id="XMLID_414_" d="M128.8 9.9c.4-.3.7-.4.9-.1.1.2 0 .4-.2.5-.2.2-.4.1-.7-.4z" class="st2"/><path id="XMLID_413_" d="M123.3 17.5c.3-.4.6-.6 1.3-.5-.5.4-.8.6-1.3.5z" class="st2"/><path id="XMLID_412_" d="M159.8 14c-.3.2-.6.1-.7 0 0-.1 0-.3.1-.4.1-.2.5-.1.6 0 .1.1 0 .3 0 .4z" class="st2"/><path id="XMLID_411_" d="M137.6-.3c-.3-.1-.5-.1-.6-.2-.2-.1-.1-.3.1-.5.2-.1.5-.1.6.1 0 .2 0 .3-.1.6z" class="st2"/><path id="XMLID_410_" d="M134.2 18.7c-.1.3-.2.5-.3.6-.2.1-.4.1-.5 0-.1-.2-.1-.4.1-.5.1-.1.3-.1.7-.1z" class="st2"/><path id="XMLID_409_" d="M160 30.4c.3.1.5.1.6.2.2.1.1.3-.1.5-.2.1-.4.1-.5-.1-.1-.2 0-.4 0-.6z" class="st2"/><path id="XMLID_408_" d="M104.1 25.2c-.1.3-.1.4-.2.6-.1.1-.4.1-.5-.1-.1-.2-.1-.4.2-.5h.5z" class="st2"/><path id="XMLID_407_" d="M155.9 34.3c-.3.2-.6.2-.7.1 0-.1 0-.2.1-.3.2-.2.6-.2.7 0l-.1.2z" class="st2"/><path id="XMLID_406_" d="M137.7 25.9c.2.1.4.1.5.1.1.1.1.3-.1.4-.1 0-.4 0-.5-.1 0 0 .1-.2.1-.4z" class="st2"/><path id="XMLID_405_" d="M138 37c.2 0 .4.1.4.1 0 .1 0 .3-.1.4-.1.1-.3 0-.5 0 .1-.2.2-.3.2-.5z" class="st2"/><path id="XMLID_404_" d="M124.5 25.5c.3 0 .5 0 .5.1s0 .3-.1.4h-.4c-.1-.2 0-.3 0-.5z" class="st2"/><path id="XMLID_403_" d="M146.4-6.6c.2.1.4.1.4.1 0 .1 0 .2-.1.3h-.3v-.4z" class="st2"/><path id="XMLID_402_" d="M118 10.5l-.4.4s-.2 0-.3-.1c.1-.1.1-.3.2-.4.1 0 .3 0 .5.1z" class="st2"/><path id="XMLID_401_" d="M106.7 31c-.1.3-.4.4-.7.3 0 0-.1-.1-.1-.2.2-.2.5-.2.8-.1z" class="st2"/><path id="XMLID_400_" d="M106.9 32.9c-.2 0-.4 0-.4-.1v-.4h.4c.1.1 0 .3 0 .5z" class="st2"/><path id="XMLID_399_" d="M128.1 10.5c.2 0 .3 0 .4.1 0 .1 0 .2-.1.3-.1 0-.3 0-.4-.1 0 0 .1-.2.1-.3z" class="st2"/><path id="XMLID_398_" d="M131.4 29.5c-.1.1-.1.3-.2.3h-.4c0-.1 0-.3.1-.3h.5z" class="st2"/><path id="XMLID_397_" d="M144.8 10.8c0 .2-.1.4-.3.4-.1 0-.2-.1-.1-.2 0-.2.2-.2.4-.2z" class="st2"/><path id="XMLID_396_" d="M121.8 49.6c-.1.1-.1.2-.2.3h-.3c0-.1 0-.2.1-.2.1-.2.2-.1.4-.1z" class="st2"/><path id="XMLID_395_" d="M120.1 42.8c-.2 0-.3 0-.4-.1v-.2c.1 0 .3-.1.3 0 .2 0 .1.1.1.3z" class="st2"/><path id="XMLID_394_" d="M136.6 3.6h-.7c.4-.3.4-.3.7 0z" class="st2"/><path id="XMLID_393_" d="M156.4 19.5c-.1.1-.1.3-.2.3s-.2 0-.3-.1c0 0 0-.2.1-.2.1-.1.2 0 .4 0z" class="st2"/><path id="XMLID_392_" d="M126 37.6c-.2.1-.4.2-.7.3v-.1c.2-.1.4-.3.6-.4 0 .1.1.2.1.2z" class="st2"/><path id="XMLID_391_" d="M146.6 29.6c-.1.1-.1.2-.1.3h-.3c0-.1 0-.2.1-.2 0-.1.1 0 .3-.1z" class="st2"/><path id="XMLID_390_" d="M120.1 41.6l-.3-.3c.1-.1.2-.1.3.3z" class="st2"/><path id="XMLID_389_" d="M113.5 33.6c-.3.4-.3.4-.6.2.2-.1.3-.1.6-.2z" class="st2"/><path id="XMLID_388_" d="M135.3 8.3c-.1 0-.3 0-.3-.1V8h.2c.1 0 .1.1.1.3z" class="st2"/><path id="XMLID_387_" d="M125.8 2.4h-.7c.4-.1.4-.1.7 0z" class="st2"/><path id="XMLID_386_" d="M105.3 13.3c0 .1-.1.2-.1.2h-.3c0-.1 0-.1.1-.2s.2 0 .3 0z" class="st2"/><path id="XMLID_385_" d="M164.7 36.1c.1 0 .2.1.2.1l-.1.1h-.2c.1-.1.1-.1.1-.2z" class="st2"/><path id="XMLID_384_" d="M127.6 50.1c0 .1 0 .2-.1.2h-.3v-.2h.4z" class="st2"/><path id="XMLID_383_" d="M132.2 2.5h-.3c0-.1 0-.1.1-.2h.2c.1 0 0 .1 0 .2z" class="st2"/><path id="XMLID_382_" d="M117.5 34.3c.1 0 .2.1.2.1v.2h-.2v-.2c-.1 0 0 0 0-.1z" class="st2"/><path id="XMLID_381_" d="M149.6 8.9c-.1.1-.1.2-.2.2h-.2s0-.1.1-.1c.1-.1.2-.1.3-.1z" class="st2"/><path id="XMLID_380_" d="M148.2 6.4c.1 0 .3.1.4.1v.1h-.4v-.2z" class="st2"/><path id="XMLID_379_" d="M122.1 6.6c-.1.2-.1.2-.2.3 0 0-.1 0-.1-.1v-.1c.1 0 .2 0 .3-.1z" class="st2"/><path id="XMLID_378_" d="M156 31.6c-.2 0-.4 0-.6-.4.3.1.5.2.6.3v.1z" class="st2"/></g></mask><g mask="url(#SVGID_1_)"><path d="M112.5 149.6c29.6-12.9 46.1-43.4 42.7-73.9l-2.7 1.2c2.8 29-13 57.8-41.1 70.1-28.2 12.3-60.1 4.4-79.4-17.4l-2.7 1.2c20 23.2 53.6 31.7 83.2 18.8zM8.2 92.6c-3.9-32.4 13.6-64.8 45-78.5 31.4-13.7 67-4.5 88.2 20.3l4.9-2.2c-1-1.2-1.6-2.6-1.8-3.9-.2-2.7-2.6-5.1-5.3-5.4-2.7-.3-5.5-2.6-6.3-5.2-.7-2.6-3.6-4.5-6.3-4.3-2.7.3-5.9-1.5-7.1-3.9-1.2-2.4-4.4-3.8-6.9-3-2.6.8-6.1-.4-7.7-2.5-1.7-2.1-5-2.9-7.4-1.6-2.4 1.2-6 .8-8.1-1-2-1.8-5.4-1.9-7.6-.2-2.1 1.7-5.8 1.9-8.1.6C71.4.4 68 1 66.2 3c-1.8 2-5.3 3-7.9 2.1-2.6-.9-5.7.3-7.1 2.6-1.2 2.3-4.5 3.9-7.2 3.5-2.7-.4-5.6 1.4-6.5 3.9-.9 2.6-3.8 4.7-6.5 4.9-2.7.1-5.2 2.4-5.6 5.1-.4 2.7-2.9 5.4-5.5 6-2.6.6-4.7 3.3-4.5 6 .1 2.7-1.8 5.8-4.3 6.9-2.5 1.1-4 4.2-3.3 6.8.6 2.6-.6 6.1-2.9 7.6-2.2 1.6-3.1 4.8-2 7.3s.5 6.1-1.4 8C-.4 75.6-.6 79 .9 81.2c1.6 2.2 1.7 5.9.2 8.1-1.1 2-1.1 4.5 0 6.4l7.1-3.1zm156-20.8l-5.3 2.3c4.1 32.6-13.3 65.3-44.9 79.1-31.6 13.8-67.5 4.4-88.6-20.7l-7.4 3.2c.8 1.6 2.4 2.8 4.1 3.2 2.7.5 5.2 3.1 5.7 5.8.5 2.7 3.1 4.8 5.8 4.8 2.7 0 5.7 2.1 6.7 4.6 1 2.5 4 4.2 6.6 3.6 2.7-.5 6 .9 7.5 3.2 1.4 2.3 4.7 3.3 7.2 2.3s6.1-.2 7.9 1.7c1.9 2 5.2 2.4 7.5.9s5.9-1.4 8.1.2c2.2 1.6 5.6 1.4 7.5-.5 2-1.9 5.6-2.5 8-1.3 2.5 1.1 5.7.3 7.3-1.9 1.6-2.2 5-3.5 7.6-2.8 2.6.7 5.7-.8 6.8-3.3 1.1-2.5 4.2-4.4 7-4.2 2.7.1 5.4-1.9 6.1-4.5.6-2.6 3.3-5.1 6-5.5 2.7-.4 5-2.9 5.1-5.6.1-2.7 2.3-5.6 4.9-6.5 2.6-.9 4.3-3.8 4-6.5-.4-2.7 1.2-6 3.6-7.3 2.4-1.3 3.6-4.5 2.7-7.1-.9-2.6.1-6.1 2.1-7.8 2.1-1.8 2.6-5.1 1.3-7.5-1.4-2.3-1.1-6 .6-8.1 1.7-2.1 1.6-5.5-.2-7.6-1.1-1.5-1.7-4.1-1.3-6.2zM55.9 20.2c28-12.2 59.6-4.5 79 16.9l2.7-1.2C117.4 13.2 84.1 4.8 54.8 17.7 25.4 30.5 8.9 60.7 12 90.9l2.7-1.2C12.1 61 27.9 32.5 55.9 20.2z" class="st4"/><path d="M76.8 53.6l-5.2-.6-3 4.2-1-5.1-5-1.6 4.6-2.5v-5.2l3.8 3.5 4.9-1.6-2.2 4.7zm11.9-5.2l-3.8-.5-2.2 3.1-.7-3.7-3.6-1.2 3.3-1.8v-3.8l2.8 2.6 3.6-1.2-1.6 3.4zM62.3 60l-3.8-.5-2.2 3.1-.8-3.7-3.6-1.2 3.3-1.8v-3.8l2.8 2.6 3.6-1.2-1.6 3.4zm29.8 52l5.1.7 3.1-4.3 1 5.1 5 1.6-4.6 2.6v5.2l-3.8-3.6-4.9 1.6 2.2-4.7zm-11.9 5.2l3.7.5 2.3-3.1.7 3.7 3.6 1.2-3.3 1.8v3.8l-2.8-2.6-3.6 1.2 1.6-3.4zm26.4-11.5l3.8.4 2.2-3.1.7 3.8 3.6 1.1-3.3 1.9v3.8l-2.7-2.6-3.6 1.2 1.6-3.5zM.755 95.316L146.15 31.712l1.002 2.29L1.757 97.606zm16.98 38.802l145.397-63.604 1.002 2.29L18.737 136.41zM43.4 119l-5.6 2.5-11.1-25.3-5.8 2.5-2.2-5L36 86.2l2.2 5-5.8 2.5 11 25.3zm23.8-10.4l-13.6 6-13.3-30.3 13.6-6 2.1 4.9-8 3.5 3.2 7.2 7.4-3.3 2.1 4.9-7.4 3.3 3.7 8.4 8-3.5 2.2 4.9zm15.6-16.7c1.2 2.8 1.5 5.3.7 7.4-.8 2.1-2.5 3.8-5.2 5-2.6 1.2-5.1 1.6-7.4 1.4l-2.4-5.6c2.9.5 5.3.3 7.2-.5 1.1-.5 1.8-1.1 2-2 .3-.8.2-1.8-.2-2.8-.4-1-1.2-1.8-2.2-2.3-1-.6-2.5-1-4.4-1.4-1.7-.3-3-.8-4.1-1.3-1-.5-2-1.2-2.8-2.1-.8-.9-1.5-2-2.1-3.3-1.1-2.6-1.3-5-.5-7.1.8-2.2 2.4-3.8 4.8-4.8 2.3-1 4.8-1.3 7.5-1l.1 5.3c-.8-.1-1.7-.1-2.5-.1-.9 0-1.7.2-2.5.6-.9.4-1.5 1-1.7 1.8-.2.8-.1 1.7.3 2.8.4 1 1.1 1.8 2 2.3.9.5 2.3.9 4.2 1.2 2.6.5 4.5 1.2 5.9 2.3 1.4 1 2.5 2.4 3.3 4.2zm17.7 2.1l-5.6 2.5-11.1-25.3-5.8 2.5-2.2-5L93 61.2l2.2 5-5.8 2.5L100.5 94zm23.8-10.3l-13.6 6-13.3-30.4 13.6-6 2.1 4.9-8 3.5 3.2 7.2 7.4-3.3 2.1 4.9-7.4 3.3 3.7 8.4 8-3.5 2.2 5zm17.9-26.3c2.2 5 2.8 9.3 2 12.8-.9 3.5-3.2 6.1-7.1 7.8l-7.4 3.2L116.5 51l8.1-3.5c3.5-1.5 6.8-1.4 9.9.3 3.1 1.7 5.7 4.9 7.7 9.6zm-5.7 2.7c-3-6.8-6.3-9.3-10-7.7l-2.3 1 9 20.5 1.8-.8c2.1-.9 3.2-2.4 3.4-4.6.3-2.1-.4-4.9-1.9-8.4zm-97.4.5L38 63.1l-2-.4-1.4 3.1 1.6 1.2-1.1 2.5L25 61l1.1-2.5 13 2.1zM34 62.2L28.5 61l4.6 3.4.9-2.2zM30.3 51l2.1-2.9c1.6-2.2 3.5-2.6 5.7-1 1 .7 1.5 1.5 1.6 2.5.1 1-.2 2-1 3l-.5.6 4 3-1.6 2.2L30.3 51zm6.2 1.2l.3-.4c.3-.4.4-.8.3-1.2-.1-.4-.4-.8-.8-1.1-1-.7-1.8-.7-2.4.1l-.3.4 2.9 2.2zm1.9-11.1l2.7-2.4c2.1-1.8 4-1.8 5.8.2.8.9 1.1 1.8 1 2.8-.1 1-.6 1.9-1.6 2.8l-.7.5 3.3 3.7-2.1 1.9-8.4-9.5zm5.9 2.4l.4-.4c.4-.3.5-.7.5-1.1 0-.4-.2-.8-.6-1.3-.8-.9-1.6-1.1-2.3-.4l-.5.4 2.5 2.8zm17.3-3.4l-2.4 1.4-5-4.4 3.1 5.5-2.5 1.4-6.3-11 3.1-1.8c.6-.4 1.3-.6 2.1-.7.8-.1 1.4 0 2 .4.6.4 1 .8 1.3 1.4.4.7.6 1.3.5 1.9 0 .6-.3 1.3-.7 2l4.8 3.9zm-7.9-3.6c.8-.4 1.2-.9 1.2-1.3s-.1-.9-.4-1.3c-.6-1.1-1.3-1.3-2.2-.8l-.5.3 1.9 3.1zm7.9-3.4c-.5-1.7-.7-3-.6-3.9.1-.9.4-1.7.9-2.3.5-.6 1.2-1.1 2.1-1.4.8-.2 1.4-.3 2-.2.6.1 1.1.3 1.7.7.6.4 1 .9 1.5 1.5.4.7.8 1.6 1.2 2.8.8 2.4.9 4.3.4 5.4-.5 1.2-1.4 2-2.7 2.4-1.3.4-2.5.3-3.6-.5-1.3-.6-2.2-2.2-2.9-4.5zm2.5-1.6l.2.8c.4 1.3.7 2.1.9 2.5.2.4.5.6.8.8.3.1.7.2 1.1 0 .3-.1.6-.3.7-.6.2-.3.3-.7.2-1.2 0-.5-.2-1.3-.6-2.5-.3-1.1-.6-1.8-.8-2.2-.2-.4-.5-.7-.9-.9-.4-.2-.7-.2-1.1-.1-.6.2-.9.5-1 1.1.1.5.2 1.3.5 2.3zM80 23l2.8-.2-2.6 13-2.6.2L73 23.6l2.9-.2 2.7 8L80 23zm12.5 13.5l-6.3-.8 1.7-12.6 5.9.8-.3 2.4-3.2-.4-.3 2.6 2.7.4-.3 2.3-2.7-.4-.4 2.8 3.6.5-.4 2.4zm7-11.3l2.9 1c1.6.6 2.7 1.5 3.3 2.9.6 1.4.5 3-.1 4.9-.7 1.9-1.7 3.3-3 4-1.3.7-2.8.8-4.5.2l-2.8-1 4.2-12zm1.8 3l-2.7 7.7.3.1c.5.2 1.1.2 1.8-.1.7-.2 1.3-1.1 1.9-2.7.4-1.2.6-2.1.6-2.6 0-.6-.2-1.1-.5-1.4-.3-.4-.7-.7-1.1-.8l-.3-.2zM66.1 143.6l-2.5-1 .3-2-3.1-1.2-1.2 1.7-2.5-1 8-10.5 2.6 1-1.6 13zm-1.8-5l1-5.6-3.2 4.7 2.2.9zm8.7-6.4l3.5.5c2.7.4 3.9 1.9 3.5 4.6-.2 1.2-.7 2-1.5 2.6-.8.5-1.9.7-3.2.5l-.8-.1-.7 5-2.7-.4 1.9-12.7zm1.9 6.1l.5.1c.5.1.9 0 1.2-.3.3-.3.5-.7.6-1.3.2-1.2-.2-1.9-1.2-2.1l-.6-.1-.5 3.7zm8-5l3.6-.2c2.8-.2 4.2 1 4.4 3.7.1 1.2-.2 2.1-.9 2.8-.7.7-1.7 1.1-3 1.2l-.8.1.3 5-2.8.2-.8-12.8zm3.2 5.5h.5c.5 0 .9-.2 1.1-.5.2-.3.3-.8.3-1.3-.1-1.3-.6-1.8-1.6-1.8h-.6l.3 3.6zm18 3.4l-2.7.8-3.9-5.4 1.8 6-2.6.8-3.7-12.1 3.4-1c.7-.2 1.4-.3 2.2-.2.8.1 1.4.4 1.8.8.5.5.8 1.1 1 1.7.2.8.2 1.4.1 2-.2.6-.6 1.2-1.2 1.8l3.8 4.8zm-6.9-5.2c.9-.3 1.3-.6 1.5-1 .1-.4.1-.9 0-1.4-.3-1.2-1-1.6-1.9-1.3l-.5.2.9 3.5zm8.1-2.2c-.9-1.6-1.4-2.8-1.4-3.7-.1-.9.1-1.7.4-2.5.3-.7.9-1.3 1.8-1.8.7-.4 1.3-.6 1.9-.6.6 0 1.2.1 1.8.3.6.2 1.2.6 1.7 1.2s1.1 1.4 1.7 2.5c1.3 2.2 1.8 4 1.5 5.2-.3 1.3-1 2.2-2.2 2.9-1.2.7-2.4.8-3.6.3-1.2-.4-2.4-1.7-3.6-3.8zm2.1-2.1l.4.7c.7 1.2 1.1 1.9 1.4 2.2.3.3.6.5 1 .6.4.1.7 0 1.1-.2.3-.2.5-.4.6-.8.1-.3.1-.7 0-1.2s-.5-1.3-1.1-2.3c-.5-1-1-1.6-1.3-2s-.7-.6-1-.7c-.4-.1-.8-.1-1.1.1-.5.3-.8.7-.7 1.3-.1.6.2 1.3.7 2.3zm9.1-13.6l2-1.9 6.1 11.7-1.9 1.8-11.3-6.8 2.1-2 7.1 4.6-4.1-7.4zm17.4-1.8l-3.6 5.2-10.5-7.2 3.4-4.9 2 1.4-1.8 2.7 2.1 1.5 1.6-2.3 1.9 1.3-1.6 2.3 2.3 1.6 2-3 2.2 1.4zm-9.2-9.5l1.1-2.8c.6-1.6 1.7-2.6 3-3.1 1.4-.5 3-.4 4.9.4 1.9.8 3.2 1.8 3.8 3.1.7 1.3.6 2.8 0 4.5l-1.1 2.7-11.7-4.8zm3.2-1.7l7.5 3.1.1-.3c.2-.5.2-1.1 0-1.8s-1.1-1.4-2.6-2c-1.2-.5-2-.7-2.6-.7-.6 0-1.1.2-1.5.5-.4.3-.7.7-.9 1.1v.1z" class="st4"/></g></svg>