<svg xmlns="http://www.w3.org/2000/svg" viewBox="0 0 190.156 190.156"><path fill="#2eb398" d="M189.28 17.607a2.716 2.716 0 00-.423-.982c-9.77-14.361-34.27-13.585-49.508-13.762-1.531-.018-2.278 1.567-1.946 2.783-1.36.37-2.642.867-3.744 1.632-15.664 10.874-23.13 33.706-30.526 50.352-7.081 15.937-15.087 31.394-21.974 47.423-2.927 6.812-10.756 20.566-11.987 31.024-13.63-24.964-26.279-50.331-38.457-76.064-.641-1.355-2.105-1.521-3.264-1-3.022-1.761-6.932-.388-10.134.419-4.364 1.101-8.917 2.397-12.992 4.34a2.609 2.609 0 00-1.277 1.252c-1.467-.627-3.478.628-2.966 2.51 10.971 40.352 41.381 74.327 57.006 113.101.567 1.408 1.742 2.08 2.96 2.237.29.592.788 1.071 1.557 1.244 5.749 1.292 11.503 1.977 17.374 2.447 5.133.411 11.125 1.452 16.1-.074 1.716-.526 2.41-2.135 2.152-3.584.405-.076.833-.314 1.279-.806.516-.565-.007-1.291-.693-1.191 4.101-.591 7.852-18.662 9.001-21.8 3.677-10.038 7.715-19.947 11.753-29.845 2.336-5.725 4.956-11.391 7.767-17.003 1.098-1.959 2.116-3.979 3.104-6.024 16.025-30.111 37.997-58.36 59.695-83.453 1.473-1.701 1.196-3.752.143-5.176zM24.337 66.576c-.232-.435-.449-.881-.674-1.321 1.093-.265 2.162-.583 3.102-1.096.18.505.387.999.569 1.502-1.04-.154-2.183.196-2.997.915zm16.707 33.571c-.204-.285-.388-.582-.595-.867-.034-.047-.081-.062-.117-.106a117.42 117.42 0 00-1.698-6.223l.029-.051a428.205 428.205 0 003.122 6.612c-.276.17-.51.403-.741.635zm44.473 79.65c.529-.749.658-1.744.45-2.663a24.403 24.403 0 001.885-1.519c-.113.469-.253.926-.364 1.396-.269 1.143.038 2.042.597 2.7-.856.013-1.712.048-2.568.086zm21.401-42.136a159.442 159.442 0 01-2.391 5.668c.053-.418.104-.838.148-1.261 1.054-2.789 2.192-5.557 3.33-8.324.241-.175.493-.338.73-.515-.609 1.477-1.231 2.946-1.817 4.432zm19.972-41.568c-3.541 6.27-6.913 12.627-10.061 19.089a63.801 63.801 0 01-3.1 4.104c4.305-8.278 9.013-16.344 13.673-24.43-.168.414-.341.825-.512 1.237zm24.501-74.284c.247-.431.494-.862.763-1.288a56.967 56.967 0 003.228-4.427c.115-.001.228-.013.343-.012.672.185 1.343.371 2.016.581a3.142 3.142 0 00-1.988.926 246.66 246.66 0 01-4.362 4.22z"/></svg>