<svg xmlns="http://www.w3.org/2000/svg" viewBox="0 0 755 606.4">
  <style>
    .st1{opacity:.16;fill:#020203}
  </style>
  <path fill="#444345" d="M754.8 576.9c0-11.7-8.1-21.4-19-24 .5-2.1.7-4.4.6-6.8-.2-3.8-1.6-7.6-3.4-10.9-4.7-8.7-13.6-14.2-21.9-19.5-8.9-5.7-17.9-11.9-24.1-20.4-11.8-16.4-2.1-34.6-8.8-52.1-4.8-12.5-12.4-15.9-22.3-17.3l-1.1-9.8c28 .7 49.1.5 51.2-1.5 1.8-1.7 3.6-14.6 4.1-34.6l35.9-8.2c11.4-2.7-7.1-128.4-9.7-139.8-12.6-56.5-44.5-105.1-88.7-139.3-20.4-15.8-43.4-28.5-68.4-37.5-3.3-1.2-24.6-3-25.6-4.2L517 1.7c-1.9-2.6-6.3-1.8-6.4 1.1l-1.8 55.8c-46.8 12.3-78.7 33.5-78.7 33.5s3.6 7.9 12 26.3-42.3 102.3-42.3 102.3l36 51.1s31.9.3 34.2-15.6c2.3-15.9 12.2-28.9 12.2-28.9l90.4-17.9-2.6 15.1-90.5 133c-1.3 1.9-1.5 4.4-.6 6.5l18 41.1c1 2.3 3.3 3.9 5.8 4 7.6.4 25.1 1.4 46.9 2.5l-1.1 12.2c-9.6 1.7-17.7 6.3-21.9 17.3-6.7 17.5 3.1 35.7-8.6 52.1-6.2 8.6-15.1 14.8-24 20.5-8.3 5.4-17.2 10.9-21.9 19.6-3.9 7.4-4.6 14-3 19.8-11 2.5-19.2 12.4-19.2 24.1v.5c0 13.7 11.1 24.7 24.8 24.7l255.4-.4c13.7 0 24.7-11.1 24.7-24.8v-.3z"/>
  <path d="M549.6 411.7l105.1 4.2 1.1 9.9-106.2-10.6zM710 379.9c2.4-.5-5.6-61.5-6.5-67.6-3.2-23.1-7.7-46-14.4-68.3-13.8-45.6-37-89.6-74.9-119.4-26.3-20.7-59.5-38.9-94.1-38.5 26-.3 53.3 3 78 11 44.1 14.3 73.7 56.4 94.3 95.6 19.3 36.6 31.7 76.8 36.2 118 .5 4.7 7.9 62.8 4.9 63.9 0-.1-23.5 5.3-23.5 5.3z" class="st1"/>
  <g>
    <path fill="none" stroke="#6e6f72" stroke-miterlimit="10" stroke-width=".359" d="M513.8.2c1.2 0 2.4.5 3.2 1.6l36.6 49.1c.9 1.3 22.2 3 25.6 4.2 25 9 48 21.7 68.4 37.5 44.2 34.2 76.1 82.8 88.7 139.3 2.5 11.4 21.1 137 9.7 139.8 0 0-5.6 1.3-12.4 2.8h-.1-.1c-.2 0-.5.1-.9.2-.3.1-.5.1-.8.2-.2 0-.3.1-.5.1-.1 0-.2 0-.3.1-.5.1-1 .2-1.6.4-1.3.3-2.7.6-4 .9-.2 0-.4.1-.6.1-1.2.3-2.5.6-3.6.8-.2.1-.5.1-.7.2-.5.1-1 .2-1.5.4-.1 0-.3.1-.4.1-.3.1-.6.1-.8.2-4.4 1-7.4 1.7-7.4 1.7-.5 20-2.3 32.9-4.1 34.6-1.4 1.3-11.3 1.8-26 1.8-7.3 0-15.8-.1-25.1-.3l1.1 9.8c9.9 1.4 17.5 4.8 22.3 17.3 6.7 17.5-3 35.7 8.8 52.1 6.2 8.6 15.1 14.7 24.1 20.4 8.4 5.3 17.3 10.8 21.9 19.5 1.8 3.4 3.2 7.1 3.4 10.9.2 2.4 0 4.7-.6 6.8 10.9 2.6 19 12.3 19 24v.5c0 13.7-11 24.8-24.7 24.8l-255.4.4c-13.6 0-24.7-11.1-24.7-24.7v-.5c0-11.8 8.2-21.6 19.2-24.1-1.7-5.8-1-12.4 3-19.8 4.6-8.7 13.5-14.3 21.9-19.6 8.9-5.7 17.8-11.9 24-20.5 11.7-16.4 1.9-34.6 8.6-52.1 4.2-11 12.3-15.6 21.9-17.3l1.1-12.2c-21.7-1.1-39.2-2.1-46.9-2.5-2.5-.1-4.8-1.7-5.8-4l-18-41.1c-.9-2.1-.7-4.6.6-6.5l90.5-133 2.6-15.1-90.4 17.9s-9.9 13-12.2 28.9c-2.2 15.4-32.3 15.6-34.1 15.6h-.1l-36-51.1s50.7-83.9 42.3-102.3c-8.4-18.4-12-26.3-12-26.3s31.9-21.2 78.7-33.5L511 2.9c-.3-1.7 1.2-2.7 2.8-2.7"/>
  </g>
  <g>
    <g stroke="#000" stroke-miterlimit="10">
      <path fill="#fcfaf5" d="M0 580.7c0-11.7 8.1-21.4 19-24-.5-2.1-.7-4.4-.6-6.8.2-3.8 1.6-7.6 3.4-10.9 4.7-8.7 13.6-14.2 21.9-19.5 8.9-5.7 17.9-11.9 24.1-20.4 11.8-16.4 2.1-34.6 8.8-52.1 4.8-12.5 12.4-15.9 22.3-17.3l1.1-9.8c-28 .7-49.1.5-51.2-1.5-1.8-1.7-3.6-14.6-4.1-34.6l-35.9-8.2c-11.4-2.7 7.1-128.4 9.7-139.8C31.1 179.2 63 130.6 107.2 96.4c20.4-15.8 43.4-28.5 68.4-37.5 3.3-1.2 24.6-3 25.6-4.2l36.6-49.1c1.9-2.6 6.3-1.8 6.4 1.1l1.8 55.8C292.7 74.8 324.6 96 324.6 96s-3.6 7.9-12 26.3 42.3 102.3 42.3 102.3l-36 51.1s-31.9.3-34.2-15.6c-2.3-15.9-12.2-28.9-12.2-28.9l-90.4-17.9 2.6 15.1 90.5 133c1.3 1.9 1.5 4.4.6 6.5l-18 41.1c-1 2.3-3.3 3.9-5.8 4-7.6.4-25.1 1.4-46.9 2.5l1.1 12.2c9.6 1.7 17.7 6.3 21.9 17.3 6.7 17.5-3.1 35.7 8.6 52.1 6.2 8.6 15.1 14.8 24 20.5 8.3 5.4 17.2 10.9 21.9 19.6 3.9 7.4 4.6 14 3 19.8 11 2.5 19.2 12.4 19.2 24.1v.5c0 13.7-11.1 24.7-24.8 24.7L24.7 606C11 606 0 594.9 0 581.2v-.5z"/>
      <path fill="#8c8f91" d="M205.2 415.5L100 419.7l-1 9.9L205.2 419z" opacity=".16"/>
      <path fill="#8c8f91" d="M44.8 383.7c-2.4-.5 5.6-61.5 6.5-67.6 3.2-23.1 7.7-46 14.4-68.3 13.8-45.6 37-89.6 74.9-119.4 26.3-20.7 59.5-38.9 94.1-38.5-26-.3-53.3 3-78 11-44.1 14.3-73.7 56.4-94.3 95.6-19.3 36.6-31.7 76.8-36.2 118-.5 4.7-7.9 62.8-4.9 63.9 0-.1 23.5 5.3 23.5 5.3z" opacity=".1"/>
    </g>
  </g>
</svg>
